<?xml version="1.0" encoding="utf-8" standalone="no"?>
<!DOCTYPE svg PUBLIC "-//W3C//DTD SVG 1.1//EN"
  "http://www.w3.org/Graphics/SVG/1.1/DTD/svg11.dtd">
<!-- Created with matplotlib (http://matplotlib.org/) -->
<svg height="345.6pt" version="1.1" viewBox="0 0 460.8 345.6" width="460.8pt" xmlns="http://www.w3.org/2000/svg" xmlns:xlink="http://www.w3.org/1999/xlink">
 <defs>
  <style type="text/css">
*{stroke-linecap:butt;stroke-linejoin:round;}
  </style>
 </defs>
 <g id="figure_1">
  <g id="patch_1">
   <path d="M 0 345.6 
L 460.8 345.6 
L 460.8 0 
L 0 0 
z
" style="fill:#ffffff;"/>
  </g>
  <g id="axes_1">
   <g id="patch_2">
    <path d="M 57.6 307.584 
L 414.72 307.584 
L 414.72 41.472 
L 57.6 41.472 
z
" style="fill:#ffffff;"/>
   </g>
   <g id="matplotlib.axis_1">
    <g id="xtick_1">
     <g id="line2d_1">
      <defs>
       <path d="M 0 0 
L 0 3.5 
" id="m572866b408" style="stroke:#000000;stroke-width:0.8;"/>
      </defs>
      <g>
       <use style="stroke:#000000;stroke-width:0.8;" x="73.607273" xlink:href="#m572866b408" y="307.584"/>
      </g>
     </g>
     <g id="text_1">
      <!-- 0 -->
      <defs>
       <path d="M 31.78125 66.40625 
Q 24.171875 66.40625 20.328125 58.90625 
Q 16.5 51.421875 16.5 36.375 
Q 16.5 21.390625 20.328125 13.890625 
Q 24.171875 6.390625 31.78125 6.390625 
Q 39.453125 6.390625 43.28125 13.890625 
Q 47.125 21.390625 47.125 36.375 
Q 47.125 51.421875 43.28125 58.90625 
Q 39.453125 66.40625 31.78125 66.40625 
z
M 31.78125 74.21875 
Q 44.046875 74.21875 50.515625 64.515625 
Q 56.984375 54.828125 56.984375 36.375 
Q 56.984375 17.96875 50.515625 8.265625 
Q 44.046875 -1.421875 31.78125 -1.421875 
Q 19.53125 -1.421875 13.0625 8.265625 
Q 6.59375 17.96875 6.59375 36.375 
Q 6.59375 54.828125 13.0625 64.515625 
Q 19.53125 74.21875 31.78125 74.21875 
z
" id="DejaVuSans-30"/>
      </defs>
      <g transform="translate(70.426023 322.182437)scale(0.1 -0.1)">
       <use xlink:href="#DejaVuSans-30"/>
      </g>
     </g>
    </g>
    <g id="xtick_2">
     <g id="line2d_2">
      <g>
       <use style="stroke:#000000;stroke-width:0.8;" x="118.698182" xlink:href="#m572866b408" y="307.584"/>
      </g>
     </g>
     <g id="text_2">
      <!-- 200 -->
      <defs>
       <path d="M 19.1875 8.296875 
L 53.609375 8.296875 
L 53.609375 0 
L 7.328125 0 
L 7.328125 8.296875 
Q 12.9375 14.109375 22.625 23.890625 
Q 32.328125 33.6875 34.8125 36.53125 
Q 39.546875 41.84375 41.421875 45.53125 
Q 43.3125 49.21875 43.3125 52.78125 
Q 43.3125 58.59375 39.234375 62.25 
Q 35.15625 65.921875 28.609375 65.921875 
Q 23.96875 65.921875 18.8125 64.3125 
Q 13.671875 62.703125 7.8125 59.421875 
L 7.8125 69.390625 
Q 13.765625 71.78125 18.9375 73 
Q 24.125 74.21875 28.421875 74.21875 
Q 39.75 74.21875 46.484375 68.546875 
Q 53.21875 62.890625 53.21875 53.421875 
Q 53.21875 48.921875 51.53125 44.890625 
Q 49.859375 40.875 45.40625 35.40625 
Q 44.1875 33.984375 37.640625 27.21875 
Q 31.109375 20.453125 19.1875 8.296875 
z
" id="DejaVuSans-32"/>
      </defs>
      <g transform="translate(109.154432 322.182437)scale(0.1 -0.1)">
       <use xlink:href="#DejaVuSans-32"/>
       <use x="63.623047" xlink:href="#DejaVuSans-30"/>
       <use x="127.246094" xlink:href="#DejaVuSans-30"/>
      </g>
     </g>
    </g>
    <g id="xtick_3">
     <g id="line2d_3">
      <g>
       <use style="stroke:#000000;stroke-width:0.8;" x="163.789091" xlink:href="#m572866b408" y="307.584"/>
      </g>
     </g>
     <g id="text_3">
      <!-- 400 -->
      <defs>
       <path d="M 37.796875 64.3125 
L 12.890625 25.390625 
L 37.796875 25.390625 
z
M 35.203125 72.90625 
L 47.609375 72.90625 
L 47.609375 25.390625 
L 58.015625 25.390625 
L 58.015625 17.1875 
L 47.609375 17.1875 
L 47.609375 0 
L 37.796875 0 
L 37.796875 17.1875 
L 4.890625 17.1875 
L 4.890625 26.703125 
z
" id="DejaVuSans-34"/>
      </defs>
      <g transform="translate(154.245341 322.182437)scale(0.1 -0.1)">
       <use xlink:href="#DejaVuSans-34"/>
       <use x="63.623047" xlink:href="#DejaVuSans-30"/>
       <use x="127.246094" xlink:href="#DejaVuSans-30"/>
      </g>
     </g>
    </g>
    <g id="xtick_4">
     <g id="line2d_4">
      <g>
       <use style="stroke:#000000;stroke-width:0.8;" x="208.88" xlink:href="#m572866b408" y="307.584"/>
      </g>
     </g>
     <g id="text_4">
      <!-- 600 -->
      <defs>
       <path d="M 33.015625 40.375 
Q 26.375 40.375 22.484375 35.828125 
Q 18.609375 31.296875 18.609375 23.390625 
Q 18.609375 15.53125 22.484375 10.953125 
Q 26.375 6.390625 33.015625 6.390625 
Q 39.65625 6.390625 43.53125 10.953125 
Q 47.40625 15.53125 47.40625 23.390625 
Q 47.40625 31.296875 43.53125 35.828125 
Q 39.65625 40.375 33.015625 40.375 
z
M 52.59375 71.296875 
L 52.59375 62.3125 
Q 48.875 64.0625 45.09375 64.984375 
Q 41.3125 65.921875 37.59375 65.921875 
Q 27.828125 65.921875 22.671875 59.328125 
Q 17.53125 52.734375 16.796875 39.40625 
Q 19.671875 43.65625 24.015625 45.921875 
Q 28.375 48.1875 33.59375 48.1875 
Q 44.578125 48.1875 50.953125 41.515625 
Q 57.328125 34.859375 57.328125 23.390625 
Q 57.328125 12.15625 50.6875 5.359375 
Q 44.046875 -1.421875 33.015625 -1.421875 
Q 20.359375 -1.421875 13.671875 8.265625 
Q 6.984375 17.96875 6.984375 36.375 
Q 6.984375 53.65625 15.1875 63.9375 
Q 23.390625 74.21875 37.203125 74.21875 
Q 40.921875 74.21875 44.703125 73.484375 
Q 48.484375 72.75 52.59375 71.296875 
z
" id="DejaVuSans-36"/>
      </defs>
      <g transform="translate(199.33625 322.182437)scale(0.1 -0.1)">
       <use xlink:href="#DejaVuSans-36"/>
       <use x="63.623047" xlink:href="#DejaVuSans-30"/>
       <use x="127.246094" xlink:href="#DejaVuSans-30"/>
      </g>
     </g>
    </g>
    <g id="xtick_5">
     <g id="line2d_5">
      <g>
       <use style="stroke:#000000;stroke-width:0.8;" x="253.970909" xlink:href="#m572866b408" y="307.584"/>
      </g>
     </g>
     <g id="text_5">
      <!-- 800 -->
      <defs>
       <path d="M 31.78125 34.625 
Q 24.75 34.625 20.71875 30.859375 
Q 16.703125 27.09375 16.703125 20.515625 
Q 16.703125 13.921875 20.71875 10.15625 
Q 24.75 6.390625 31.78125 6.390625 
Q 38.8125 6.390625 42.859375 10.171875 
Q 46.921875 13.96875 46.921875 20.515625 
Q 46.921875 27.09375 42.890625 30.859375 
Q 38.875 34.625 31.78125 34.625 
z
M 21.921875 38.8125 
Q 15.578125 40.375 12.03125 44.71875 
Q 8.5 49.078125 8.5 55.328125 
Q 8.5 64.0625 14.71875 69.140625 
Q 20.953125 74.21875 31.78125 74.21875 
Q 42.671875 74.21875 48.875 69.140625 
Q 55.078125 64.0625 55.078125 55.328125 
Q 55.078125 49.078125 51.53125 44.71875 
Q 48 40.375 41.703125 38.8125 
Q 48.828125 37.15625 52.796875 32.3125 
Q 56.78125 27.484375 56.78125 20.515625 
Q 56.78125 9.90625 50.3125 4.234375 
Q 43.84375 -1.421875 31.78125 -1.421875 
Q 19.734375 -1.421875 13.25 4.234375 
Q 6.78125 9.90625 6.78125 20.515625 
Q 6.78125 27.484375 10.78125 32.3125 
Q 14.796875 37.15625 21.921875 38.8125 
z
M 18.3125 54.390625 
Q 18.3125 48.734375 21.84375 45.5625 
Q 25.390625 42.390625 31.78125 42.390625 
Q 38.140625 42.390625 41.71875 45.5625 
Q 45.3125 48.734375 45.3125 54.390625 
Q 45.3125 60.0625 41.71875 63.234375 
Q 38.140625 66.40625 31.78125 66.40625 
Q 25.390625 66.40625 21.84375 63.234375 
Q 18.3125 60.0625 18.3125 54.390625 
z
" id="DejaVuSans-38"/>
      </defs>
      <g transform="translate(244.427159 322.182437)scale(0.1 -0.1)">
       <use xlink:href="#DejaVuSans-38"/>
       <use x="63.623047" xlink:href="#DejaVuSans-30"/>
       <use x="127.246094" xlink:href="#DejaVuSans-30"/>
      </g>
     </g>
    </g>
    <g id="xtick_6">
     <g id="line2d_6">
      <g>
       <use style="stroke:#000000;stroke-width:0.8;" x="299.061818" xlink:href="#m572866b408" y="307.584"/>
      </g>
     </g>
     <g id="text_6">
      <!-- 1000 -->
      <defs>
       <path d="M 12.40625 8.296875 
L 28.515625 8.296875 
L 28.515625 63.921875 
L 10.984375 60.40625 
L 10.984375 69.390625 
L 28.421875 72.90625 
L 38.28125 72.90625 
L 38.28125 8.296875 
L 54.390625 8.296875 
L 54.390625 0 
L 12.40625 0 
z
" id="DejaVuSans-31"/>
      </defs>
      <g transform="translate(286.336818 322.182437)scale(0.1 -0.1)">
       <use xlink:href="#DejaVuSans-31"/>
       <use x="63.623047" xlink:href="#DejaVuSans-30"/>
       <use x="127.246094" xlink:href="#DejaVuSans-30"/>
       <use x="190.869141" xlink:href="#DejaVuSans-30"/>
      </g>
     </g>
    </g>
    <g id="xtick_7">
     <g id="line2d_7">
      <g>
       <use style="stroke:#000000;stroke-width:0.8;" x="344.152727" xlink:href="#m572866b408" y="307.584"/>
      </g>
     </g>
     <g id="text_7">
      <!-- 1200 -->
      <g transform="translate(331.427727 322.182437)scale(0.1 -0.1)">
       <use xlink:href="#DejaVuSans-31"/>
       <use x="63.623047" xlink:href="#DejaVuSans-32"/>
       <use x="127.246094" xlink:href="#DejaVuSans-30"/>
       <use x="190.869141" xlink:href="#DejaVuSans-30"/>
      </g>
     </g>
    </g>
    <g id="xtick_8">
     <g id="line2d_8">
      <g>
       <use style="stroke:#000000;stroke-width:0.8;" x="389.243636" xlink:href="#m572866b408" y="307.584"/>
      </g>
     </g>
     <g id="text_8">
      <!-- 1400 -->
      <g transform="translate(376.518636 322.182437)scale(0.1 -0.1)">
       <use xlink:href="#DejaVuSans-31"/>
       <use x="63.623047" xlink:href="#DejaVuSans-34"/>
       <use x="127.246094" xlink:href="#DejaVuSans-30"/>
       <use x="190.869141" xlink:href="#DejaVuSans-30"/>
      </g>
     </g>
    </g>
   </g>
   <g id="matplotlib.axis_2">
    <g id="ytick_1">
     <g id="line2d_9">
      <defs>
       <path d="M 0 0 
L -3.5 0 
" id="m2f247a34f1" style="stroke:#000000;stroke-width:0.8;"/>
      </defs>
      <g>
       <use style="stroke:#000000;stroke-width:0.8;" x="57.6" xlink:href="#m2f247a34f1" y="293.630112"/>
      </g>
     </g>
     <g id="text_9">
      <!-- 0 -->
      <g transform="translate(44.2375 297.429331)scale(0.1 -0.1)">
       <use xlink:href="#DejaVuSans-30"/>
      </g>
     </g>
    </g>
    <g id="ytick_2">
     <g id="line2d_10">
      <g>
       <use style="stroke:#000000;stroke-width:0.8;" x="57.6" xlink:href="#m2f247a34f1" y="262.064091"/>
      </g>
     </g>
     <g id="text_10">
      <!-- 25000 -->
      <defs>
       <path d="M 10.796875 72.90625 
L 49.515625 72.90625 
L 49.515625 64.59375 
L 19.828125 64.59375 
L 19.828125 46.734375 
Q 21.96875 47.46875 24.109375 47.828125 
Q 26.265625 48.1875 28.421875 48.1875 
Q 40.625 48.1875 47.75 41.5 
Q 54.890625 34.8125 54.890625 23.390625 
Q 54.890625 11.625 47.5625 5.09375 
Q 40.234375 -1.421875 26.90625 -1.421875 
Q 22.3125 -1.421875 17.546875 -0.640625 
Q 12.796875 0.140625 7.71875 1.703125 
L 7.71875 11.625 
Q 12.109375 9.234375 16.796875 8.0625 
Q 21.484375 6.890625 26.703125 6.890625 
Q 35.15625 6.890625 40.078125 11.328125 
Q 45.015625 15.765625 45.015625 23.390625 
Q 45.015625 31 40.078125 35.4375 
Q 35.15625 39.890625 26.703125 39.890625 
Q 22.75 39.890625 18.8125 39.015625 
Q 14.890625 38.140625 10.796875 36.28125 
z
" id="DejaVuSans-35"/>
      </defs>
      <g transform="translate(18.7875 265.86331)scale(0.1 -0.1)">
       <use xlink:href="#DejaVuSans-32"/>
       <use x="63.623047" xlink:href="#DejaVuSans-35"/>
       <use x="127.246094" xlink:href="#DejaVuSans-30"/>
       <use x="190.869141" xlink:href="#DejaVuSans-30"/>
       <use x="254.492188" xlink:href="#DejaVuSans-30"/>
      </g>
     </g>
    </g>
    <g id="ytick_3">
     <g id="line2d_11">
      <g>
       <use style="stroke:#000000;stroke-width:0.8;" x="57.6" xlink:href="#m2f247a34f1" y="230.498071"/>
      </g>
     </g>
     <g id="text_11">
      <!-- 50000 -->
      <g transform="translate(18.7875 234.29729)scale(0.1 -0.1)">
       <use xlink:href="#DejaVuSans-35"/>
       <use x="63.623047" xlink:href="#DejaVuSans-30"/>
       <use x="127.246094" xlink:href="#DejaVuSans-30"/>
       <use x="190.869141" xlink:href="#DejaVuSans-30"/>
       <use x="254.492188" xlink:href="#DejaVuSans-30"/>
      </g>
     </g>
    </g>
    <g id="ytick_4">
     <g id="line2d_12">
      <g>
       <use style="stroke:#000000;stroke-width:0.8;" x="57.6" xlink:href="#m2f247a34f1" y="198.93205"/>
      </g>
     </g>
     <g id="text_12">
      <!-- 75000 -->
      <defs>
       <path d="M 8.203125 72.90625 
L 55.078125 72.90625 
L 55.078125 68.703125 
L 28.609375 0 
L 18.3125 0 
L 43.21875 64.59375 
L 8.203125 64.59375 
z
" id="DejaVuSans-37"/>
      </defs>
      <g transform="translate(18.7875 202.731269)scale(0.1 -0.1)">
       <use xlink:href="#DejaVuSans-37"/>
       <use x="63.623047" xlink:href="#DejaVuSans-35"/>
       <use x="127.246094" xlink:href="#DejaVuSans-30"/>
       <use x="190.869141" xlink:href="#DejaVuSans-30"/>
       <use x="254.492188" xlink:href="#DejaVuSans-30"/>
      </g>
     </g>
    </g>
    <g id="ytick_5">
     <g id="line2d_13">
      <g>
       <use style="stroke:#000000;stroke-width:0.8;" x="57.6" xlink:href="#m2f247a34f1" y="167.36603"/>
      </g>
     </g>
     <g id="text_13">
      <!-- 100000 -->
      <g transform="translate(12.425 171.165248)scale(0.1 -0.1)">
       <use xlink:href="#DejaVuSans-31"/>
       <use x="63.623047" xlink:href="#DejaVuSans-30"/>
       <use x="127.246094" xlink:href="#DejaVuSans-30"/>
       <use x="190.869141" xlink:href="#DejaVuSans-30"/>
       <use x="254.492188" xlink:href="#DejaVuSans-30"/>
       <use x="318.115234" xlink:href="#DejaVuSans-30"/>
      </g>
     </g>
    </g>
    <g id="ytick_6">
     <g id="line2d_14">
      <g>
       <use style="stroke:#000000;stroke-width:0.8;" x="57.6" xlink:href="#m2f247a34f1" y="135.800009"/>
      </g>
     </g>
     <g id="text_14">
      <!-- 125000 -->
      <g transform="translate(12.425 139.599228)scale(0.1 -0.1)">
       <use xlink:href="#DejaVuSans-31"/>
       <use x="63.623047" xlink:href="#DejaVuSans-32"/>
       <use x="127.246094" xlink:href="#DejaVuSans-35"/>
       <use x="190.869141" xlink:href="#DejaVuSans-30"/>
       <use x="254.492188" xlink:href="#DejaVuSans-30"/>
       <use x="318.115234" xlink:href="#DejaVuSans-30"/>
      </g>
     </g>
    </g>
    <g id="ytick_7">
     <g id="line2d_15">
      <g>
       <use style="stroke:#000000;stroke-width:0.8;" x="57.6" xlink:href="#m2f247a34f1" y="104.233988"/>
      </g>
     </g>
     <g id="text_15">
      <!-- 150000 -->
      <g transform="translate(12.425 108.033207)scale(0.1 -0.1)">
       <use xlink:href="#DejaVuSans-31"/>
       <use x="63.623047" xlink:href="#DejaVuSans-35"/>
       <use x="127.246094" xlink:href="#DejaVuSans-30"/>
       <use x="190.869141" xlink:href="#DejaVuSans-30"/>
       <use x="254.492188" xlink:href="#DejaVuSans-30"/>
       <use x="318.115234" xlink:href="#DejaVuSans-30"/>
      </g>
     </g>
    </g>
    <g id="ytick_8">
     <g id="line2d_16">
      <g>
       <use style="stroke:#000000;stroke-width:0.8;" x="57.6" xlink:href="#m2f247a34f1" y="72.667968"/>
      </g>
     </g>
     <g id="text_16">
      <!-- 175000 -->
      <g transform="translate(12.425 76.467186)scale(0.1 -0.1)">
       <use xlink:href="#DejaVuSans-31"/>
       <use x="63.623047" xlink:href="#DejaVuSans-37"/>
       <use x="127.246094" xlink:href="#DejaVuSans-35"/>
       <use x="190.869141" xlink:href="#DejaVuSans-30"/>
       <use x="254.492188" xlink:href="#DejaVuSans-30"/>
       <use x="318.115234" xlink:href="#DejaVuSans-30"/>
      </g>
     </g>
    </g>
    <g id="ytick_9">
     <g id="line2d_17">
      <g>
       <use style="stroke:#000000;stroke-width:0.8;" x="57.6" xlink:href="#m2f247a34f1" y="41.101947"/>
      </g>
     </g>
     <g id="text_17">
      <!-- 200000 -->
      <g transform="translate(12.425 44.901166)scale(0.1 -0.1)">
       <use xlink:href="#DejaVuSans-32"/>
       <use x="63.623047" xlink:href="#DejaVuSans-30"/>
       <use x="127.246094" xlink:href="#DejaVuSans-30"/>
       <use x="190.869141" xlink:href="#DejaVuSans-30"/>
       <use x="254.492188" xlink:href="#DejaVuSans-30"/>
       <use x="318.115234" xlink:href="#DejaVuSans-30"/>
      </g>
     </g>
    </g>
   </g>
   <g id="line2d_18">
    <path clip-path="url(#pcda99ade76)" d="M 73.832727 293.616223 
L 74.058182 273.319272 
L 74.283636 127.4287 
L 74.734545 116.338926 
L 74.96 112.562367 
L 75.185455 113.914656 
L 75.636364 124.243057 
L 76.087273 145.24835 
L 76.312727 149.267336 
L 76.763636 162.544004 
L 76.989091 164.514987 
L 77.214545 164.829384 
L 78.341818 145.527394 
L 78.567273 137.98059 
L 78.792727 138.543727 
L 79.018182 135.438894 
L 79.243636 129.421148 
L 79.469091 129.536048 
L 79.694545 122.979154 
L 80.145455 116.934892 
L 80.370909 110.574971 
L 80.596364 110.900732 
L 80.821818 112.246707 
L 81.047273 119.024563 
L 81.498182 140.798804 
L 81.949091 158.38234 
L 82.174545 159.28134 
L 82.4 164.367258 
L 82.625455 164.520037 
L 82.850909 160.622265 
L 83.752727 138.447767 
L 83.978182 137.936397 
L 84.203636 134.871968 
L 84.429091 133.565135 
L 84.654545 128.275932 
L 84.88 126.928695 
L 85.105455 124.495586 
L 85.330909 113.23788 
L 85.556364 111.364121 
L 85.781818 113.021968 
L 86.007273 113.052272 
L 86.232727 111.577507 
L 86.909091 142.39857 
L 87.36 157.572987 
L 87.585455 159.869731 
L 87.810909 164.391248 
L 88.036364 171.802949 
L 88.261818 156.52247 
L 88.938182 143.013476 
L 89.163636 144.051367 
L 89.389091 140.38087 
L 89.614545 154.506033 
L 89.84 135.740665 
L 90.065455 134.142162 
L 90.290909 127.784765 
L 90.516364 124.726649 
L 90.741818 123.267036 
L 90.967273 116.205086 
L 91.192727 119.038452 
L 91.643636 114.263144 
L 91.869091 118.265716 
L 92.545455 157.244701 
L 92.770909 156.579289 
L 93.221818 169.373628 
L 93.447273 171.379965 
L 93.898182 158.262389 
L 94.123636 147.846865 
L 94.349091 142.789989 
L 94.574545 145.509717 
L 94.8 136.532341 
L 95.025455 146.134724 
L 95.701818 123.722849 
L 95.927273 130.105499 
L 96.152727 121.744291 
L 96.378182 117.774549 
L 96.603636 116.376805 
L 96.829091 119.211434 
L 97.054545 116.999287 
L 97.956364 151.822921 
L 98.181818 157.065406 
L 98.632727 174.273938 
L 98.858182 165.203126 
L 99.083636 163.150072 
L 99.309091 156.581814 
L 99.534545 141.332901 
L 99.76 144.432684 
L 100.210909 134.981818 
L 100.661818 131.220411 
L 101.112727 125.870602 
L 101.338182 124.808721 
L 101.563636 121.559946 
L 101.789091 124.114268 
L 102.014545 125.005693 
L 102.465455 125.395849 
L 102.690909 133.605539 
L 102.916364 136.984366 
L 103.592727 155.979535 
L 104.043636 163.290225 
L 104.269091 162.420265 
L 104.494545 154.23204 
L 104.72 150.42139 
L 105.170909 136.748252 
L 105.396364 135.623239 
L 105.621818 136.860627 
L 105.847273 134.773482 
L 106.523636 119.340223 
L 106.749091 121.270801 
L 106.974545 116.088923 
L 107.2 114.208851 
L 107.425455 105.178444 
L 107.650909 103.103925 
L 107.876364 105.048392 
L 108.778182 139.728085 
L 109.003636 143.915002 
L 109.454545 156.532571 
L 109.68 154.157544 
L 109.905455 153.229503 
L 110.356364 136.865678 
L 110.581818 130.783537 
L 110.807273 119.903361 
L 111.032727 119.101584 
L 111.258182 119.186181 
L 111.483636 113.674754 
L 111.709091 123.390775 
L 111.934545 102.170833 
L 112.16 101.297086 
L 112.610909 84.473659 
L 112.836364 89.605032 
L 113.061818 88.435826 
L 113.287273 93.884122 
L 114.414545 140.543751 
L 114.64 145.891034 
L 114.865455 148.382225 
L 115.090909 147.695348 
L 115.316364 143.825354 
L 115.767273 130.575201 
L 116.669091 117.702578 
L 116.894545 112.747975 
L 117.12 133.252 
L 117.345455 112.888129 
L 118.021818 105.723905 
L 118.247273 105.722642 
L 118.472727 102.096337 
L 118.698182 103.627921 
L 118.923636 108.120397 
L 119.6 148.941575 
L 119.825455 147.673883 
L 120.276364 159.471999 
L 120.501818 158.907599 
L 120.727273 156.636108 
L 120.952727 148.182728 
L 121.178182 143.931416 
L 121.403636 135.056314 
L 121.629091 133.082806 
L 121.854545 129.749434 
L 122.08 128.808767 
L 122.305455 120.81625 
L 122.756364 117.913439 
L 123.207273 107.85398 
L 123.432727 107.196144 
L 123.658182 104.814803 
L 123.883636 99.172061 
L 124.109091 96.982642 
L 124.334545 101.149357 
L 125.010909 139.260907 
L 125.236364 146.125886 
L 125.461818 148.487024 
L 125.687273 155.410084 
L 125.912727 155.552762 
L 126.363636 143.999598 
L 126.589091 136.147235 
L 126.814545 134.443933 
L 127.265455 125.552416 
L 127.490909 126.832734 
L 127.716364 123.716536 
L 127.941818 118.398293 
L 128.167273 118.644508 
L 128.392727 111.143159 
L 128.618182 109.923448 
L 129.069091 100.770565 
L 129.294545 104.427172 
L 129.52 99.603884 
L 130.421818 138.671254 
L 130.647273 141.692754 
L 130.872727 150.465582 
L 131.098182 154.82043 
L 131.323636 153.936582 
L 131.549091 152.537576 
L 131.774545 149.598148 
L 132 139.649801 
L 132.225455 135.106819 
L 132.450909 134.299992 
L 132.676364 125.729186 
L 132.901818 124.458969 
L 133.127273 124.917308 
L 133.352727 128.075172 
L 133.578182 116.813679 
L 134.029091 112.854037 
L 134.254545 106.279466 
L 134.930909 102.446089 
L 135.832727 139.604346 
L 136.283636 157.372227 
L 136.734545 165.523837 
L 137.185455 150.658766 
L 137.410909 150.859526 
L 137.636364 137.932609 
L 138.312727 123.219056 
L 138.538182 123.707698 
L 138.763636 121.808686 
L 138.989091 114.873 
L 139.214545 115.273257 
L 139.665455 112.183575 
L 139.890909 110.194916 
L 140.116364 116.462665 
L 140.341818 114.158345 
L 141.694545 159.394978 
L 141.92 161.989705 
L 142.145455 162.79527 
L 142.370909 158.715677 
L 143.272727 134.028524 
L 143.498182 133.106796 
L 144.174545 126.770864 
L 144.4 132.02345 
L 144.625455 122.713999 
L 144.850909 103.726407 
L 145.076364 101.066023 
L 145.301818 103.048369 
L 145.527273 102.938519 
L 145.752727 105.37289 
L 146.429091 133.850492 
L 146.654545 141.493256 
L 147.105455 159.535131 
L 147.330909 165.549089 
L 147.556364 166.566778 
L 148.683636 128.27467 
L 148.909091 128.220376 
L 149.134545 125.078926 
L 149.36 126.346617 
L 149.585455 121.278377 
L 149.810909 120.155889 
L 150.261818 102.197349 
L 150.712727 99.326103 
L 150.938182 97.194766 
L 151.163636 99.53949 
L 152.290909 144.874609 
L 152.516364 147.392314 
L 152.741818 153.875975 
L 152.967273 168.127402 
L 153.192727 154.473204 
L 153.869091 138.872014 
L 154.094545 136.375773 
L 154.32 124.567556 
L 154.545455 140.858148 
L 154.770909 227.746776 
L 154.996364 118.198796 
L 155.221818 118.061168 
L 155.447273 107.430995 
L 155.672727 104.798389 
L 155.898182 105.737794 
L 156.123636 102.001639 
L 156.349091 96.089955 
L 156.574545 99.092515 
L 156.8 106.574924 
L 157.701818 149.291326 
L 158.152727 156.376004 
L 158.378182 155.814129 
L 159.28 133.504528 
L 159.505455 131.541121 
L 159.956364 118.95133 
L 160.181818 119.032139 
L 160.407273 118.196271 
L 160.632727 119.213959 
L 161.083636 103.834994 
L 161.309091 97.851339 
L 161.534545 100.420813 
L 161.76 98.542004 
L 161.985455 90.855046 
L 162.887273 133.711601 
L 163.563636 151.057761 
L 163.789091 152.384796 
L 164.014545 152.976975 
L 164.24 148.344346 
L 164.690909 134.894695 
L 165.367273 171.809263 
L 165.592727 165.698081 
L 165.818182 127.738047 
L 166.043636 124.131945 
L 166.269091 138.887166 
L 166.72 106.380478 
L 166.945455 111.408314 
L 167.396364 94.399279 
L 167.847273 113.196213 
L 168.298182 133.354274 
L 168.523636 143.398581 
L 169.2 154.340627 
L 169.425455 154.23709 
L 169.650909 148.807735 
L 169.876364 137.572757 
L 170.327273 131.572687 
L 170.552727 128.366842 
L 170.778182 127.959009 
L 171.003636 122.431168 
L 171.229091 121.178628 
L 171.454545 122.726626 
L 171.68 108.335046 
L 171.905455 107.56231 
L 172.130909 108.895658 
L 172.356364 107.030738 
L 172.807273 115.063659 
L 173.032727 117.462676 
L 173.258182 122.215256 
L 174.16 162.478347 
L 174.385455 165.304137 
L 174.610909 156.511106 
L 174.836364 152.976975 
L 175.061818 143.786212 
L 175.287273 140.074048 
L 175.512727 130.63202 
L 175.963636 121.423581 
L 176.189091 146.662508 
L 176.414545 110.139359 
L 176.64 103.995349 
L 176.865455 110.130521 
L 177.090909 109.973954 
L 177.316364 107.97393 
L 177.541818 109.875468 
L 177.767273 110.672194 
L 177.992727 112.341405 
L 178.218182 109.944913 
L 178.443636 113.55354 
L 179.12 137.5172 
L 179.345455 147.968079 
L 179.570909 150.949174 
L 180.021818 159.978318 
L 180.247273 159.221996 
L 180.472727 151.451705 
L 180.698182 137.87074 
L 181.6 114.998001 
L 181.825455 113.731573 
L 182.050909 109.105257 
L 182.276364 107.00296 
L 182.501818 101.614009 
L 182.727273 100.177123 
L 182.952727 101.861486 
L 183.178182 92.971232 
L 183.403636 93.834879 
L 183.629091 93.343711 
L 184.305455 129.456501 
L 184.981818 152.389847 
L 185.207273 156.089384 
L 185.432727 155.783825 
L 185.658182 153.355767 
L 186.334545 134.803785 
L 187.236364 112.667166 
L 187.461818 109.53708 
L 187.687273 109.1545 
L 187.912727 103.552162 
L 188.138182 102.947357 
L 188.363636 98.303364 
L 188.589091 89.555789 
L 188.814545 87.61511 
L 189.04 105.871633 
L 189.265455 95.688435 
L 189.716364 122.782182 
L 190.392727 150.610786 
L 190.618182 155.295183 
L 190.843636 152.970662 
L 191.745455 124.9615 
L 192.421818 107.745392 
L 192.647273 111.82751 
L 192.872727 106.439822 
L 193.098182 108.261813 
L 193.323636 104.913289 
L 193.774545 91.159343 
L 194 81.998883 
L 194.225455 90.474991 
L 194.450909 91.187121 
L 195.578182 140.378345 
L 196.029091 151.637313 
L 196.254545 152.733285 
L 196.48 146.774883 
L 196.930909 128.560026 
L 197.607273 114.841434 
L 197.832727 116.12554 
L 198.058182 110.420928 
L 198.283636 109.648192 
L 198.509091 111.7366 
L 198.734545 110.000469 
L 199.185455 89.454778 
L 199.410909 89.83862 
L 199.636364 86.183275 
L 199.861818 86.174437 
L 200.312727 101.374107 
L 200.763636 131.830266 
L 201.214545 148.793846 
L 201.44 151.465594 
L 201.665455 149.526177 
L 202.116364 133.154776 
L 202.341818 125.118068 
L 202.567273 123.875629 
L 202.792727 118.095259 
L 203.018182 116.402058 
L 203.243636 111.398212 
L 203.469091 110.052237 
L 203.694545 110.181027 
L 203.92 106.800937 
L 204.145455 105.966332 
L 204.370909 101.728909 
L 204.596364 94.818476 
L 204.821818 94.501553 
L 205.047273 93.842454 
L 205.272727 92.722492 
L 205.498182 97.016733 
L 205.723636 136.648504 
L 205.949091 120.471549 
L 206.4 141.263456 
L 206.625455 152.003479 
L 206.850909 157.008587 
L 207.076364 154.276232 
L 207.978182 127.874412 
L 208.654545 115.655837 
L 208.88 120.328871 
L 209.330909 114.417187 
L 209.556364 115.782101 
L 209.781818 114.126779 
L 210.007273 114.247993 
L 210.232727 108.095144 
L 210.458182 110.681032 
L 210.683636 107.14185 
L 210.909091 106.629218 
L 211.134545 128.395883 
L 211.36 124.91352 
L 211.810909 149.340569 
L 212.261818 161.619751 
L 212.487273 162.574308 
L 212.712727 159.141187 
L 213.614545 129.528472 
L 213.84 122.582685 
L 214.065455 122.374349 
L 214.290909 119.028351 
L 214.516364 119.566236 
L 215.192727 109.157025 
L 215.418182 110.477747 
L 215.643636 105.183494 
L 215.869091 111.423465 
L 216.094545 146.997108 
L 216.32 116.290946 
L 216.770909 141.023554 
L 216.996364 144.920064 
L 217.672727 171.373652 
L 217.898182 162.913958 
L 218.123636 160.412667 
L 218.349091 154.849471 
L 219.025455 128.558764 
L 219.701818 126.082725 
L 219.927273 128.221639 
L 220.152727 123.549868 
L 220.378182 125.109229 
L 220.603636 119.375577 
L 220.829091 117.345251 
L 221.054545 119.682399 
L 221.28 110.672194 
L 221.505455 113.437377 
L 221.956364 123.474109 
L 222.407273 146.450384 
L 222.632727 156.18787 
L 222.858182 156.713129 
L 223.083636 158.942953 
L 223.534545 152.350705 
L 223.985455 133.388365 
L 224.210909 132.744418 
L 224.661818 121.767019 
L 224.887273 118.078845 
L 225.112727 117.961419 
L 225.338182 122.610463 
L 225.563636 118.099047 
L 225.789091 111.324979 
L 226.014545 127.390821 
L 226.24 200.574746 
L 226.465455 157.086871 
L 226.690909 75.746286 
L 226.916364 90.545699 
L 227.141818 97.567245 
L 227.367273 116.463927 
L 227.592727 124.705184 
L 227.818182 138.653577 
L 228.043636 143.288732 
L 228.494545 157.470713 
L 228.72 159.43917 
L 228.945455 159.299017 
L 229.396364 137.413664 
L 229.621818 139.267221 
L 229.847273 143.401107 
L 230.072727 141.427599 
L 230.298182 146.63978 
L 230.523636 139.560153 
L 230.974545 133.281041 
L 231.425455 124.158461 
L 231.650909 124.056187 
L 231.876364 116.092711 
L 232.101818 112.667166 
L 233.68 175.170412 
L 233.905455 176.747451 
L 234.356364 164.662716 
L 234.807273 148.757229 
L 235.032727 147.798885 
L 235.258182 150.014819 
L 235.483636 140.764713 
L 235.709091 138.21039 
L 236.16 139.21419 
L 236.385455 165.349592 
L 236.610909 139.180098 
L 236.836364 130.577727 
L 237.061818 127.020867 
L 237.287273 121.285953 
L 237.512727 130.681263 
L 237.738182 129.277206 
L 237.963636 134.989394 
L 238.414545 155.716905 
L 238.64 163.166486 
L 239.090909 169.061756 
L 239.316364 175.641378 
L 239.541818 173.970904 
L 239.992727 158.345724 
L 240.218182 157.043941 
L 240.443636 154.123453 
L 240.669091 162.099555 
L 240.894545 156.232063 
L 241.12 176.775229 
L 241.570909 147.625903 
L 241.796364 148.485761 
L 242.021818 145.517293 
L 242.472727 125.11428 
L 242.698182 120.967767 
L 242.923636 123.10163 
L 243.149091 122.048588 
L 244.276364 168.48978 
L 244.501818 171.050415 
L 244.727273 175.314354 
L 244.952727 176.819421 
L 245.178182 175.535316 
L 245.629091 157.367177 
L 245.854545 152.000953 
L 246.08 150.773666 
L 246.305455 145.714265 
L 246.530909 145.214259 
L 246.756364 138.366958 
L 246.981818 136.418703 
L 247.207273 132.955279 
L 247.432727 156.894949 
L 247.658182 128.623159 
L 247.883636 128.138304 
L 248.109091 125.200139 
L 248.334545 124.969076 
L 248.56 121.030899 
L 248.785455 132.378252 
L 249.010909 132.485577 
L 249.236364 245.652286 
L 249.461818 282.528974 
L 249.687273 165.985963 
L 250.138182 174.52394 
L 250.363636 173.458272 
L 250.814545 162.229607 
L 251.04 155.434074 
L 251.265455 152.855761 
L 251.716364 142.659937 
L 251.941818 137.53109 
L 252.167273 138.106854 
L 252.392727 138.139682 
L 252.618182 134.211607 
L 252.843636 140.409911 
L 253.069091 142.238215 
L 253.52 135.503288 
L 254.196364 147.13221 
L 254.421818 148.009746 
L 255.098182 173.301704 
L 255.323636 173.796659 
L 255.549091 178.536613 
L 256.225455 166.617284 
L 256.450909 181.258867 
L 256.676364 155.048968 
L 256.901818 149.411277 
L 257.127273 151.142358 
L 257.578182 142.214224 
L 257.803636 141.497044 
L 258.029091 140.036169 
L 258.254545 136.523502 
L 258.48 127.741835 
L 258.705455 127.322638 
L 258.930909 125.317565 
L 259.156364 125.65469 
L 259.381818 123.846588 
L 259.832727 150.252196 
L 260.283636 168.602155 
L 260.509091 170.449398 
L 260.734545 171.10976 
L 260.96 178.390147 
L 261.185455 176.78533 
L 261.636364 162.796532 
L 262.087273 152.555253 
L 262.312727 151.601959 
L 262.538182 147.105695 
L 262.763636 149.538804 
L 262.989091 143.764747 
L 263.44 137.358108 
L 263.665455 134.432569 
L 263.890909 136.539916 
L 264.116364 132.584063 
L 264.341818 126.393335 
L 264.567273 123.292289 
L 264.792727 128.108001 
L 265.92 167.056683 
L 266.370909 176.73735 
L 266.596364 176.353507 
L 266.821818 172.825688 
L 267.047273 165.494796 
L 267.723636 155.2169 
L 267.949091 151.171398 
L 268.174545 157.701777 
L 268.4 156.47449 
L 268.850909 150.596897 
L 269.752727 127.441327 
L 269.978182 130.484291 
L 270.203636 126.162272 
L 270.429091 133.913624 
L 270.88 159.389927 
L 271.105455 169.443074 
L 271.781818 185.380126 
L 272.007273 183.207121 
L 272.683636 168.93928 
L 272.909091 165.040245 
L 273.134545 165.456917 
L 273.585455 162.360921 
L 273.810909 157.302782 
L 274.036364 161.775056 
L 274.261818 154.680277 
L 274.487273 153.743398 
L 275.163636 141.788714 
L 275.614545 147.46681 
L 275.84 152.016105 
L 276.290909 175.387587 
L 276.741818 189.372596 
L 276.967273 189.743813 
L 277.192727 192.068335 
L 277.418182 191.868837 
L 277.643636 189.459719 
L 278.32 171.227185 
L 278.545455 174.257523 
L 278.770909 164.940497 
L 278.996364 162.93416 
L 279.221818 158.53512 
L 279.447273 156.96692 
L 279.898182 155.011089 
L 280.123636 155.55655 
L 280.349091 145.04254 
L 280.574545 139.879601 
L 280.8 140.522286 
L 281.025455 137.041185 
L 281.927273 179.546726 
L 282.152727 187.481161 
L 282.378182 189.209716 
L 282.603636 193.309511 
L 282.829091 190.202151 
L 283.28 177.219679 
L 283.505455 174.488586 
L 283.730909 173.189329 
L 283.956364 171.013799 
L 284.181818 167.080673 
L 284.407273 169.9052 
L 284.632727 162.705622 
L 284.858182 162.309153 
L 285.083636 160.739691 
L 285.534545 147.353172 
L 285.76 148.316567 
L 285.985455 148.779957 
L 286.210909 150.614574 
L 286.436364 145.930176 
L 286.661818 151.293875 
L 287.338182 184.838453 
L 287.563636 190.204677 
L 287.789091 191.011504 
L 288.014545 194.06457 
L 288.24 192.832232 
L 288.465455 190.644076 
L 288.916364 170.331973 
L 289.592727 161.69551 
L 289.818182 155.259829 
L 290.269091 158.344461 
L 290.494545 157.093184 
L 290.945455 148.356972 
L 291.170909 147.163776 
L 291.396364 144.370815 
L 291.847273 112.837623 
L 292.072727 113.242931 
L 292.298182 118.559911 
L 292.523636 132.37699 
L 292.749091 137.436391 
L 293.2 153.268645 
L 293.425455 152.874701 
L 293.650909 151.651202 
L 293.876364 149.555218 
L 294.101818 144.087983 
L 294.552727 123.587747 
L 295.003636 118.761934 
L 295.229091 105.303445 
L 295.68 106.64437 
L 296.130909 96.968753 
L 296.356364 97.190978 
L 297.032727 84.895381 
L 297.483636 94.289429 
L 298.16 132.652245 
L 298.385455 136.644716 
L 298.610909 142.999587 
L 298.836364 146.098108 
L 299.061818 145.83169 
L 299.738182 130.645909 
L 299.963636 122.678646 
L 300.189091 122.426117 
L 300.64 111.646953 
L 301.090909 109.162075 
L 301.316364 105.812289 
L 301.541818 100.164497 
L 301.767273 101.524361 
L 301.992727 97.783156 
L 302.218182 76.655387 
L 302.443636 86.001455 
L 302.894545 96.752841 
L 303.570909 132.796186 
L 304.021818 145.09052 
L 304.247273 150.253458 
L 304.472727 149.074152 
L 305.149091 126.226666 
L 305.374545 124.26326 
L 305.6 123.506938 
L 305.825455 116.360391 
L 306.050909 115.588917 
L 306.276364 112.078776 
L 306.501818 105.617843 
L 306.727273 105.828704 
L 307.178182 98.381648 
L 307.629091 79.868808 
L 307.854545 79.791787 
L 308.08 77.811966 
L 308.305455 85.751452 
L 308.756364 120.570035 
L 309.432727 148.721875 
L 309.658182 153.117128 
L 309.883636 152.887327 
L 310.109091 147.137261 
L 310.334545 160.763681 
L 310.56 165.198075 
L 311.010909 141.23694 
L 311.236364 132.192644 
L 311.461818 130.181257 
L 311.687273 127.130717 
L 311.912727 129.120639 
L 312.138182 121.884444 
L 312.363636 121.023323 
L 313.490909 104.276918 
L 313.941818 125.546103 
L 314.167273 292.292975 
L 314.392727 147.383476 
L 314.618182 158.206833 
L 314.843636 181.017702 
L 315.069091 180.75381 
L 315.52 161.772531 
L 315.745455 160.80156 
L 315.970909 146.090532 
L 316.196364 152.076712 
L 316.421818 152.091864 
L 316.872727 134.842927 
L 317.098182 136.550018 
L 317.323636 144.2395 
L 317.774545 131.50198 
L 318 131.690113 
L 318.225455 126.022118 
L 318.450909 128.599168 
L 318.676364 100.193538 
L 318.901818 121.518279 
L 319.127273 108.723939 
L 319.352727 114.408348 
L 320.254545 164.98974 
L 320.48 166.057934 
L 320.705455 167.915278 
L 320.930909 163.788968 
L 321.381818 142.69024 
L 321.607273 149.392337 
L 321.832727 140.454103 
L 322.058182 141.485681 
L 322.283636 134.051251 
L 322.509091 130.29237 
L 322.734545 122.898345 
L 322.96 122.397077 
L 323.185455 116.047256 
L 323.410909 118.412182 
L 323.636364 112.629287 
L 323.861818 102.92968 
L 324.312727 97.970027 
L 324.538182 104.915814 
L 325.214545 136.151023 
L 325.44 141.695279 
L 325.665455 158.985882 
L 325.890909 158.317945 
L 326.116364 161.912684 
L 326.341818 159.872256 
L 326.567273 148.984504 
L 326.792727 129.779738 
L 327.018182 133.797461 
L 327.469091 120.442509 
L 327.92 112.100241 
L 328.145455 106.501691 
L 328.370909 110.696184 
L 328.596364 106.494115 
L 328.821818 104.751671 
L 329.047273 110.127996 
L 329.272727 108.23656 
L 329.498182 110.308553 
L 329.723636 109.194904 
L 329.949091 116.059882 
L 330.625455 147.901159 
L 331.076364 151.47822 
L 331.301818 156.965657 
L 331.752727 159.636142 
L 332.88 123.90467 
L 333.330909 116.694991 
L 333.556364 116.164681 
L 333.781818 112.1861 
L 334.007273 111.328767 
L 334.232727 116.66595 
L 334.909091 99.00413 
L 335.134545 97.353858 
L 336.261818 146.178917 
L 336.487273 152.074187 
L 336.712727 153.171421 
L 336.938182 154.915128 
L 337.84 138.464181 
L 338.065455 139.230604 
L 338.290909 131.355513 
L 338.516364 129.544886 
L 338.741818 124.033459 
L 338.967273 126.568842 
L 339.192727 123.553656 
L 339.418182 115.908365 
L 339.643636 117.409645 
L 339.869091 115.70003 
L 340.094545 106.659521 
L 340.545455 81.082206 
L 340.770909 87.885315 
L 341.221818 120.210183 
L 341.898182 145.745831 
L 342.123636 147.883482 
L 342.349091 148.666319 
L 342.574545 139.484395 
L 342.8 136.074002 
L 343.025455 135.20783 
L 343.250909 134.805048 
L 343.476364 130.779749 
L 343.701818 130.400957 
L 343.927273 128.921142 
L 344.152727 130.065094 
L 344.378182 126.306213 
L 344.603636 126.919856 
L 344.829091 138.778579 
L 345.28 114.030819 
L 345.505455 104.420859 
L 345.730909 113.566167 
L 345.956364 83.255211 
L 346.181818 95.557121 
L 346.407273 101.742798 
L 346.632727 111.563618 
L 346.858182 128.128203 
L 347.083636 128.306236 
L 347.534545 138.223017 
L 347.76 140.44779 
L 347.985455 136.092942 
L 348.210909 134.488125 
L 348.436364 127.730471 
L 348.661818 131.866883 
L 348.887273 127.240567 
L 349.112727 125.83146 
L 349.338182 119.258152 
L 349.563636 119.952604 
L 349.789091 112.973988 
L 350.014545 112.087614 
L 350.24 97.81851 
L 350.465455 91.72248 
L 350.690909 81.647869 
L 350.916364 82.348635 
L 351.141818 88.675728 
L 351.367273 85.886555 
L 351.592727 91.576014 
L 352.494545 138.467969 
L 352.72 136.432592 
L 352.945455 138.384635 
L 353.170909 135.851777 
L 354.072727 109.69491 
L 354.298182 143.509694 
L 354.523636 107.307256 
L 354.749091 106.819877 
L 354.974545 212.870342 
L 355.2 119.08517 
L 355.425455 134.090393 
L 355.650909 140.263444 
L 355.876364 94.264176 
L 356.101818 96.793246 
L 356.327273 77.746309 
L 356.552727 79.195821 
L 356.778182 82.875156 
L 357.229091 113.035858 
L 357.68 131.829004 
L 357.905455 142.404883 
L 358.130909 144.685212 
L 358.356364 143.654898 
L 358.581818 148.730714 
L 359.709091 107.154477 
L 359.934545 107.158264 
L 360.16 109.78582 
L 360.836364 100.867788 
L 361.061818 92.889161 
L 361.287273 91.809603 
L 361.512727 81.63398 
L 361.963636 86.891617 
L 362.189091 98.322304 
L 362.414545 98.398062 
L 362.64 106.852705 
L 363.316364 139.720509 
L 363.541818 145.038752 
L 363.767273 147.639792 
L 363.992727 144.128388 
L 364.218182 133.245687 
L 364.443636 129.404733 
L 364.669091 127.751936 
L 364.894545 118.778348 
L 365.345455 114.211376 
L 365.570909 101.587493 
L 365.796364 102.197349 
L 366.021818 99.462469 
L 366.247273 99.280648 
L 366.472727 100.449854 
L 366.698182 91.42576 
L 366.923636 91.180808 
L 367.149091 94.645494 
L 367.374545 92.644208 
L 367.6 93.846242 
L 367.825455 100.588744 
L 368.050909 115.11669 
L 368.276364 121.713988 
L 368.727273 138.139682 
L 368.952727 140.976836 
L 369.178182 149.987041 
L 369.403636 153.633548 
L 370.08 128.161032 
L 370.305455 128.173658 
L 370.530909 125.789792 
L 370.756364 116.319986 
L 371.432727 103.917066 
L 371.658182 103.643072 
L 371.883636 91.91819 
L 372.109091 94.38539 
L 372.56 87.29945 
L 372.785455 91.059594 
L 373.010909 92.911888 
L 373.461818 114.909617 
L 373.687273 119.942503 
L 374.138182 143.360702 
L 374.363636 144.928902 
L 374.814545 150.787556 
L 375.04 145.704164 
L 375.490909 119.213959 
L 375.716364 112.145696 
L 375.941818 112.008068 
L 376.167273 108.423431 
L 376.392727 100.733948 
L 376.618182 113.357831 
L 376.843636 105.433497 
L 377.069091 104.239039 
L 377.294545 107.965092 
L 378.196364 77.45969 
L 378.421818 83.415566 
L 379.098182 115.027042 
L 379.549091 137.140934 
L 379.774545 139.470506 
L 380 146.171341 
L 380.225455 145.147339 
L 381.127273 119.391991 
L 381.578182 104.167068 
L 381.803636 101.784465 
L 382.029091 103.449888 
L 382.254545 102.345078 
L 382.930909 109.11157 
L 383.156364 97.738964 
L 383.381818 92.6783 
L 383.607273 82.654194 
L 383.832727 86.372671 
L 384.058182 92.701027 
L 384.96 133.8164 
L 385.410909 149.165062 
L 385.636364 140.941482 
L 385.861818 138.870751 
L 386.538182 115.325025 
L 386.763636 115.081336 
L 386.989091 108.439845 
L 387.214545 111.178513 
L 387.44 105.64057 
L 387.665455 110.865378 
L 387.890909 106.963818 
L 388.116364 107.367863 
L 388.341818 109.523191 
L 388.792727 58.43043 
L 389.243636 53.568 
L 389.694545 81.181955 
L 390.596364 115.889426 
L 390.821818 118.294757 
L 391.047273 118.424809 
L 391.272727 120.004372 
L 391.723636 102.170833 
L 392.174545 87.156771 
L 392.4 82.92945 
L 392.625455 83.188291 
L 392.850909 93.516693 
L 393.301818 86.083527 
L 393.527273 116.453826 
L 394.203636 58.051638 
L 394.429091 61.941834 
L 394.654545 62.549164 
L 394.88 64.477217 
L 395.330909 96.327332 
L 395.556364 102.722607 
L 396.007273 122.374349 
L 396.232727 129.585291 
L 396.458182 154.488356 
L 397.36 119.587701 
L 397.810909 81.771608 
L 398.036364 85.136546 
L 398.261818 73.684394 
L 398.487273 80.660484 
L 398.487273 80.660484 
" style="fill:none;stroke:#1f77b4;stroke-linecap:square;stroke-width:1.5;"/>
   </g>
   <g id="patch_3">
    <path d="M 57.6 307.584 
L 57.6 41.472 
" style="fill:none;stroke:#000000;stroke-linecap:square;stroke-linejoin:miter;stroke-width:0.8;"/>
   </g>
   <g id="patch_4">
    <path d="M 414.72 307.584 
L 414.72 41.472 
" style="fill:none;stroke:#000000;stroke-linecap:square;stroke-linejoin:miter;stroke-width:0.8;"/>
   </g>
   <g id="patch_5">
    <path d="M 57.6 307.584 
L 414.72 307.584 
" style="fill:none;stroke:#000000;stroke-linecap:square;stroke-linejoin:miter;stroke-width:0.8;"/>
   </g>
   <g id="patch_6">
    <path d="M 57.6 41.472 
L 414.72 41.472 
" style="fill:none;stroke:#000000;stroke-linecap:square;stroke-linejoin:miter;stroke-width:0.8;"/>
   </g>
   <g id="text_18">
    <!-- real_29.csv -->
    <defs>
     <path d="M 41.109375 46.296875 
Q 39.59375 47.171875 37.8125 47.578125 
Q 36.03125 48 33.890625 48 
Q 26.265625 48 22.1875 43.046875 
Q 18.109375 38.09375 18.109375 28.8125 
L 18.109375 0 
L 9.078125 0 
L 9.078125 54.6875 
L 18.109375 54.6875 
L 18.109375 46.1875 
Q 20.953125 51.171875 25.484375 53.578125 
Q 30.03125 56 36.53125 56 
Q 37.453125 56 38.578125 55.875 
Q 39.703125 55.765625 41.0625 55.515625 
z
" id="DejaVuSans-72"/>
     <path d="M 56.203125 29.59375 
L 56.203125 25.203125 
L 14.890625 25.203125 
Q 15.484375 15.921875 20.484375 11.0625 
Q 25.484375 6.203125 34.421875 6.203125 
Q 39.59375 6.203125 44.453125 7.46875 
Q 49.3125 8.734375 54.109375 11.28125 
L 54.109375 2.78125 
Q 49.265625 0.734375 44.1875 -0.34375 
Q 39.109375 -1.421875 33.890625 -1.421875 
Q 20.796875 -1.421875 13.15625 6.1875 
Q 5.515625 13.8125 5.515625 26.8125 
Q 5.515625 40.234375 12.765625 48.109375 
Q 20.015625 56 32.328125 56 
Q 43.359375 56 49.78125 48.890625 
Q 56.203125 41.796875 56.203125 29.59375 
z
M 47.21875 32.234375 
Q 47.125 39.59375 43.09375 43.984375 
Q 39.0625 48.390625 32.421875 48.390625 
Q 24.90625 48.390625 20.390625 44.140625 
Q 15.875 39.890625 15.1875 32.171875 
z
" id="DejaVuSans-65"/>
     <path d="M 34.28125 27.484375 
Q 23.390625 27.484375 19.1875 25 
Q 14.984375 22.515625 14.984375 16.5 
Q 14.984375 11.71875 18.140625 8.90625 
Q 21.296875 6.109375 26.703125 6.109375 
Q 34.1875 6.109375 38.703125 11.40625 
Q 43.21875 16.703125 43.21875 25.484375 
L 43.21875 27.484375 
z
M 52.203125 31.203125 
L 52.203125 0 
L 43.21875 0 
L 43.21875 8.296875 
Q 40.140625 3.328125 35.546875 0.953125 
Q 30.953125 -1.421875 24.3125 -1.421875 
Q 15.921875 -1.421875 10.953125 3.296875 
Q 6 8.015625 6 15.921875 
Q 6 25.140625 12.171875 29.828125 
Q 18.359375 34.515625 30.609375 34.515625 
L 43.21875 34.515625 
L 43.21875 35.40625 
Q 43.21875 41.609375 39.140625 45 
Q 35.0625 48.390625 27.6875 48.390625 
Q 23 48.390625 18.546875 47.265625 
Q 14.109375 46.140625 10.015625 43.890625 
L 10.015625 52.203125 
Q 14.9375 54.109375 19.578125 55.046875 
Q 24.21875 56 28.609375 56 
Q 40.484375 56 46.34375 49.84375 
Q 52.203125 43.703125 52.203125 31.203125 
z
" id="DejaVuSans-61"/>
     <path d="M 9.421875 75.984375 
L 18.40625 75.984375 
L 18.40625 0 
L 9.421875 0 
z
" id="DejaVuSans-6c"/>
     <path d="M 50.984375 -16.609375 
L 50.984375 -23.578125 
L -0.984375 -23.578125 
L -0.984375 -16.609375 
z
" id="DejaVuSans-5f"/>
     <path d="M 10.984375 1.515625 
L 10.984375 10.5 
Q 14.703125 8.734375 18.5 7.8125 
Q 22.3125 6.890625 25.984375 6.890625 
Q 35.75 6.890625 40.890625 13.453125 
Q 46.046875 20.015625 46.78125 33.40625 
Q 43.953125 29.203125 39.59375 26.953125 
Q 35.25 24.703125 29.984375 24.703125 
Q 19.046875 24.703125 12.671875 31.3125 
Q 6.296875 37.9375 6.296875 49.421875 
Q 6.296875 60.640625 12.9375 67.421875 
Q 19.578125 74.21875 30.609375 74.21875 
Q 43.265625 74.21875 49.921875 64.515625 
Q 56.59375 54.828125 56.59375 36.375 
Q 56.59375 19.140625 48.40625 8.859375 
Q 40.234375 -1.421875 26.421875 -1.421875 
Q 22.703125 -1.421875 18.890625 -0.6875 
Q 15.09375 0.046875 10.984375 1.515625 
z
M 30.609375 32.421875 
Q 37.25 32.421875 41.125 36.953125 
Q 45.015625 41.5 45.015625 49.421875 
Q 45.015625 57.28125 41.125 61.84375 
Q 37.25 66.40625 30.609375 66.40625 
Q 23.96875 66.40625 20.09375 61.84375 
Q 16.21875 57.28125 16.21875 49.421875 
Q 16.21875 41.5 20.09375 36.953125 
Q 23.96875 32.421875 30.609375 32.421875 
z
" id="DejaVuSans-39"/>
     <path d="M 10.6875 12.40625 
L 21 12.40625 
L 21 0 
L 10.6875 0 
z
" id="DejaVuSans-2e"/>
     <path d="M 48.78125 52.59375 
L 48.78125 44.1875 
Q 44.96875 46.296875 41.140625 47.34375 
Q 37.3125 48.390625 33.40625 48.390625 
Q 24.65625 48.390625 19.8125 42.84375 
Q 14.984375 37.3125 14.984375 27.296875 
Q 14.984375 17.28125 19.8125 11.734375 
Q 24.65625 6.203125 33.40625 6.203125 
Q 37.3125 6.203125 41.140625 7.25 
Q 44.96875 8.296875 48.78125 10.40625 
L 48.78125 2.09375 
Q 45.015625 0.34375 40.984375 -0.53125 
Q 36.96875 -1.421875 32.421875 -1.421875 
Q 20.0625 -1.421875 12.78125 6.34375 
Q 5.515625 14.109375 5.515625 27.296875 
Q 5.515625 40.671875 12.859375 48.328125 
Q 20.21875 56 33.015625 56 
Q 37.15625 56 41.109375 55.140625 
Q 45.0625 54.296875 48.78125 52.59375 
z
" id="DejaVuSans-63"/>
     <path d="M 44.28125 53.078125 
L 44.28125 44.578125 
Q 40.484375 46.53125 36.375 47.5 
Q 32.28125 48.484375 27.875 48.484375 
Q 21.1875 48.484375 17.84375 46.4375 
Q 14.5 44.390625 14.5 40.28125 
Q 14.5 37.15625 16.890625 35.375 
Q 19.28125 33.59375 26.515625 31.984375 
L 29.59375 31.296875 
Q 39.15625 29.25 43.1875 25.515625 
Q 47.21875 21.78125 47.21875 15.09375 
Q 47.21875 7.46875 41.1875 3.015625 
Q 35.15625 -1.421875 24.609375 -1.421875 
Q 20.21875 -1.421875 15.453125 -0.5625 
Q 10.6875 0.296875 5.421875 2 
L 5.421875 11.28125 
Q 10.40625 8.6875 15.234375 7.390625 
Q 20.0625 6.109375 24.8125 6.109375 
Q 31.15625 6.109375 34.5625 8.28125 
Q 37.984375 10.453125 37.984375 14.40625 
Q 37.984375 18.0625 35.515625 20.015625 
Q 33.0625 21.96875 24.703125 23.78125 
L 21.578125 24.515625 
Q 13.234375 26.265625 9.515625 29.90625 
Q 5.8125 33.546875 5.8125 39.890625 
Q 5.8125 47.609375 11.28125 51.796875 
Q 16.75 56 26.8125 56 
Q 31.78125 56 36.171875 55.265625 
Q 40.578125 54.546875 44.28125 53.078125 
z
" id="DejaVuSans-73"/>
     <path d="M 2.984375 54.6875 
L 12.5 54.6875 
L 29.59375 8.796875 
L 46.6875 54.6875 
L 56.203125 54.6875 
L 35.6875 0 
L 23.484375 0 
z
" id="DejaVuSans-76"/>
    </defs>
    <g transform="translate(202.141875 35.472)scale(0.12 -0.12)">
     <use xlink:href="#DejaVuSans-72"/>
     <use x="41.082031" xlink:href="#DejaVuSans-65"/>
     <use x="102.605469" xlink:href="#DejaVuSans-61"/>
     <use x="163.884766" xlink:href="#DejaVuSans-6c"/>
     <use x="191.667969" xlink:href="#DejaVuSans-5f"/>
     <use x="241.667969" xlink:href="#DejaVuSans-32"/>
     <use x="305.291016" xlink:href="#DejaVuSans-39"/>
     <use x="368.914062" xlink:href="#DejaVuSans-2e"/>
     <use x="400.701172" xlink:href="#DejaVuSans-63"/>
     <use x="455.681641" xlink:href="#DejaVuSans-73"/>
     <use x="507.78125" xlink:href="#DejaVuSans-76"/>
    </g>
   </g>
   <g id="PathCollection_1">
    <defs>
     <path d="M -4.472136 4.472136 
L 4.472136 -4.472136 
M -4.472136 -4.472136 
L 4.472136 4.472136 
" id="m81fc1a138b" style="stroke:#ffa500;stroke-width:1.5;"/>
    </defs>
    <g clip-path="url(#pcda99ade76)">
     <use style="fill:#ffa500;stroke:#ffa500;stroke-width:1.5;" x="154.545455" xlink:href="#m81fc1a138b" y="227.746776"/>
     <use style="fill:#ffa500;stroke:#ffa500;stroke-width:1.5;" x="249.010909" xlink:href="#m81fc1a138b" y="245.652286"/>
     <use style="fill:#ffa500;stroke:#ffa500;stroke-width:1.5;" x="249.236364" xlink:href="#m81fc1a138b" y="282.528974"/>
     <use style="fill:#ffa500;stroke:#ffa500;stroke-width:1.5;" x="313.941818" xlink:href="#m81fc1a138b" y="292.292975"/>
     <use style="fill:#ffa500;stroke:#ffa500;stroke-width:1.5;" x="314.618182" xlink:href="#m81fc1a138b" y="181.017702"/>
     <use style="fill:#ffa500;stroke:#ffa500;stroke-width:1.5;" x="314.843636" xlink:href="#m81fc1a138b" y="180.75381"/>
     <use style="fill:#ffa500;stroke:#ffa500;stroke-width:1.5;" x="354.749091" xlink:href="#m81fc1a138b" y="212.870342"/>
    </g>
   </g>
  </g>
 </g>
 <defs>
  <clipPath id="pcda99ade76">
   <rect height="266.112" width="357.12" x="57.6" y="41.472"/>
  </clipPath>
 </defs>
</svg>
