<?xml version="1.0" encoding="utf-8" standalone="no"?>
<!DOCTYPE svg PUBLIC "-//W3C//DTD SVG 1.1//EN"
  "http://www.w3.org/Graphics/SVG/1.1/DTD/svg11.dtd">
<!-- Created with matplotlib (http://matplotlib.org/) -->
<svg height="345.6pt" version="1.1" viewBox="0 0 460.8 345.6" width="460.8pt" xmlns="http://www.w3.org/2000/svg" xmlns:xlink="http://www.w3.org/1999/xlink">
 <defs>
  <style type="text/css">
*{stroke-linecap:butt;stroke-linejoin:round;}
  </style>
 </defs>
 <g id="figure_1">
  <g id="patch_1">
   <path d="M 0 345.6 
L 460.8 345.6 
L 460.8 0 
L 0 0 
z
" style="fill:#ffffff;"/>
  </g>
  <g id="axes_1">
   <g id="patch_2">
    <path d="M 57.6 307.584 
L 414.72 307.584 
L 414.72 41.472 
L 57.6 41.472 
z
" style="fill:#ffffff;"/>
   </g>
   <g id="matplotlib.axis_1">
    <g id="xtick_1">
     <g id="line2d_1">
      <defs>
       <path d="M 0 0 
L 0 3.5 
" id="m58c57143f4" style="stroke:#000000;stroke-width:0.8;"/>
      </defs>
      <g>
       <use style="stroke:#000000;stroke-width:0.8;" x="73.605059" xlink:href="#m58c57143f4" y="307.584"/>
      </g>
     </g>
     <g id="text_1">
      <!-- 0 -->
      <defs>
       <path d="M 31.78125 66.40625 
Q 24.171875 66.40625 20.328125 58.90625 
Q 16.5 51.421875 16.5 36.375 
Q 16.5 21.390625 20.328125 13.890625 
Q 24.171875 6.390625 31.78125 6.390625 
Q 39.453125 6.390625 43.28125 13.890625 
Q 47.125 21.390625 47.125 36.375 
Q 47.125 51.421875 43.28125 58.90625 
Q 39.453125 66.40625 31.78125 66.40625 
z
M 31.78125 74.21875 
Q 44.046875 74.21875 50.515625 64.515625 
Q 56.984375 54.828125 56.984375 36.375 
Q 56.984375 17.96875 50.515625 8.265625 
Q 44.046875 -1.421875 31.78125 -1.421875 
Q 19.53125 -1.421875 13.0625 8.265625 
Q 6.59375 17.96875 6.59375 36.375 
Q 6.59375 54.828125 13.0625 64.515625 
Q 19.53125 74.21875 31.78125 74.21875 
z
" id="DejaVuSans-30"/>
      </defs>
      <g transform="translate(70.423809 322.182437)scale(0.1 -0.1)">
       <use xlink:href="#DejaVuSans-30"/>
      </g>
     </g>
    </g>
    <g id="xtick_2">
     <g id="line2d_2">
      <g>
       <use style="stroke:#000000;stroke-width:0.8;" x="119.138656" xlink:href="#m58c57143f4" y="307.584"/>
      </g>
     </g>
     <g id="text_2">
      <!-- 200 -->
      <defs>
       <path d="M 19.1875 8.296875 
L 53.609375 8.296875 
L 53.609375 0 
L 7.328125 0 
L 7.328125 8.296875 
Q 12.9375 14.109375 22.625 23.890625 
Q 32.328125 33.6875 34.8125 36.53125 
Q 39.546875 41.84375 41.421875 45.53125 
Q 43.3125 49.21875 43.3125 52.78125 
Q 43.3125 58.59375 39.234375 62.25 
Q 35.15625 65.921875 28.609375 65.921875 
Q 23.96875 65.921875 18.8125 64.3125 
Q 13.671875 62.703125 7.8125 59.421875 
L 7.8125 69.390625 
Q 13.765625 71.78125 18.9375 73 
Q 24.125 74.21875 28.421875 74.21875 
Q 39.75 74.21875 46.484375 68.546875 
Q 53.21875 62.890625 53.21875 53.421875 
Q 53.21875 48.921875 51.53125 44.890625 
Q 49.859375 40.875 45.40625 35.40625 
Q 44.1875 33.984375 37.640625 27.21875 
Q 31.109375 20.453125 19.1875 8.296875 
z
" id="DejaVuSans-32"/>
      </defs>
      <g transform="translate(109.594906 322.182437)scale(0.1 -0.1)">
       <use xlink:href="#DejaVuSans-32"/>
       <use x="63.623047" xlink:href="#DejaVuSans-30"/>
       <use x="127.246094" xlink:href="#DejaVuSans-30"/>
      </g>
     </g>
    </g>
    <g id="xtick_3">
     <g id="line2d_3">
      <g>
       <use style="stroke:#000000;stroke-width:0.8;" x="164.672253" xlink:href="#m58c57143f4" y="307.584"/>
      </g>
     </g>
     <g id="text_3">
      <!-- 400 -->
      <defs>
       <path d="M 37.796875 64.3125 
L 12.890625 25.390625 
L 37.796875 25.390625 
z
M 35.203125 72.90625 
L 47.609375 72.90625 
L 47.609375 25.390625 
L 58.015625 25.390625 
L 58.015625 17.1875 
L 47.609375 17.1875 
L 47.609375 0 
L 37.796875 0 
L 37.796875 17.1875 
L 4.890625 17.1875 
L 4.890625 26.703125 
z
" id="DejaVuSans-34"/>
      </defs>
      <g transform="translate(155.128503 322.182437)scale(0.1 -0.1)">
       <use xlink:href="#DejaVuSans-34"/>
       <use x="63.623047" xlink:href="#DejaVuSans-30"/>
       <use x="127.246094" xlink:href="#DejaVuSans-30"/>
      </g>
     </g>
    </g>
    <g id="xtick_4">
     <g id="line2d_4">
      <g>
       <use style="stroke:#000000;stroke-width:0.8;" x="210.20585" xlink:href="#m58c57143f4" y="307.584"/>
      </g>
     </g>
     <g id="text_4">
      <!-- 600 -->
      <defs>
       <path d="M 33.015625 40.375 
Q 26.375 40.375 22.484375 35.828125 
Q 18.609375 31.296875 18.609375 23.390625 
Q 18.609375 15.53125 22.484375 10.953125 
Q 26.375 6.390625 33.015625 6.390625 
Q 39.65625 6.390625 43.53125 10.953125 
Q 47.40625 15.53125 47.40625 23.390625 
Q 47.40625 31.296875 43.53125 35.828125 
Q 39.65625 40.375 33.015625 40.375 
z
M 52.59375 71.296875 
L 52.59375 62.3125 
Q 48.875 64.0625 45.09375 64.984375 
Q 41.3125 65.921875 37.59375 65.921875 
Q 27.828125 65.921875 22.671875 59.328125 
Q 17.53125 52.734375 16.796875 39.40625 
Q 19.671875 43.65625 24.015625 45.921875 
Q 28.375 48.1875 33.59375 48.1875 
Q 44.578125 48.1875 50.953125 41.515625 
Q 57.328125 34.859375 57.328125 23.390625 
Q 57.328125 12.15625 50.6875 5.359375 
Q 44.046875 -1.421875 33.015625 -1.421875 
Q 20.359375 -1.421875 13.671875 8.265625 
Q 6.984375 17.96875 6.984375 36.375 
Q 6.984375 53.65625 15.1875 63.9375 
Q 23.390625 74.21875 37.203125 74.21875 
Q 40.921875 74.21875 44.703125 73.484375 
Q 48.484375 72.75 52.59375 71.296875 
z
" id="DejaVuSans-36"/>
      </defs>
      <g transform="translate(200.6621 322.182437)scale(0.1 -0.1)">
       <use xlink:href="#DejaVuSans-36"/>
       <use x="63.623047" xlink:href="#DejaVuSans-30"/>
       <use x="127.246094" xlink:href="#DejaVuSans-30"/>
      </g>
     </g>
    </g>
    <g id="xtick_5">
     <g id="line2d_5">
      <g>
       <use style="stroke:#000000;stroke-width:0.8;" x="255.739447" xlink:href="#m58c57143f4" y="307.584"/>
      </g>
     </g>
     <g id="text_5">
      <!-- 800 -->
      <defs>
       <path d="M 31.78125 34.625 
Q 24.75 34.625 20.71875 30.859375 
Q 16.703125 27.09375 16.703125 20.515625 
Q 16.703125 13.921875 20.71875 10.15625 
Q 24.75 6.390625 31.78125 6.390625 
Q 38.8125 6.390625 42.859375 10.171875 
Q 46.921875 13.96875 46.921875 20.515625 
Q 46.921875 27.09375 42.890625 30.859375 
Q 38.875 34.625 31.78125 34.625 
z
M 21.921875 38.8125 
Q 15.578125 40.375 12.03125 44.71875 
Q 8.5 49.078125 8.5 55.328125 
Q 8.5 64.0625 14.71875 69.140625 
Q 20.953125 74.21875 31.78125 74.21875 
Q 42.671875 74.21875 48.875 69.140625 
Q 55.078125 64.0625 55.078125 55.328125 
Q 55.078125 49.078125 51.53125 44.71875 
Q 48 40.375 41.703125 38.8125 
Q 48.828125 37.15625 52.796875 32.3125 
Q 56.78125 27.484375 56.78125 20.515625 
Q 56.78125 9.90625 50.3125 4.234375 
Q 43.84375 -1.421875 31.78125 -1.421875 
Q 19.734375 -1.421875 13.25 4.234375 
Q 6.78125 9.90625 6.78125 20.515625 
Q 6.78125 27.484375 10.78125 32.3125 
Q 14.796875 37.15625 21.921875 38.8125 
z
M 18.3125 54.390625 
Q 18.3125 48.734375 21.84375 45.5625 
Q 25.390625 42.390625 31.78125 42.390625 
Q 38.140625 42.390625 41.71875 45.5625 
Q 45.3125 48.734375 45.3125 54.390625 
Q 45.3125 60.0625 41.71875 63.234375 
Q 38.140625 66.40625 31.78125 66.40625 
Q 25.390625 66.40625 21.84375 63.234375 
Q 18.3125 60.0625 18.3125 54.390625 
z
" id="DejaVuSans-38"/>
      </defs>
      <g transform="translate(246.195697 322.182437)scale(0.1 -0.1)">
       <use xlink:href="#DejaVuSans-38"/>
       <use x="63.623047" xlink:href="#DejaVuSans-30"/>
       <use x="127.246094" xlink:href="#DejaVuSans-30"/>
      </g>
     </g>
    </g>
    <g id="xtick_6">
     <g id="line2d_6">
      <g>
       <use style="stroke:#000000;stroke-width:0.8;" x="301.273043" xlink:href="#m58c57143f4" y="307.584"/>
      </g>
     </g>
     <g id="text_6">
      <!-- 1000 -->
      <defs>
       <path d="M 12.40625 8.296875 
L 28.515625 8.296875 
L 28.515625 63.921875 
L 10.984375 60.40625 
L 10.984375 69.390625 
L 28.421875 72.90625 
L 38.28125 72.90625 
L 38.28125 8.296875 
L 54.390625 8.296875 
L 54.390625 0 
L 12.40625 0 
z
" id="DejaVuSans-31"/>
      </defs>
      <g transform="translate(288.548043 322.182437)scale(0.1 -0.1)">
       <use xlink:href="#DejaVuSans-31"/>
       <use x="63.623047" xlink:href="#DejaVuSans-30"/>
       <use x="127.246094" xlink:href="#DejaVuSans-30"/>
       <use x="190.869141" xlink:href="#DejaVuSans-30"/>
      </g>
     </g>
    </g>
    <g id="xtick_7">
     <g id="line2d_7">
      <g>
       <use style="stroke:#000000;stroke-width:0.8;" x="346.80664" xlink:href="#m58c57143f4" y="307.584"/>
      </g>
     </g>
     <g id="text_7">
      <!-- 1200 -->
      <g transform="translate(334.08164 322.182437)scale(0.1 -0.1)">
       <use xlink:href="#DejaVuSans-31"/>
       <use x="63.623047" xlink:href="#DejaVuSans-32"/>
       <use x="127.246094" xlink:href="#DejaVuSans-30"/>
       <use x="190.869141" xlink:href="#DejaVuSans-30"/>
      </g>
     </g>
    </g>
    <g id="xtick_8">
     <g id="line2d_8">
      <g>
       <use style="stroke:#000000;stroke-width:0.8;" x="392.340237" xlink:href="#m58c57143f4" y="307.584"/>
      </g>
     </g>
     <g id="text_8">
      <!-- 1400 -->
      <g transform="translate(379.615237 322.182437)scale(0.1 -0.1)">
       <use xlink:href="#DejaVuSans-31"/>
       <use x="63.623047" xlink:href="#DejaVuSans-34"/>
       <use x="127.246094" xlink:href="#DejaVuSans-30"/>
       <use x="190.869141" xlink:href="#DejaVuSans-30"/>
      </g>
     </g>
    </g>
   </g>
   <g id="matplotlib.axis_2">
    <g id="ytick_1">
     <g id="line2d_9">
      <defs>
       <path d="M 0 0 
L -3.5 0 
" id="mea08acded6" style="stroke:#000000;stroke-width:0.8;"/>
      </defs>
      <g>
       <use style="stroke:#000000;stroke-width:0.8;" x="57.6" xlink:href="#mea08acded6" y="293.171548"/>
      </g>
     </g>
     <g id="text_9">
      <!-- 0 -->
      <g transform="translate(44.2375 296.970766)scale(0.1 -0.1)">
       <use xlink:href="#DejaVuSans-30"/>
      </g>
     </g>
    </g>
    <g id="ytick_2">
     <g id="line2d_10">
      <g>
       <use style="stroke:#000000;stroke-width:0.8;" x="57.6" xlink:href="#mea08acded6" y="241.24877"/>
      </g>
     </g>
     <g id="text_10">
      <!-- 500 -->
      <defs>
       <path d="M 10.796875 72.90625 
L 49.515625 72.90625 
L 49.515625 64.59375 
L 19.828125 64.59375 
L 19.828125 46.734375 
Q 21.96875 47.46875 24.109375 47.828125 
Q 26.265625 48.1875 28.421875 48.1875 
Q 40.625 48.1875 47.75 41.5 
Q 54.890625 34.8125 54.890625 23.390625 
Q 54.890625 11.625 47.5625 5.09375 
Q 40.234375 -1.421875 26.90625 -1.421875 
Q 22.3125 -1.421875 17.546875 -0.640625 
Q 12.796875 0.140625 7.71875 1.703125 
L 7.71875 11.625 
Q 12.109375 9.234375 16.796875 8.0625 
Q 21.484375 6.890625 26.703125 6.890625 
Q 35.15625 6.890625 40.078125 11.328125 
Q 45.015625 15.765625 45.015625 23.390625 
Q 45.015625 31 40.078125 35.4375 
Q 35.15625 39.890625 26.703125 39.890625 
Q 22.75 39.890625 18.8125 39.015625 
Q 14.890625 38.140625 10.796875 36.28125 
z
" id="DejaVuSans-35"/>
      </defs>
      <g transform="translate(31.5125 245.047988)scale(0.1 -0.1)">
       <use xlink:href="#DejaVuSans-35"/>
       <use x="63.623047" xlink:href="#DejaVuSans-30"/>
       <use x="127.246094" xlink:href="#DejaVuSans-30"/>
      </g>
     </g>
    </g>
    <g id="ytick_3">
     <g id="line2d_11">
      <g>
       <use style="stroke:#000000;stroke-width:0.8;" x="57.6" xlink:href="#mea08acded6" y="189.325992"/>
      </g>
     </g>
     <g id="text_11">
      <!-- 1000 -->
      <g transform="translate(25.15 193.12521)scale(0.1 -0.1)">
       <use xlink:href="#DejaVuSans-31"/>
       <use x="63.623047" xlink:href="#DejaVuSans-30"/>
       <use x="127.246094" xlink:href="#DejaVuSans-30"/>
       <use x="190.869141" xlink:href="#DejaVuSans-30"/>
      </g>
     </g>
    </g>
    <g id="ytick_4">
     <g id="line2d_12">
      <g>
       <use style="stroke:#000000;stroke-width:0.8;" x="57.6" xlink:href="#mea08acded6" y="137.403214"/>
      </g>
     </g>
     <g id="text_12">
      <!-- 1500 -->
      <g transform="translate(25.15 141.202433)scale(0.1 -0.1)">
       <use xlink:href="#DejaVuSans-31"/>
       <use x="63.623047" xlink:href="#DejaVuSans-35"/>
       <use x="127.246094" xlink:href="#DejaVuSans-30"/>
       <use x="190.869141" xlink:href="#DejaVuSans-30"/>
      </g>
     </g>
    </g>
    <g id="ytick_5">
     <g id="line2d_13">
      <g>
       <use style="stroke:#000000;stroke-width:0.8;" x="57.6" xlink:href="#mea08acded6" y="85.480436"/>
      </g>
     </g>
     <g id="text_13">
      <!-- 2000 -->
      <g transform="translate(25.15 89.279655)scale(0.1 -0.1)">
       <use xlink:href="#DejaVuSans-32"/>
       <use x="63.623047" xlink:href="#DejaVuSans-30"/>
       <use x="127.246094" xlink:href="#DejaVuSans-30"/>
       <use x="190.869141" xlink:href="#DejaVuSans-30"/>
      </g>
     </g>
    </g>
   </g>
   <g id="line2d_14">
    <path clip-path="url(#p0f4eb54832)" d="M 73.832727 293.171548 
L 74.060395 287.563888 
L 74.288063 191.299057 
L 74.515731 193.375968 
L 74.743399 193.272123 
L 74.971067 180.291428 
L 75.654071 202.410532 
L 76.337075 255.371765 
L 76.564743 261.083271 
L 76.792411 271.260135 
L 77.020079 274.479348 
L 77.247747 269.598606 
L 77.703083 246.960275 
L 77.930751 230.344986 
L 78.158419 229.306531 
L 78.386087 226.606546 
L 78.613755 225.3604 
L 78.841423 222.141187 
L 79.069091 217.052755 
L 79.296759 233.252662 
L 79.524427 220.271967 
L 79.752095 215.287381 
L 79.979763 215.806608 
L 80.207431 211.756632 
L 80.435099 204.279752 
L 80.890435 210.614331 
L 81.118103 210.614331 
L 82.028775 271.15629 
L 82.256443 276.348568 
L 82.484111 277.69856 
L 82.711779 272.0909 
L 82.939447 272.402436 
L 83.394783 237.302639 
L 83.850119 222.245033 
L 84.077787 227.748847 
L 84.533123 223.179643 
L 84.760791 224.737326 
L 84.988458 220.998886 
L 85.216126 206.148972 
L 85.443794 213.522006 
L 85.671462 210.510485 
L 85.89913 204.383597 
L 86.126798 201.579767 
L 86.354466 195.972107 
L 87.492806 272.402436 
L 87.720474 278.425479 
L 88.403478 260.148661 
L 88.631146 241.664152 
L 88.858814 233.77189 
L 89.31415 212.587396 
L 89.541818 213.625852 
L 89.769486 204.487443 
L 89.997154 201.372076 
L 90.224822 204.487443 
L 90.45249 205.110516 
L 90.680158 208.122037 
L 91.135494 182.576031 
L 91.363162 183.718332 
L 91.59083 160.249236 
L 92.046166 201.372076 
L 92.273834 230.137295 
L 92.956838 270.325525 
L 93.412174 273.752429 
L 93.639842 266.690931 
L 94.322846 223.075797 
L 94.550514 221.62196 
L 94.778182 222.037342 
L 95.00585 214.975844 
L 95.233518 213.418161 
L 95.916522 204.175906 
L 96.14419 203.033605 
L 96.599526 176.137606 
L 96.827194 175.099151 
L 97.054862 179.979892 
L 97.28253 174.787614 
L 97.510198 193.479814 
L 97.965534 251.52948 
L 98.648538 270.844753 
L 98.876206 274.479348 
L 99.331542 248.829495 
L 99.559209 224.114253 
L 99.786877 227.437311 
L 100.014545 227.437311 
L 100.242213 226.29501 
L 100.697549 208.53742 
L 100.925217 209.991257 
L 101.152885 208.952802 
L 101.380553 208.53742 
L 101.608221 196.802872 
L 101.835889 197.425945 
L 102.291225 182.472185 
L 102.518893 179.045282 
L 102.746561 178.837591 
L 103.429565 248.102576 
L 103.657233 255.579456 
L 103.884901 269.806298 
L 104.112569 269.806298 
L 104.340237 276.971641 
L 105.023241 236.991102 
L 105.250909 234.7065 
L 105.706245 216.845064 
L 106.161581 215.910454 
L 106.616917 206.356663 
L 106.844585 209.679721 
L 107.072253 188.806764 
L 107.299921 198.775937 
L 107.527589 189.429837 
L 107.755257 199.295165 
L 107.982925 192.856741 
L 108.210593 214.871998 
L 108.438261 202.202841 
L 109.121265 263.264028 
L 109.348933 273.337046 
L 109.576601 272.817819 
L 109.804269 273.129355 
L 110.031937 266.379394 
L 111.170277 217.052755 
L 111.397945 217.052755 
L 111.625613 219.648894 
L 111.853281 219.648894 
L 112.080949 213.21047 
L 112.308617 212.691242 
L 112.763953 195.556725 
L 112.991621 202.825914 
L 113.219289 214.560462 
L 113.446957 199.399011 
L 113.674625 195.556725 
L 113.902292 210.510485 
L 114.12996 233.356507 
L 114.357628 240.106469 
L 114.812964 270.740908 
L 115.040632 275.933185 
L 115.2683 272.506282 
L 115.495968 271.883209 
L 115.723636 269.806298 
L 116.178972 229.09884 
L 116.40664 229.929604 
L 116.634308 223.387334 
L 117.089644 233.252662 
L 117.317312 231.383442 
L 117.772648 217.779674 
L 118.000316 223.283488 
L 118.227984 223.802716 
L 118.910988 214.456616 
L 119.138656 214.041234 
L 119.82166 247.479503 
L 120.049328 263.264028 
L 120.276996 267.521695 
L 120.504664 276.140876 
L 120.732332 273.856274 
L 120.96 274.790884 
L 121.187668 270.117834 
L 121.415336 252.152553 
L 121.870672 236.679565 
L 122.09834 219.648894 
L 122.553676 236.056492 
L 122.781344 222.764261 
L 123.009012 232.110361 
L 123.23668 227.852693 
L 123.464348 215.806608 
L 123.692016 219.129666 
L 123.919684 210.198948 
L 124.147352 210.822022 
L 124.602688 205.318207 
L 124.830356 216.637373 
L 125.285692 253.917927 
L 125.741028 276.452413 
L 125.968696 274.063965 
L 126.196364 277.802405 
L 126.424032 271.467826 
L 126.6517 260.771734 
L 127.107036 232.941125 
L 127.562372 218.610438 
L 127.79004 219.545048 
L 128.017708 201.372076 
L 128.245375 208.848956 
L 128.700711 206.045126 
L 129.156047 194.829806 
L 129.383715 193.272123 
L 129.839051 186.833698 
L 130.066719 180.291428 
L 130.294387 198.152864 
L 130.749723 248.829495 
L 130.977391 263.056336 
L 131.205059 266.794776 
L 131.432727 274.583193 
L 131.660395 275.102421 
L 131.888063 268.560151 
L 132.343399 238.860322 
L 132.571067 231.90267 
L 132.798735 220.583504 
L 133.026403 222.868106 
L 133.254071 211.029713 
L 133.481739 207.498964 
L 133.709407 211.860477 
L 133.937075 211.860477 
L 134.847747 194.206733 
L 135.075415 195.245188 
L 135.303083 186.833698 
L 135.530751 190.779829 
L 135.758419 203.241296 
L 136.441423 265.54863 
L 136.669091 266.171703 
L 137.124427 276.556259 
L 138.035099 226.398855 
L 138.262767 224.841172 
L 138.490435 215.910454 
L 138.718103 219.856585 
L 139.173439 212.795087 
L 139.401107 205.318207 
L 139.628775 208.122037 
L 140.084111 198.360555 
L 140.311779 195.764416 
L 140.539447 187.145235 
L 140.767115 185.483706 
L 140.994783 180.291428 
L 141.905455 259.94097 
L 142.133123 268.040923 
L 142.588458 272.713973 
L 142.816126 269.806298 
L 143.726798 220.998886 
L 143.954466 219.025821 
L 144.182134 214.975844 
L 144.409802 221.725805 
L 145.092806 202.410532 
L 145.320474 204.175906 
L 145.77581 194.414424 
L 146.003478 184.341405 
L 146.231146 185.068324 
L 146.458814 192.233667 
L 146.686482 193.58366 
L 146.91415 229.825759 
L 147.141818 244.467982 
L 147.369486 267.002468 
L 147.597154 268.456305 
L 147.824822 272.298591 
L 148.05249 273.96012 
L 148.280158 268.767842 
L 148.735494 238.860322 
L 148.963162 231.90267 
L 149.19083 231.487287 
L 149.418498 227.333465 
L 149.646166 218.091211 
L 149.873834 218.195056 
L 150.101502 226.918083 
L 150.32917 207.810501 
L 150.556838 207.291273 
L 150.784506 205.837435 
L 151.012174 192.441358 
L 151.46751 203.968215 
L 151.695178 188.806764 
L 151.922846 204.383597 
L 152.150514 211.237404 
L 152.833518 261.81019 
L 153.061186 263.367873 
L 153.288854 274.479348 
L 153.516522 278.217788 
L 153.74419 275.517803 
L 154.427194 237.302639 
L 154.654862 231.383442 
L 154.88253 237.302639 
L 155.110198 228.475766 
L 155.337866 228.787303 
L 155.565534 236.264183 
L 155.793202 222.245033 
L 156.02087 222.660415 
L 156.248538 221.62196 
L 156.476206 222.452724 
L 156.703874 210.718176 
L 156.931542 220.998886 
L 157.159209 212.483551 
L 157.386877 215.391226 
L 157.614545 221.518114 
L 158.069881 243.948754 
L 158.525217 268.144769 
L 158.752885 274.583193 
L 159.208221 278.113942 
L 159.435889 269.702452 
L 159.891225 228.371921 
L 160.118893 239.171859 
L 160.346561 230.760369 
L 160.801897 237.094947 
L 161.029565 231.487287 
L 161.257233 222.452724 
L 161.484901 226.918083 
L 161.712569 225.048863 
L 161.940237 213.418161 
L 162.167905 210.198948 
L 162.395573 198.672092 
L 162.623241 194.829806 
L 163.078577 206.564354 
L 163.533913 252.152553 
L 163.989249 272.402436 
L 164.444585 275.413958 
L 164.672253 270.325525 
L 165.582925 219.545048 
L 165.810593 209.887412 
L 166.038261 207.810501 
L 166.265929 202.514377 
L 166.493597 211.34125 
L 166.721265 212.379705 
L 167.404269 189.949065 
L 167.631937 193.168277 
L 167.859605 183.406795 
L 168.087273 179.149127 
L 168.770277 223.075797 
L 169.225613 264.198638 
L 169.453281 267.625541 
L 169.680949 273.752429 
L 169.908617 274.167811 
L 170.363953 255.890993 
L 170.591621 234.498809 
L 171.046957 220.583504 
L 171.274625 220.271967 
L 171.502292 217.88352 
L 171.72996 209.783566 
L 171.957628 211.860477 
L 172.185296 228.371921 
L 172.412964 198.879783 
L 172.640632 192.441358 
L 172.8683 191.610594 
L 173.323636 189.014455 
L 173.551304 183.510641 
L 173.778972 185.379861 
L 174.00664 193.375968 
L 174.461976 243.221835 
L 174.689644 261.290962 
L 174.917312 270.325525 
L 175.14498 273.129355 
L 175.372648 273.440892 
L 175.600316 272.0909 
L 176.055652 236.160337 
L 176.28332 225.671936 
L 176.510988 222.971952 
L 176.966324 212.795087 
L 177.193992 213.937388 
L 177.42166 212.172014 
L 177.649328 205.006671 
L 177.876996 213.522006 
L 178.56 184.133714 
L 178.787668 184.652942 
L 179.015336 173.853004 
L 179.470672 196.595181 
L 179.926008 243.014144 
L 180.153676 257.448676 
L 180.381344 264.61402 
L 180.609012 275.413958 
L 180.83668 276.660104 
L 181.064348 267.937078 
L 181.519684 236.160337 
L 181.747352 232.525743 
L 181.97502 222.245033 
L 182.430356 211.756632 
L 182.658024 213.418161 
L 182.885692 217.987365 
L 183.11336 208.53742 
L 183.341028 209.056647 
L 184.024032 181.329884 
L 184.2517 184.756787 
L 184.707036 179.252973 
L 185.617708 257.864059 
L 185.845375 270.637062 
L 186.073043 273.440892 
L 186.300711 273.233201 
L 186.528379 268.248614 
L 186.983715 235.018036 
L 187.439051 224.42579 
L 187.666719 223.387334 
L 187.894387 220.791195 
L 188.122055 224.633481 
L 188.349723 216.0143 
L 188.577391 220.271967 
L 188.805059 208.018192 
L 189.032727 209.47203 
L 189.260395 195.972107 
L 189.488063 195.141343 
L 189.943399 205.837435 
L 190.171067 199.606702 
L 190.398735 205.422053 
L 190.626403 231.798824 
L 190.854071 241.041079 
L 191.081739 261.602499 
L 191.309407 271.363981 
L 191.537075 271.052444 
L 191.764743 274.583193 
L 191.992411 274.583193 
L 192.220079 265.340939 
L 192.675415 230.241141 
L 192.903083 231.798824 
L 193.358419 227.541156 
L 193.586087 228.475766 
L 193.813755 227.22962 
L 194.041423 228.060384 
L 194.269091 226.606546 
L 194.496759 220.479658 
L 194.952095 214.768153 
L 195.179763 214.14508 
L 195.407431 212.795087 
L 195.635099 209.783566 
L 195.862767 225.048863 
L 196.090435 229.721913 
L 196.545771 263.160182 
L 196.773439 272.817819 
L 197.001107 272.817819 
L 197.228775 278.425479 
L 197.456443 271.363981 
L 197.684111 269.28707 
L 198.367115 230.96806 
L 198.594783 224.529635 
L 198.822451 224.010407 
L 199.050119 222.141187 
L 199.277787 217.779674 
L 199.505455 231.383442 
L 199.733123 221.62196 
L 199.960791 223.595025 
L 200.188458 206.979736 
L 200.416126 213.21047 
L 200.643794 197.425945 
L 200.871462 203.241296 
L 201.09913 197.114408 
L 202.23747 270.429371 
L 202.692806 278.321633 
L 202.920474 271.779363 
L 203.148142 259.214051 
L 203.37581 235.64111 
L 204.058814 217.779674 
L 204.286482 205.73359 
L 204.51415 203.345142 
L 204.741818 209.783566 
L 204.969486 207.60281 
L 205.197154 213.522006 
L 205.424822 189.845219 
L 205.65249 197.218254 
L 205.880158 192.233667 
L 206.335494 168.972263 
L 207.701502 270.740908 
L 207.92917 273.02551 
L 208.384506 267.833232 
L 209.06751 230.864214 
L 209.295178 223.283488 
L 209.750514 216.221991 
L 209.978182 222.971952 
L 210.20585 259.00636 
L 210.433518 208.745111 
L 210.661186 209.056647 
L 210.888854 199.606702 
L 211.116522 196.595181 
L 211.34419 178.422208 
L 211.571858 182.368339 
L 211.799526 173.126085 
L 212.254862 198.152864 
L 212.710198 247.687194 
L 212.937866 255.060229 
L 213.393202 273.544738 
L 213.62087 273.648583 
L 213.848538 268.456305 
L 214.303874 237.821866 
L 214.531542 231.383442 
L 214.759209 218.506593 
L 214.986877 224.321944 
L 215.214545 222.037342 
L 215.442213 209.887412 
L 215.897549 209.575875 
L 216.125217 204.591288 
L 216.352885 202.618223 
L 216.580553 185.379861 
L 216.808221 190.572138 
L 217.035889 190.987521 
L 217.263557 185.587552 
L 217.718893 204.072061 
L 217.946561 232.629589 
L 218.174229 242.702607 
L 218.629565 268.144769 
L 218.857233 268.663996 
L 219.084901 274.583193 
L 219.312569 268.456305 
L 219.995573 224.114253 
L 220.223241 223.283488 
L 220.450909 212.898933 
L 220.678577 210.198948 
L 220.906245 211.652786 
L 221.133913 210.718176 
L 221.361581 205.006671 
L 221.589249 218.714284 
L 222.044585 196.179798 
L 222.272253 192.856741 
L 222.499921 195.972107 
L 222.955257 183.718332 
L 223.638261 248.206422 
L 224.321265 274.063965 
L 224.776601 270.22168 
L 225.459605 227.22962 
L 225.687273 236.160337 
L 225.914941 221.725805 
L 226.142609 223.906562 
L 226.370277 224.010407 
L 226.597945 225.048863 
L 226.825613 224.010407 
L 227.053281 220.68735 
L 227.280949 211.34125 
L 227.508617 212.483551 
L 227.736285 204.175906 
L 227.963953 217.468137 
L 228.191621 210.40664 
L 228.419289 199.814393 
L 228.646957 216.325836 
L 228.874625 222.971952 
L 229.102292 248.414113 
L 229.557628 269.390915 
L 230.012964 274.375502 
L 230.240632 270.22168 
L 231.151304 228.371921 
L 231.378972 227.956539 
L 231.60664 222.868106 
L 231.834308 236.57572 
L 232.061976 226.398855 
L 232.289644 227.333465 
L 232.972648 218.091211 
L 233.200316 218.506593 
L 233.427984 214.975844 
L 233.655652 204.279752 
L 233.88332 220.479658 
L 234.110988 221.829651 
L 235.02166 271.260135 
L 235.249328 270.844753 
L 235.476996 279.879316 
L 235.704664 278.010096 
L 235.932332 270.948599 
L 236.16 248.517959 
L 236.387668 242.910299 
L 236.843004 224.737326 
L 237.070672 228.683457 
L 237.29834 228.475766 
L 237.753676 221.829651 
L 237.981344 221.933496 
L 238.209012 213.522006 
L 238.43668 218.610438 
L 238.664348 206.356663 
L 238.892016 205.73359 
L 239.119684 207.914346 
L 239.347352 197.425945 
L 239.57502 210.198948 
L 240.030356 246.441047 
L 240.485692 268.975533 
L 240.71336 274.583193 
L 240.941028 275.310112 
L 241.168696 271.467826 
L 242.307036 212.27586 
L 242.534704 203.137451 
L 242.99004 207.810501 
L 243.445375 202.618223 
L 243.673043 200.541312 
L 243.900711 187.249081 
L 244.128379 186.106779 
L 244.356047 177.383753 
L 244.583715 188.183691 
L 245.039051 195.45288 
L 245.494387 247.687194 
L 245.722055 257.033294 
L 245.949723 272.713973 
L 246.177391 275.933185 
L 246.405059 275.206266 
L 247.543399 221.518114 
L 247.771067 219.441203 
L 247.998735 214.664307 
L 248.226403 214.14508 
L 248.454071 208.433574 
L 248.681739 211.445095 
L 248.909407 212.587396 
L 249.137075 190.987521 
L 249.364743 196.179798 
L 249.820079 184.964478 
L 250.047747 187.768308 
L 250.275415 182.887567 
L 250.503083 195.868262 
L 250.730751 233.875735 
L 251.413755 266.067858 
L 251.641423 277.594714 
L 252.096759 271.363981 
L 252.552095 236.887256 
L 252.779763 232.733434 
L 253.007431 218.921975 
L 253.235099 219.233512 
L 253.462767 222.660415 
L 253.690435 212.068168 
L 253.918103 219.856585 
L 254.145771 208.848956 
L 254.373439 214.352771 
L 254.601107 194.622115 
L 254.828775 197.841327 
L 255.056443 194.933652 
L 255.511779 181.745266 
L 255.739447 179.772201 
L 256.194783 228.891149 
L 256.877787 267.314004 
L 257.333123 276.971641 
L 257.788458 253.814082 
L 258.243794 229.825759 
L 258.471462 231.175751 
L 258.69913 220.271967 
L 258.926798 222.764261 
L 259.154466 210.718176 
L 259.609802 217.571983 
L 259.83747 210.095103 
L 260.065138 211.860477 
L 260.292806 197.114408 
L 260.520474 197.218254 
L 260.748142 200.956694 
L 260.97581 197.529791 
L 261.203478 190.364447 
L 261.431146 196.38749 
L 261.658814 240.106469 
L 262.341818 272.0909 
L 262.569486 273.337046 
L 262.797154 277.802405 
L 263.25249 256.825603 
L 263.707826 225.568091 
L 263.935494 221.102732 
L 264.163162 219.75274 
L 264.39083 216.0143 
L 264.618498 218.298902 
L 264.846166 224.321944 
L 265.073834 212.379705 
L 265.301502 210.614331 
L 265.52917 201.268231 
L 265.756838 206.148972 
L 265.984506 205.214362 
L 266.212174 196.075953 
L 266.439842 205.318207 
L 266.66751 206.772045 
L 266.895178 213.729697 
L 267.578182 259.421742 
L 268.033518 274.063965 
L 268.261186 277.387023 
L 268.488854 274.790884 
L 268.716522 267.729386 
L 268.94419 246.025665 
L 269.399526 227.125774 
L 269.627194 225.464245 
L 269.854862 233.77189 
L 270.08253 231.591133 
L 270.765534 215.806608 
L 270.993202 223.595025 
L 271.22087 221.518114 
L 271.448538 217.987365 
L 271.676206 217.675828 
L 271.903874 213.314315 
L 272.131542 231.90267 
L 272.359209 221.206577 
L 272.586877 241.041079 
L 272.814545 245.194901 
L 273.269881 272.194745 
L 273.725217 279.983162 
L 273.952885 277.387023 
L 274.180553 267.521695 
L 274.635889 239.275704 
L 274.863557 229.306531 
L 275.091225 227.541156 
L 275.318893 229.721913 
L 275.546561 225.983473 
L 275.774229 233.460353 
L 276.001897 222.245033 
L 276.229565 225.568091 
L 276.457233 223.906562 
L 276.684901 215.287381 
L 276.912569 219.129666 
L 277.140237 211.237404 
L 277.367905 184.341405 
L 278.506245 260.564043 
L 278.733913 273.233201 
L 279.189249 278.217788 
L 279.416917 272.610128 
L 280.099921 229.410376 
L 280.327589 227.645002 
L 280.555257 219.337357 
L 280.782925 220.998886 
L 281.238261 206.148972 
L 281.465929 208.745111 
L 281.693597 213.522006 
L 281.921265 199.710547 
L 282.148933 196.491335 
L 282.376601 224.114253 
L 282.831937 157.964634 
L 283.514941 226.918083 
L 284.197945 267.833232 
L 284.653281 276.660104 
L 285.336285 236.57572 
L 286.019289 221.206577 
L 286.246957 223.179643 
L 286.474625 214.041234 
L 286.702292 219.441203 
L 287.157628 222.660415 
L 287.385296 205.629744 
L 287.612964 203.137451 
L 287.840632 199.399011 
L 288.0683 186.626007 
L 288.295968 184.133714 
L 288.523636 185.795243 
L 288.978972 239.37955 
L 289.20664 250.283333 
L 289.434308 270.325525 
L 289.661976 271.883209 
L 289.889644 278.737015 
L 290.34498 267.833232 
L 290.800316 225.464245 
L 291.027984 230.552677 
L 291.255652 230.344986 
L 291.710988 221.62196 
L 291.938656 214.871998 
L 292.166324 215.183535 
L 292.393992 217.468137 
L 292.62166 227.852693 
L 292.849328 206.460508 
L 293.076996 200.645157 
L 293.304664 202.722068 
L 293.532332 185.068324 
L 293.987668 189.533683 
L 294.215336 205.837435 
L 294.670672 257.967904 
L 294.89834 270.325525 
L 295.353676 281.229309 
L 295.809012 268.560151 
L 296.03668 256.306375 
L 296.264348 226.814237 
L 296.492016 234.7065 
L 296.719684 229.514222 
L 296.947352 229.618067 
L 297.402688 200.229775 
L 297.858024 212.068168 
L 298.085692 211.029713 
L 298.31336 198.775937 
L 298.768696 206.6682 
L 298.996364 188.287536 
L 299.224032 183.718332 
L 299.679368 209.160493 
L 300.134704 262.329418 
L 300.362372 265.756321 
L 300.59004 275.725494 
L 301.045375 277.075486 
L 301.273043 268.560151 
L 301.728379 234.187272 
L 301.956047 233.875735 
L 302.183715 56.715217 
L 302.411383 182.056803 
L 302.639051 197.945173 
L 302.866719 192.129822 
L 303.094387 194.622115 
L 303.322055 201.99515 
L 303.549723 201.787458 
L 303.777391 213.625852 
L 304.005059 192.856741 
L 304.232727 199.502856 
L 304.460395 186.002934 
L 304.688063 199.399011 
L 304.915731 192.545204 
L 305.143399 220.168122 
L 305.371067 225.3604 
L 305.598735 280.813926 
L 305.826403 289.640799 
L 306.054071 275.933185 
L 306.281739 271.987054 
L 306.509407 276.660104 
L 306.737075 270.844753 
L 306.964743 258.383286 
L 307.192411 236.991102 
L 307.420079 232.110361 
L 307.647747 224.010407 
L 307.875415 224.529635 
L 308.103083 233.564199 
L 308.558419 227.956539 
L 308.786087 231.798824 
L 309.013755 231.383442 
L 309.241423 226.191164 
L 309.469091 225.3604 
L 309.696759 217.260446 
L 309.924427 217.260446 
L 310.152095 216.0143 
L 310.835099 234.498809 
L 311.290435 265.340939 
L 311.518103 276.660104 
L 311.745771 278.944706 
L 311.973439 278.217788 
L 312.201107 279.56778 
L 312.428775 267.314004 
L 312.656443 245.506437 
L 312.884111 245.091055 
L 313.111779 230.03345 
L 313.339447 233.564199 
L 313.567115 240.31416 
L 313.794783 241.352615 
L 314.022451 240.521851 
L 314.705455 223.802716 
L 314.933123 224.010407 
L 315.388458 204.175906 
L 315.616126 206.6682 
L 315.843794 211.756632 
L 316.754466 271.571672 
L 316.982134 280.294699 
L 317.209802 280.398544 
L 317.665138 274.998575 
L 318.120474 230.656523 
L 318.348142 237.406484 
L 318.57581 223.179643 
L 318.803478 221.310423 
L 319.031146 228.891149 
L 319.258814 208.848956 
L 319.486482 217.156601 
L 319.71415 218.402747 
L 319.941818 218.506593 
L 320.169486 199.502856 
L 320.397154 205.941281 
L 320.624822 202.410532 
L 320.85249 187.352926 
L 321.080158 189.637528 
L 321.307826 183.199104 
L 322.218498 265.756321 
L 322.446166 276.867795 
L 322.901502 281.021618 
L 323.812174 227.956539 
L 324.039842 228.060384 
L 324.26751 221.829651 
L 324.495178 212.379705 
L 324.722846 214.456616 
L 324.950514 217.88352 
L 325.178182 226.29501 
L 325.40585 217.779674 
L 325.633518 202.202841 
L 325.861186 205.110516 
L 326.088854 192.233667 
L 326.316522 198.879783 
L 326.54419 186.210625 
L 326.771858 190.260602 
L 327.454862 257.552522 
L 327.910198 273.129355 
L 328.137866 278.113942 
L 328.365534 277.802405 
L 328.82087 256.410221 
L 329.048538 235.744955 
L 329.276206 237.821866 
L 329.503874 232.318052 
L 329.731542 232.006515 
L 329.959209 232.421897 
L 330.186877 229.202685 
L 330.414545 222.764261 
L 330.642213 225.671936 
L 331.097549 213.522006 
L 331.325217 197.737482 
L 331.552885 204.591288 
L 331.780553 202.514377 
L 332.008221 190.052911 
L 332.235889 192.64905 
L 333.146561 275.621649 
L 333.374229 280.50239 
L 333.601897 280.917772 
L 333.829565 279.775471 
L 334.967905 226.502701 
L 335.195573 231.071905 
L 335.423241 229.721913 
L 335.650909 229.306531 
L 335.878577 221.518114 
L 336.106245 224.529635 
L 336.333913 219.337357 
L 336.561581 219.648894 
L 336.789249 206.460508 
L 337.472253 201.683613 
L 337.699921 195.037497 
L 338.382925 266.898622 
L 338.838261 280.190853 
L 339.065929 281.748536 
L 339.293597 281.852382 
L 339.521265 271.675518 
L 339.976601 235.018036 
L 340.204269 241.767997 
L 340.659605 228.268075 
L 340.887273 224.529635 
L 341.114941 225.152708 
L 341.342609 231.175751 
L 341.570277 229.410376 
L 342.025613 220.791195 
L 342.253281 220.895041 
L 342.480949 216.118145 
L 342.708617 208.329728 
L 342.936285 212.068168 
L 343.163953 218.402747 
L 343.391621 219.025821 
L 344.074625 268.35246 
L 344.302292 276.348568 
L 344.52996 280.294699 
L 344.757628 279.360089 
L 344.985296 274.89473 
L 345.6683 235.433419 
L 345.895968 229.514222 
L 346.123636 240.521851 
L 346.351304 234.083426 
L 346.578972 233.460353 
L 347.034308 241.352615 
L 347.261976 231.279596 
L 347.489644 229.09884 
L 347.717312 229.410376 
L 347.94498 220.895041 
L 348.172648 225.048863 
L 348.400316 216.637373 
L 348.627984 216.845064 
L 348.855652 222.245033 
L 349.766324 267.521695 
L 349.993992 273.856274 
L 350.22166 271.779363 
L 350.449328 274.998575 
L 350.676996 266.275549 
L 350.904664 244.98721 
L 351.132332 237.406484 
L 351.36 233.564199 
L 351.587668 232.006515 
L 351.815336 210.614331 
L 352.043004 229.618067 
L 352.49834 225.256554 
L 352.726008 215.598917 
L 352.953676 222.348878 
L 353.181344 209.368184 
L 353.409012 211.652786 
L 353.63668 195.868262 
L 353.864348 201.579767 
L 354.092016 198.152864 
L 354.319684 211.029713 
L 354.77502 246.129511 
L 355.002688 261.394808 
L 355.230356 268.767842 
L 355.458024 266.275549 
L 355.685692 270.325525 
L 355.91336 265.860166 
L 356.368696 231.591133 
L 356.596364 227.125774 
L 356.824032 211.029713 
L 357.0517 220.168122 
L 357.279368 203.86437 
L 357.507036 201.06054 
L 357.734704 199.710547 
L 357.962372 195.764416 
L 358.19004 201.891304 
L 358.417708 200.956694 
L 358.645375 184.549096 
L 358.873043 182.576031 
L 359.100711 166.687661 
L 359.328379 164.818441 
L 359.556047 170.529946 
L 360.239051 243.014144 
L 360.466719 262.537109 
L 360.922055 273.129355 
L 361.149723 270.013989 
L 361.377391 264.925556 
L 361.832727 229.410376 
L 362.060395 232.733434 
L 362.288063 214.248925 
L 362.515731 212.483551 
L 362.743399 208.745111 
L 362.971067 208.122037 
L 363.198735 200.229775 
L 363.654071 204.591288 
L 363.881739 190.052911 
L 364.109407 193.168277 
L 364.337075 189.014455 
L 364.564743 188.599073 
L 364.792411 176.760679 
L 365.020079 182.160648 
L 365.247747 200.333621 
L 365.703083 244.467982 
L 365.930751 261.81019 
L 366.158419 264.094792 
L 366.613755 272.298591 
L 366.841423 266.171703 
L 367.296759 229.618067 
L 367.524427 221.933496 
L 367.752095 220.583504 
L 367.979763 210.510485 
L 368.207431 212.587396 
L 368.435099 204.279752 
L 368.662767 208.329728 
L 368.890435 204.383597 
L 369.118103 205.006671 
L 369.573439 188.702918 
L 369.801107 185.691397 
L 370.028775 185.379861 
L 370.256443 170.633792 
L 370.711779 196.38749 
L 370.939447 224.42579 
L 371.167115 292.340783 
L 371.394783 258.383286 
L 371.850119 272.194745 
L 372.077787 273.129355 
L 372.533123 251.010252 
L 372.760791 231.487287 
L 372.988458 229.618067 
L 373.443794 222.452724 
L 373.671462 212.898933 
L 373.89913 210.925867 
L 374.126798 200.749003 
L 374.354466 209.47203 
L 374.582134 204.383597 
L 374.809802 187.041389 
L 375.03747 189.845219 
L 375.265138 185.068324 
L 375.492806 198.25671 
L 375.720474 184.237559 
L 375.948142 186.729853 
L 376.17581 197.841327 
L 376.403478 215.910454 
L 376.631146 247.998731 
L 377.086482 269.183224 
L 377.31415 275.206266 
L 377.541818 272.402436 
L 378.45249 222.037342 
L 378.680158 218.610438 
L 378.907826 212.483551 
L 379.135494 219.025821 
L 379.363162 205.73359 
L 379.59083 205.629744 
L 379.818498 211.756632 
L 380.046166 208.122037 
L 380.273834 192.129822 
L 380.501502 199.087474 
L 380.72917 195.349034 
L 380.956838 194.414424 
L 381.184506 192.960586 
L 381.412174 194.102887 
L 381.639842 200.12593 
L 382.322846 258.694823 
L 382.778182 276.452413 
L 383.00585 275.206266 
L 383.233518 268.560151 
L 384.14419 222.037342 
L 384.371858 219.025821 
L 384.599526 222.971952 
L 385.054862 222.348878 
L 385.510198 218.81813 
L 385.737866 219.960431 
L 385.965534 223.698871 
L 386.193202 215.598917 
L 386.42087 212.27586 
L 386.876206 215.287381 
L 387.103874 213.625852 
L 388.014545 263.471719 
L 388.469881 275.933185 
L 388.925217 262.537109 
L 389.152885 240.937233 
L 389.380553 234.7065 
L 389.608221 224.529635 
L 389.835889 220.479658 
L 390.063557 231.383442 
L 390.291225 236.264183 
L 390.518893 219.648894 
L 390.746561 223.595025 
L 391.201897 207.60281 
L 391.429565 199.814393 
L 391.657233 198.879783 
L 391.884901 197.218254 
L 392.340237 190.364447 
L 392.567905 204.591288 
L 393.250909 264.406329 
L 393.706245 273.440892 
L 393.933913 273.544738 
L 394.161581 266.067858 
L 394.616917 228.683457 
L 395.072253 208.018192 
L 395.299921 212.172014 
L 395.527589 198.879783 
L 395.755257 194.310578 
L 395.982925 194.414424 
L 396.210593 195.245188 
L 396.438261 195.037497 
L 396.665929 175.826069 
L 396.893597 188.079845 
L 397.121265 170.945328 
L 397.576601 152.772356 
L 397.804269 168.764572 
L 398.487273 241.767997 
L 398.487273 241.767997 
" style="fill:none;stroke:#1f77b4;stroke-linecap:square;stroke-width:1.5;"/>
   </g>
   <g id="patch_3">
    <path d="M 57.6 307.584 
L 57.6 41.472 
" style="fill:none;stroke:#000000;stroke-linecap:square;stroke-linejoin:miter;stroke-width:0.8;"/>
   </g>
   <g id="patch_4">
    <path d="M 414.72 307.584 
L 414.72 41.472 
" style="fill:none;stroke:#000000;stroke-linecap:square;stroke-linejoin:miter;stroke-width:0.8;"/>
   </g>
   <g id="patch_5">
    <path d="M 57.6 307.584 
L 414.72 307.584 
" style="fill:none;stroke:#000000;stroke-linecap:square;stroke-linejoin:miter;stroke-width:0.8;"/>
   </g>
   <g id="patch_6">
    <path d="M 57.6 41.472 
L 414.72 41.472 
" style="fill:none;stroke:#000000;stroke-linecap:square;stroke-linejoin:miter;stroke-width:0.8;"/>
   </g>
   <g id="text_14">
    <!-- real_27.csv -->
    <defs>
     <path d="M 41.109375 46.296875 
Q 39.59375 47.171875 37.8125 47.578125 
Q 36.03125 48 33.890625 48 
Q 26.265625 48 22.1875 43.046875 
Q 18.109375 38.09375 18.109375 28.8125 
L 18.109375 0 
L 9.078125 0 
L 9.078125 54.6875 
L 18.109375 54.6875 
L 18.109375 46.1875 
Q 20.953125 51.171875 25.484375 53.578125 
Q 30.03125 56 36.53125 56 
Q 37.453125 56 38.578125 55.875 
Q 39.703125 55.765625 41.0625 55.515625 
z
" id="DejaVuSans-72"/>
     <path d="M 56.203125 29.59375 
L 56.203125 25.203125 
L 14.890625 25.203125 
Q 15.484375 15.921875 20.484375 11.0625 
Q 25.484375 6.203125 34.421875 6.203125 
Q 39.59375 6.203125 44.453125 7.46875 
Q 49.3125 8.734375 54.109375 11.28125 
L 54.109375 2.78125 
Q 49.265625 0.734375 44.1875 -0.34375 
Q 39.109375 -1.421875 33.890625 -1.421875 
Q 20.796875 -1.421875 13.15625 6.1875 
Q 5.515625 13.8125 5.515625 26.8125 
Q 5.515625 40.234375 12.765625 48.109375 
Q 20.015625 56 32.328125 56 
Q 43.359375 56 49.78125 48.890625 
Q 56.203125 41.796875 56.203125 29.59375 
z
M 47.21875 32.234375 
Q 47.125 39.59375 43.09375 43.984375 
Q 39.0625 48.390625 32.421875 48.390625 
Q 24.90625 48.390625 20.390625 44.140625 
Q 15.875 39.890625 15.1875 32.171875 
z
" id="DejaVuSans-65"/>
     <path d="M 34.28125 27.484375 
Q 23.390625 27.484375 19.1875 25 
Q 14.984375 22.515625 14.984375 16.5 
Q 14.984375 11.71875 18.140625 8.90625 
Q 21.296875 6.109375 26.703125 6.109375 
Q 34.1875 6.109375 38.703125 11.40625 
Q 43.21875 16.703125 43.21875 25.484375 
L 43.21875 27.484375 
z
M 52.203125 31.203125 
L 52.203125 0 
L 43.21875 0 
L 43.21875 8.296875 
Q 40.140625 3.328125 35.546875 0.953125 
Q 30.953125 -1.421875 24.3125 -1.421875 
Q 15.921875 -1.421875 10.953125 3.296875 
Q 6 8.015625 6 15.921875 
Q 6 25.140625 12.171875 29.828125 
Q 18.359375 34.515625 30.609375 34.515625 
L 43.21875 34.515625 
L 43.21875 35.40625 
Q 43.21875 41.609375 39.140625 45 
Q 35.0625 48.390625 27.6875 48.390625 
Q 23 48.390625 18.546875 47.265625 
Q 14.109375 46.140625 10.015625 43.890625 
L 10.015625 52.203125 
Q 14.9375 54.109375 19.578125 55.046875 
Q 24.21875 56 28.609375 56 
Q 40.484375 56 46.34375 49.84375 
Q 52.203125 43.703125 52.203125 31.203125 
z
" id="DejaVuSans-61"/>
     <path d="M 9.421875 75.984375 
L 18.40625 75.984375 
L 18.40625 0 
L 9.421875 0 
z
" id="DejaVuSans-6c"/>
     <path d="M 50.984375 -16.609375 
L 50.984375 -23.578125 
L -0.984375 -23.578125 
L -0.984375 -16.609375 
z
" id="DejaVuSans-5f"/>
     <path d="M 8.203125 72.90625 
L 55.078125 72.90625 
L 55.078125 68.703125 
L 28.609375 0 
L 18.3125 0 
L 43.21875 64.59375 
L 8.203125 64.59375 
z
" id="DejaVuSans-37"/>
     <path d="M 10.6875 12.40625 
L 21 12.40625 
L 21 0 
L 10.6875 0 
z
" id="DejaVuSans-2e"/>
     <path d="M 48.78125 52.59375 
L 48.78125 44.1875 
Q 44.96875 46.296875 41.140625 47.34375 
Q 37.3125 48.390625 33.40625 48.390625 
Q 24.65625 48.390625 19.8125 42.84375 
Q 14.984375 37.3125 14.984375 27.296875 
Q 14.984375 17.28125 19.8125 11.734375 
Q 24.65625 6.203125 33.40625 6.203125 
Q 37.3125 6.203125 41.140625 7.25 
Q 44.96875 8.296875 48.78125 10.40625 
L 48.78125 2.09375 
Q 45.015625 0.34375 40.984375 -0.53125 
Q 36.96875 -1.421875 32.421875 -1.421875 
Q 20.0625 -1.421875 12.78125 6.34375 
Q 5.515625 14.109375 5.515625 27.296875 
Q 5.515625 40.671875 12.859375 48.328125 
Q 20.21875 56 33.015625 56 
Q 37.15625 56 41.109375 55.140625 
Q 45.0625 54.296875 48.78125 52.59375 
z
" id="DejaVuSans-63"/>
     <path d="M 44.28125 53.078125 
L 44.28125 44.578125 
Q 40.484375 46.53125 36.375 47.5 
Q 32.28125 48.484375 27.875 48.484375 
Q 21.1875 48.484375 17.84375 46.4375 
Q 14.5 44.390625 14.5 40.28125 
Q 14.5 37.15625 16.890625 35.375 
Q 19.28125 33.59375 26.515625 31.984375 
L 29.59375 31.296875 
Q 39.15625 29.25 43.1875 25.515625 
Q 47.21875 21.78125 47.21875 15.09375 
Q 47.21875 7.46875 41.1875 3.015625 
Q 35.15625 -1.421875 24.609375 -1.421875 
Q 20.21875 -1.421875 15.453125 -0.5625 
Q 10.6875 0.296875 5.421875 2 
L 5.421875 11.28125 
Q 10.40625 8.6875 15.234375 7.390625 
Q 20.0625 6.109375 24.8125 6.109375 
Q 31.15625 6.109375 34.5625 8.28125 
Q 37.984375 10.453125 37.984375 14.40625 
Q 37.984375 18.0625 35.515625 20.015625 
Q 33.0625 21.96875 24.703125 23.78125 
L 21.578125 24.515625 
Q 13.234375 26.265625 9.515625 29.90625 
Q 5.8125 33.546875 5.8125 39.890625 
Q 5.8125 47.609375 11.28125 51.796875 
Q 16.75 56 26.8125 56 
Q 31.78125 56 36.171875 55.265625 
Q 40.578125 54.546875 44.28125 53.078125 
z
" id="DejaVuSans-73"/>
     <path d="M 2.984375 54.6875 
L 12.5 54.6875 
L 29.59375 8.796875 
L 46.6875 54.6875 
L 56.203125 54.6875 
L 35.6875 0 
L 23.484375 0 
z
" id="DejaVuSans-76"/>
    </defs>
    <g transform="translate(202.141875 35.472)scale(0.12 -0.12)">
     <use xlink:href="#DejaVuSans-72"/>
     <use x="41.082031" xlink:href="#DejaVuSans-65"/>
     <use x="102.605469" xlink:href="#DejaVuSans-61"/>
     <use x="163.884766" xlink:href="#DejaVuSans-6c"/>
     <use x="191.667969" xlink:href="#DejaVuSans-5f"/>
     <use x="241.667969" xlink:href="#DejaVuSans-32"/>
     <use x="305.291016" xlink:href="#DejaVuSans-37"/>
     <use x="368.914062" xlink:href="#DejaVuSans-2e"/>
     <use x="400.701172" xlink:href="#DejaVuSans-63"/>
     <use x="455.681641" xlink:href="#DejaVuSans-73"/>
     <use x="507.78125" xlink:href="#DejaVuSans-76"/>
    </g>
   </g>
   <g id="PathCollection_1">
    <defs>
     <path d="M -4.472136 4.472136 
L 4.472136 -4.472136 
M -4.472136 -4.472136 
L 4.472136 4.472136 
" id="m33e293c564" style="stroke:#ffa500;stroke-width:1.5;"/>
    </defs>
    <g clip-path="url(#p0f4eb54832)">
     <use style="fill:#ffa500;stroke:#ffa500;stroke-width:1.5;" x="301.956047" xlink:href="#m33e293c564" y="56.715217"/>
     <use style="fill:#ffa500;stroke:#ffa500;stroke-width:1.5;" x="370.939447" xlink:href="#m33e293c564" y="292.340783"/>
    </g>
   </g>
  </g>
 </g>
 <defs>
  <clipPath id="p0f4eb54832">
   <rect height="266.112" width="357.12" x="57.6" y="41.472"/>
  </clipPath>
 </defs>
</svg>
