<?xml version="1.0" encoding="utf-8" standalone="no"?>
<!DOCTYPE svg PUBLIC "-//W3C//DTD SVG 1.1//EN"
  "http://www.w3.org/Graphics/SVG/1.1/DTD/svg11.dtd">
<!-- Created with matplotlib (http://matplotlib.org/) -->
<svg height="345.6pt" version="1.1" viewBox="0 0 460.8 345.6" width="460.8pt" xmlns="http://www.w3.org/2000/svg" xmlns:xlink="http://www.w3.org/1999/xlink">
 <defs>
  <style type="text/css">
*{stroke-linecap:butt;stroke-linejoin:round;}
  </style>
 </defs>
 <g id="figure_1">
  <g id="patch_1">
   <path d="M 0 345.6 
L 460.8 345.6 
L 460.8 0 
L 0 0 
z
" style="fill:#ffffff;"/>
  </g>
  <g id="axes_1">
   <g id="patch_2">
    <path d="M 57.6 307.584 
L 414.72 307.584 
L 414.72 41.472 
L 57.6 41.472 
z
" style="fill:#ffffff;"/>
   </g>
   <g id="matplotlib.axis_1">
    <g id="xtick_1">
     <g id="line2d_1">
      <defs>
       <path d="M 0 0 
L 0 3.5 
" id="m93b8d9ae4e" style="stroke:#000000;stroke-width:0.8;"/>
      </defs>
      <g>
       <use style="stroke:#000000;stroke-width:0.8;" x="73.610361" xlink:href="#m93b8d9ae4e" y="307.584"/>
      </g>
     </g>
     <g id="text_1">
      <!-- 0 -->
      <defs>
       <path d="M 31.78125 66.40625 
Q 24.171875 66.40625 20.328125 58.90625 
Q 16.5 51.421875 16.5 36.375 
Q 16.5 21.390625 20.328125 13.890625 
Q 24.171875 6.390625 31.78125 6.390625 
Q 39.453125 6.390625 43.28125 13.890625 
Q 47.125 21.390625 47.125 36.375 
Q 47.125 51.421875 43.28125 58.90625 
Q 39.453125 66.40625 31.78125 66.40625 
z
M 31.78125 74.21875 
Q 44.046875 74.21875 50.515625 64.515625 
Q 56.984375 54.828125 56.984375 36.375 
Q 56.984375 17.96875 50.515625 8.265625 
Q 44.046875 -1.421875 31.78125 -1.421875 
Q 19.53125 -1.421875 13.0625 8.265625 
Q 6.59375 17.96875 6.59375 36.375 
Q 6.59375 54.828125 13.0625 64.515625 
Q 19.53125 74.21875 31.78125 74.21875 
z
" id="DejaVuSans-30"/>
      </defs>
      <g transform="translate(70.429111 322.182437)scale(0.1 -0.1)">
       <use xlink:href="#DejaVuSans-30"/>
      </g>
     </g>
    </g>
    <g id="xtick_2">
     <g id="line2d_2">
      <g>
       <use style="stroke:#000000;stroke-width:0.8;" x="118.083587" xlink:href="#m93b8d9ae4e" y="307.584"/>
      </g>
     </g>
     <g id="text_2">
      <!-- 200 -->
      <defs>
       <path d="M 19.1875 8.296875 
L 53.609375 8.296875 
L 53.609375 0 
L 7.328125 0 
L 7.328125 8.296875 
Q 12.9375 14.109375 22.625 23.890625 
Q 32.328125 33.6875 34.8125 36.53125 
Q 39.546875 41.84375 41.421875 45.53125 
Q 43.3125 49.21875 43.3125 52.78125 
Q 43.3125 58.59375 39.234375 62.25 
Q 35.15625 65.921875 28.609375 65.921875 
Q 23.96875 65.921875 18.8125 64.3125 
Q 13.671875 62.703125 7.8125 59.421875 
L 7.8125 69.390625 
Q 13.765625 71.78125 18.9375 73 
Q 24.125 74.21875 28.421875 74.21875 
Q 39.75 74.21875 46.484375 68.546875 
Q 53.21875 62.890625 53.21875 53.421875 
Q 53.21875 48.921875 51.53125 44.890625 
Q 49.859375 40.875 45.40625 35.40625 
Q 44.1875 33.984375 37.640625 27.21875 
Q 31.109375 20.453125 19.1875 8.296875 
z
" id="DejaVuSans-32"/>
      </defs>
      <g transform="translate(108.539837 322.182437)scale(0.1 -0.1)">
       <use xlink:href="#DejaVuSans-32"/>
       <use x="63.623047" xlink:href="#DejaVuSans-30"/>
       <use x="127.246094" xlink:href="#DejaVuSans-30"/>
      </g>
     </g>
    </g>
    <g id="xtick_3">
     <g id="line2d_3">
      <g>
       <use style="stroke:#000000;stroke-width:0.8;" x="162.556812" xlink:href="#m93b8d9ae4e" y="307.584"/>
      </g>
     </g>
     <g id="text_3">
      <!-- 400 -->
      <defs>
       <path d="M 37.796875 64.3125 
L 12.890625 25.390625 
L 37.796875 25.390625 
z
M 35.203125 72.90625 
L 47.609375 72.90625 
L 47.609375 25.390625 
L 58.015625 25.390625 
L 58.015625 17.1875 
L 47.609375 17.1875 
L 47.609375 0 
L 37.796875 0 
L 37.796875 17.1875 
L 4.890625 17.1875 
L 4.890625 26.703125 
z
" id="DejaVuSans-34"/>
      </defs>
      <g transform="translate(153.013062 322.182437)scale(0.1 -0.1)">
       <use xlink:href="#DejaVuSans-34"/>
       <use x="63.623047" xlink:href="#DejaVuSans-30"/>
       <use x="127.246094" xlink:href="#DejaVuSans-30"/>
      </g>
     </g>
    </g>
    <g id="xtick_4">
     <g id="line2d_4">
      <g>
       <use style="stroke:#000000;stroke-width:0.8;" x="207.030037" xlink:href="#m93b8d9ae4e" y="307.584"/>
      </g>
     </g>
     <g id="text_4">
      <!-- 600 -->
      <defs>
       <path d="M 33.015625 40.375 
Q 26.375 40.375 22.484375 35.828125 
Q 18.609375 31.296875 18.609375 23.390625 
Q 18.609375 15.53125 22.484375 10.953125 
Q 26.375 6.390625 33.015625 6.390625 
Q 39.65625 6.390625 43.53125 10.953125 
Q 47.40625 15.53125 47.40625 23.390625 
Q 47.40625 31.296875 43.53125 35.828125 
Q 39.65625 40.375 33.015625 40.375 
z
M 52.59375 71.296875 
L 52.59375 62.3125 
Q 48.875 64.0625 45.09375 64.984375 
Q 41.3125 65.921875 37.59375 65.921875 
Q 27.828125 65.921875 22.671875 59.328125 
Q 17.53125 52.734375 16.796875 39.40625 
Q 19.671875 43.65625 24.015625 45.921875 
Q 28.375 48.1875 33.59375 48.1875 
Q 44.578125 48.1875 50.953125 41.515625 
Q 57.328125 34.859375 57.328125 23.390625 
Q 57.328125 12.15625 50.6875 5.359375 
Q 44.046875 -1.421875 33.015625 -1.421875 
Q 20.359375 -1.421875 13.671875 8.265625 
Q 6.984375 17.96875 6.984375 36.375 
Q 6.984375 53.65625 15.1875 63.9375 
Q 23.390625 74.21875 37.203125 74.21875 
Q 40.921875 74.21875 44.703125 73.484375 
Q 48.484375 72.75 52.59375 71.296875 
z
" id="DejaVuSans-36"/>
      </defs>
      <g transform="translate(197.486287 322.182437)scale(0.1 -0.1)">
       <use xlink:href="#DejaVuSans-36"/>
       <use x="63.623047" xlink:href="#DejaVuSans-30"/>
       <use x="127.246094" xlink:href="#DejaVuSans-30"/>
      </g>
     </g>
    </g>
    <g id="xtick_5">
     <g id="line2d_5">
      <g>
       <use style="stroke:#000000;stroke-width:0.8;" x="251.503263" xlink:href="#m93b8d9ae4e" y="307.584"/>
      </g>
     </g>
     <g id="text_5">
      <!-- 800 -->
      <defs>
       <path d="M 31.78125 34.625 
Q 24.75 34.625 20.71875 30.859375 
Q 16.703125 27.09375 16.703125 20.515625 
Q 16.703125 13.921875 20.71875 10.15625 
Q 24.75 6.390625 31.78125 6.390625 
Q 38.8125 6.390625 42.859375 10.171875 
Q 46.921875 13.96875 46.921875 20.515625 
Q 46.921875 27.09375 42.890625 30.859375 
Q 38.875 34.625 31.78125 34.625 
z
M 21.921875 38.8125 
Q 15.578125 40.375 12.03125 44.71875 
Q 8.5 49.078125 8.5 55.328125 
Q 8.5 64.0625 14.71875 69.140625 
Q 20.953125 74.21875 31.78125 74.21875 
Q 42.671875 74.21875 48.875 69.140625 
Q 55.078125 64.0625 55.078125 55.328125 
Q 55.078125 49.078125 51.53125 44.71875 
Q 48 40.375 41.703125 38.8125 
Q 48.828125 37.15625 52.796875 32.3125 
Q 56.78125 27.484375 56.78125 20.515625 
Q 56.78125 9.90625 50.3125 4.234375 
Q 43.84375 -1.421875 31.78125 -1.421875 
Q 19.734375 -1.421875 13.25 4.234375 
Q 6.78125 9.90625 6.78125 20.515625 
Q 6.78125 27.484375 10.78125 32.3125 
Q 14.796875 37.15625 21.921875 38.8125 
z
M 18.3125 54.390625 
Q 18.3125 48.734375 21.84375 45.5625 
Q 25.390625 42.390625 31.78125 42.390625 
Q 38.140625 42.390625 41.71875 45.5625 
Q 45.3125 48.734375 45.3125 54.390625 
Q 45.3125 60.0625 41.71875 63.234375 
Q 38.140625 66.40625 31.78125 66.40625 
Q 25.390625 66.40625 21.84375 63.234375 
Q 18.3125 60.0625 18.3125 54.390625 
z
" id="DejaVuSans-38"/>
      </defs>
      <g transform="translate(241.959513 322.182437)scale(0.1 -0.1)">
       <use xlink:href="#DejaVuSans-38"/>
       <use x="63.623047" xlink:href="#DejaVuSans-30"/>
       <use x="127.246094" xlink:href="#DejaVuSans-30"/>
      </g>
     </g>
    </g>
    <g id="xtick_6">
     <g id="line2d_6">
      <g>
       <use style="stroke:#000000;stroke-width:0.8;" x="295.976488" xlink:href="#m93b8d9ae4e" y="307.584"/>
      </g>
     </g>
     <g id="text_6">
      <!-- 1000 -->
      <defs>
       <path d="M 12.40625 8.296875 
L 28.515625 8.296875 
L 28.515625 63.921875 
L 10.984375 60.40625 
L 10.984375 69.390625 
L 28.421875 72.90625 
L 38.28125 72.90625 
L 38.28125 8.296875 
L 54.390625 8.296875 
L 54.390625 0 
L 12.40625 0 
z
" id="DejaVuSans-31"/>
      </defs>
      <g transform="translate(283.251488 322.182437)scale(0.1 -0.1)">
       <use xlink:href="#DejaVuSans-31"/>
       <use x="63.623047" xlink:href="#DejaVuSans-30"/>
       <use x="127.246094" xlink:href="#DejaVuSans-30"/>
       <use x="190.869141" xlink:href="#DejaVuSans-30"/>
      </g>
     </g>
    </g>
    <g id="xtick_7">
     <g id="line2d_7">
      <g>
       <use style="stroke:#000000;stroke-width:0.8;" x="340.449714" xlink:href="#m93b8d9ae4e" y="307.584"/>
      </g>
     </g>
     <g id="text_7">
      <!-- 1200 -->
      <g transform="translate(327.724714 322.182437)scale(0.1 -0.1)">
       <use xlink:href="#DejaVuSans-31"/>
       <use x="63.623047" xlink:href="#DejaVuSans-32"/>
       <use x="127.246094" xlink:href="#DejaVuSans-30"/>
       <use x="190.869141" xlink:href="#DejaVuSans-30"/>
      </g>
     </g>
    </g>
    <g id="xtick_8">
     <g id="line2d_8">
      <g>
       <use style="stroke:#000000;stroke-width:0.8;" x="384.922939" xlink:href="#m93b8d9ae4e" y="307.584"/>
      </g>
     </g>
     <g id="text_8">
      <!-- 1400 -->
      <g transform="translate(372.197939 322.182437)scale(0.1 -0.1)">
       <use xlink:href="#DejaVuSans-31"/>
       <use x="63.623047" xlink:href="#DejaVuSans-34"/>
       <use x="127.246094" xlink:href="#DejaVuSans-30"/>
       <use x="190.869141" xlink:href="#DejaVuSans-30"/>
      </g>
     </g>
    </g>
   </g>
   <g id="matplotlib.axis_2">
    <g id="ytick_1">
     <g id="line2d_9">
      <defs>
       <path d="M 0 0 
L -3.5 0 
" id="m1182a78e61" style="stroke:#000000;stroke-width:0.8;"/>
      </defs>
      <g>
       <use style="stroke:#000000;stroke-width:0.8;" x="57.6" xlink:href="#m1182a78e61" y="295.488"/>
      </g>
     </g>
     <g id="text_9">
      <!-- 0.0 -->
      <defs>
       <path d="M 10.6875 12.40625 
L 21 12.40625 
L 21 0 
L 10.6875 0 
z
" id="DejaVuSans-2e"/>
      </defs>
      <g transform="translate(34.696875 299.287219)scale(0.1 -0.1)">
       <use xlink:href="#DejaVuSans-30"/>
       <use x="63.623047" xlink:href="#DejaVuSans-2e"/>
       <use x="95.410156" xlink:href="#DejaVuSans-30"/>
      </g>
     </g>
    </g>
    <g id="ytick_2">
     <g id="line2d_10">
      <g>
       <use style="stroke:#000000;stroke-width:0.8;" x="57.6" xlink:href="#m1182a78e61" y="251.082292"/>
      </g>
     </g>
     <g id="text_10">
      <!-- 0.2 -->
      <g transform="translate(34.696875 254.881511)scale(0.1 -0.1)">
       <use xlink:href="#DejaVuSans-30"/>
       <use x="63.623047" xlink:href="#DejaVuSans-2e"/>
       <use x="95.410156" xlink:href="#DejaVuSans-32"/>
      </g>
     </g>
    </g>
    <g id="ytick_3">
     <g id="line2d_11">
      <g>
       <use style="stroke:#000000;stroke-width:0.8;" x="57.6" xlink:href="#m1182a78e61" y="206.676584"/>
      </g>
     </g>
     <g id="text_11">
      <!-- 0.4 -->
      <g transform="translate(34.696875 210.475802)scale(0.1 -0.1)">
       <use xlink:href="#DejaVuSans-30"/>
       <use x="63.623047" xlink:href="#DejaVuSans-2e"/>
       <use x="95.410156" xlink:href="#DejaVuSans-34"/>
      </g>
     </g>
    </g>
    <g id="ytick_4">
     <g id="line2d_12">
      <g>
       <use style="stroke:#000000;stroke-width:0.8;" x="57.6" xlink:href="#m1182a78e61" y="162.270875"/>
      </g>
     </g>
     <g id="text_12">
      <!-- 0.6 -->
      <g transform="translate(34.696875 166.070094)scale(0.1 -0.1)">
       <use xlink:href="#DejaVuSans-30"/>
       <use x="63.623047" xlink:href="#DejaVuSans-2e"/>
       <use x="95.410156" xlink:href="#DejaVuSans-36"/>
      </g>
     </g>
    </g>
    <g id="ytick_5">
     <g id="line2d_13">
      <g>
       <use style="stroke:#000000;stroke-width:0.8;" x="57.6" xlink:href="#m1182a78e61" y="117.865167"/>
      </g>
     </g>
     <g id="text_13">
      <!-- 0.8 -->
      <g transform="translate(34.696875 121.664386)scale(0.1 -0.1)">
       <use xlink:href="#DejaVuSans-30"/>
       <use x="63.623047" xlink:href="#DejaVuSans-2e"/>
       <use x="95.410156" xlink:href="#DejaVuSans-38"/>
      </g>
     </g>
    </g>
    <g id="ytick_6">
     <g id="line2d_14">
      <g>
       <use style="stroke:#000000;stroke-width:0.8;" x="57.6" xlink:href="#m1182a78e61" y="73.459459"/>
      </g>
     </g>
     <g id="text_14">
      <!-- 1.0 -->
      <g transform="translate(34.696875 77.258678)scale(0.1 -0.1)">
       <use xlink:href="#DejaVuSans-31"/>
       <use x="63.623047" xlink:href="#DejaVuSans-2e"/>
       <use x="95.410156" xlink:href="#DejaVuSans-30"/>
      </g>
     </g>
    </g>
   </g>
   <g id="line2d_15">
    <path clip-path="url(#pf7395e6ae8)" d="M 73.832727 285.311692 
L 74.27746 286.976906 
L 74.944558 283.029732 
L 75.38929 286.236811 
L 75.611656 286.606858 
L 76.278755 290.245659 
L 76.723487 293.144365 
L 76.945853 294.081819 
L 77.390585 293.53684 
L 77.612951 293.489743 
L 77.835318 292.3796 
L 78.057684 289.937286 
L 78.28005 286.175136 
L 78.502416 286.730208 
L 78.724782 285.003319 
L 78.947148 287.902025 
L 79.614247 286.915231 
L 79.836613 287.346953 
L 80.058979 286.853557 
L 80.281345 286.915231 
L 80.726077 288.272072 
L 80.948443 289.258866 
L 81.170809 287.902025 
L 81.837908 294.090043 
L 82.060274 293.690626 
L 82.28264 294.254508 
L 82.505006 293.761111 
L 82.727372 294.451867 
L 82.949738 294.336741 
L 83.172105 293.267715 
L 83.394471 290.183985 
L 83.616837 289.628913 
L 83.839203 288.087049 
L 84.283935 287.470303 
L 84.506301 288.395422 
L 85.1734 286.483509 
L 85.395766 288.703795 
L 85.618132 286.915231 
L 85.840498 287.346953 
L 86.062864 284.694946 
L 86.28523 287.655326 
L 86.507597 285.620065 
L 86.729963 289.813937 
L 86.952329 290.615707 
L 87.397061 293.761111 
L 87.619427 293.796354 
L 87.841793 294.747905 
L 88.064159 293.452738 
L 88.286526 292.971677 
L 88.508892 291.720243 
L 88.731258 288.148723 
L 89.17599 286.976906 
L 89.398356 285.188343 
L 89.620722 284.588417 
L 89.843088 286.730208 
L 90.287821 283.831502 
L 90.732553 284.941644 
L 90.954919 285.064993 
L 91.399651 282.906383 
L 92.289116 291.972548 
L 92.511482 291.849199 
L 92.956214 293.563753 
L 93.400946 292.123931 
L 93.623313 291.910874 
L 93.845679 289.320541 
L 94.068045 288.457096 
L 94.290411 286.298485 
L 94.512777 286.545184 
L 94.735143 284.0782 
L 94.957509 284.050166 
L 95.402242 285.620065 
L 95.624608 285.435041 
L 95.846974 281.919589 
L 96.06934 284.87997 
L 96.291706 283.831502 
L 96.514072 284.016525 
L 96.958804 281.611216 
L 97.403537 288.580445 
L 98.070635 293.402277 
L 98.293001 294.075091 
L 98.737733 293.738684 
L 98.9601 293.06587 
L 99.182466 289.073842 
L 99.404832 289.012168 
L 99.627198 285.55839 
L 99.849564 287.223604 
L 100.07193 285.866763 
L 100.294296 288.148723 
L 100.516663 282.844708 
L 100.739029 285.990112 
L 100.961395 286.421835 
L 101.183761 283.769827 
L 101.628493 283.029732 
L 101.850859 284.694946 
L 102.295592 284.139875 
L 102.517958 286.298485 
L 102.740324 287.223604 
L 102.96269 290.615707 
L 103.407422 293.604121 
L 103.629788 293.859791 
L 103.852154 293.711772 
L 104.074521 293.940528 
L 104.296887 291.664175 
L 104.519253 290.800731 
L 104.741619 288.025374 
L 104.963985 288.148723 
L 105.631083 284.509922 
L 106.075816 285.990112 
L 106.520548 283.646478 
L 106.742914 285.928438 
L 106.96528 285.188343 
L 107.187646 284.016525 
L 107.410012 285.373366 
L 107.632379 284.941644 
L 107.854745 286.791882 
L 108.077111 290.492358 
L 108.299477 291.109104 
L 108.744209 293.785781 
L 109.188941 292.774318 
L 109.411308 293.738684 
L 110.523138 286.175136 
L 110.745504 287.470303 
L 111.190237 286.545184 
L 111.412603 286.36016 
L 111.857335 285.250017 
L 112.079701 283.708152 
L 112.302067 285.435041 
L 112.524433 283.769827 
L 112.7468 284.448248 
L 113.85863 292.095897 
L 114.080996 293.200433 
L 114.303362 293.341724 
L 114.748095 294.113538 
L 114.970461 293.843344 
L 115.192827 292.305591 
L 115.415193 288.210398 
L 115.637559 288.827144 
L 115.859925 288.64212 
L 116.082291 285.805089 
L 116.304658 288.272072 
L 116.527024 286.668533 
L 116.74939 287.84035 
L 116.971756 287.16193 
L 117.194122 287.470303 
L 117.416488 288.210398 
L 117.638854 287.408628 
L 117.86122 288.457096 
L 118.083587 288.272072 
L 118.528319 287.223604 
L 118.973051 291.479151 
L 119.195417 291.602501 
L 119.417783 292.445387 
L 119.640149 294.00781 
L 119.862516 294.470369 
L 120.084882 294.090043 
L 120.307248 294.100322 
L 120.75198 291.787524 
L 121.196712 287.84035 
L 121.641445 287.038581 
L 121.863811 285.188343 
L 122.308543 288.210398 
L 122.530909 285.866763 
L 123.198007 288.765469 
L 123.420374 288.765469 
L 123.64274 288.087049 
L 123.865106 288.333747 
L 124.087472 290.739056 
L 124.75457 292.601629 
L 124.976936 293.915298 
L 125.199303 294.303848 
L 125.421669 293.925577 
L 125.644035 292.05665 
L 125.866401 291.232453 
L 126.533499 287.531977 
L 126.755866 287.778676 
L 126.978232 284.386573 
L 127.200598 285.990112 
L 127.422964 285.928438 
L 127.64533 285.250017 
L 127.867696 286.113462 
L 128.090062 284.694946 
L 128.312428 284.571597 
L 128.534795 285.003319 
L 128.757161 285.990112 
L 128.979527 285.311692 
L 129.201893 286.298485 
L 129.646625 291.972548 
L 129.868991 292.835992 
L 130.091357 293.06587 
L 130.313724 294.209654 
L 130.53609 294.316183 
L 130.758456 293.843344 
L 131.203188 291.294128 
L 131.425554 287.655326 
L 131.64792 287.408628 
L 131.870286 286.298485 
L 132.092653 286.421835 
L 132.315019 286.236811 
L 132.537385 285.003319 
L 132.759751 285.928438 
L 132.982117 286.236811 
L 133.204483 284.139875 
L 133.426849 284.694946 
L 133.649215 282.968057 
L 134.093948 285.373366 
L 134.316314 284.25201 
L 134.761046 288.490737 
L 134.983412 292.034223 
L 135.205778 293.082691 
L 135.428144 293.193705 
L 135.650511 294.324993 
L 135.872877 294.219265 
L 136.095243 293.738684 
L 136.317609 291.232453 
L 136.984707 288.087049 
L 137.207073 287.902025 
L 137.42944 286.236811 
L 137.651806 287.902025 
L 137.874172 286.545184 
L 138.096538 286.606858 
L 138.318904 285.496716 
L 138.54127 285.188343 
L 138.763636 285.250017 
L 138.986002 285.681739 
L 139.208369 283.338105 
L 139.430735 285.866763 
L 139.653101 286.298485 
L 139.875467 285.990112 
L 140.097833 287.100255 
L 140.542565 293.604121 
L 140.764932 293.711772 
L 140.987298 294.00781 
L 141.209664 293.873247 
L 141.43203 293.341724 
L 141.654396 292.393057 
L 141.876762 289.937286 
L 142.099128 289.197191 
L 142.321494 289.382215 
L 142.543861 286.976906 
L 142.766227 286.915231 
L 142.988593 285.990112 
L 143.210959 286.791882 
L 143.433325 286.113462 
L 143.655691 283.214756 
L 143.878057 285.805089 
L 144.100423 285.743414 
L 144.32279 284.016525 
L 144.545156 286.36016 
L 144.767522 286.915231 
L 144.989888 286.113462 
L 145.212254 287.038581 
L 145.656986 291.639505 
L 145.879352 292.219246 
L 146.101719 293.671403 
L 146.324085 294.377857 
L 146.546451 294.285345 
L 146.991183 292.774318 
L 147.435915 289.44389 
L 147.658281 288.765469 
L 147.880648 287.285279 
L 148.103014 287.593652 
L 148.547746 284.818295 
L 148.770112 287.778676 
L 148.992478 284.790261 
L 149.214844 284.571597 
L 149.659577 286.36016 
L 149.881943 285.188343 
L 150.104309 287.408628 
L 150.326675 288.395422 
L 150.549041 287.655326 
L 150.771407 289.382215 
L 150.993773 289.690588 
L 151.216139 293.267715 
L 151.438506 293.402277 
L 151.660872 294.00781 
L 151.883238 294.090043 
L 152.105604 293.843344 
L 152.32797 292.40427 
L 152.550336 291.972548 
L 152.772702 290.183985 
L 153.217435 288.64212 
L 153.439801 286.915231 
L 153.662167 287.84035 
L 153.884533 288.272072 
L 154.329265 286.113462 
L 154.551631 286.113462 
L 154.773998 287.346953 
L 155.21873 288.457096 
L 155.441096 287.593652 
L 155.663462 289.073842 
L 155.885828 287.100255 
L 156.108194 292.095897 
L 156.33056 291.047429 
L 156.552927 292.589294 
L 156.775293 293.161987 
L 156.997659 294.254508 
L 157.220025 294.00781 
L 157.442391 294.470369 
L 157.887123 293.119696 
L 158.331856 289.752263 
L 158.776588 287.223604 
L 158.998954 288.580445 
L 159.443686 286.175136 
L 159.666052 287.902025 
L 159.888418 287.531977 
L 160.110785 289.44389 
L 160.333151 289.44389 
L 160.777883 289.258866 
L 161.000249 288.518771 
L 161.222615 289.135517 
L 161.444981 288.580445 
L 161.667347 291.383836 
L 162.11208 294.192834 
L 162.334446 293.884461 
L 162.556812 294.113538 
L 163.001544 293.20604 
L 163.22391 291.181992 
L 163.446276 290.985755 
L 163.891009 286.668533 
L 164.113375 286.545184 
L 164.335741 288.272072 
L 164.780473 284.818295 
L 165.002839 285.990112 
L 165.225205 285.496716 
L 165.447572 285.435041 
L 165.669938 283.399779 
L 165.892304 285.311692 
L 166.11467 285.743414 
L 166.337036 285.064993 
L 166.559402 286.236811 
L 166.781768 289.690588 
L 167.226501 292.393057 
L 167.448867 295.488 
L 167.893599 295.488 
L 168.115965 292.774318 
L 168.560697 291.664175 
L 169.00543 286.915231 
L 169.227796 287.717001 
L 169.450162 287.100255 
L 169.672528 285.496716 
L 169.894894 286.668533 
L 170.11726 285.928438 
L 170.339626 286.175136 
L 170.561993 285.311692 
L 170.784359 285.064993 
L 171.006725 286.36016 
L 171.229091 284.633271 
L 171.451457 284.016525 
L 171.896189 287.593652 
L 172.118555 287.84035 
L 172.340922 291.355802 
L 172.563288 292.835992 
L 173.00802 293.785781 
L 173.230386 293.9338 
L 173.675118 292.662182 
L 174.786949 285.250017 
L 175.009315 286.298485 
L 175.231681 285.990112 
L 175.454047 285.373366 
L 175.89878 286.915231 
L 176.121146 284.941644 
L 176.343512 285.805089 
L 176.565878 285.435041 
L 176.788244 283.954851 
L 177.232976 287.655326 
L 177.455342 288.888818 
L 177.900075 293.329389 
L 178.122441 293.045686 
L 178.344807 294.00781 
L 178.567173 294.324993 
L 179.011905 293.06587 
L 179.234271 290.862405 
L 179.456638 290.492358 
L 179.679004 287.346953 
L 179.90137 287.038581 
L 180.123736 286.175136 
L 180.568468 287.223604 
L 180.790834 287.531977 
L 181.0132 287.100255 
L 181.235567 285.928438 
L 181.457933 285.681739 
L 181.680299 286.236811 
L 181.902665 285.620065 
L 182.347397 285.990112 
L 182.79213 290.554032 
L 183.014496 291.355802 
L 183.236862 293.699437 
L 183.459228 289.028988 
L 183.681594 294.00781 
L 184.348692 293.133152 
L 184.571059 290.307334 
L 184.793425 290.430683 
L 185.015791 288.148723 
L 185.238157 288.950493 
L 185.682889 285.928438 
L 186.127621 287.84035 
L 186.349988 286.483509 
L 186.572354 287.285279 
L 187.017086 286.236811 
L 187.239452 284.633271 
L 187.684184 288.703795 
L 187.90655 287.470303 
L 188.128917 290.92408 
L 188.351283 292.40427 
L 189.240747 294.254508 
L 189.685479 293.341724 
L 189.907846 292.650969 
L 190.130212 291.540826 
L 190.574944 286.915231 
L 190.79731 287.84035 
L 191.019676 286.976906 
L 191.242042 288.580445 
L 191.464408 287.16193 
L 191.686775 286.545184 
L 191.909141 288.827144 
L 192.131507 289.073842 
L 192.353873 287.655326 
L 192.576239 288.272072 
L 192.798605 286.730208 
L 193.020971 289.813937 
L 193.243337 289.320541 
L 193.465704 291.170778 
L 193.68807 291.72585 
L 193.910436 291.849199 
L 194.132802 293.119696 
L 194.577534 294.00781 
L 195.022267 293.925577 
L 195.244633 292.460338 
L 195.466999 292.40427 
L 195.911731 288.457096 
L 196.134097 289.628913 
L 196.356463 287.778676 
L 196.578829 287.902025 
L 196.801196 287.593652 
L 197.023562 288.888818 
L 197.245928 287.778676 
L 197.468294 287.470303 
L 197.69066 288.888818 
L 197.913026 287.408628 
L 198.135392 287.100255 
L 198.357758 288.087049 
L 198.580125 288.457096 
L 199.469589 293.805966 
L 199.691955 294.090043 
L 199.914321 293.915298 
L 200.359054 292.931308 
L 200.58142 290.92408 
L 200.803786 290.307334 
L 201.248518 286.853557 
L 201.470884 287.778676 
L 201.69325 285.250017 
L 201.915616 287.100255 
L 202.137983 287.346953 
L 202.360349 286.976906 
L 202.582715 284.386573 
L 202.805081 286.730208 
L 203.027447 286.236811 
L 203.249813 283.769827 
L 204.139278 290.307334 
L 204.361644 291.170778 
L 204.58401 293.452738 
L 204.806376 293.604121 
L 205.028742 293.43218 
L 205.251108 293.021016 
L 205.473474 293.119696 
L 205.695841 292.774318 
L 205.918207 289.258866 
L 206.140573 288.580445 
L 206.362939 286.483509 
L 206.585305 287.655326 
L 206.807671 287.16193 
L 207.030037 285.55839 
L 207.252403 287.778676 
L 207.47477 286.791882 
L 207.697136 287.593652 
L 207.919502 287.84035 
L 208.141868 286.791882 
L 208.364234 290.509178 
L 208.5866 286.001326 
L 208.808966 285.681739 
L 209.031333 284.87997 
L 209.698431 291.602501 
L 209.920797 293.20604 
L 210.143163 293.021016 
L 210.365529 293.884461 
L 210.587895 294.254508 
L 210.810262 293.604121 
L 211.032628 292.123931 
L 211.254994 292.157572 
L 211.699726 286.113462 
L 211.922092 288.395422 
L 212.144458 287.408628 
L 212.366824 287.593652 
L 212.589191 288.395422 
L 212.811557 287.408628 
L 213.033923 285.188343 
L 213.256289 286.853557 
L 213.478655 285.866763 
L 213.701021 287.717001 
L 213.923387 284.818295 
L 214.145753 285.990112 
L 214.36812 284.818295 
L 214.590486 286.791882 
L 215.035218 292.219246 
L 215.47995 293.761111 
L 215.702316 293.576088 
L 215.924682 294.536449 
L 216.147049 293.637762 
L 216.814147 288.210398 
L 217.258879 279.51428 
L 217.481245 280.99447 
L 217.703611 280.007677 
L 217.925978 277.23232 
L 218.148344 276.615574 
L 218.593076 274.580312 
L 218.815442 273.655193 
L 219.037808 273.285146 
L 219.260174 272.606725 
L 219.48254 267.981131 
L 219.927273 274.580312 
L 220.594371 289.875612 
L 221.039103 292.774318 
L 221.261469 293.144365 
L 221.483836 292.712643 
L 221.706202 290.172771 
L 221.928568 290.369009 
L 222.150934 288.148723 
L 222.3733 288.888818 
L 222.595666 286.36016 
L 222.818032 286.545184 
L 223.040399 283.954851 
L 223.262765 287.470303 
L 223.485131 286.175136 
L 223.707497 286.483509 
L 223.929863 285.126668 
L 224.152229 284.694946 
L 224.374595 284.509922 
L 224.596961 287.223604 
L 224.819328 286.853557 
L 225.041694 287.408628 
L 225.26406 289.197191 
L 225.486426 289.505564 
L 225.931158 292.465945 
L 226.37589 293.637762 
L 226.598257 294.100322 
L 226.820623 294.081819 
L 227.265355 292.998589 
L 227.487721 289.012168 
L 227.710087 289.628913 
L 227.932453 288.827144 
L 228.377186 286.298485 
L 228.599552 288.518771 
L 228.821918 288.272072 
L 229.044284 286.853557 
L 229.489016 288.457096 
L 229.711382 289.998961 
L 229.933748 288.64212 
L 230.378481 289.567239 
L 230.600847 288.457096 
L 231.045579 292.40427 
L 231.267945 292.971677 
L 231.490311 294.00781 
L 231.935044 294.285345 
L 232.15741 294.377857 
L 232.602142 292.662182 
L 232.824508 290.492358 
L 233.26924 289.135517 
L 233.491606 286.853557 
L 233.713973 288.210398 
L 233.936339 288.827144 
L 234.158705 287.531977 
L 234.381071 288.580445 
L 234.603437 288.272072 
L 234.825803 289.197191 
L 235.048169 288.272072 
L 235.270535 287.963699 
L 235.492902 287.346953 
L 235.715268 285.373366 
L 236.16 290.554032 
L 236.827098 294.209654 
L 237.049465 293.469559 
L 237.271831 294.747905 
L 237.716563 292.729464 
L 237.938929 291.972548 
L 238.161295 288.950493 
L 238.383661 287.717001 
L 238.606027 288.888818 
L 238.828394 285.990112 
L 239.05076 286.606858 
L 239.273126 285.866763 
L 239.495492 285.866763 
L 239.717858 286.36016 
L 239.940224 287.593652 
L 240.16259 284.818295 
L 240.384956 285.188343 
L 240.607323 286.668533 
L 240.829689 284.263224 
L 241.274421 288.025374 
L 241.496787 288.950493 
L 241.719153 292.258494 
L 241.941519 292.675638 
L 242.163885 290.57646 
L 242.386252 293.53684 
L 242.608618 294.172275 
L 242.830984 294.090043 
L 243.05335 293.873247 
L 243.275716 290.862405 
L 243.498082 289.752263 
L 243.720448 289.258866 
L 243.942814 286.421835 
L 244.165181 286.791882 
L 244.387547 284.941644 
L 244.609913 285.311692 
L 244.832279 285.435041 
L 245.054645 286.113462 
L 245.277011 286.298485 
L 245.499377 284.818295 
L 245.721743 287.038581 
L 245.94411 286.853557 
L 246.166476 285.250017 
L 246.611208 288.025374 
L 246.833574 290.800731 
L 247.05594 290.862405 
L 247.500672 293.489743 
L 247.723039 293.785781 
L 247.945405 293.690626 
L 248.167771 293.045686 
L 248.390137 292.897667 
L 248.834869 290.183985 
L 249.057235 288.518771 
L 249.279601 287.778676 
L 249.501968 288.64212 
L 249.724334 286.915231 
L 249.9467 286.545184 
L 250.169066 287.100255 
L 250.613798 285.496716 
L 250.836164 287.285279 
L 251.280897 284.201549 
L 251.503263 285.126668 
L 252.392727 292.157572 
L 252.615093 292.219246 
L 252.83746 294.00781 
L 253.059826 294.254508 
L 253.282192 293.082691 
L 253.504558 293.391064 
L 253.726924 292.589294 
L 253.94929 292.325775 
L 254.171656 287.963699 
L 254.394022 287.84035 
L 254.616389 286.175136 
L 254.838755 287.285279 
L 255.061121 284.694946 
L 255.283487 287.223604 
L 255.950585 285.311692 
L 256.172951 284.324898 
L 256.395318 285.250017 
L 256.617684 284.694946 
L 257.507148 287.717001 
L 257.95188 292.998589 
L 258.174247 56.745644 
L 258.396613 293.873247 
L 258.618979 294.090043 
L 259.063711 292.662182 
L 259.730809 286.976906 
L 259.953176 287.655326 
L 260.175542 288.703795 
L 260.397908 285.435041 
L 260.84264 286.668533 
L 261.065006 285.928438 
L 261.287372 284.016525 
L 261.509738 286.236811 
L 261.732105 286.113462 
L 261.954471 285.373366 
L 262.176837 287.655326 
L 262.399203 286.730208 
L 262.621569 289.258866 
L 262.843935 289.752263 
L 263.066301 291.72585 
L 263.511034 292.3796 
L 263.7334 294.00781 
L 263.955766 294.192834 
L 264.178132 293.341724 
L 264.400498 293.637762 
L 264.622864 292.774318 
L 264.84523 289.382215 
L 265.289963 286.606858 
L 265.512329 286.668533 
L 265.957061 287.223604 
L 266.179427 288.395422 
L 266.401793 287.010547 
L 266.624159 287.223604 
L 266.846526 287.593652 
L 267.068892 286.545184 
L 267.291258 288.457096 
L 267.513624 288.765469 
L 267.73599 287.285279 
L 268.180722 291.109104 
L 268.403088 291.269458 
L 268.847821 293.185482 
L 269.070187 293.045686 
L 269.514919 293.563753 
L 269.737285 294.00781 
L 269.959651 292.897667 
L 270.404384 288.64212 
L 270.62675 289.44389 
L 270.849116 287.717001 
L 271.071482 289.628913 
L 271.293848 288.148723 
L 271.960946 286.853557 
L 272.405679 287.902025 
L 272.628045 288.950493 
L 272.850411 288.765469 
L 273.072777 286.915231 
L 273.517509 291.047429 
L 273.739875 291.652962 
L 273.962242 293.452738 
L 274.184608 293.021016 
L 274.406974 293.415734 
L 274.62934 294.501206 
L 275.074072 292.662182 
L 275.741171 287.223604 
L 275.963537 289.382215 
L 276.185903 286.730208 
L 276.408269 286.730208 
L 276.630635 286.113462 
L 276.853001 285.990112 
L 277.075367 285.620065 
L 277.297733 286.051787 
L 277.5201 286.236811 
L 277.964832 284.448248 
L 278.187198 285.805089 
L 278.409564 284.87997 
L 278.63193 288.64212 
L 278.854296 289.875612 
L 279.299029 293.805966 
L 279.521395 294.00781 
L 279.743761 293.9338 
L 279.966127 294.599886 
L 281.077958 287.531977 
L 281.300324 287.531977 
L 281.52269 285.866763 
L 281.745056 286.668533 
L 282.189788 286.175136 
L 282.412154 285.496716 
L 282.634521 285.866763 
L 282.856887 285.620065 
L 283.079253 284.941644 
L 283.301619 284.694946 
L 283.523985 285.435041 
L 283.746351 286.730208 
L 283.968717 286.483509 
L 284.41345 290.862405 
L 284.635816 293.415734 
L 284.858182 294.172275 
L 285.080548 293.902082 
L 285.302914 294.418974 
L 285.52528 293.730274 
L 285.747646 292.45361 
L 285.970012 288.827144 
L 286.192379 290.12231 
L 286.637111 286.915231 
L 286.859477 288.580445 
L 287.081843 286.051787 
L 287.304209 287.778676 
L 287.526575 287.16193 
L 287.748941 287.038581 
L 288.193674 284.509922 
L 288.41604 287.038581 
L 288.638406 285.55839 
L 288.860772 286.113462 
L 289.083138 287.038581 
L 289.305504 287.346953 
L 289.52787 288.950493 
L 289.972603 292.959342 
L 290.194969 215.409706 
L 290.639701 293.9338 
L 291.084433 292.095897 
L 291.751532 287.038581 
L 291.973898 287.346953 
L 292.196264 286.853557 
L 292.41863 288.395422 
L 292.640996 287.100255 
L 292.863362 286.915231 
L 293.085729 286.236811 
L 293.308095 284.509922 
L 293.530461 285.990112 
L 293.752827 286.236811 
L 293.975193 286.236811 
L 294.197559 285.373366 
L 294.642291 287.531977 
L 294.864658 290.92408 
L 295.087024 290.554032 
L 295.531756 294.155829 
L 295.754122 294.090043 
L 295.976488 294.525876 
L 296.198854 292.729464 
L 296.42122 293.133152 
L 297.310685 285.003319 
L 297.533051 289.44389 
L 297.755417 289.135517 
L 297.977783 286.730208 
L 298.200149 287.963699 
L 298.422516 286.606858 
L 298.644882 288.087049 
L 298.867248 286.175136 
L 299.31198 287.408628 
L 299.534346 288.888818 
L 299.756712 288.333747 
L 299.979078 288.580445 
L 300.423811 292.280921 
L 300.646177 292.712643 
L 300.868543 294.172275 
L 301.090909 292.998589 
L 301.313275 294.285345 
L 301.535641 293.563753 
L 301.758007 293.53684 
L 302.20274 291.479151 
L 302.425106 288.518771 
L 302.647472 289.813937 
L 302.869838 288.210398 
L 303.092204 290.183985 
L 303.31457 285.928438 
L 303.536936 288.765469 
L 303.759303 288.950493 
L 303.981669 289.690588 
L 304.426401 287.038581 
L 304.871133 290.183985 
L 305.093499 289.197191 
L 305.538232 291.479151 
L 305.760598 292.123931 
L 305.982964 293.915298 
L 306.20533 293.925577 
L 306.427696 294.219265 
L 306.650062 293.822786 
L 306.872428 294.430721 
L 307.094795 292.938783 
L 307.317161 293.082691 
L 307.539527 292.601629 
L 307.761893 288.580445 
L 307.984259 288.457096 
L 308.206625 287.778676 
L 308.428991 289.44389 
L 308.651357 288.950493 
L 309.09609 286.853557 
L 309.318456 287.84035 
L 309.540822 286.545184 
L 309.763188 286.791882 
L 309.985554 288.395422 
L 310.20792 288.395422 
L 310.430286 287.963699 
L 310.652653 290.615707 
L 310.875019 289.875612 
L 311.097385 292.465945 
L 311.319751 292.280921 
L 311.542117 294.090043 
L 311.764483 294.209654 
L 311.986849 293.690626 
L 312.653948 290.677382 
L 312.876314 290.492358 
L 313.543412 285.743414 
L 313.765778 286.730208 
L 313.988144 285.496716 
L 314.210511 287.408628 
L 314.432877 286.36016 
L 314.877609 286.051787 
L 315.099975 285.250017 
L 315.322341 285.126668 
L 315.544707 286.730208 
L 315.767073 286.051787 
L 316.434172 291.854806 
L 316.878904 293.805966 
L 317.10127 294.155829 
L 317.546002 293.843344 
L 318.435467 286.483509 
L 318.657833 288.087049 
L 319.102565 286.36016 
L 319.324932 286.483509 
L 319.547298 285.805089 
L 319.769664 287.963699 
L 319.99203 285.064993 
L 320.214396 286.051787 
L 320.436762 284.941644 
L 320.659128 285.250017 
L 320.881494 284.633271 
L 321.326227 288.272072 
L 321.770959 290.369009 
L 321.993325 292.774318 
L 322.438057 294.192834 
L 322.660423 290.912866 
L 322.88279 293.730274 
L 323.105156 292.662182 
L 323.549888 289.135517 
L 323.99462 286.298485 
L 324.216986 287.100255 
L 324.439352 286.606858 
L 324.661719 286.853557 
L 324.884085 286.606858 
L 325.106451 287.038581 
L 325.328817 285.805089 
L 325.551183 286.606858 
L 325.773549 285.55839 
L 325.995915 286.421835 
L 326.440648 285.188343 
L 326.663014 287.285279 
L 326.88538 287.778676 
L 327.107746 291.479151 
L 327.774844 294.113538 
L 327.99721 293.604121 
L 328.219577 293.452738 
L 328.441943 292.280921 
L 328.664309 289.937286 
L 328.886675 289.258866 
L 329.109041 287.963699 
L 329.331407 288.457096 
L 329.553773 285.496716 
L 329.998506 288.457096 
L 330.220872 288.765469 
L 330.443238 287.16193 
L 330.665604 287.531977 
L 330.88797 287.100255 
L 331.110336 285.55839 
L 331.332702 288.333747 
L 331.555068 287.346953 
L 331.777435 287.223604 
L 331.999801 289.628913 
L 332.222167 289.628913 
L 332.444533 291.72585 
L 332.666899 292.40427 
L 332.889265 294.00781 
L 333.333998 294.192834 
L 333.556364 292.712643 
L 333.77873 293.06587 
L 334.001096 291.664175 
L 334.223462 288.395422 
L 334.445828 290.245659 
L 334.668194 288.827144 
L 334.89056 288.765469 
L 335.112927 286.236811 
L 335.557659 288.148723 
L 335.780025 288.580445 
L 336.002391 286.298485 
L 336.224757 287.470303 
L 336.447123 287.531977 
L 336.669489 287.470303 
L 336.891856 286.36016 
L 337.114222 288.019767 
L 337.336588 288.518771 
L 338.226052 294.081819 
L 338.448418 293.415734 
L 338.670785 293.489743 
L 338.893151 294.219265 
L 339.337883 292.280921 
L 339.782615 288.356174 
L 340.004981 287.778676 
L 340.227347 285.805089 
L 340.449714 288.703795 
L 340.67208 288.210398 
L 340.894446 288.025374 
L 341.116812 289.690588 
L 341.561544 289.197191 
L 341.78391 288.395422 
L 342.006276 288.087049 
L 342.228643 288.395422 
L 342.451009 289.937286 
L 342.895741 290.307334 
L 343.118107 292.527619 
L 343.340473 292.675638 
L 343.562839 293.711772 
L 344.007572 294.418974 
L 344.229938 294.131159 
L 344.452304 294.583439 
L 345.119402 289.44389 
L 345.341768 289.012168 
L 345.786501 289.937286 
L 346.231233 288.765469 
L 346.453599 288.580445 
L 346.675965 288.703795 
L 346.898331 289.258866 
L 347.56543 286.051787 
L 348.454894 293.576088 
L 348.67726 293.9338 
L 348.899626 293.604121 
L 349.121993 294.624556 
L 349.566725 292.393057 
L 349.789091 292.465945 
L 350.011457 291.047429 
L 350.233823 288.272072 
L 350.456189 288.518771 
L 350.678555 287.408628 
L 350.900922 288.888818 
L 351.123288 287.100255 
L 351.345654 287.223604 
L 351.56802 285.496716 
L 351.790386 286.730208 
L 352.012752 286.668533 
L 352.679851 284.509922 
L 352.902217 285.003319 
L 353.124583 287.902025 
L 353.346949 288.703795 
L 353.791681 293.200433 
L 354.014047 292.393057 
L 354.236413 292.325775 
L 354.45878 294.285345 
L 354.681146 293.796354 
L 355.125878 290.57646 
L 355.348244 290.307334 
L 355.57061 287.408628 
L 355.792976 287.84035 
L 356.460075 283.954851 
L 356.682441 285.003319 
L 356.904807 285.188343 
L 357.127173 285.620065 
L 357.349539 284.448248 
L 357.571905 284.263224 
L 357.794271 285.311692 
L 358.016638 284.756621 
L 358.239004 284.509922 
L 358.46137 287.038581 
L 358.683736 288.210398 
L 358.906102 291.787524 
L 359.128468 292.897667 
L 359.350834 293.267715 
L 359.5732 294.113538 
L 359.795567 293.730274 
L 360.017933 292.739075 
L 360.240299 293.822786 
L 361.35213 287.212391 
L 361.574496 288.765469 
L 361.796862 287.655326 
L 362.019228 288.580445 
L 362.241594 287.223604 
L 362.46396 288.64212 
L 362.686326 285.064993 
L 362.908692 284.694946 
L 363.131059 286.298485 
L 363.353425 286.051787 
L 363.575791 285.620065 
L 364.020523 288.703795 
L 364.465255 293.391064 
L 364.687621 293.452738 
L 364.909988 290.492358 
L 365.132354 292.971677 
L 365.35472 279.205907 
L 365.577086 282.412986 
L 365.799452 274.765336 
L 366.021818 271.989979 
L 366.244184 259.285013 
L 366.46655 283.584803 
L 366.688917 284.386573 
L 367.133649 287.655326 
L 367.356015 287.038581 
L 367.578381 287.778676 
L 367.800747 285.064993 
L 368.023113 288.64212 
L 368.245479 286.175136 
L 368.467846 285.681739 
L 368.690212 285.55839 
L 368.912578 285.866763 
L 369.35731 290.615707 
L 369.579676 290.554032 
L 370.024408 293.738684 
L 370.469141 293.267715 
L 370.913873 293.637762 
L 371.136239 291.047429 
L 371.358605 289.875612 
L 371.580971 289.690588 
L 371.803337 289.258866 
L 372.025704 286.421835 
L 372.24807 288.148723 
L 372.692802 288.087049 
L 372.915168 286.730208 
L 373.137534 289.073842 
L 373.582267 287.346953 
L 373.804633 288.888818 
L 374.249365 287.84035 
L 374.471731 289.998961 
L 374.694097 290.369009 
L 374.916463 291.355802 
L 375.138829 293.200433 
L 375.583562 294.113538 
L 375.805928 294.172275 
L 376.028294 293.402277 
L 376.25066 294.192834 
L 376.473026 293.267715 
L 376.917758 289.382215 
L 377.140125 291.232453 
L 377.584857 288.333747 
L 377.807223 288.580445 
L 378.029589 289.197191 
L 378.251955 288.518771 
L 378.474321 288.272072 
L 378.696687 287.593652 
L 379.14142 290.554032 
L 379.363786 289.320541 
L 379.586152 290.369009 
L 379.808518 289.505564 
L 380.030884 290.245659 
L 380.25325 292.342596 
L 380.475616 291.664175 
L 380.697983 293.267715 
L 381.142715 294.599886 
L 381.587447 293.596646 
L 381.809813 293.489743 
L 382.032179 292.729464 
L 382.254545 290.245659 
L 382.476912 289.875612 
L 382.921644 290.677382 
L 383.588742 289.197191 
L 383.811108 289.073842 
L 384.033474 289.44389 
L 384.255841 287.100255 
L 384.478207 290.554032 
L 384.700573 287.902025 
L 384.922939 289.567239 
L 385.145305 290.374615 
L 385.367671 290.060636 
L 385.590037 292.662182 
L 385.812403 293.082691 
L 386.257136 294.303848 
L 386.479502 293.902082 
L 386.924234 292.460338 
L 387.1466 292.280921 
L 387.368966 289.998961 
L 387.591333 290.183985 
L 387.813699 288.025374 
L 388.036065 287.84035 
L 388.258431 287.963699 
L 388.480797 287.346953 
L 388.703163 288.950493 
L 389.147895 289.258866 
L 389.370262 286.051787 
L 389.592628 287.346953 
L 389.814994 286.298485 
L 390.03736 286.791882 
L 390.259726 286.915231 
L 390.704458 289.628913 
L 390.926824 291.664175 
L 391.149191 292.280921 
L 391.593923 294.430721 
L 392.038655 292.40427 
L 392.261021 293.329389 
L 392.483387 291.664175 
L 392.705753 291.849199 
L 392.92812 289.320541 
L 393.372852 288.210398 
L 393.595218 288.395422 
L 393.817584 287.778676 
L 394.03995 287.902025 
L 394.484682 286.853557 
L 394.707049 286.853557 
L 394.929415 287.16193 
L 395.151781 286.36016 
L 395.374147 286.36016 
L 395.596513 285.250017 
L 395.818879 286.791882 
L 396.041245 290.060636 
L 396.485978 292.959342 
L 396.93071 294.100322 
L 397.153076 294.430721 
L 397.375442 292.601629 
L 397.597808 291.854806 
L 397.820174 291.602501 
L 398.487273 287.778676 
L 398.487273 287.778676 
" style="fill:none;stroke:#1f77b4;stroke-linecap:square;stroke-width:1.5;"/>
   </g>
   <g id="patch_3">
    <path d="M 57.6 307.584 
L 57.6 41.472 
" style="fill:none;stroke:#000000;stroke-linecap:square;stroke-linejoin:miter;stroke-width:0.8;"/>
   </g>
   <g id="patch_4">
    <path d="M 414.72 307.584 
L 414.72 41.472 
" style="fill:none;stroke:#000000;stroke-linecap:square;stroke-linejoin:miter;stroke-width:0.8;"/>
   </g>
   <g id="patch_5">
    <path d="M 57.6 307.584 
L 414.72 307.584 
" style="fill:none;stroke:#000000;stroke-linecap:square;stroke-linejoin:miter;stroke-width:0.8;"/>
   </g>
   <g id="patch_6">
    <path d="M 57.6 41.472 
L 414.72 41.472 
" style="fill:none;stroke:#000000;stroke-linecap:square;stroke-linejoin:miter;stroke-width:0.8;"/>
   </g>
   <g id="text_15">
    <!-- real_9.csv -->
    <defs>
     <path d="M 41.109375 46.296875 
Q 39.59375 47.171875 37.8125 47.578125 
Q 36.03125 48 33.890625 48 
Q 26.265625 48 22.1875 43.046875 
Q 18.109375 38.09375 18.109375 28.8125 
L 18.109375 0 
L 9.078125 0 
L 9.078125 54.6875 
L 18.109375 54.6875 
L 18.109375 46.1875 
Q 20.953125 51.171875 25.484375 53.578125 
Q 30.03125 56 36.53125 56 
Q 37.453125 56 38.578125 55.875 
Q 39.703125 55.765625 41.0625 55.515625 
z
" id="DejaVuSans-72"/>
     <path d="M 56.203125 29.59375 
L 56.203125 25.203125 
L 14.890625 25.203125 
Q 15.484375 15.921875 20.484375 11.0625 
Q 25.484375 6.203125 34.421875 6.203125 
Q 39.59375 6.203125 44.453125 7.46875 
Q 49.3125 8.734375 54.109375 11.28125 
L 54.109375 2.78125 
Q 49.265625 0.734375 44.1875 -0.34375 
Q 39.109375 -1.421875 33.890625 -1.421875 
Q 20.796875 -1.421875 13.15625 6.1875 
Q 5.515625 13.8125 5.515625 26.8125 
Q 5.515625 40.234375 12.765625 48.109375 
Q 20.015625 56 32.328125 56 
Q 43.359375 56 49.78125 48.890625 
Q 56.203125 41.796875 56.203125 29.59375 
z
M 47.21875 32.234375 
Q 47.125 39.59375 43.09375 43.984375 
Q 39.0625 48.390625 32.421875 48.390625 
Q 24.90625 48.390625 20.390625 44.140625 
Q 15.875 39.890625 15.1875 32.171875 
z
" id="DejaVuSans-65"/>
     <path d="M 34.28125 27.484375 
Q 23.390625 27.484375 19.1875 25 
Q 14.984375 22.515625 14.984375 16.5 
Q 14.984375 11.71875 18.140625 8.90625 
Q 21.296875 6.109375 26.703125 6.109375 
Q 34.1875 6.109375 38.703125 11.40625 
Q 43.21875 16.703125 43.21875 25.484375 
L 43.21875 27.484375 
z
M 52.203125 31.203125 
L 52.203125 0 
L 43.21875 0 
L 43.21875 8.296875 
Q 40.140625 3.328125 35.546875 0.953125 
Q 30.953125 -1.421875 24.3125 -1.421875 
Q 15.921875 -1.421875 10.953125 3.296875 
Q 6 8.015625 6 15.921875 
Q 6 25.140625 12.171875 29.828125 
Q 18.359375 34.515625 30.609375 34.515625 
L 43.21875 34.515625 
L 43.21875 35.40625 
Q 43.21875 41.609375 39.140625 45 
Q 35.0625 48.390625 27.6875 48.390625 
Q 23 48.390625 18.546875 47.265625 
Q 14.109375 46.140625 10.015625 43.890625 
L 10.015625 52.203125 
Q 14.9375 54.109375 19.578125 55.046875 
Q 24.21875 56 28.609375 56 
Q 40.484375 56 46.34375 49.84375 
Q 52.203125 43.703125 52.203125 31.203125 
z
" id="DejaVuSans-61"/>
     <path d="M 9.421875 75.984375 
L 18.40625 75.984375 
L 18.40625 0 
L 9.421875 0 
z
" id="DejaVuSans-6c"/>
     <path d="M 50.984375 -16.609375 
L 50.984375 -23.578125 
L -0.984375 -23.578125 
L -0.984375 -16.609375 
z
" id="DejaVuSans-5f"/>
     <path d="M 10.984375 1.515625 
L 10.984375 10.5 
Q 14.703125 8.734375 18.5 7.8125 
Q 22.3125 6.890625 25.984375 6.890625 
Q 35.75 6.890625 40.890625 13.453125 
Q 46.046875 20.015625 46.78125 33.40625 
Q 43.953125 29.203125 39.59375 26.953125 
Q 35.25 24.703125 29.984375 24.703125 
Q 19.046875 24.703125 12.671875 31.3125 
Q 6.296875 37.9375 6.296875 49.421875 
Q 6.296875 60.640625 12.9375 67.421875 
Q 19.578125 74.21875 30.609375 74.21875 
Q 43.265625 74.21875 49.921875 64.515625 
Q 56.59375 54.828125 56.59375 36.375 
Q 56.59375 19.140625 48.40625 8.859375 
Q 40.234375 -1.421875 26.421875 -1.421875 
Q 22.703125 -1.421875 18.890625 -0.6875 
Q 15.09375 0.046875 10.984375 1.515625 
z
M 30.609375 32.421875 
Q 37.25 32.421875 41.125 36.953125 
Q 45.015625 41.5 45.015625 49.421875 
Q 45.015625 57.28125 41.125 61.84375 
Q 37.25 66.40625 30.609375 66.40625 
Q 23.96875 66.40625 20.09375 61.84375 
Q 16.21875 57.28125 16.21875 49.421875 
Q 16.21875 41.5 20.09375 36.953125 
Q 23.96875 32.421875 30.609375 32.421875 
z
" id="DejaVuSans-39"/>
     <path d="M 48.78125 52.59375 
L 48.78125 44.1875 
Q 44.96875 46.296875 41.140625 47.34375 
Q 37.3125 48.390625 33.40625 48.390625 
Q 24.65625 48.390625 19.8125 42.84375 
Q 14.984375 37.3125 14.984375 27.296875 
Q 14.984375 17.28125 19.8125 11.734375 
Q 24.65625 6.203125 33.40625 6.203125 
Q 37.3125 6.203125 41.140625 7.25 
Q 44.96875 8.296875 48.78125 10.40625 
L 48.78125 2.09375 
Q 45.015625 0.34375 40.984375 -0.53125 
Q 36.96875 -1.421875 32.421875 -1.421875 
Q 20.0625 -1.421875 12.78125 6.34375 
Q 5.515625 14.109375 5.515625 27.296875 
Q 5.515625 40.671875 12.859375 48.328125 
Q 20.21875 56 33.015625 56 
Q 37.15625 56 41.109375 55.140625 
Q 45.0625 54.296875 48.78125 52.59375 
z
" id="DejaVuSans-63"/>
     <path d="M 44.28125 53.078125 
L 44.28125 44.578125 
Q 40.484375 46.53125 36.375 47.5 
Q 32.28125 48.484375 27.875 48.484375 
Q 21.1875 48.484375 17.84375 46.4375 
Q 14.5 44.390625 14.5 40.28125 
Q 14.5 37.15625 16.890625 35.375 
Q 19.28125 33.59375 26.515625 31.984375 
L 29.59375 31.296875 
Q 39.15625 29.25 43.1875 25.515625 
Q 47.21875 21.78125 47.21875 15.09375 
Q 47.21875 7.46875 41.1875 3.015625 
Q 35.15625 -1.421875 24.609375 -1.421875 
Q 20.21875 -1.421875 15.453125 -0.5625 
Q 10.6875 0.296875 5.421875 2 
L 5.421875 11.28125 
Q 10.40625 8.6875 15.234375 7.390625 
Q 20.0625 6.109375 24.8125 6.109375 
Q 31.15625 6.109375 34.5625 8.28125 
Q 37.984375 10.453125 37.984375 14.40625 
Q 37.984375 18.0625 35.515625 20.015625 
Q 33.0625 21.96875 24.703125 23.78125 
L 21.578125 24.515625 
Q 13.234375 26.265625 9.515625 29.90625 
Q 5.8125 33.546875 5.8125 39.890625 
Q 5.8125 47.609375 11.28125 51.796875 
Q 16.75 56 26.8125 56 
Q 31.78125 56 36.171875 55.265625 
Q 40.578125 54.546875 44.28125 53.078125 
z
" id="DejaVuSans-73"/>
     <path d="M 2.984375 54.6875 
L 12.5 54.6875 
L 29.59375 8.796875 
L 46.6875 54.6875 
L 56.203125 54.6875 
L 35.6875 0 
L 23.484375 0 
z
" id="DejaVuSans-76"/>
    </defs>
    <g transform="translate(205.959375 35.472)scale(0.12 -0.12)">
     <use xlink:href="#DejaVuSans-72"/>
     <use x="41.082031" xlink:href="#DejaVuSans-65"/>
     <use x="102.605469" xlink:href="#DejaVuSans-61"/>
     <use x="163.884766" xlink:href="#DejaVuSans-6c"/>
     <use x="191.667969" xlink:href="#DejaVuSans-5f"/>
     <use x="241.667969" xlink:href="#DejaVuSans-39"/>
     <use x="305.291016" xlink:href="#DejaVuSans-2e"/>
     <use x="337.078125" xlink:href="#DejaVuSans-63"/>
     <use x="392.058594" xlink:href="#DejaVuSans-73"/>
     <use x="444.158203" xlink:href="#DejaVuSans-76"/>
    </g>
   </g>
   <g id="PathCollection_1">
    <defs>
     <path d="M -4.472136 4.472136 
L 4.472136 -4.472136 
M -4.472136 -4.472136 
L 4.472136 4.472136 
" id="m290a1f25de" style="stroke:#ffa500;stroke-width:1.5;"/>
    </defs>
    <g clip-path="url(#pf7395e6ae8)">
     <use style="fill:#ffa500;stroke:#ffa500;stroke-width:1.5;" x="218.815442" xlink:href="#m290a1f25de" y="273.285146"/>
     <use style="fill:#ffa500;stroke:#ffa500;stroke-width:1.5;" x="219.037808" xlink:href="#m290a1f25de" y="272.606725"/>
     <use style="fill:#ffa500;stroke:#ffa500;stroke-width:1.5;" x="219.260174" xlink:href="#m290a1f25de" y="267.981131"/>
     <use style="fill:#ffa500;stroke:#ffa500;stroke-width:1.5;" x="219.48254" xlink:href="#m290a1f25de" y="271.373233"/>
     <use style="fill:#ffa500;stroke:#ffa500;stroke-width:1.5;" x="257.95188" xlink:href="#m290a1f25de" y="56.745644"/>
     <use style="fill:#ffa500;stroke:#ffa500;stroke-width:1.5;" x="289.972603" xlink:href="#m290a1f25de" y="215.409706"/>
     <use style="fill:#ffa500;stroke:#ffa500;stroke-width:1.5;" x="365.799452" xlink:href="#m290a1f25de" y="271.989979"/>
     <use style="fill:#ffa500;stroke:#ffa500;stroke-width:1.5;" x="366.021818" xlink:href="#m290a1f25de" y="259.285013"/>
    </g>
   </g>
  </g>
 </g>
 <defs>
  <clipPath id="pf7395e6ae8">
   <rect height="266.112" width="357.12" x="57.6" y="41.472"/>
  </clipPath>
 </defs>
</svg>
