<?xml version="1.0" encoding="utf-8" standalone="no"?>
<!DOCTYPE svg PUBLIC "-//W3C//DTD SVG 1.1//EN"
  "http://www.w3.org/Graphics/SVG/1.1/DTD/svg11.dtd">
<!-- Created with matplotlib (http://matplotlib.org/) -->
<svg height="345.6pt" version="1.1" viewBox="0 0 460.8 345.6" width="460.8pt" xmlns="http://www.w3.org/2000/svg" xmlns:xlink="http://www.w3.org/1999/xlink">
 <defs>
  <style type="text/css">
*{stroke-linecap:butt;stroke-linejoin:round;}
  </style>
 </defs>
 <g id="figure_1">
  <g id="patch_1">
   <path d="M 0 345.6 
L 460.8 345.6 
L 460.8 0 
L 0 0 
z
" style="fill:#ffffff;"/>
  </g>
  <g id="axes_1">
   <g id="patch_2">
    <path d="M 57.6 307.584 
L 414.72 307.584 
L 414.72 41.472 
L 57.6 41.472 
z
" style="fill:#ffffff;"/>
   </g>
   <g id="matplotlib.axis_1">
    <g id="xtick_1">
     <g id="line2d_1">
      <defs>
       <path d="M 0 0 
L 0 3.5 
" id="m2c271cadf8" style="stroke:#000000;stroke-width:0.8;"/>
      </defs>
      <g>
       <use style="stroke:#000000;stroke-width:0.8;" x="73.612395" xlink:href="#m2c271cadf8" y="307.584"/>
      </g>
     </g>
     <g id="text_1">
      <!-- 0 -->
      <defs>
       <path d="M 31.78125 66.40625 
Q 24.171875 66.40625 20.328125 58.90625 
Q 16.5 51.421875 16.5 36.375 
Q 16.5 21.390625 20.328125 13.890625 
Q 24.171875 6.390625 31.78125 6.390625 
Q 39.453125 6.390625 43.28125 13.890625 
Q 47.125 21.390625 47.125 36.375 
Q 47.125 51.421875 43.28125 58.90625 
Q 39.453125 66.40625 31.78125 66.40625 
z
M 31.78125 74.21875 
Q 44.046875 74.21875 50.515625 64.515625 
Q 56.984375 54.828125 56.984375 36.375 
Q 56.984375 17.96875 50.515625 8.265625 
Q 44.046875 -1.421875 31.78125 -1.421875 
Q 19.53125 -1.421875 13.0625 8.265625 
Q 6.59375 17.96875 6.59375 36.375 
Q 6.59375 54.828125 13.0625 64.515625 
Q 19.53125 74.21875 31.78125 74.21875 
z
" id="DejaVuSans-30"/>
      </defs>
      <g transform="translate(70.431145 322.182437)scale(0.1 -0.1)">
       <use xlink:href="#DejaVuSans-30"/>
      </g>
     </g>
    </g>
    <g id="xtick_2">
     <g id="line2d_2">
      <g>
       <use style="stroke:#000000;stroke-width:0.8;" x="117.678751" xlink:href="#m2c271cadf8" y="307.584"/>
      </g>
     </g>
     <g id="text_2">
      <!-- 200 -->
      <defs>
       <path d="M 19.1875 8.296875 
L 53.609375 8.296875 
L 53.609375 0 
L 7.328125 0 
L 7.328125 8.296875 
Q 12.9375 14.109375 22.625 23.890625 
Q 32.328125 33.6875 34.8125 36.53125 
Q 39.546875 41.84375 41.421875 45.53125 
Q 43.3125 49.21875 43.3125 52.78125 
Q 43.3125 58.59375 39.234375 62.25 
Q 35.15625 65.921875 28.609375 65.921875 
Q 23.96875 65.921875 18.8125 64.3125 
Q 13.671875 62.703125 7.8125 59.421875 
L 7.8125 69.390625 
Q 13.765625 71.78125 18.9375 73 
Q 24.125 74.21875 28.421875 74.21875 
Q 39.75 74.21875 46.484375 68.546875 
Q 53.21875 62.890625 53.21875 53.421875 
Q 53.21875 48.921875 51.53125 44.890625 
Q 49.859375 40.875 45.40625 35.40625 
Q 44.1875 33.984375 37.640625 27.21875 
Q 31.109375 20.453125 19.1875 8.296875 
z
" id="DejaVuSans-32"/>
      </defs>
      <g transform="translate(108.135001 322.182437)scale(0.1 -0.1)">
       <use xlink:href="#DejaVuSans-32"/>
       <use x="63.623047" xlink:href="#DejaVuSans-30"/>
       <use x="127.246094" xlink:href="#DejaVuSans-30"/>
      </g>
     </g>
    </g>
    <g id="xtick_3">
     <g id="line2d_3">
      <g>
       <use style="stroke:#000000;stroke-width:0.8;" x="161.745107" xlink:href="#m2c271cadf8" y="307.584"/>
      </g>
     </g>
     <g id="text_3">
      <!-- 400 -->
      <defs>
       <path d="M 37.796875 64.3125 
L 12.890625 25.390625 
L 37.796875 25.390625 
z
M 35.203125 72.90625 
L 47.609375 72.90625 
L 47.609375 25.390625 
L 58.015625 25.390625 
L 58.015625 17.1875 
L 47.609375 17.1875 
L 47.609375 0 
L 37.796875 0 
L 37.796875 17.1875 
L 4.890625 17.1875 
L 4.890625 26.703125 
z
" id="DejaVuSans-34"/>
      </defs>
      <g transform="translate(152.201357 322.182437)scale(0.1 -0.1)">
       <use xlink:href="#DejaVuSans-34"/>
       <use x="63.623047" xlink:href="#DejaVuSans-30"/>
       <use x="127.246094" xlink:href="#DejaVuSans-30"/>
      </g>
     </g>
    </g>
    <g id="xtick_4">
     <g id="line2d_4">
      <g>
       <use style="stroke:#000000;stroke-width:0.8;" x="205.811463" xlink:href="#m2c271cadf8" y="307.584"/>
      </g>
     </g>
     <g id="text_4">
      <!-- 600 -->
      <defs>
       <path d="M 33.015625 40.375 
Q 26.375 40.375 22.484375 35.828125 
Q 18.609375 31.296875 18.609375 23.390625 
Q 18.609375 15.53125 22.484375 10.953125 
Q 26.375 6.390625 33.015625 6.390625 
Q 39.65625 6.390625 43.53125 10.953125 
Q 47.40625 15.53125 47.40625 23.390625 
Q 47.40625 31.296875 43.53125 35.828125 
Q 39.65625 40.375 33.015625 40.375 
z
M 52.59375 71.296875 
L 52.59375 62.3125 
Q 48.875 64.0625 45.09375 64.984375 
Q 41.3125 65.921875 37.59375 65.921875 
Q 27.828125 65.921875 22.671875 59.328125 
Q 17.53125 52.734375 16.796875 39.40625 
Q 19.671875 43.65625 24.015625 45.921875 
Q 28.375 48.1875 33.59375 48.1875 
Q 44.578125 48.1875 50.953125 41.515625 
Q 57.328125 34.859375 57.328125 23.390625 
Q 57.328125 12.15625 50.6875 5.359375 
Q 44.046875 -1.421875 33.015625 -1.421875 
Q 20.359375 -1.421875 13.671875 8.265625 
Q 6.984375 17.96875 6.984375 36.375 
Q 6.984375 53.65625 15.1875 63.9375 
Q 23.390625 74.21875 37.203125 74.21875 
Q 40.921875 74.21875 44.703125 73.484375 
Q 48.484375 72.75 52.59375 71.296875 
z
" id="DejaVuSans-36"/>
      </defs>
      <g transform="translate(196.267713 322.182437)scale(0.1 -0.1)">
       <use xlink:href="#DejaVuSans-36"/>
       <use x="63.623047" xlink:href="#DejaVuSans-30"/>
       <use x="127.246094" xlink:href="#DejaVuSans-30"/>
      </g>
     </g>
    </g>
    <g id="xtick_5">
     <g id="line2d_5">
      <g>
       <use style="stroke:#000000;stroke-width:0.8;" x="249.877819" xlink:href="#m2c271cadf8" y="307.584"/>
      </g>
     </g>
     <g id="text_5">
      <!-- 800 -->
      <defs>
       <path d="M 31.78125 34.625 
Q 24.75 34.625 20.71875 30.859375 
Q 16.703125 27.09375 16.703125 20.515625 
Q 16.703125 13.921875 20.71875 10.15625 
Q 24.75 6.390625 31.78125 6.390625 
Q 38.8125 6.390625 42.859375 10.171875 
Q 46.921875 13.96875 46.921875 20.515625 
Q 46.921875 27.09375 42.890625 30.859375 
Q 38.875 34.625 31.78125 34.625 
z
M 21.921875 38.8125 
Q 15.578125 40.375 12.03125 44.71875 
Q 8.5 49.078125 8.5 55.328125 
Q 8.5 64.0625 14.71875 69.140625 
Q 20.953125 74.21875 31.78125 74.21875 
Q 42.671875 74.21875 48.875 69.140625 
Q 55.078125 64.0625 55.078125 55.328125 
Q 55.078125 49.078125 51.53125 44.71875 
Q 48 40.375 41.703125 38.8125 
Q 48.828125 37.15625 52.796875 32.3125 
Q 56.78125 27.484375 56.78125 20.515625 
Q 56.78125 9.90625 50.3125 4.234375 
Q 43.84375 -1.421875 31.78125 -1.421875 
Q 19.734375 -1.421875 13.25 4.234375 
Q 6.78125 9.90625 6.78125 20.515625 
Q 6.78125 27.484375 10.78125 32.3125 
Q 14.796875 37.15625 21.921875 38.8125 
z
M 18.3125 54.390625 
Q 18.3125 48.734375 21.84375 45.5625 
Q 25.390625 42.390625 31.78125 42.390625 
Q 38.140625 42.390625 41.71875 45.5625 
Q 45.3125 48.734375 45.3125 54.390625 
Q 45.3125 60.0625 41.71875 63.234375 
Q 38.140625 66.40625 31.78125 66.40625 
Q 25.390625 66.40625 21.84375 63.234375 
Q 18.3125 60.0625 18.3125 54.390625 
z
" id="DejaVuSans-38"/>
      </defs>
      <g transform="translate(240.334069 322.182437)scale(0.1 -0.1)">
       <use xlink:href="#DejaVuSans-38"/>
       <use x="63.623047" xlink:href="#DejaVuSans-30"/>
       <use x="127.246094" xlink:href="#DejaVuSans-30"/>
      </g>
     </g>
    </g>
    <g id="xtick_6">
     <g id="line2d_6">
      <g>
       <use style="stroke:#000000;stroke-width:0.8;" x="293.944175" xlink:href="#m2c271cadf8" y="307.584"/>
      </g>
     </g>
     <g id="text_6">
      <!-- 1000 -->
      <defs>
       <path d="M 12.40625 8.296875 
L 28.515625 8.296875 
L 28.515625 63.921875 
L 10.984375 60.40625 
L 10.984375 69.390625 
L 28.421875 72.90625 
L 38.28125 72.90625 
L 38.28125 8.296875 
L 54.390625 8.296875 
L 54.390625 0 
L 12.40625 0 
z
" id="DejaVuSans-31"/>
      </defs>
      <g transform="translate(281.219175 322.182437)scale(0.1 -0.1)">
       <use xlink:href="#DejaVuSans-31"/>
       <use x="63.623047" xlink:href="#DejaVuSans-30"/>
       <use x="127.246094" xlink:href="#DejaVuSans-30"/>
       <use x="190.869141" xlink:href="#DejaVuSans-30"/>
      </g>
     </g>
    </g>
    <g id="xtick_7">
     <g id="line2d_7">
      <g>
       <use style="stroke:#000000;stroke-width:0.8;" x="338.01053" xlink:href="#m2c271cadf8" y="307.584"/>
      </g>
     </g>
     <g id="text_7">
      <!-- 1200 -->
      <g transform="translate(325.28553 322.182437)scale(0.1 -0.1)">
       <use xlink:href="#DejaVuSans-31"/>
       <use x="63.623047" xlink:href="#DejaVuSans-32"/>
       <use x="127.246094" xlink:href="#DejaVuSans-30"/>
       <use x="190.869141" xlink:href="#DejaVuSans-30"/>
      </g>
     </g>
    </g>
    <g id="xtick_8">
     <g id="line2d_8">
      <g>
       <use style="stroke:#000000;stroke-width:0.8;" x="382.076886" xlink:href="#m2c271cadf8" y="307.584"/>
      </g>
     </g>
     <g id="text_8">
      <!-- 1400 -->
      <g transform="translate(369.351886 322.182437)scale(0.1 -0.1)">
       <use xlink:href="#DejaVuSans-31"/>
       <use x="63.623047" xlink:href="#DejaVuSans-34"/>
       <use x="127.246094" xlink:href="#DejaVuSans-30"/>
       <use x="190.869141" xlink:href="#DejaVuSans-30"/>
      </g>
     </g>
    </g>
   </g>
   <g id="matplotlib.axis_2">
    <g id="ytick_1">
     <g id="line2d_9">
      <defs>
       <path d="M 0 0 
L -3.5 0 
" id="m5be10ba5a3" style="stroke:#000000;stroke-width:0.8;"/>
      </defs>
      <g>
       <use style="stroke:#000000;stroke-width:0.8;" x="57.6" xlink:href="#m5be10ba5a3" y="301.103816"/>
      </g>
     </g>
     <g id="text_9">
      <!-- 20 -->
      <g transform="translate(37.875 304.903035)scale(0.1 -0.1)">
       <use xlink:href="#DejaVuSans-32"/>
       <use x="63.623047" xlink:href="#DejaVuSans-30"/>
      </g>
     </g>
    </g>
    <g id="ytick_2">
     <g id="line2d_10">
      <g>
       <use style="stroke:#000000;stroke-width:0.8;" x="57.6" xlink:href="#m5be10ba5a3" y="256.248837"/>
      </g>
     </g>
     <g id="text_10">
      <!-- 25 -->
      <defs>
       <path d="M 10.796875 72.90625 
L 49.515625 72.90625 
L 49.515625 64.59375 
L 19.828125 64.59375 
L 19.828125 46.734375 
Q 21.96875 47.46875 24.109375 47.828125 
Q 26.265625 48.1875 28.421875 48.1875 
Q 40.625 48.1875 47.75 41.5 
Q 54.890625 34.8125 54.890625 23.390625 
Q 54.890625 11.625 47.5625 5.09375 
Q 40.234375 -1.421875 26.90625 -1.421875 
Q 22.3125 -1.421875 17.546875 -0.640625 
Q 12.796875 0.140625 7.71875 1.703125 
L 7.71875 11.625 
Q 12.109375 9.234375 16.796875 8.0625 
Q 21.484375 6.890625 26.703125 6.890625 
Q 35.15625 6.890625 40.078125 11.328125 
Q 45.015625 15.765625 45.015625 23.390625 
Q 45.015625 31 40.078125 35.4375 
Q 35.15625 39.890625 26.703125 39.890625 
Q 22.75 39.890625 18.8125 39.015625 
Q 14.890625 38.140625 10.796875 36.28125 
z
" id="DejaVuSans-35"/>
      </defs>
      <g transform="translate(37.875 260.048055)scale(0.1 -0.1)">
       <use xlink:href="#DejaVuSans-32"/>
       <use x="63.623047" xlink:href="#DejaVuSans-35"/>
      </g>
     </g>
    </g>
    <g id="ytick_3">
     <g id="line2d_11">
      <g>
       <use style="stroke:#000000;stroke-width:0.8;" x="57.6" xlink:href="#m5be10ba5a3" y="211.393858"/>
      </g>
     </g>
     <g id="text_11">
      <!-- 30 -->
      <defs>
       <path d="M 40.578125 39.3125 
Q 47.65625 37.796875 51.625 33 
Q 55.609375 28.21875 55.609375 21.1875 
Q 55.609375 10.40625 48.1875 4.484375 
Q 40.765625 -1.421875 27.09375 -1.421875 
Q 22.515625 -1.421875 17.65625 -0.515625 
Q 12.796875 0.390625 7.625 2.203125 
L 7.625 11.71875 
Q 11.71875 9.328125 16.59375 8.109375 
Q 21.484375 6.890625 26.8125 6.890625 
Q 36.078125 6.890625 40.9375 10.546875 
Q 45.796875 14.203125 45.796875 21.1875 
Q 45.796875 27.640625 41.28125 31.265625 
Q 36.765625 34.90625 28.71875 34.90625 
L 20.21875 34.90625 
L 20.21875 43.015625 
L 29.109375 43.015625 
Q 36.375 43.015625 40.234375 45.921875 
Q 44.09375 48.828125 44.09375 54.296875 
Q 44.09375 59.90625 40.109375 62.90625 
Q 36.140625 65.921875 28.71875 65.921875 
Q 24.65625 65.921875 20.015625 65.03125 
Q 15.375 64.15625 9.8125 62.3125 
L 9.8125 71.09375 
Q 15.4375 72.65625 20.34375 73.4375 
Q 25.25 74.21875 29.59375 74.21875 
Q 40.828125 74.21875 47.359375 69.109375 
Q 53.90625 64.015625 53.90625 55.328125 
Q 53.90625 49.265625 50.4375 45.09375 
Q 46.96875 40.921875 40.578125 39.3125 
z
" id="DejaVuSans-33"/>
      </defs>
      <g transform="translate(37.875 215.193076)scale(0.1 -0.1)">
       <use xlink:href="#DejaVuSans-33"/>
       <use x="63.623047" xlink:href="#DejaVuSans-30"/>
      </g>
     </g>
    </g>
    <g id="ytick_4">
     <g id="line2d_12">
      <g>
       <use style="stroke:#000000;stroke-width:0.8;" x="57.6" xlink:href="#m5be10ba5a3" y="166.538878"/>
      </g>
     </g>
     <g id="text_12">
      <!-- 35 -->
      <g transform="translate(37.875 170.338097)scale(0.1 -0.1)">
       <use xlink:href="#DejaVuSans-33"/>
       <use x="63.623047" xlink:href="#DejaVuSans-35"/>
      </g>
     </g>
    </g>
    <g id="ytick_5">
     <g id="line2d_13">
      <g>
       <use style="stroke:#000000;stroke-width:0.8;" x="57.6" xlink:href="#m5be10ba5a3" y="121.683899"/>
      </g>
     </g>
     <g id="text_13">
      <!-- 40 -->
      <g transform="translate(37.875 125.483118)scale(0.1 -0.1)">
       <use xlink:href="#DejaVuSans-34"/>
       <use x="63.623047" xlink:href="#DejaVuSans-30"/>
      </g>
     </g>
    </g>
    <g id="ytick_6">
     <g id="line2d_14">
      <g>
       <use style="stroke:#000000;stroke-width:0.8;" x="57.6" xlink:href="#m5be10ba5a3" y="76.82892"/>
      </g>
     </g>
     <g id="text_14">
      <!-- 45 -->
      <g transform="translate(37.875 80.628139)scale(0.1 -0.1)">
       <use xlink:href="#DejaVuSans-34"/>
       <use x="63.623047" xlink:href="#DejaVuSans-35"/>
      </g>
     </g>
    </g>
   </g>
   <g id="line2d_15">
    <path clip-path="url(#pe3e8745103)" d="M 73.832727 128.553012 
L 74.053059 128.935563 
L 74.273391 127.764458 
L 74.493723 120.562745 
L 74.934386 129.787859 
L 75.154718 122.036251 
L 75.37505 133.436473 
L 75.595382 126.786158 
L 75.815713 126.275067 
L 76.256377 143.181031 
L 76.476709 144.41939 
L 76.69704 150.756102 
L 76.917372 150.170056 
L 77.358036 139.225371 
L 77.578368 147.497132 
L 78.019031 128.673776 
L 78.239363 143.90248 
L 78.459695 143.482891 
L 78.900358 136.318384 
L 79.12069 136.738703 
L 79.341022 129.85604 
L 79.781685 126.213 
L 80.002017 134.15153 
L 80.222349 127.026026 
L 80.442681 130.506391 
L 80.663012 127.703184 
L 80.883344 126.447529 
L 81.103676 145.449072 
L 81.324008 140.391189 
L 81.54434 145.855537 
L 81.764671 156.939564 
L 81.985003 149.992837 
L 82.205335 152.255789 
L 82.645998 136.912877 
L 82.86633 124.252955 
L 83.086662 131.505062 
L 83.306994 122.516924 
L 83.747657 136.621004 
L 84.408653 126.912455 
L 84.849316 134.964885 
L 85.069648 124.858461 
L 85.28998 138.965084 
L 85.510312 136.043205 
L 85.730643 115.412492 
L 85.950975 124.666966 
L 86.391639 158.069079 
L 86.61197 153.076117 
L 86.832302 151.420161 
L 87.052634 163.376254 
L 87.272966 155.413264 
L 87.493298 152.022844 
L 87.713629 138.835039 
L 87.933961 142.804487 
L 88.154293 129.645828 
L 88.374625 146.261258 
L 88.594956 134.70585 
L 89.03562 152.555636 
L 89.255952 153.380573 
L 89.476284 144.405507 
L 89.916947 136.374024 
L 90.137279 135.306554 
L 90.357611 136.650319 
L 90.577942 136.362267 
L 90.798274 128.592223 
L 91.018606 126.38634 
L 91.238938 120.568675 
L 91.45927 129.515112 
L 91.679601 146.490897 
L 91.899933 143.727328 
L 92.120265 152.580791 
L 92.340597 150.901988 
L 92.78126 158.59671 
L 93.001592 142.689432 
L 93.221924 148.576817 
L 93.662587 131.293588 
L 94.103251 152.212489 
L 94.323583 149.166993 
L 94.543915 160.025348 
L 94.764246 145.276402 
L 94.984578 145.013135 
L 95.20491 157.844627 
L 95.645573 135.785435 
L 95.865905 144.735749 
L 96.306569 129.084532 
L 96.526901 120.131112 
L 96.747232 140.652159 
L 96.967564 147.125601 
L 97.187896 138.313696 
L 97.848891 163.455267 
L 98.069223 151.096263 
L 98.289555 147.415017 
L 98.730218 127.026319 
L 98.95055 135.196917 
L 99.391214 155.426782 
L 99.611545 155.57635 
L 100.052209 140.709058 
L 100.272541 141.178216 
L 100.492873 133.712334 
L 100.713204 131.429501 
L 100.933536 131.031559 
L 101.3742 140.3612 
L 101.814863 118.106102 
L 102.035195 126.604109 
L 102.255527 129.007161 
L 102.475859 145.011689 
L 102.69619 141.723493 
L 102.916522 146.615543 
L 103.136854 154.503897 
L 103.357186 157.084277 
L 103.577517 144.346073 
L 103.797849 150.992369 
L 104.018181 136.74092 
L 104.238513 131.513198 
L 104.458845 145.619634 
L 104.679176 152.012825 
L 105.340172 135.732748 
L 105.560503 121.401845 
L 105.780835 139.029498 
L 106.001167 142.202163 
L 106.221499 125.070876 
L 106.441831 124.212529 
L 106.662162 118.454999 
L 106.882494 125.899911 
L 107.102826 129.442458 
L 107.323158 130.338918 
L 107.543489 130.478181 
L 107.763821 146.256071 
L 107.984153 143.291634 
L 108.204485 152.251933 
L 108.424817 154.807385 
L 108.645148 148.899476 
L 108.86548 133.758508 
L 109.085812 131.82819 
L 109.306144 131.247616 
L 109.746807 141.244462 
L 109.967139 135.101688 
L 110.187471 141.634815 
L 110.407803 140.661831 
L 110.628134 137.967145 
L 110.848466 121.093729 
L 111.068798 124.406521 
L 111.28913 132.567424 
L 111.509461 135.014462 
L 111.729793 128.079909 
L 111.950125 129.597109 
L 112.170457 122.753998 
L 112.390789 135.789702 
L 112.61112 124.208908 
L 112.831452 128.556383 
L 113.051784 152.418511 
L 113.272116 142.390801 
L 113.492448 156.805116 
L 113.712779 154.595467 
L 113.933111 156.076952 
L 114.153443 156.272265 
L 114.373775 142.774336 
L 114.594106 145.808977 
L 114.814438 130.710673 
L 115.03477 124.301978 
L 115.475434 148.959075 
L 115.695765 129.734537 
L 115.916097 141.179359 
L 116.577092 125.552885 
L 116.797424 130.646501 
L 117.017756 138.34909 
L 117.238088 115.753189 
L 117.45842 124.136666 
L 117.678751 116.310698 
L 117.899083 129.176605 
L 118.119415 129.938229 
L 118.339747 141.624432 
L 118.560078 137.563152 
L 118.78041 155.570309 
L 119.000742 152.046869 
L 119.221074 164.139508 
L 119.661737 139.080937 
L 119.882069 142.658601 
L 120.102401 138.137434 
L 120.322733 130.327458 
L 120.543064 131.527497 
L 120.763396 134.81384 
L 120.983728 145.721017 
L 121.20406 134.00544 
L 121.424392 138.976369 
L 121.644723 135.029253 
L 122.085387 138.912211 
L 122.305719 130.357905 
L 122.52605 134.281491 
L 122.746382 128.238051 
L 122.966714 132.774675 
L 123.187046 140.769017 
L 123.407378 140.981617 
L 123.627709 156.65072 
L 123.848041 152.853047 
L 124.288705 173.664239 
L 124.509036 165.90965 
L 124.729368 153.292759 
L 124.9497 148.381745 
L 125.170032 146.215241 
L 125.390364 137.303794 
L 125.831027 160.763711 
L 126.271691 145.511559 
L 126.492022 143.698222 
L 126.712354 145.215753 
L 126.932686 137.497583 
L 127.153018 140.806447 
L 127.37335 136.272397 
L 127.593681 140.63867 
L 127.814013 126.357038 
L 128.034345 130.623559 
L 128.254677 144.305413 
L 128.475008 136.629819 
L 128.69534 148.302333 
L 129.136004 157.812166 
L 129.356336 156.290328 
L 129.576667 175.673624 
L 129.796999 159.84084 
L 130.017331 160.002675 
L 130.237663 141.306355 
L 130.457994 147.587194 
L 130.678326 140.791486 
L 130.898658 142.595854 
L 131.11899 147.182218 
L 131.339322 149.418472 
L 131.559653 155.713173 
L 131.779985 149.758381 
L 132.000317 139.819369 
L 132.220649 140.347552 
L 132.44098 133.255221 
L 132.661312 147.079299 
L 132.881644 146.883652 
L 133.101976 135.127559 
L 133.322308 139.265186 
L 133.542639 135.813868 
L 133.762971 127.958483 
L 133.983303 155.913431 
L 134.203635 134.821397 
L 134.423967 160.441613 
L 134.644298 157.872421 
L 134.86463 170.698213 
L 135.084962 166.698815 
L 135.305294 156.518843 
L 135.525625 135.57286 
L 135.745957 137.758998 
L 135.966289 134.159768 
L 136.186621 150.94263 
L 136.406953 142.254227 
L 136.847616 148.215 
L 137.28828 131.549056 
L 137.508611 137.553579 
L 137.728943 136.037493 
L 137.949275 133.307979 
L 138.169607 138.473055 
L 138.389939 134.980587 
L 138.61027 126.982512 
L 139.491597 157.337679 
L 139.711929 155.150149 
L 139.932261 165.450769 
L 140.152593 164.586802 
L 140.372925 171.56845 
L 140.593256 164.412385 
L 140.813588 138.538293 
L 141.03392 127.348751 
L 141.694915 153.924175 
L 141.915247 154.121351 
L 142.355911 135.1219 
L 142.576242 142.506742 
L 142.796574 132.022304 
L 143.016906 133.41403 
L 143.237238 130.274736 
L 143.457569 143.278057 
L 143.677901 136.088136 
L 143.898233 135.091542 
L 144.118565 126.17069 
L 144.559228 155.062072 
L 144.77956 144.826508 
L 145.220224 158.587193 
L 145.440555 161.604831 
L 145.660887 160.685139 
L 146.321883 135.673845 
L 146.762546 140.745013 
L 146.982878 133.224983 
L 147.20321 150.471912 
L 147.423541 155.907053 
L 148.084537 129.889131 
L 148.304869 130.829476 
L 148.5252 127.642861 
L 148.745532 133.076272 
L 148.965864 133.639383 
L 149.186196 127.183129 
L 149.406527 127.706142 
L 149.626859 147.021368 
L 149.847191 133.95368 
L 150.067523 137.447994 
L 150.508186 160.653782 
L 150.728518 155.160824 
L 150.94885 163.159311 
L 151.169182 151.860056 
L 151.389513 183.73338 
L 151.609845 96.004127 
L 151.830177 131.579729 
L 152.050509 127.761155 
L 152.270841 136.220624 
L 152.491172 139.530362 
L 152.931836 140.623686 
L 153.152168 143.59831 
L 153.3725 138.583959 
L 153.592831 128.248367 
L 153.813163 131.364417 
L 154.033495 140.72657 
L 154.474158 131.8449 
L 154.69449 126.747725 
L 154.914822 142.177155 
L 155.135154 149.189123 
L 155.355486 149.98521 
L 155.575817 155.887888 
L 156.016481 161.410989 
L 156.236813 149.232722 
L 156.457144 158.325578 
L 157.11814 127.757603 
L 157.338472 133.479777 
L 157.558803 143.76364 
L 157.999467 133.272467 
L 158.219799 154.203551 
L 158.44013 150.210915 
L 158.660462 134.005709 
L 158.880794 134.456871 
L 159.101126 134.500932 
L 159.321458 126.988136 
L 159.762121 144.929562 
L 160.202785 112.888521 
L 160.423116 145.456393 
L 160.643448 147.1293 
L 161.084112 165.566297 
L 161.304444 165.821296 
L 161.524775 156.417755 
L 161.745107 157.695195 
L 161.965439 143.085699 
L 162.185771 139.336079 
L 162.406102 147.844827 
L 162.626434 142.227645 
L 163.067098 161.414588 
L 163.28743 150.672068 
L 163.507761 150.483984 
L 163.728093 143.308694 
L 163.948425 142.585456 
L 164.168757 142.82469 
L 164.389088 139.326798 
L 164.60942 147.203923 
L 164.829752 143.909968 
L 165.050084 127.697078 
L 165.270416 129.028975 
L 165.490747 136.968542 
L 165.711079 152.703313 
L 165.931411 156.735678 
L 166.151743 149.746271 
L 166.372074 162.348829 
L 166.592406 162.05088 
L 166.812738 177.326036 
L 167.03307 168.088616 
L 167.253402 221.86756 
L 167.473733 152.089706 
L 167.694065 139.569624 
L 167.914397 147.11571 
L 168.134729 145.247386 
L 168.575392 157.743004 
L 168.795724 141.536291 
L 169.016056 141.663254 
L 169.236388 145.402123 
L 169.456719 146.656789 
L 169.677051 141.200879 
L 169.897383 147.35017 
L 170.338046 139.679293 
L 170.558378 137.556308 
L 170.77871 142.645658 
L 170.999042 144.872257 
L 171.219374 143.833675 
L 171.439705 145.011993 
L 171.880369 172.637582 
L 172.321033 152.357973 
L 172.541364 152.09822 
L 172.761696 135.129967 
L 173.20236 148.841753 
L 173.422691 148.659716 
L 173.643023 148.088646 
L 174.083687 148.633735 
L 174.304019 134.158853 
L 174.52435 135.787352 
L 174.744682 143.255721 
L 174.965014 135.927581 
L 175.185346 149.378274 
L 175.626009 134.151787 
L 175.846341 140.70916 
L 176.066673 141.859919 
L 176.287005 152.840651 
L 176.507336 156.900132 
L 176.727668 152.586348 
L 177.168332 165.368748 
L 177.388663 165.210157 
L 177.608995 158.5439 
L 177.829327 138.297919 
L 178.049659 132.228764 
L 178.269991 140.57562 
L 178.490322 156.613803 
L 178.710654 159.258405 
L 178.930986 151.650861 
L 179.151318 161.25457 
L 179.591981 145.422871 
L 179.812313 144.572465 
L 180.032645 144.560308 
L 180.252977 144.155815 
L 180.473308 144.588569 
L 180.69364 142.440031 
L 180.913972 134.203631 
L 181.134304 134.139449 
L 181.354635 146.080067 
L 181.574967 150.268558 
L 181.795299 149.775657 
L 182.015631 147.844762 
L 182.235963 158.368688 
L 182.456294 149.873874 
L 182.676626 160.836919 
L 182.896958 142.077828 
L 183.11729 140.117955 
L 183.337621 141.400106 
L 183.557953 140.586798 
L 183.778285 134.534203 
L 183.998617 136.304991 
L 184.218949 160.219183 
L 184.43928 139.087013 
L 184.659612 144.471381 
L 184.879944 138.574526 
L 185.100276 143.417906 
L 185.320607 125.776392 
L 185.540939 131.349007 
L 185.761271 141.903515 
L 186.201935 122.496538 
L 186.422266 128.412703 
L 186.642598 130.617002 
L 186.86293 165.920276 
L 187.083262 159.968594 
L 187.303593 158.818098 
L 187.523925 162.380607 
L 187.744257 170.606323 
L 188.184921 155.078121 
L 188.405252 143.414883 
L 188.625584 141.664003 
L 189.066248 132.111809 
L 189.286579 144.076313 
L 189.506911 147.029952 
L 189.727243 138.158851 
L 189.947575 139.997495 
L 190.167907 140.314879 
L 190.388238 135.966971 
L 190.60857 140.337398 
L 190.828902 139.064013 
L 191.049234 149.274624 
L 191.269566 130.860008 
L 191.489897 126.192998 
L 191.710229 131.06233 
L 191.930561 121.20741 
L 192.371224 141.834956 
L 192.591556 141.808736 
L 193.03222 155.684685 
L 193.252552 154.089406 
L 193.472883 141.741409 
L 193.693215 136.555862 
L 193.913547 135.055792 
L 194.133879 130.178376 
L 194.574542 136.700616 
L 194.794874 144.60818 
L 195.015206 141.17329 
L 195.235538 132.759402 
L 195.455869 139.49876 
L 195.676201 141.597669 
L 195.896533 135.414205 
L 196.116865 138.901758 
L 196.337196 140.53578 
L 196.557528 136.783595 
L 196.77786 127.891424 
L 196.998192 128.313257 
L 197.218524 131.699229 
L 197.438855 159.032591 
L 197.659187 147.45315 
L 197.879519 167.834177 
L 198.099851 160.930116 
L 198.320182 169.484482 
L 198.540514 157.262457 
L 198.760846 159.298266 
L 199.20151 140.737009 
L 199.642173 145.288997 
L 199.862505 150.415619 
L 200.082837 152.60944 
L 200.303168 148.295155 
L 200.5235 149.482525 
L 200.743832 141.047233 
L 200.964164 139.263321 
L 201.184496 131.326922 
L 201.404827 128.019867 
L 201.625159 140.84525 
L 201.845491 134.798197 
L 202.065823 123.622499 
L 202.286154 126.761569 
L 202.506486 138.456783 
L 203.387813 152.477465 
L 203.608145 163.954641 
L 203.828477 154.016064 
L 204.048809 156.978623 
L 204.489472 133.403342 
L 204.709804 145.227591 
L 204.930136 144.5006 
L 205.150468 149.268707 
L 205.370799 147.14763 
L 205.591131 154.489147 
L 206.031795 135.177259 
L 206.252126 137.401101 
L 206.472458 143.71053 
L 206.69279 145.266852 
L 206.913122 127.618438 
L 207.133454 139.398258 
L 207.353785 125.120682 
L 207.794449 137.479222 
L 208.014781 148.48315 
L 208.235112 144.847077 
L 208.455444 161.066126 
L 208.675776 161.98791 
L 208.896108 155.997341 
L 209.11644 155.94185 
L 209.336771 157.579594 
L 209.557103 135.349087 
L 209.997767 143.188862 
L 210.218099 138.024403 
L 210.43843 154.584884 
L 210.658762 149.842539 
L 210.879094 148.170617 
L 211.099426 143.366564 
L 211.319757 131.43923 
L 211.540089 130.620758 
L 211.760421 145.590714 
L 211.980753 141.430444 
L 212.201085 141.178899 
L 212.421416 141.264988 
L 212.641748 122.707436 
L 212.86208 146.836617 
L 213.082412 140.462625 
L 213.743407 155.195968 
L 213.963739 171.313449 
L 214.404402 162.777572 
L 214.845066 129.776246 
L 215.065398 143.548985 
L 215.285729 138.806081 
L 215.726393 148.011468 
L 215.946725 154.992268 
L 216.167057 152.670116 
L 216.387388 149.125108 
L 216.60772 143.48617 
L 216.828052 132.606669 
L 217.048384 145.056956 
L 217.268715 127.841167 
L 217.489047 143.124656 
L 217.709379 138.503841 
L 217.929711 125.627845 
L 218.150043 120.436138 
L 218.370374 133.479622 
L 218.590706 158.075607 
L 218.811038 151.913731 
L 219.03137 161.333624 
L 219.251701 151.114144 
L 219.472033 158.716915 
L 219.692365 158.143434 
L 219.912697 148.510086 
L 220.133029 145.819373 
L 220.35336 138.732156 
L 221.014356 153.00753 
L 221.234687 149.78305 
L 221.455019 149.158913 
L 221.675351 143.525551 
L 221.895683 152.520429 
L 222.556678 134.884478 
L 222.77701 142.841443 
L 222.997342 140.280951 
L 223.217673 131.107728 
L 223.658337 150.531401 
L 223.878669 145.782889 
L 224.319332 161.808107 
L 224.539664 158.070512 
L 224.759996 178.317264 
L 224.980328 174.173577 
L 225.200659 175.076336 
L 225.641323 152.678332 
L 225.861655 150.980397 
L 226.302318 138.181955 
L 226.52265 156.375044 
L 226.742982 162.827716 
L 226.963314 160.790076 
L 227.183645 154.144426 
L 227.403977 140.99493 
L 227.624309 155.869131 
L 227.844641 145.780733 
L 228.064973 155.557252 
L 228.285304 160.328733 
L 228.505636 141.226592 
L 228.725968 139.466856 
L 229.166631 147.609543 
L 229.607295 160.28373 
L 229.827627 181.859516 
L 230.047959 168.422986 
L 230.26829 164.045734 
L 230.488622 171.448452 
L 230.929286 157.590324 
L 231.149618 144.118172 
L 231.369949 142.162816 
L 231.810613 150.143192 
L 232.030945 152.054437 
L 232.251276 159.384006 
L 232.471608 146.350106 
L 232.69194 146.217129 
L 232.912272 153.493138 
L 233.132604 142.129338 
L 233.352935 152.354234 
L 233.573267 138.301194 
L 233.793599 141.610785 
L 234.013931 142.135759 
L 234.234262 140.915669 
L 234.454594 157.831132 
L 234.674926 161.032297 
L 234.895258 170.340593 
L 235.11559 174.908046 
L 235.335921 184.735522 
L 235.556253 186.430241 
L 235.996917 150.472692 
L 236.217248 150.572126 
L 236.43758 151.849858 
L 236.657912 161.940592 
L 236.878244 160.389753 
L 237.098576 167.951092 
L 237.318907 162.855937 
L 237.539239 161.178331 
L 237.759571 163.029049 
L 238.200234 153.782791 
L 238.420566 152.4126 
L 238.86123 152.58181 
L 239.081562 128.4198 
L 239.301893 144.050269 
L 239.522225 145.937373 
L 239.742557 148.811761 
L 239.962889 164.900624 
L 240.403552 170.515076 
L 240.623884 169.616017 
L 240.844216 178.078997 
L 241.284879 144.008846 
L 241.505211 144.675041 
L 241.725543 154.826252 
L 241.945875 147.610439 
L 242.166206 162.470254 
L 242.386538 155.044548 
L 242.60687 156.327683 
L 242.827202 151.201902 
L 243.047534 140.331243 
L 243.267865 147.826852 
L 243.488197 141.926822 
L 243.708529 143.635886 
L 243.928861 135.970493 
L 244.149192 132.7596 
L 244.369524 138.497805 
L 244.810188 131.584083 
L 245.03052 132.377326 
L 245.691515 162.796835 
L 245.911847 172.85194 
L 246.132178 162.803422 
L 246.35251 168.614194 
L 246.793174 129.092266 
L 247.233837 154.511551 
L 247.454169 143.826584 
L 247.674501 146.106333 
L 247.894833 149.973478 
L 248.115164 149.544445 
L 248.335496 143.448601 
L 248.555828 150.303283 
L 248.77616 142.94279 
L 248.996492 150.267431 
L 249.216823 142.962679 
L 249.437155 140.155289 
L 249.657487 134.964619 
L 249.877819 125.265223 
L 250.318482 148.278853 
L 250.538814 140.514307 
L 250.759146 140.104669 
L 251.199809 169.265576 
L 251.420141 170.444622 
L 251.860805 137.324844 
L 252.081137 143.197225 
L 252.301468 144.450173 
L 252.5218 141.877121 
L 252.962464 167.080348 
L 253.182795 156.045369 
L 253.403127 157.5269 
L 253.623459 145.923622 
L 253.843791 147.80426 
L 254.064123 129.054499 
L 254.284454 133.870097 
L 254.504786 151.368455 
L 254.725118 137.65205 
L 254.94545 140.613696 
L 255.165781 131.162111 
L 255.386113 133.046491 
L 255.606445 149.794476 
L 255.826777 142.856339 
L 256.047109 149.011781 
L 256.26744 170.407586 
L 256.708104 155.634058 
L 256.928436 161.959222 
L 257.148767 143.127023 
L 257.589431 136.574067 
L 257.809763 148.550478 
L 258.250426 157.686544 
L 258.470758 136.512794 
L 258.69109 146.463778 
L 258.911422 130.870809 
L 259.131753 136.139328 
L 259.352085 138.654728 
L 259.572417 121.022602 
L 259.792749 144.545843 
L 260.013081 136.647729 
L 260.453744 144.743425 
L 260.674076 141.155602 
L 260.894408 145.106179 
L 261.114739 168.69259 
L 261.555403 159.889647 
L 261.775735 177.860717 
L 261.996067 167.613162 
L 262.216398 163.983312 
L 262.43673 152.296557 
L 262.657062 131.104187 
L 262.877394 146.35294 
L 263.097725 133.193315 
L 263.318057 145.923473 
L 263.538389 141.836074 
L 263.758721 149.298536 
L 263.979053 148.635606 
L 264.199384 145.796222 
L 264.640048 132.836638 
L 264.86038 141.926932 
L 265.080711 143.335923 
L 265.301043 144.013745 
L 265.521375 128.747475 
L 265.741707 140.667141 
L 265.962039 146.075626 
L 266.18237 147.069075 
L 266.402702 141.940987 
L 266.843366 158.445652 
L 267.063697 156.594356 
L 267.284029 165.722427 
L 267.724693 145.558369 
L 267.945025 153.405485 
L 268.165356 134.91752 
L 268.385688 137.948304 
L 268.60602 137.651252 
L 268.826352 142.179302 
L 269.046684 142.597624 
L 269.267015 151.252018 
L 269.487347 151.877628 
L 269.707679 141.34202 
L 269.928011 141.946308 
L 270.148342 145.826467 
L 270.368674 152.759732 
L 270.809338 129.28676 
L 271.250001 152.301632 
L 271.470333 149.987081 
L 271.910997 168.463349 
L 272.131328 158.311115 
L 272.571992 171.810872 
L 272.792324 140.630926 
L 273.012656 142.419174 
L 273.232987 145.768664 
L 273.453319 139.704472 
L 273.673651 161.609625 
L 273.893983 146.443671 
L 274.334646 160.218571 
L 274.554978 159.026273 
L 274.77531 153.591005 
L 275.436305 146.538405 
L 275.656637 145.826029 
L 275.876969 126.24431 
L 276.317632 142.0677 
L 276.537964 147.676059 
L 276.758296 159.673069 
L 276.978628 160.04043 
L 277.198959 156.600156 
L 277.639623 169.017388 
L 277.859955 175.337755 
L 278.080286 157.256131 
L 278.300618 153.722329 
L 278.52095 142.451211 
L 278.741282 145.890473 
L 278.961614 137.676151 
L 279.181945 151.417339 
L 279.402277 149.918469 
L 279.622609 157.421184 
L 279.842941 158.919589 
L 280.063272 147.818856 
L 280.283604 148.488696 
L 280.503936 148.219849 
L 280.724268 154.327855 
L 280.9446 148.585563 
L 281.164931 139.164045 
L 281.385263 123.103441 
L 281.605595 134.963799 
L 281.825927 134.004893 
L 282.046258 162.575858 
L 282.26659 152.2676 
L 282.486922 161.710716 
L 282.707254 163.977889 
L 282.927586 163.517255 
L 283.368249 160.473385 
L 283.808913 146.980732 
L 284.029244 148.497741 
L 284.249576 141.857593 
L 284.469908 156.042854 
L 284.69024 138.961251 
L 284.910572 151.742497 
L 285.130903 146.932686 
L 285.351235 148.137222 
L 285.571567 135.586384 
L 285.791899 144.678619 
L 286.01223 136.267337 
L 286.232562 148.292572 
L 286.452894 148.32887 
L 286.673226 147.892758 
L 286.893558 146.418744 
L 287.113889 146.068076 
L 287.334221 140.546944 
L 287.554553 162.463669 
L 287.774885 152.684588 
L 288.215548 174.959045 
L 288.43588 155.847775 
L 288.656212 149.416145 
L 288.876544 150.848983 
L 289.096875 150.479254 
L 289.317207 151.712619 
L 289.537539 166.481883 
L 289.978203 149.352242 
L 290.198534 148.370706 
L 290.418866 151.862517 
L 290.639198 135.86413 
L 290.85953 147.772901 
L 291.079861 138.553387 
L 291.300193 153.845478 
L 291.520525 150.568777 
L 291.740857 134.728887 
L 291.961189 128.970787 
L 292.18152 134.213376 
L 292.622184 158.790208 
L 292.842516 151.878447 
L 293.062847 154.964513 
L 293.283179 148.032739 
L 293.503511 160.170259 
L 293.723843 163.715415 
L 293.944175 147.080703 
L 294.164506 144.368231 
L 294.384838 135.761729 
L 294.60517 145.997547 
L 294.825502 149.454307 
L 295.266165 149.969722 
L 295.486497 151.389677 
L 295.706829 143.381112 
L 295.927161 147.319128 
L 296.147492 137.011916 
L 296.367824 145.072146 
L 296.588156 137.721858 
L 296.808488 139.506466 
L 297.028819 136.084075 
L 297.249151 127.51657 
L 297.469483 140.007936 
L 297.689815 144.923568 
L 297.910147 143.606544 
L 298.130478 163.626949 
L 298.35081 159.948745 
L 298.571142 168.000818 
L 298.791474 168.291578 
L 299.232137 161.448931 
L 299.452469 145.405614 
L 299.672801 139.370781 
L 299.893133 141.346659 
L 300.113464 141.055341 
L 300.77446 151.004974 
L 300.994791 151.945468 
L 301.215123 146.948941 
L 301.435455 148.304762 
L 301.655787 141.464652 
L 301.876119 146.269424 
L 302.09645 161.395953 
L 302.537114 123.835312 
L 302.757446 148.510787 
L 302.977777 130.683415 
L 303.198109 139.166494 
L 303.418441 140.958552 
L 303.638773 160.204173 
L 303.859105 152.793052 
L 304.079436 165.492791 
L 304.299768 154.132309 
L 304.5201 156.926888 
L 304.740432 153.144242 
L 304.960763 144.373607 
L 305.181095 146.627403 
L 305.401427 156.241514 
L 305.621759 140.433493 
L 305.842091 142.385529 
L 306.062422 138.886998 
L 306.282754 162.281479 
L 306.503086 148.514778 
L 306.723418 150.652261 
L 306.94375 150.11466 
L 307.164081 150.488409 
L 307.384413 151.619158 
L 307.604745 149.010494 
L 307.825077 123.826808 
L 308.26574 146.038533 
L 308.486072 148.574038 
L 308.706404 149.230797 
L 308.926736 156.58347 
L 309.147067 175.137623 
L 309.367399 177.119678 
L 309.587731 170.292635 
L 309.808063 168.621482 
L 310.248726 139.459212 
L 310.469058 145.282157 
L 310.68939 157.703424 
L 310.909722 161.843291 
L 311.130053 157.115177 
L 311.350385 161.154978 
L 311.570717 150.382302 
L 311.791049 149.094552 
L 312.01138 142.271612 
L 312.231712 160.856892 
L 312.452044 153.306448 
L 312.672376 150.712833 
L 313.113039 120.92257 
L 313.333371 129.862176 
L 313.553703 148.211685 
L 313.774035 143.847963 
L 313.994366 137.027103 
L 314.214698 159.644786 
L 314.43503 161.264044 
L 314.655362 166.311488 
L 314.875694 160.885572 
L 315.096025 160.381149 
L 315.316357 142.344996 
L 315.536689 152.987885 
L 315.757021 148.709999 
L 315.977352 159.436584 
L 316.197684 154.104059 
L 316.418016 158.886077 
L 316.638348 148.371183 
L 316.85868 150.81283 
L 317.079011 141.06533 
L 317.299343 151.65745 
L 317.519675 154.175598 
L 317.740007 147.153305 
L 317.960338 151.787773 
L 318.18067 129.910948 
L 318.401002 145.701692 
L 318.621334 134.648664 
L 318.841666 137.211064 
L 319.061997 166.180157 
L 319.282329 150.645489 
L 319.722993 170.039892 
L 319.943324 168.564664 
L 320.163656 161.965167 
L 320.383988 149.893624 
L 320.60432 147.564967 
L 320.824652 156.172218 
L 321.044983 158.716866 
L 321.265315 144.942618 
L 321.485647 153.237505 
L 321.705979 153.679834 
L 321.92631 159.255708 
L 322.146642 161.8301 
L 322.366974 150.136065 
L 322.587306 156.199016 
L 323.027969 145.271784 
L 323.248301 151.263173 
L 323.688965 139.525965 
L 323.909296 134.132899 
L 324.129628 134.463561 
L 324.34996 155.935868 
L 324.570292 160.531483 
L 324.790624 146.860375 
L 325.010955 165.430957 
L 325.231287 169.123983 
L 325.451619 169.22566 
L 326.112614 139.479545 
L 326.332946 149.115451 
L 326.553278 163.697976 
L 326.77361 147.136577 
L 326.993941 142.226681 
L 327.654937 155.559731 
L 327.875269 145.14578 
L 328.0956 146.809181 
L 328.315932 134.521044 
L 328.536264 154.875724 
L 328.976927 136.20825 
L 329.197259 136.402264 
L 329.637923 146.889309 
L 329.858255 160.017348 
L 330.078586 152.529851 
L 330.298918 165.751949 
L 330.51925 171.284193 
L 330.959913 145.430994 
L 331.180245 142.949876 
L 331.400577 130.927016 
L 331.620909 150.053715 
L 331.841241 145.822153 
L 332.061572 155.784931 
L 332.281904 149.103698 
L 332.502236 158.74121 
L 332.942899 137.461833 
L 333.163231 138.996836 
L 333.383563 138.672405 
L 333.603895 135.371938 
L 333.824227 129.504483 
L 334.044558 129.918037 
L 334.26489 133.915621 
L 334.485222 140.052565 
L 334.705554 149.463337 
L 334.925885 148.943915 
L 335.146217 155.4497 
L 335.366549 165.525727 
L 335.586881 162.957455 
L 335.807213 165.429661 
L 336.027544 176.076817 
L 336.247876 169.178831 
L 336.468208 149.862962 
L 336.68854 150.155585 
L 336.908871 144.440033 
L 337.129203 143.811573 
L 337.349535 146.845002 
L 337.569867 151.753085 
L 337.790199 145.842974 
L 338.01053 143.20189 
L 338.230862 143.979669 
L 338.451194 135.655418 
L 338.671526 139.47643 
L 338.891857 132.784922 
L 339.112189 144.941446 
L 339.332521 144.284797 
L 339.552853 140.269333 
L 339.773185 125.797913 
L 339.993516 131.612705 
L 340.213848 140.992411 
L 340.43418 142.519367 
L 340.654512 147.354111 
L 340.874843 142.672442 
L 341.095175 158.69486 
L 341.315507 163.90035 
L 341.535839 151.480939 
L 341.756171 154.258093 
L 341.976502 153.37436 
L 342.196834 150.776877 
L 342.417166 142.560859 
L 342.637498 157.216022 
L 342.857829 157.999228 
L 343.298493 141.012488 
L 343.518825 142.194702 
L 343.739157 136.640805 
L 343.959488 145.933415 
L 344.17982 146.902583 
L 344.400152 144.098682 
L 344.620484 145.703257 
L 344.840815 142.170372 
L 345.061147 142.110258 
L 345.722143 166.32353 
L 345.942474 161.234173 
L 346.162806 166.783645 
L 346.383138 165.834985 
L 346.60347 174.805309 
L 347.044133 143.558414 
L 347.264465 153.704268 
L 347.484797 152.987493 
L 347.705129 155.763871 
L 347.92546 165.643848 
L 348.145792 162.323185 
L 348.366124 145.186449 
L 348.586456 141.953691 
L 348.806788 145.594342 
L 349.027119 136.075919 
L 349.247451 157.386407 
L 349.467783 145.477637 
L 349.688115 154.410622 
L 349.908446 136.628085 
L 350.128778 138.188978 
L 350.34911 133.887569 
L 350.569442 143.759011 
L 350.789774 159.80673 
L 351.010105 151.194918 
L 351.450769 166.587335 
L 351.671101 166.417083 
L 351.891432 162.974304 
L 352.111764 165.800525 
L 352.332096 152.903993 
L 352.552428 155.526232 
L 352.77276 152.953889 
L 352.993091 163.906134 
L 353.213423 157.129566 
L 353.433755 160.242079 
L 353.654087 152.031259 
L 353.874418 161.02343 
L 354.09475 142.689023 
L 354.315082 145.064929 
L 354.535414 141.222273 
L 354.755746 151.311545 
L 355.196409 139.068342 
L 355.416741 125.854944 
L 356.077736 154.500119 
L 356.298068 147.673922 
L 356.5184 157.161155 
L 356.738732 160.574875 
L 356.959063 172.072667 
L 357.620059 142.881893 
L 357.84039 145.714907 
L 358.060722 152.562386 
L 358.281054 152.43442 
L 358.501386 163.580593 
L 358.721718 146.691636 
L 358.942049 142.369095 
L 359.162381 158.202839 
L 359.382713 149.337578 
L 359.603045 147.149711 
L 359.823376 148.04768 
L 360.043708 147.253751 
L 360.26404 134.916707 
L 360.484372 141.775931 
L 360.925035 135.197004 
L 361.365699 153.109287 
L 361.586031 157.85946 
L 361.806362 158.05394 
L 362.026694 173.600791 
L 362.247026 166.354185 
L 362.467358 177.111656 
L 362.68769 151.265592 
L 362.908021 145.721017 
L 363.128353 144.694224 
L 363.348685 157.129837 
L 363.569017 161.07201 
L 364.00968 158.075215 
L 364.230012 150.844142 
L 364.450344 129.475334 
L 364.670676 140.741716 
L 364.891007 135.492647 
L 365.331671 151.154314 
L 365.772335 135.125244 
L 365.992666 131.928535 
L 366.873993 158.547432 
L 367.094325 145.172173 
L 367.534989 163.291177 
L 367.975652 153.927374 
L 368.195984 140.971777 
L 368.416316 140.248609 
L 368.636648 153.25897 
L 368.856979 149.367644 
L 369.077311 160.137538 
L 369.517975 137.911997 
L 369.738307 143.576517 
L 369.958638 145.357742 
L 370.17897 139.807881 
L 370.399302 56.704446 
L 370.839965 133.768766 
L 371.060297 141.704058 
L 371.280629 123.282654 
L 371.500961 142.765594 
L 371.721293 128.711027 
L 371.941624 156.683022 
L 372.161956 164.230001 
L 372.382288 152.930394 
L 372.822951 175.489493 
L 373.043283 170.78231 
L 373.263615 147.093324 
L 373.704279 143.690855 
L 373.92461 147.020173 
L 374.144942 152.445884 
L 374.365274 154.450645 
L 374.585606 149.189055 
L 374.805937 152.184493 
L 375.026269 137.064515 
L 375.246601 132.885283 
L 375.466933 141.368849 
L 375.687265 135.638466 
L 375.907596 147.788426 
L 376.127928 127.714476 
L 376.34826 127.978924 
L 376.568592 126.655761 
L 376.788923 132.940644 
L 377.009255 130.192736 
L 377.449919 155.47864 
L 377.670251 153.026469 
L 377.890582 165.657369 
L 378.110914 157.868973 
L 378.331246 169.590629 
L 378.551578 151.214029 
L 378.771909 144.292735 
L 378.992241 149.015187 
L 379.212573 145.007145 
L 379.432905 130.31613 
L 379.653237 143.356589 
L 379.873568 148.788314 
L 380.0939 150.071881 
L 380.314232 148.24852 
L 380.534564 138.480773 
L 380.754895 139.551557 
L 380.975227 142.01148 
L 381.195559 132.93083 
L 381.415891 151.812387 
L 381.636223 146.149716 
L 381.856554 125.272827 
L 382.297218 156.667624 
L 382.51755 156.830279 
L 382.958213 147.9764 
L 383.178545 169.54734 
L 383.398877 175.218145 
L 383.619209 166.912794 
L 384.059872 143.906384 
L 384.280204 140.87092 
L 384.500536 156.317234 
L 384.941199 161.14011 
L 385.161531 151.839658 
L 385.602195 153.19721 
L 385.822526 147.976223 
L 386.042858 132.259831 
L 386.26319 148.948138 
L 386.483522 145.50225 
L 386.703854 154.388597 
L 386.924185 141.624484 
L 387.144517 139.134437 
L 387.364849 129.885463 
L 387.805512 155.876333 
L 388.025844 165.135503 
L 388.246176 160.220298 
L 388.466508 164.25513 
L 388.68684 170.449248 
L 388.907171 154.939446 
L 389.127503 158.331114 
L 389.347835 139.922433 
L 389.568167 142.047686 
L 389.788498 148.565478 
L 390.229162 167.009361 
L 390.449494 149.96803 
L 390.669826 149.443143 
L 390.890157 141.543023 
L 391.110489 143.715965 
L 391.330821 142.471374 
L 391.551153 146.197363 
L 391.771484 155.676174 
L 391.991816 150.921154 
L 392.212148 163.58534 
L 392.43248 190.65152 
L 392.652812 282.077142 
L 392.873143 269.830786 
L 393.093475 272.547607 
L 393.313807 265.754622 
L 393.534139 277.210505 
L 393.75447 278.099929 
L 393.974802 290.747448 
L 394.195134 292.351554 
L 394.415466 290.290257 
L 394.635798 286.544712 
L 394.856129 273.351867 
L 395.076461 277.176557 
L 395.296793 273.166951 
L 395.517125 260.504193 
L 395.517125 260.504193 
" style="fill:none;stroke:#1f77b4;stroke-linecap:square;stroke-width:1.5;"/>
   </g>
   <g id="patch_3">
    <path d="M 57.6 307.584 
L 57.6 41.472 
" style="fill:none;stroke:#000000;stroke-linecap:square;stroke-linejoin:miter;stroke-width:0.8;"/>
   </g>
   <g id="patch_4">
    <path d="M 414.72 307.584 
L 414.72 41.472 
" style="fill:none;stroke:#000000;stroke-linecap:square;stroke-linejoin:miter;stroke-width:0.8;"/>
   </g>
   <g id="patch_5">
    <path d="M 57.6 307.584 
L 414.72 307.584 
" style="fill:none;stroke:#000000;stroke-linecap:square;stroke-linejoin:miter;stroke-width:0.8;"/>
   </g>
   <g id="patch_6">
    <path d="M 57.6 41.472 
L 414.72 41.472 
" style="fill:none;stroke:#000000;stroke-linecap:square;stroke-linejoin:miter;stroke-width:0.8;"/>
   </g>
   <g id="text_15">
    <!-- real_24.csv -->
    <defs>
     <path d="M 41.109375 46.296875 
Q 39.59375 47.171875 37.8125 47.578125 
Q 36.03125 48 33.890625 48 
Q 26.265625 48 22.1875 43.046875 
Q 18.109375 38.09375 18.109375 28.8125 
L 18.109375 0 
L 9.078125 0 
L 9.078125 54.6875 
L 18.109375 54.6875 
L 18.109375 46.1875 
Q 20.953125 51.171875 25.484375 53.578125 
Q 30.03125 56 36.53125 56 
Q 37.453125 56 38.578125 55.875 
Q 39.703125 55.765625 41.0625 55.515625 
z
" id="DejaVuSans-72"/>
     <path d="M 56.203125 29.59375 
L 56.203125 25.203125 
L 14.890625 25.203125 
Q 15.484375 15.921875 20.484375 11.0625 
Q 25.484375 6.203125 34.421875 6.203125 
Q 39.59375 6.203125 44.453125 7.46875 
Q 49.3125 8.734375 54.109375 11.28125 
L 54.109375 2.78125 
Q 49.265625 0.734375 44.1875 -0.34375 
Q 39.109375 -1.421875 33.890625 -1.421875 
Q 20.796875 -1.421875 13.15625 6.1875 
Q 5.515625 13.8125 5.515625 26.8125 
Q 5.515625 40.234375 12.765625 48.109375 
Q 20.015625 56 32.328125 56 
Q 43.359375 56 49.78125 48.890625 
Q 56.203125 41.796875 56.203125 29.59375 
z
M 47.21875 32.234375 
Q 47.125 39.59375 43.09375 43.984375 
Q 39.0625 48.390625 32.421875 48.390625 
Q 24.90625 48.390625 20.390625 44.140625 
Q 15.875 39.890625 15.1875 32.171875 
z
" id="DejaVuSans-65"/>
     <path d="M 34.28125 27.484375 
Q 23.390625 27.484375 19.1875 25 
Q 14.984375 22.515625 14.984375 16.5 
Q 14.984375 11.71875 18.140625 8.90625 
Q 21.296875 6.109375 26.703125 6.109375 
Q 34.1875 6.109375 38.703125 11.40625 
Q 43.21875 16.703125 43.21875 25.484375 
L 43.21875 27.484375 
z
M 52.203125 31.203125 
L 52.203125 0 
L 43.21875 0 
L 43.21875 8.296875 
Q 40.140625 3.328125 35.546875 0.953125 
Q 30.953125 -1.421875 24.3125 -1.421875 
Q 15.921875 -1.421875 10.953125 3.296875 
Q 6 8.015625 6 15.921875 
Q 6 25.140625 12.171875 29.828125 
Q 18.359375 34.515625 30.609375 34.515625 
L 43.21875 34.515625 
L 43.21875 35.40625 
Q 43.21875 41.609375 39.140625 45 
Q 35.0625 48.390625 27.6875 48.390625 
Q 23 48.390625 18.546875 47.265625 
Q 14.109375 46.140625 10.015625 43.890625 
L 10.015625 52.203125 
Q 14.9375 54.109375 19.578125 55.046875 
Q 24.21875 56 28.609375 56 
Q 40.484375 56 46.34375 49.84375 
Q 52.203125 43.703125 52.203125 31.203125 
z
" id="DejaVuSans-61"/>
     <path d="M 9.421875 75.984375 
L 18.40625 75.984375 
L 18.40625 0 
L 9.421875 0 
z
" id="DejaVuSans-6c"/>
     <path d="M 50.984375 -16.609375 
L 50.984375 -23.578125 
L -0.984375 -23.578125 
L -0.984375 -16.609375 
z
" id="DejaVuSans-5f"/>
     <path d="M 10.6875 12.40625 
L 21 12.40625 
L 21 0 
L 10.6875 0 
z
" id="DejaVuSans-2e"/>
     <path d="M 48.78125 52.59375 
L 48.78125 44.1875 
Q 44.96875 46.296875 41.140625 47.34375 
Q 37.3125 48.390625 33.40625 48.390625 
Q 24.65625 48.390625 19.8125 42.84375 
Q 14.984375 37.3125 14.984375 27.296875 
Q 14.984375 17.28125 19.8125 11.734375 
Q 24.65625 6.203125 33.40625 6.203125 
Q 37.3125 6.203125 41.140625 7.25 
Q 44.96875 8.296875 48.78125 10.40625 
L 48.78125 2.09375 
Q 45.015625 0.34375 40.984375 -0.53125 
Q 36.96875 -1.421875 32.421875 -1.421875 
Q 20.0625 -1.421875 12.78125 6.34375 
Q 5.515625 14.109375 5.515625 27.296875 
Q 5.515625 40.671875 12.859375 48.328125 
Q 20.21875 56 33.015625 56 
Q 37.15625 56 41.109375 55.140625 
Q 45.0625 54.296875 48.78125 52.59375 
z
" id="DejaVuSans-63"/>
     <path d="M 44.28125 53.078125 
L 44.28125 44.578125 
Q 40.484375 46.53125 36.375 47.5 
Q 32.28125 48.484375 27.875 48.484375 
Q 21.1875 48.484375 17.84375 46.4375 
Q 14.5 44.390625 14.5 40.28125 
Q 14.5 37.15625 16.890625 35.375 
Q 19.28125 33.59375 26.515625 31.984375 
L 29.59375 31.296875 
Q 39.15625 29.25 43.1875 25.515625 
Q 47.21875 21.78125 47.21875 15.09375 
Q 47.21875 7.46875 41.1875 3.015625 
Q 35.15625 -1.421875 24.609375 -1.421875 
Q 20.21875 -1.421875 15.453125 -0.5625 
Q 10.6875 0.296875 5.421875 2 
L 5.421875 11.28125 
Q 10.40625 8.6875 15.234375 7.390625 
Q 20.0625 6.109375 24.8125 6.109375 
Q 31.15625 6.109375 34.5625 8.28125 
Q 37.984375 10.453125 37.984375 14.40625 
Q 37.984375 18.0625 35.515625 20.015625 
Q 33.0625 21.96875 24.703125 23.78125 
L 21.578125 24.515625 
Q 13.234375 26.265625 9.515625 29.90625 
Q 5.8125 33.546875 5.8125 39.890625 
Q 5.8125 47.609375 11.28125 51.796875 
Q 16.75 56 26.8125 56 
Q 31.78125 56 36.171875 55.265625 
Q 40.578125 54.546875 44.28125 53.078125 
z
" id="DejaVuSans-73"/>
     <path d="M 2.984375 54.6875 
L 12.5 54.6875 
L 29.59375 8.796875 
L 46.6875 54.6875 
L 56.203125 54.6875 
L 35.6875 0 
L 23.484375 0 
z
" id="DejaVuSans-76"/>
    </defs>
    <g transform="translate(202.141875 35.472)scale(0.12 -0.12)">
     <use xlink:href="#DejaVuSans-72"/>
     <use x="41.082031" xlink:href="#DejaVuSans-65"/>
     <use x="102.605469" xlink:href="#DejaVuSans-61"/>
     <use x="163.884766" xlink:href="#DejaVuSans-6c"/>
     <use x="191.667969" xlink:href="#DejaVuSans-5f"/>
     <use x="241.667969" xlink:href="#DejaVuSans-32"/>
     <use x="305.291016" xlink:href="#DejaVuSans-34"/>
     <use x="368.914062" xlink:href="#DejaVuSans-2e"/>
     <use x="400.701172" xlink:href="#DejaVuSans-63"/>
     <use x="455.681641" xlink:href="#DejaVuSans-73"/>
     <use x="507.78125" xlink:href="#DejaVuSans-76"/>
    </g>
   </g>
   <g id="PathCollection_1">
    <defs>
     <path d="M -4.472136 4.472136 
L 4.472136 -4.472136 
M -4.472136 -4.472136 
L 4.472136 4.472136 
" id="me0c92b1751" style="stroke:#ffa500;stroke-width:1.5;"/>
    </defs>
    <g clip-path="url(#pe3e8745103)">
     <use style="fill:#ffa500;stroke:#ffa500;stroke-width:1.5;" x="167.03307" xlink:href="#me0c92b1751" y="221.86756"/>
     <use style="fill:#ffa500;stroke:#ffa500;stroke-width:1.5;" x="370.17897" xlink:href="#me0c92b1751" y="56.704446"/>
     <use style="fill:#ffa500;stroke:#ffa500;stroke-width:1.5;" x="392.43248" xlink:href="#me0c92b1751" y="282.077142"/>
     <use style="fill:#ffa500;stroke:#ffa500;stroke-width:1.5;" x="392.652812" xlink:href="#me0c92b1751" y="269.830786"/>
     <use style="fill:#ffa500;stroke:#ffa500;stroke-width:1.5;" x="392.873143" xlink:href="#me0c92b1751" y="272.547607"/>
     <use style="fill:#ffa500;stroke:#ffa500;stroke-width:1.5;" x="393.093475" xlink:href="#me0c92b1751" y="265.754622"/>
     <use style="fill:#ffa500;stroke:#ffa500;stroke-width:1.5;" x="393.313807" xlink:href="#me0c92b1751" y="277.210505"/>
     <use style="fill:#ffa500;stroke:#ffa500;stroke-width:1.5;" x="393.534139" xlink:href="#me0c92b1751" y="278.099929"/>
     <use style="fill:#ffa500;stroke:#ffa500;stroke-width:1.5;" x="393.75447" xlink:href="#me0c92b1751" y="290.747448"/>
     <use style="fill:#ffa500;stroke:#ffa500;stroke-width:1.5;" x="393.974802" xlink:href="#me0c92b1751" y="292.351554"/>
     <use style="fill:#ffa500;stroke:#ffa500;stroke-width:1.5;" x="394.195134" xlink:href="#me0c92b1751" y="290.290257"/>
     <use style="fill:#ffa500;stroke:#ffa500;stroke-width:1.5;" x="394.415466" xlink:href="#me0c92b1751" y="286.544712"/>
     <use style="fill:#ffa500;stroke:#ffa500;stroke-width:1.5;" x="394.635798" xlink:href="#me0c92b1751" y="273.351867"/>
     <use style="fill:#ffa500;stroke:#ffa500;stroke-width:1.5;" x="394.856129" xlink:href="#me0c92b1751" y="277.176557"/>
     <use style="fill:#ffa500;stroke:#ffa500;stroke-width:1.5;" x="395.076461" xlink:href="#me0c92b1751" y="273.166951"/>
     <use style="fill:#ffa500;stroke:#ffa500;stroke-width:1.5;" x="395.296793" xlink:href="#me0c92b1751" y="260.504193"/>
    </g>
   </g>
  </g>
 </g>
 <defs>
  <clipPath id="pe3e8745103">
   <rect height="266.112" width="357.12" x="57.6" y="41.472"/>
  </clipPath>
 </defs>
</svg>
