<?xml version="1.0" encoding="utf-8" standalone="no"?>
<!DOCTYPE svg PUBLIC "-//W3C//DTD SVG 1.1//EN"
  "http://www.w3.org/Graphics/SVG/1.1/DTD/svg11.dtd">
<!-- Created with matplotlib (http://matplotlib.org/) -->
<svg height="345.6pt" version="1.1" viewBox="0 0 460.8 345.6" width="460.8pt" xmlns="http://www.w3.org/2000/svg" xmlns:xlink="http://www.w3.org/1999/xlink">
 <defs>
  <style type="text/css">
*{stroke-linecap:butt;stroke-linejoin:round;}
  </style>
 </defs>
 <g id="figure_1">
  <g id="patch_1">
   <path d="M 0 345.6 
L 460.8 345.6 
L 460.8 0 
L 0 0 
z
" style="fill:#ffffff;"/>
  </g>
  <g id="axes_1">
   <g id="patch_2">
    <path d="M 57.6 307.584 
L 414.72 307.584 
L 414.72 41.472 
L 57.6 41.472 
z
" style="fill:#ffffff;"/>
   </g>
   <g id="matplotlib.axis_1">
    <g id="xtick_1">
     <g id="line2d_1">
      <defs>
       <path d="M 0 0 
L 0 3.5 
" id="m9b13e0b499" style="stroke:#000000;stroke-width:0.8;"/>
      </defs>
      <g>
       <use style="stroke:#000000;stroke-width:0.8;" x="73.603936" xlink:href="#m9b13e0b499" y="307.584"/>
      </g>
     </g>
     <g id="text_1">
      <!-- 0 -->
      <defs>
       <path d="M 31.78125 66.40625 
Q 24.171875 66.40625 20.328125 58.90625 
Q 16.5 51.421875 16.5 36.375 
Q 16.5 21.390625 20.328125 13.890625 
Q 24.171875 6.390625 31.78125 6.390625 
Q 39.453125 6.390625 43.28125 13.890625 
Q 47.125 21.390625 47.125 36.375 
Q 47.125 51.421875 43.28125 58.90625 
Q 39.453125 66.40625 31.78125 66.40625 
z
M 31.78125 74.21875 
Q 44.046875 74.21875 50.515625 64.515625 
Q 56.984375 54.828125 56.984375 36.375 
Q 56.984375 17.96875 50.515625 8.265625 
Q 44.046875 -1.421875 31.78125 -1.421875 
Q 19.53125 -1.421875 13.0625 8.265625 
Q 6.59375 17.96875 6.59375 36.375 
Q 6.59375 54.828125 13.0625 64.515625 
Q 19.53125 74.21875 31.78125 74.21875 
z
" id="DejaVuSans-30"/>
      </defs>
      <g transform="translate(70.422686 322.182437)scale(0.1 -0.1)">
       <use xlink:href="#DejaVuSans-30"/>
      </g>
     </g>
    </g>
    <g id="xtick_2">
     <g id="line2d_2">
      <g>
       <use style="stroke:#000000;stroke-width:0.8;" x="119.362153" xlink:href="#m9b13e0b499" y="307.584"/>
      </g>
     </g>
     <g id="text_2">
      <!-- 200 -->
      <defs>
       <path d="M 19.1875 8.296875 
L 53.609375 8.296875 
L 53.609375 0 
L 7.328125 0 
L 7.328125 8.296875 
Q 12.9375 14.109375 22.625 23.890625 
Q 32.328125 33.6875 34.8125 36.53125 
Q 39.546875 41.84375 41.421875 45.53125 
Q 43.3125 49.21875 43.3125 52.78125 
Q 43.3125 58.59375 39.234375 62.25 
Q 35.15625 65.921875 28.609375 65.921875 
Q 23.96875 65.921875 18.8125 64.3125 
Q 13.671875 62.703125 7.8125 59.421875 
L 7.8125 69.390625 
Q 13.765625 71.78125 18.9375 73 
Q 24.125 74.21875 28.421875 74.21875 
Q 39.75 74.21875 46.484375 68.546875 
Q 53.21875 62.890625 53.21875 53.421875 
Q 53.21875 48.921875 51.53125 44.890625 
Q 49.859375 40.875 45.40625 35.40625 
Q 44.1875 33.984375 37.640625 27.21875 
Q 31.109375 20.453125 19.1875 8.296875 
z
" id="DejaVuSans-32"/>
      </defs>
      <g transform="translate(109.818403 322.182437)scale(0.1 -0.1)">
       <use xlink:href="#DejaVuSans-32"/>
       <use x="63.623047" xlink:href="#DejaVuSans-30"/>
       <use x="127.246094" xlink:href="#DejaVuSans-30"/>
      </g>
     </g>
    </g>
    <g id="xtick_3">
     <g id="line2d_3">
      <g>
       <use style="stroke:#000000;stroke-width:0.8;" x="165.120369" xlink:href="#m9b13e0b499" y="307.584"/>
      </g>
     </g>
     <g id="text_3">
      <!-- 400 -->
      <defs>
       <path d="M 37.796875 64.3125 
L 12.890625 25.390625 
L 37.796875 25.390625 
z
M 35.203125 72.90625 
L 47.609375 72.90625 
L 47.609375 25.390625 
L 58.015625 25.390625 
L 58.015625 17.1875 
L 47.609375 17.1875 
L 47.609375 0 
L 37.796875 0 
L 37.796875 17.1875 
L 4.890625 17.1875 
L 4.890625 26.703125 
z
" id="DejaVuSans-34"/>
      </defs>
      <g transform="translate(155.576619 322.182437)scale(0.1 -0.1)">
       <use xlink:href="#DejaVuSans-34"/>
       <use x="63.623047" xlink:href="#DejaVuSans-30"/>
       <use x="127.246094" xlink:href="#DejaVuSans-30"/>
      </g>
     </g>
    </g>
    <g id="xtick_4">
     <g id="line2d_4">
      <g>
       <use style="stroke:#000000;stroke-width:0.8;" x="210.878585" xlink:href="#m9b13e0b499" y="307.584"/>
      </g>
     </g>
     <g id="text_4">
      <!-- 600 -->
      <defs>
       <path d="M 33.015625 40.375 
Q 26.375 40.375 22.484375 35.828125 
Q 18.609375 31.296875 18.609375 23.390625 
Q 18.609375 15.53125 22.484375 10.953125 
Q 26.375 6.390625 33.015625 6.390625 
Q 39.65625 6.390625 43.53125 10.953125 
Q 47.40625 15.53125 47.40625 23.390625 
Q 47.40625 31.296875 43.53125 35.828125 
Q 39.65625 40.375 33.015625 40.375 
z
M 52.59375 71.296875 
L 52.59375 62.3125 
Q 48.875 64.0625 45.09375 64.984375 
Q 41.3125 65.921875 37.59375 65.921875 
Q 27.828125 65.921875 22.671875 59.328125 
Q 17.53125 52.734375 16.796875 39.40625 
Q 19.671875 43.65625 24.015625 45.921875 
Q 28.375 48.1875 33.59375 48.1875 
Q 44.578125 48.1875 50.953125 41.515625 
Q 57.328125 34.859375 57.328125 23.390625 
Q 57.328125 12.15625 50.6875 5.359375 
Q 44.046875 -1.421875 33.015625 -1.421875 
Q 20.359375 -1.421875 13.671875 8.265625 
Q 6.984375 17.96875 6.984375 36.375 
Q 6.984375 53.65625 15.1875 63.9375 
Q 23.390625 74.21875 37.203125 74.21875 
Q 40.921875 74.21875 44.703125 73.484375 
Q 48.484375 72.75 52.59375 71.296875 
z
" id="DejaVuSans-36"/>
      </defs>
      <g transform="translate(201.334835 322.182437)scale(0.1 -0.1)">
       <use xlink:href="#DejaVuSans-36"/>
       <use x="63.623047" xlink:href="#DejaVuSans-30"/>
       <use x="127.246094" xlink:href="#DejaVuSans-30"/>
      </g>
     </g>
    </g>
    <g id="xtick_5">
     <g id="line2d_5">
      <g>
       <use style="stroke:#000000;stroke-width:0.8;" x="256.636802" xlink:href="#m9b13e0b499" y="307.584"/>
      </g>
     </g>
     <g id="text_5">
      <!-- 800 -->
      <defs>
       <path d="M 31.78125 34.625 
Q 24.75 34.625 20.71875 30.859375 
Q 16.703125 27.09375 16.703125 20.515625 
Q 16.703125 13.921875 20.71875 10.15625 
Q 24.75 6.390625 31.78125 6.390625 
Q 38.8125 6.390625 42.859375 10.171875 
Q 46.921875 13.96875 46.921875 20.515625 
Q 46.921875 27.09375 42.890625 30.859375 
Q 38.875 34.625 31.78125 34.625 
z
M 21.921875 38.8125 
Q 15.578125 40.375 12.03125 44.71875 
Q 8.5 49.078125 8.5 55.328125 
Q 8.5 64.0625 14.71875 69.140625 
Q 20.953125 74.21875 31.78125 74.21875 
Q 42.671875 74.21875 48.875 69.140625 
Q 55.078125 64.0625 55.078125 55.328125 
Q 55.078125 49.078125 51.53125 44.71875 
Q 48 40.375 41.703125 38.8125 
Q 48.828125 37.15625 52.796875 32.3125 
Q 56.78125 27.484375 56.78125 20.515625 
Q 56.78125 9.90625 50.3125 4.234375 
Q 43.84375 -1.421875 31.78125 -1.421875 
Q 19.734375 -1.421875 13.25 4.234375 
Q 6.78125 9.90625 6.78125 20.515625 
Q 6.78125 27.484375 10.78125 32.3125 
Q 14.796875 37.15625 21.921875 38.8125 
z
M 18.3125 54.390625 
Q 18.3125 48.734375 21.84375 45.5625 
Q 25.390625 42.390625 31.78125 42.390625 
Q 38.140625 42.390625 41.71875 45.5625 
Q 45.3125 48.734375 45.3125 54.390625 
Q 45.3125 60.0625 41.71875 63.234375 
Q 38.140625 66.40625 31.78125 66.40625 
Q 25.390625 66.40625 21.84375 63.234375 
Q 18.3125 60.0625 18.3125 54.390625 
z
" id="DejaVuSans-38"/>
      </defs>
      <g transform="translate(247.093052 322.182437)scale(0.1 -0.1)">
       <use xlink:href="#DejaVuSans-38"/>
       <use x="63.623047" xlink:href="#DejaVuSans-30"/>
       <use x="127.246094" xlink:href="#DejaVuSans-30"/>
      </g>
     </g>
    </g>
    <g id="xtick_6">
     <g id="line2d_6">
      <g>
       <use style="stroke:#000000;stroke-width:0.8;" x="302.395018" xlink:href="#m9b13e0b499" y="307.584"/>
      </g>
     </g>
     <g id="text_6">
      <!-- 1000 -->
      <defs>
       <path d="M 12.40625 8.296875 
L 28.515625 8.296875 
L 28.515625 63.921875 
L 10.984375 60.40625 
L 10.984375 69.390625 
L 28.421875 72.90625 
L 38.28125 72.90625 
L 38.28125 8.296875 
L 54.390625 8.296875 
L 54.390625 0 
L 12.40625 0 
z
" id="DejaVuSans-31"/>
      </defs>
      <g transform="translate(289.670018 322.182437)scale(0.1 -0.1)">
       <use xlink:href="#DejaVuSans-31"/>
       <use x="63.623047" xlink:href="#DejaVuSans-30"/>
       <use x="127.246094" xlink:href="#DejaVuSans-30"/>
       <use x="190.869141" xlink:href="#DejaVuSans-30"/>
      </g>
     </g>
    </g>
    <g id="xtick_7">
     <g id="line2d_7">
      <g>
       <use style="stroke:#000000;stroke-width:0.8;" x="348.153235" xlink:href="#m9b13e0b499" y="307.584"/>
      </g>
     </g>
     <g id="text_7">
      <!-- 1200 -->
      <g transform="translate(335.428235 322.182437)scale(0.1 -0.1)">
       <use xlink:href="#DejaVuSans-31"/>
       <use x="63.623047" xlink:href="#DejaVuSans-32"/>
       <use x="127.246094" xlink:href="#DejaVuSans-30"/>
       <use x="190.869141" xlink:href="#DejaVuSans-30"/>
      </g>
     </g>
    </g>
    <g id="xtick_8">
     <g id="line2d_8">
      <g>
       <use style="stroke:#000000;stroke-width:0.8;" x="393.911451" xlink:href="#m9b13e0b499" y="307.584"/>
      </g>
     </g>
     <g id="text_8">
      <!-- 1400 -->
      <g transform="translate(381.186451 322.182437)scale(0.1 -0.1)">
       <use xlink:href="#DejaVuSans-31"/>
       <use x="63.623047" xlink:href="#DejaVuSans-34"/>
       <use x="127.246094" xlink:href="#DejaVuSans-30"/>
       <use x="190.869141" xlink:href="#DejaVuSans-30"/>
      </g>
     </g>
    </g>
   </g>
   <g id="matplotlib.axis_2">
    <g id="ytick_1">
     <g id="line2d_9">
      <defs>
       <path d="M 0 0 
L -3.5 0 
" id="m98f6014e33" style="stroke:#000000;stroke-width:0.8;"/>
      </defs>
      <g>
       <use style="stroke:#000000;stroke-width:0.8;" x="57.6" xlink:href="#m98f6014e33" y="295.488"/>
      </g>
     </g>
     <g id="text_9">
      <!-- 0 -->
      <g transform="translate(44.2375 299.287219)scale(0.1 -0.1)">
       <use xlink:href="#DejaVuSans-30"/>
      </g>
     </g>
    </g>
    <g id="ytick_2">
     <g id="line2d_10">
      <g>
       <use style="stroke:#000000;stroke-width:0.8;" x="57.6" xlink:href="#m98f6014e33" y="253.873505"/>
      </g>
     </g>
     <g id="text_10">
      <!-- 1000 -->
      <g transform="translate(25.15 257.672724)scale(0.1 -0.1)">
       <use xlink:href="#DejaVuSans-31"/>
       <use x="63.623047" xlink:href="#DejaVuSans-30"/>
       <use x="127.246094" xlink:href="#DejaVuSans-30"/>
       <use x="190.869141" xlink:href="#DejaVuSans-30"/>
      </g>
     </g>
    </g>
    <g id="ytick_3">
     <g id="line2d_11">
      <g>
       <use style="stroke:#000000;stroke-width:0.8;" x="57.6" xlink:href="#m98f6014e33" y="212.259011"/>
      </g>
     </g>
     <g id="text_11">
      <!-- 2000 -->
      <g transform="translate(25.15 216.058229)scale(0.1 -0.1)">
       <use xlink:href="#DejaVuSans-32"/>
       <use x="63.623047" xlink:href="#DejaVuSans-30"/>
       <use x="127.246094" xlink:href="#DejaVuSans-30"/>
       <use x="190.869141" xlink:href="#DejaVuSans-30"/>
      </g>
     </g>
    </g>
    <g id="ytick_4">
     <g id="line2d_12">
      <g>
       <use style="stroke:#000000;stroke-width:0.8;" x="57.6" xlink:href="#m98f6014e33" y="170.644516"/>
      </g>
     </g>
     <g id="text_12">
      <!-- 3000 -->
      <defs>
       <path d="M 40.578125 39.3125 
Q 47.65625 37.796875 51.625 33 
Q 55.609375 28.21875 55.609375 21.1875 
Q 55.609375 10.40625 48.1875 4.484375 
Q 40.765625 -1.421875 27.09375 -1.421875 
Q 22.515625 -1.421875 17.65625 -0.515625 
Q 12.796875 0.390625 7.625 2.203125 
L 7.625 11.71875 
Q 11.71875 9.328125 16.59375 8.109375 
Q 21.484375 6.890625 26.8125 6.890625 
Q 36.078125 6.890625 40.9375 10.546875 
Q 45.796875 14.203125 45.796875 21.1875 
Q 45.796875 27.640625 41.28125 31.265625 
Q 36.765625 34.90625 28.71875 34.90625 
L 20.21875 34.90625 
L 20.21875 43.015625 
L 29.109375 43.015625 
Q 36.375 43.015625 40.234375 45.921875 
Q 44.09375 48.828125 44.09375 54.296875 
Q 44.09375 59.90625 40.109375 62.90625 
Q 36.140625 65.921875 28.71875 65.921875 
Q 24.65625 65.921875 20.015625 65.03125 
Q 15.375 64.15625 9.8125 62.3125 
L 9.8125 71.09375 
Q 15.4375 72.65625 20.34375 73.4375 
Q 25.25 74.21875 29.59375 74.21875 
Q 40.828125 74.21875 47.359375 69.109375 
Q 53.90625 64.015625 53.90625 55.328125 
Q 53.90625 49.265625 50.4375 45.09375 
Q 46.96875 40.921875 40.578125 39.3125 
z
" id="DejaVuSans-33"/>
      </defs>
      <g transform="translate(25.15 174.443735)scale(0.1 -0.1)">
       <use xlink:href="#DejaVuSans-33"/>
       <use x="63.623047" xlink:href="#DejaVuSans-30"/>
       <use x="127.246094" xlink:href="#DejaVuSans-30"/>
       <use x="190.869141" xlink:href="#DejaVuSans-30"/>
      </g>
     </g>
    </g>
    <g id="ytick_5">
     <g id="line2d_13">
      <g>
       <use style="stroke:#000000;stroke-width:0.8;" x="57.6" xlink:href="#m98f6014e33" y="129.030021"/>
      </g>
     </g>
     <g id="text_13">
      <!-- 4000 -->
      <g transform="translate(25.15 132.82924)scale(0.1 -0.1)">
       <use xlink:href="#DejaVuSans-34"/>
       <use x="63.623047" xlink:href="#DejaVuSans-30"/>
       <use x="127.246094" xlink:href="#DejaVuSans-30"/>
       <use x="190.869141" xlink:href="#DejaVuSans-30"/>
      </g>
     </g>
    </g>
    <g id="ytick_6">
     <g id="line2d_14">
      <g>
       <use style="stroke:#000000;stroke-width:0.8;" x="57.6" xlink:href="#m98f6014e33" y="87.415526"/>
      </g>
     </g>
     <g id="text_14">
      <!-- 5000 -->
      <defs>
       <path d="M 10.796875 72.90625 
L 49.515625 72.90625 
L 49.515625 64.59375 
L 19.828125 64.59375 
L 19.828125 46.734375 
Q 21.96875 47.46875 24.109375 47.828125 
Q 26.265625 48.1875 28.421875 48.1875 
Q 40.625 48.1875 47.75 41.5 
Q 54.890625 34.8125 54.890625 23.390625 
Q 54.890625 11.625 47.5625 5.09375 
Q 40.234375 -1.421875 26.90625 -1.421875 
Q 22.3125 -1.421875 17.546875 -0.640625 
Q 12.796875 0.140625 7.71875 1.703125 
L 7.71875 11.625 
Q 12.109375 9.234375 16.796875 8.0625 
Q 21.484375 6.890625 26.703125 6.890625 
Q 35.15625 6.890625 40.078125 11.328125 
Q 45.015625 15.765625 45.015625 23.390625 
Q 45.015625 31 40.078125 35.4375 
Q 35.15625 39.890625 26.703125 39.890625 
Q 22.75 39.890625 18.8125 39.015625 
Q 14.890625 38.140625 10.796875 36.28125 
z
" id="DejaVuSans-35"/>
      </defs>
      <g transform="translate(25.15 91.214745)scale(0.1 -0.1)">
       <use xlink:href="#DejaVuSans-35"/>
       <use x="63.623047" xlink:href="#DejaVuSans-30"/>
       <use x="127.246094" xlink:href="#DejaVuSans-30"/>
       <use x="190.869141" xlink:href="#DejaVuSans-30"/>
      </g>
     </g>
    </g>
    <g id="ytick_7">
     <g id="line2d_15">
      <g>
       <use style="stroke:#000000;stroke-width:0.8;" x="57.6" xlink:href="#m98f6014e33" y="45.801032"/>
      </g>
     </g>
     <g id="text_15">
      <!-- 6000 -->
      <g transform="translate(25.15 49.60025)scale(0.1 -0.1)">
       <use xlink:href="#DejaVuSans-36"/>
       <use x="63.623047" xlink:href="#DejaVuSans-30"/>
       <use x="127.246094" xlink:href="#DejaVuSans-30"/>
       <use x="190.869141" xlink:href="#DejaVuSans-30"/>
      </g>
     </g>
    </g>
   </g>
   <g id="line2d_16">
    <path clip-path="url(#p3238041580)" d="M 73.832727 295.488 
L 74.061518 294.114722 
L 74.290309 294.197951 
L 74.519101 292.658214 
L 74.747892 292.866287 
L 74.976683 290.161345 
L 75.205474 292.242069 
L 75.434265 289.162597 
L 75.891847 291.825924 
L 76.349429 292.242069 
L 76.57822 292.6166 
L 76.807011 293.865035 
L 77.035802 292.242069 
L 77.264594 292.200455 
L 77.722176 290.743948 
L 77.950967 292.866287 
L 78.179758 293.324046 
L 78.63734 295.071855 
L 78.866131 294.988626 
L 79.094922 295.155084 
L 79.323713 294.947012 
L 79.552504 293.365661 
L 79.781295 293.740191 
L 80.010086 294.614096 
L 80.238878 294.447638 
L 80.69646 292.242069 
L 81.154042 293.115974 
L 81.382833 293.074359 
L 81.840415 293.365661 
L 82.069206 292.907901 
L 82.755579 292.491756 
L 82.984371 292.741443 
L 83.441953 291.40978 
L 83.670744 291.992382 
L 83.899535 292.15884 
L 84.128326 295.321542 
L 84.357117 295.321542 
L 84.585908 295.446386 
L 84.814699 295.363157 
L 85.272281 294.406023 
L 85.729864 292.200455 
L 85.958655 292.866287 
L 86.187446 292.075611 
L 86.416237 292.033997 
L 86.645028 293.82342 
L 86.873819 292.658214 
L 87.10261 292.907901 
L 87.331401 292.533371 
L 87.560192 292.907901 
L 87.788983 291.243322 
L 88.017774 291.201707 
L 88.246565 293.032745 
L 88.475357 292.949516 
L 88.704148 292.366913 
L 88.932939 291.284936 
L 89.16173 294.364409 
L 89.390521 294.530867 
L 89.619312 295.030241 
L 89.848103 295.11347 
L 90.076894 295.071855 
L 90.305685 295.196699 
L 90.534476 295.030241 
L 90.763267 294.572481 
L 90.992058 293.781806 
L 91.22085 293.615348 
L 91.678432 294.197951 
L 91.907223 294.114722 
L 92.136014 293.906649 
L 92.364805 290.993635 
L 92.822387 290.411032 
L 93.051178 289.661971 
L 93.279969 290.868791 
L 93.50876 291.160093 
L 93.737551 291.992382 
L 93.966342 291.201707 
L 94.195134 289.079368 
L 94.423925 290.619104 
L 94.652716 293.906649 
L 95.110298 295.030241 
L 95.339089 294.947012 
L 95.796671 295.030241 
L 96.025462 293.906649 
L 96.483044 294.197951 
L 96.711835 293.989878 
L 97.169418 294.364409 
L 97.398209 293.407275 
L 97.627 293.989878 
L 97.855791 292.949516 
L 98.084582 294.65571 
L 98.770955 293.615348 
L 98.999746 293.740191 
L 99.228537 294.239565 
L 99.457328 293.240817 
L 99.68612 293.656962 
L 100.143702 294.905397 
L 100.372493 294.65571 
L 101.058866 295.155084 
L 101.287657 294.905397 
L 101.516448 295.071855 
L 101.745239 294.572481 
L 102.889195 294.614096 
L 103.117986 294.364409 
L 103.346777 293.115974 
L 103.575568 291.118478 
L 103.804359 291.201707 
L 104.03315 293.865035 
L 104.490732 291.284936 
L 104.719523 293.656962 
L 104.948314 293.282432 
L 105.177106 293.44889 
L 105.405897 293.44889 
L 105.863479 294.614096 
L 106.09227 294.947012 
L 106.321061 294.822168 
L 106.778643 295.071855 
L 107.007434 294.697325 
L 107.465016 294.697325 
L 107.693807 294.364409 
L 108.15139 293.324046 
L 108.380181 293.656962 
L 108.608972 294.447638 
L 108.837763 294.697325 
L 109.295345 294.156336 
L 109.981718 293.157588 
L 110.210509 292.075611 
L 110.4393 291.992382 
L 110.668091 291.284936 
L 111.125674 291.284936 
L 111.354465 291.160093 
L 111.812047 292.325298 
L 112.040838 292.075611 
L 112.269629 292.325298 
L 112.49842 292.408527 
L 112.956002 291.326551 
L 113.184793 291.576237 
L 113.413584 291.659466 
L 113.871167 291.035249 
L 114.099958 291.40978 
L 114.328749 291.243322 
L 114.55754 289.162597 
L 114.786331 293.656962 
L 115.015122 292.15884 
L 115.701495 290.161345 
L 115.930286 290.494261 
L 116.159077 280.590011 
L 116.387869 278.093141 
L 116.61666 291.160093 
L 117.074242 291.326551 
L 117.303033 292.033997 
L 117.531824 291.992382 
L 117.760615 291.284936 
L 117.989406 291.701081 
L 118.218197 291.243322 
L 118.446988 291.825924 
L 118.675779 290.743948 
L 118.90457 290.411032 
L 119.133362 290.57749 
L 119.362153 291.035249 
L 119.590944 290.57749 
L 119.819735 224.452057 
L 120.048526 290.619104 
L 120.277317 290.286188 
L 120.506108 292.366913 
L 120.734899 292.200455 
L 120.96369 292.242069 
L 121.192481 292.533371 
L 121.421272 289.120982 
L 121.878855 289.870043 
L 122.336437 294.65571 
L 122.565228 294.364409 
L 122.794019 294.697325 
L 123.251601 294.905397 
L 123.480392 294.65571 
L 123.709183 294.239565 
L 123.937974 293.407275 
L 124.166765 293.656962 
L 124.624347 293.199203 
L 125.310721 294.28118 
L 125.768303 293.740191 
L 125.997094 291.534623 
L 126.454676 293.989878 
L 126.683467 291.659466 
L 126.912258 292.325298 
L 127.141049 291.867539 
L 127.36984 293.573733 
L 127.598632 293.490504 
L 127.827423 294.239565 
L 128.285005 294.780554 
L 128.742587 294.822168 
L 128.971378 294.988626 
L 129.42896 293.282432 
L 129.657751 293.199203 
L 129.886542 293.948264 
L 130.344125 292.366913 
L 130.801707 294.073107 
L 131.030498 294.031493 
L 131.259289 293.157588 
L 131.48808 293.532119 
L 131.716871 290.868791 
L 131.945662 292.741443 
L 132.174453 291.909153 
L 132.403244 292.075611 
L 132.632035 265.317491 
L 132.860826 290.993635 
L 133.089618 289.953272 
L 133.5472 294.65571 
L 133.775991 294.530867 
L 134.004782 294.738939 
L 134.233573 294.530867 
L 134.691155 293.989878 
L 134.919946 293.906649 
L 135.148737 294.197951 
L 135.606319 293.615348 
L 135.835111 294.031493 
L 136.063902 293.199203 
L 136.292693 293.740191 
L 136.521484 293.698577 
L 136.750275 292.907901 
L 137.436648 293.115974 
L 137.665439 294.322794 
L 137.89423 292.99113 
L 138.123021 292.783058 
L 138.351812 292.949516 
L 138.809395 294.822168 
L 139.038186 294.530867 
L 139.266977 294.988626 
L 139.495768 294.905397 
L 139.724559 295.11347 
L 139.95335 295.030241 
L 140.639723 294.197951 
L 141.326096 294.114722 
L 141.554888 293.44889 
L 141.783679 290.95202 
L 142.241261 294.031493 
L 142.698843 293.365661 
L 143.156425 293.44889 
L 143.385216 291.950768 
L 143.614007 292.450142 
L 144.071589 294.614096 
L 144.529172 295.196699 
L 144.757963 295.155084 
L 144.986754 295.279928 
L 145.444336 295.155084 
L 145.673127 294.780554 
L 145.901918 294.65571 
L 146.130709 294.738939 
L 146.3595 293.906649 
L 146.588291 294.28118 
L 147.274665 293.656962 
L 147.503456 293.365661 
L 147.961038 293.698577 
L 148.189829 293.365661 
L 148.41862 293.906649 
L 148.647411 293.282432 
L 148.876202 293.074359 
L 149.104993 292.699829 
L 149.562575 294.530867 
L 149.791367 294.822168 
L 150.020158 295.321542 
L 150.248949 295.030241 
L 150.47774 295.071855 
L 150.706531 294.780554 
L 150.935322 295.155084 
L 151.621695 293.740191 
L 151.850486 294.28118 
L 152.079277 293.44889 
L 152.308068 294.031493 
L 152.53686 293.989878 
L 152.765651 294.530867 
L 152.994442 293.44889 
L 153.223233 294.156336 
L 153.680815 293.532119 
L 153.909606 291.867539 
L 154.138397 291.78431 
L 154.367188 291.950768 
L 154.595979 290.660719 
L 154.82477 290.95202 
L 155.053561 294.197951 
L 155.282352 294.905397 
L 155.511144 295.030241 
L 155.968726 294.822168 
L 156.197517 295.030241 
L 156.655099 293.282432 
L 156.88389 293.490504 
L 157.112681 294.073107 
L 157.341472 293.740191 
L 157.570263 294.239565 
L 157.799054 294.114722 
L 158.027845 294.28118 
L 158.256637 293.698577 
L 158.485428 293.698577 
L 158.714219 293.157588 
L 158.94301 292.99113 
L 159.171801 293.365661 
L 159.400592 292.783058 
L 159.629383 292.699829 
L 159.858174 293.573733 
L 160.086965 293.490504 
L 160.315756 293.906649 
L 160.544547 293.573733 
L 160.773338 294.780554 
L 161.00213 295.279928 
L 161.459712 295.071855 
L 161.917294 294.822168 
L 162.146085 294.988626 
L 162.374876 293.989878 
L 162.603667 294.28118 
L 162.832458 293.532119 
L 163.061249 293.740191 
L 163.518831 293.740191 
L 163.976414 290.411032 
L 164.205205 292.99113 
L 164.433996 293.740191 
L 164.662787 293.407275 
L 164.891578 293.44889 
L 165.120369 293.240817 
L 165.577951 294.073107 
L 165.806742 293.157588 
L 166.035533 293.615348 
L 166.264324 294.614096 
L 166.721907 294.780554 
L 167.179489 294.780554 
L 168.094653 294.197951 
L 168.323444 292.6166 
L 168.552235 293.324046 
L 168.781026 292.783058 
L 169.009817 293.82342 
L 169.238608 293.948264 
L 169.4674 292.99113 
L 169.696191 293.573733 
L 169.924982 292.824672 
L 170.153773 292.699829 
L 170.611355 289.329055 
L 170.840146 291.659466 
L 171.068937 292.200455 
L 171.75531 294.905397 
L 171.984101 295.11347 
L 172.441684 295.11347 
L 172.899266 295.030241 
L 173.128057 294.822168 
L 173.356848 293.989878 
L 173.585639 294.114722 
L 173.81443 291.451394 
L 174.272012 290.286188 
L 174.500803 290.036501 
L 174.729594 290.036501 
L 174.958386 290.910406 
L 175.187177 291.160093 
L 175.415968 291.909153 
L 175.87355 294.031493 
L 176.102341 293.781806 
L 176.331132 292.99113 
L 176.559923 293.032745 
L 176.788714 292.533371 
L 177.017505 291.742695 
L 177.246296 294.073107 
L 177.475087 295.030241 
L 177.703879 295.238313 
L 177.93267 295.279928 
L 178.161461 295.071855 
L 178.390252 295.11347 
L 178.619043 294.988626 
L 179.076625 294.197951 
L 179.305416 294.489252 
L 179.534207 291.742695 
L 179.762998 291.909153 
L 179.991789 291.118478 
L 180.22058 291.78431 
L 180.449372 291.825924 
L 180.678163 291.201707 
L 180.906954 290.993635 
L 181.135745 290.286188 
L 181.593327 293.240817 
L 181.822118 292.949516 
L 182.050909 293.282432 
L 182.2797 291.201707 
L 182.508491 293.615348 
L 182.737282 294.572481 
L 182.966073 294.65571 
L 183.423656 295.321542 
L 183.881238 295.238313 
L 184.33882 294.905397 
L 184.567611 294.073107 
L 184.796402 294.905397 
L 185.025193 294.822168 
L 185.253984 294.947012 
L 185.482775 294.697325 
L 185.940357 294.780554 
L 186.169149 294.530867 
L 186.39794 293.615348 
L 186.626731 294.322794 
L 186.855522 293.740191 
L 187.084313 294.031493 
L 187.313104 293.44889 
L 187.541895 293.407275 
L 187.770686 293.032745 
L 187.999477 293.989878 
L 188.457059 294.822168 
L 188.914642 294.822168 
L 189.143433 294.65571 
L 189.601015 294.822168 
L 189.829806 294.822168 
L 190.058597 293.781806 
L 190.287388 293.573733 
L 190.516179 294.156336 
L 190.74497 294.073107 
L 190.973761 294.738939 
L 191.202552 294.738939 
L 191.431343 294.364409 
L 191.660135 294.738939 
L 191.888926 293.199203 
L 192.117717 293.781806 
L 192.575299 292.450142 
L 192.80409 293.44889 
L 193.032881 293.44889 
L 193.261672 293.906649 
L 193.719254 295.155084 
L 193.948045 295.238313 
L 194.176836 295.155084 
L 194.405628 295.321542 
L 194.634419 295.071855 
L 194.86321 295.279928 
L 195.092001 294.863783 
L 195.320792 294.738939 
L 195.549583 292.99113 
L 195.778374 294.530867 
L 196.007165 293.948264 
L 196.235956 294.364409 
L 196.464747 294.322794 
L 196.693538 293.906649 
L 196.922329 293.781806 
L 197.151121 294.28118 
L 197.379912 293.698577 
L 197.608703 293.698577 
L 198.295076 292.783058 
L 198.752658 293.44889 
L 198.981449 294.364409 
L 199.21024 294.780554 
L 199.667822 294.822168 
L 199.896613 295.030241 
L 200.354196 294.863783 
L 200.582987 294.447638 
L 200.811778 294.530867 
L 201.040569 293.82342 
L 201.26936 294.073107 
L 201.498151 293.324046 
L 201.726942 293.44889 
L 201.955733 294.406023 
L 202.184524 293.989878 
L 202.413315 293.324046 
L 202.642106 293.532119 
L 202.870898 294.447638 
L 203.099689 293.740191 
L 203.32848 291.659466 
L 203.557271 294.239565 
L 203.786062 292.6166 
L 204.014853 292.949516 
L 204.243644 293.573733 
L 204.472435 294.614096 
L 204.701226 294.447638 
L 204.930017 295.030241 
L 205.158808 294.572481 
L 205.387599 294.738939 
L 205.616391 294.406023 
L 206.073973 294.530867 
L 206.302764 294.530867 
L 206.531555 294.156336 
L 206.760346 294.073107 
L 206.989137 294.489252 
L 207.446719 293.44889 
L 207.67551 294.697325 
L 208.133092 293.240817 
L 208.361884 292.658214 
L 208.819466 293.615348 
L 209.048257 292.658214 
L 209.277048 292.907901 
L 209.505839 293.656962 
L 209.73463 293.656962 
L 210.192212 294.738939 
L 210.421003 294.947012 
L 210.649794 294.780554 
L 211.107377 294.947012 
L 211.564959 294.031493 
L 211.79375 294.28118 
L 212.022541 293.781806 
L 212.251332 294.031493 
L 212.480123 294.489252 
L 212.708914 293.365661 
L 212.937705 293.407275 
L 213.395287 293.948264 
L 213.624078 293.573733 
L 213.852869 293.82342 
L 214.081661 292.866287 
L 214.310452 292.949516 
L 214.539243 293.199203 
L 214.996825 292.866287 
L 215.225616 293.615348 
L 215.683198 294.239565 
L 215.911989 294.863783 
L 216.369571 295.155084 
L 216.598362 294.947012 
L 217.055945 294.114722 
L 217.284736 294.239565 
L 217.513527 294.073107 
L 217.742318 293.282432 
L 217.971109 294.530867 
L 218.428691 293.365661 
L 218.657482 293.032745 
L 218.886273 293.490504 
L 219.115064 293.324046 
L 219.343855 293.407275 
L 219.801438 293.282432 
L 220.030229 292.033997 
L 220.487811 292.949516 
L 220.945393 293.698577 
L 221.174184 292.450142 
L 221.402975 293.240817 
L 221.631766 293.324046 
L 221.860557 292.6166 
L 222.089348 292.491756 
L 222.546931 294.073107 
L 222.775722 294.031493 
L 223.004513 292.824672 
L 223.233304 293.365661 
L 223.462095 293.532119 
L 223.690886 293.948264 
L 223.919677 293.948264 
L 224.148468 293.740191 
L 224.377259 294.114722 
L 224.60605 293.324046 
L 225.063633 293.906649 
L 225.292424 293.656962 
L 225.521215 292.15884 
L 225.750006 293.490504 
L 225.978797 293.199203 
L 226.436379 293.740191 
L 226.66517 294.863783 
L 227.809126 294.65571 
L 228.266708 293.615348 
L 228.495499 292.533371 
L 228.72429 292.99113 
L 228.953081 293.948264 
L 229.181872 293.906649 
L 229.410663 293.656962 
L 229.639454 294.239565 
L 229.868245 292.907901 
L 230.097036 294.031493 
L 230.325827 293.407275 
L 230.554618 290.827177 
L 230.78341 290.452646 
L 231.012201 290.743948 
L 231.240992 289.828429 
L 231.469783 291.243322 
L 231.698574 290.785562 
L 232.156156 291.950768 
L 232.384947 292.117226 
L 232.613738 292.658214 
L 233.07132 292.6166 
L 233.300111 293.199203 
L 233.528903 294.489252 
L 234.215276 293.282432 
L 234.444067 293.698577 
L 234.672858 292.533371 
L 234.901649 293.698577 
L 235.13044 294.239565 
L 235.816813 292.949516 
L 236.045604 292.99113 
L 236.274396 293.324046 
L 236.503187 291.701081 
L 236.731978 291.40978 
L 236.960769 291.493009 
L 237.18956 290.327803 
L 237.418351 290.660719 
L 237.647142 288.91291 
L 237.875933 291.701081 
L 238.333515 291.992382 
L 238.562306 291.992382 
L 239.24868 290.286188 
L 239.477471 290.286188 
L 239.706262 290.411032 
L 239.935053 292.574985 
L 240.163844 290.535875 
L 240.392635 291.035249 
L 240.621426 292.658214 
L 240.850217 292.949516 
L 241.307799 293.698577 
L 241.53659 294.031493 
L 241.765382 293.365661 
L 241.994173 292.325298 
L 242.222964 292.741443 
L 242.680546 293.115974 
L 242.909337 294.28118 
L 243.366919 295.030241 
L 243.59571 294.156336 
L 243.824501 294.947012 
L 244.053292 294.614096 
L 244.282083 293.906649 
L 244.739666 294.156336 
L 245.197248 292.408527 
L 245.426039 294.28118 
L 245.65483 294.031493 
L 245.883621 293.490504 
L 246.341203 293.989878 
L 246.569994 293.906649 
L 246.798785 294.197951 
L 247.027576 292.741443 
L 247.256367 289.911658 
L 247.485159 289.578742 
L 247.71395 290.910406 
L 247.942741 290.827177 
L 248.171532 291.076864 
L 248.857905 294.905397 
L 249.086696 294.988626 
L 249.315487 295.279928 
L 249.544278 294.988626 
L 249.773069 290.95202 
L 250.00186 293.240817 
L 250.230652 294.197951 
L 250.459443 290.993635 
L 250.688234 294.364409 
L 250.917025 291.78431 
L 251.145816 291.78431 
L 251.374607 292.283684 
L 251.603398 291.076864 
L 251.832189 291.035249 
L 252.06098 291.40978 
L 252.289771 290.910406 
L 252.518562 291.701081 
L 252.976145 290.036501 
L 253.204936 291.118478 
L 253.433727 290.702333 
L 253.662518 293.740191 
L 253.891309 295.030241 
L 254.1201 295.238313 
L 254.348891 295.030241 
L 254.577682 295.279928 
L 255.035264 295.363157 
L 255.264055 294.863783 
L 255.492846 294.65571 
L 255.721638 294.65571 
L 256.17922 291.076864 
L 256.408011 291.659466 
L 256.636802 291.451394 
L 256.865593 290.827177 
L 257.094384 293.865035 
L 257.323175 293.740191 
L 257.551966 293.324046 
L 258.238339 293.407275 
L 258.467131 293.865035 
L 258.924713 290.327803 
L 259.153504 291.451394 
L 259.382295 293.82342 
L 259.611086 293.740191 
L 259.839877 294.697325 
L 260.068668 294.780554 
L 260.297459 295.071855 
L 260.52625 294.947012 
L 260.755041 295.071855 
L 261.212623 293.989878 
L 261.441415 294.031493 
L 261.670206 293.656962 
L 261.898997 293.615348 
L 262.127788 294.364409 
L 262.356579 293.989878 
L 262.58537 294.197951 
L 262.814161 291.78431 
L 263.042952 293.781806 
L 263.500534 293.44889 
L 263.729325 293.615348 
L 263.958116 291.451394 
L 264.186908 290.868791 
L 264.415699 293.740191 
L 264.64449 292.6166 
L 264.873281 293.656962 
L 265.102072 294.031493 
L 265.330863 294.988626 
L 265.559654 295.238313 
L 265.788445 295.321542 
L 266.246027 294.947012 
L 266.474818 294.614096 
L 266.703609 294.530867 
L 267.161192 293.282432 
L 267.389983 293.656962 
L 267.618774 293.240817 
L 267.847565 292.033997 
L 268.076356 293.698577 
L 268.305147 293.407275 
L 268.533938 293.490504 
L 268.99152 290.868791 
L 269.220311 290.993635 
L 269.449102 292.866287 
L 269.677894 292.99113 
L 269.906685 292.533371 
L 270.135476 293.82342 
L 270.593058 294.863783 
L 270.821849 294.988626 
L 271.05064 294.947012 
L 271.279431 295.279928 
L 271.508222 295.11347 
L 271.737013 295.279928 
L 271.965804 292.574985 
L 272.194595 293.532119 
L 272.423387 292.783058 
L 272.652178 292.699829 
L 272.880969 293.324046 
L 273.10976 292.450142 
L 274.024924 294.447638 
L 274.253715 291.701081 
L 274.482506 292.450142 
L 274.711297 292.450142 
L 274.940088 292.907901 
L 275.168879 290.452646 
L 275.397671 290.411032 
L 275.626462 252.791528 
L 275.855253 107.681785 
L 276.084044 71.06103 
L 276.312835 271.809352 
L 276.541626 271.642895 
L 276.770417 269.603784 
L 276.999208 270.39446 
L 277.227999 261.655416 
L 277.45679 279.757721 
L 277.685581 265.483949 
L 277.914372 289.7452 
L 278.143164 291.368165 
L 278.371955 280.798083 
L 278.829537 289.037753 
L 279.058328 277.260851 
L 279.287119 293.656962 
L 279.51591 293.656962 
L 279.744701 294.489252 
L 279.973492 294.114722 
L 280.202283 294.114722 
L 280.431074 293.032745 
L 280.659865 292.907901 
L 280.888657 291.701081 
L 281.57503 294.947012 
L 281.803821 295.238313 
L 282.032612 295.11347 
L 282.261403 294.822168 
L 282.490194 295.155084 
L 282.718985 294.863783 
L 282.947776 294.114722 
L 283.176567 294.197951 
L 283.405358 293.82342 
L 283.63415 293.989878 
L 283.862941 293.906649 
L 284.091732 294.28118 
L 284.320523 294.031493 
L 284.549314 294.197951 
L 284.778105 293.740191 
L 285.006896 294.197951 
L 285.464478 293.615348 
L 285.693269 293.532119 
L 286.150851 292.242069 
L 286.608434 291.243322 
L 286.837225 293.948264 
L 287.066016 295.071855 
L 287.294807 267.273373 
L 287.523598 294.364409 
L 287.752389 225.076275 
L 287.98118 70.270354 
L 288.438762 287.747704 
L 288.667553 269.270868 
L 288.896344 279.549649 
L 289.125135 261.655416 
L 289.353927 293.82342 
L 289.582718 287.456403 
L 289.811509 292.117226 
L 290.269091 294.614096 
L 290.497882 293.199203 
L 290.726673 290.993635 
L 290.955464 290.993635 
L 291.641837 291.493009 
L 291.870628 290.286188 
L 292.09942 289.953272 
L 292.328211 293.698577 
L 293.014584 294.572481 
L 293.243375 294.697325 
L 293.472166 294.988626 
L 293.700957 294.65571 
L 293.929748 291.201707 
L 294.158539 294.114722 
L 294.38733 293.490504 
L 294.616121 294.406023 
L 295.073704 293.948264 
L 295.302495 293.906649 
L 295.531286 294.322794 
L 295.760077 294.114722 
L 295.988868 291.617852 
L 296.217659 293.573733 
L 296.44645 290.452646 
L 296.675241 292.283684 
L 296.904032 291.617852 
L 297.361614 292.824672 
L 297.590406 292.783058 
L 297.819197 294.406023 
L 298.047988 294.988626 
L 298.50557 295.030241 
L 298.963152 295.363157 
L 299.191943 294.988626 
L 299.420734 294.947012 
L 299.649525 294.406023 
L 299.878316 294.28118 
L 300.107107 290.202959 
L 300.56469 292.907901 
L 300.793481 293.157588 
L 301.251063 292.574985 
L 301.479854 292.533371 
L 301.708645 294.114722 
L 301.937436 293.865035 
L 302.166227 291.326551 
L 302.395018 290.078116 
L 302.623809 290.619104 
L 302.8526 289.870043 
L 303.081392 293.781806 
L 303.310183 293.906649 
L 303.538974 294.239565 
L 303.996556 295.238313 
L 304.225347 295.321542 
L 304.454138 294.947012 
L 304.682929 295.196699 
L 304.91172 294.863783 
L 305.140511 294.156336 
L 305.369302 294.322794 
L 305.598093 294.073107 
L 305.826884 293.532119 
L 306.055676 290.702333 
L 306.284467 289.661971 
L 306.513258 292.907901 
L 306.742049 293.490504 
L 307.199631 290.161345 
L 307.428422 291.160093 
L 307.657213 291.617852 
L 307.886004 290.535875 
L 308.114795 290.95202 
L 308.343586 289.953272 
L 308.572377 293.115974 
L 308.801169 293.906649 
L 309.02996 294.156336 
L 309.487542 295.030241 
L 309.716333 295.155084 
L 310.173915 294.530867 
L 310.402706 288.45515 
L 310.631497 294.614096 
L 310.860288 282.129747 
L 311.089079 283.003652 
L 311.31787 292.283684 
L 311.546662 288.330307 
L 311.775453 287.289945 
L 312.004244 293.989878 
L 312.233035 293.365661 
L 312.461826 293.82342 
L 312.690617 292.824672 
L 312.919408 290.036501 
L 313.37699 292.907901 
L 313.605781 292.283684 
L 313.834572 293.282432 
L 314.063363 292.699829 
L 314.520946 294.489252 
L 314.749737 294.406023 
L 314.978528 294.822168 
L 315.207319 294.738939 
L 315.43611 294.239565 
L 315.664901 294.614096 
L 316.580065 292.283684 
L 316.808856 293.032745 
L 317.037648 267.731132 
L 317.266439 293.573733 
L 317.49523 293.532119 
L 317.952812 291.825924 
L 318.181603 292.907901 
L 318.410394 292.907901 
L 318.639185 293.532119 
L 319.096767 292.574985 
L 319.325558 292.907901 
L 319.554349 292.6166 
L 319.78314 293.074359 
L 320.011932 294.239565 
L 320.698305 295.030241 
L 320.927096 294.738939 
L 321.155887 294.780554 
L 321.613469 294.364409 
L 321.84226 293.948264 
L 322.071051 293.948264 
L 322.528633 293.44889 
L 322.757425 293.44889 
L 322.986216 293.199203 
L 323.215007 292.741443 
L 323.443798 292.533371 
L 323.672589 292.574985 
L 323.90138 292.117226 
L 324.130171 292.200455 
L 324.358962 291.576237 
L 324.587753 291.659466 
L 324.816544 292.075611 
L 325.045335 291.035249 
L 325.274126 293.407275 
L 325.502918 293.656962 
L 325.731709 294.489252 
L 325.9605 294.489252 
L 326.189291 294.905397 
L 326.418082 294.780554 
L 326.646873 294.156336 
L 326.875664 293.948264 
L 327.104455 293.490504 
L 327.333246 291.992382 
L 327.562037 292.15884 
L 327.790828 289.994887 
L 328.019619 293.199203 
L 328.248411 291.493009 
L 328.934784 289.911658 
L 329.392366 292.075611 
L 329.621157 292.408527 
L 329.849948 292.949516 
L 330.078739 290.535875 
L 330.30753 292.574985 
L 330.536321 293.615348 
L 330.765112 293.615348 
L 330.993904 293.282432 
L 331.222695 294.197951 
L 331.909068 294.822168 
L 332.36665 294.239565 
L 332.595441 294.489252 
L 332.824232 293.948264 
L 333.281814 293.740191 
L 333.739397 293.82342 
L 334.196979 294.073107 
L 334.42577 294.073107 
L 334.883352 292.907901 
L 335.112143 293.324046 
L 335.340934 292.574985 
L 335.569725 291.201707 
L 335.798516 292.699829 
L 336.256098 294.114722 
L 336.484889 294.28118 
L 336.713681 294.697325 
L 336.942472 294.406023 
L 337.171263 294.489252 
L 337.400054 294.738939 
L 337.628845 294.697325 
L 337.857636 294.322794 
L 338.086427 294.28118 
L 338.315218 292.075611 
L 338.544009 291.326551 
L 338.7728 291.909153 
L 339.001591 291.40978 
L 339.230382 292.949516 
L 339.459174 291.659466 
L 339.687965 291.534623 
L 339.916756 290.202959 
L 340.145547 290.910406 
L 340.374338 290.286188 
L 340.603129 290.702333 
L 340.83192 290.827177 
L 341.060711 289.453898 
L 341.289502 288.996139 
L 341.518293 289.870043 
L 341.747084 293.44889 
L 341.975875 294.614096 
L 342.204667 295.030241 
L 342.433458 294.947012 
L 342.662249 295.155084 
L 343.119831 294.905397 
L 343.577413 293.615348 
L 343.806204 280.381938 
L 344.034995 293.82342 
L 344.263786 293.865035 
L 344.492577 293.199203 
L 344.721368 291.867539 
L 344.95016 293.656962 
L 345.178951 293.282432 
L 345.407742 293.407275 
L 345.636533 285.791823 
L 345.865324 267.398216 
L 346.094115 291.451394 
L 346.322906 290.036501 
L 346.551697 293.282432 
L 346.780488 292.15884 
L 347.009279 293.82342 
L 347.23807 294.406023 
L 347.466861 294.489252 
L 347.695653 294.738939 
L 347.924444 295.446386 
L 348.153235 294.822168 
L 348.382026 294.863783 
L 348.610817 294.697325 
L 348.839608 294.28118 
L 349.068399 293.157588 
L 349.29719 292.658214 
L 349.525981 291.451394 
L 349.754772 291.78431 
L 349.983563 292.533371 
L 350.212354 290.827177 
L 350.441145 291.284936 
L 350.669937 291.493009 
L 350.898728 290.743948 
L 351.127519 292.408527 
L 351.35631 291.368165 
L 351.585101 289.537127 
L 351.813892 288.746452 
L 352.042683 149.129822 
L 352.271474 83.753451 
L 352.500265 107.26564 
L 352.729056 94.614834 
L 352.957847 110.761258 
L 353.186638 56.745644 
L 353.41543 84.419283 
L 353.873012 294.822168 
L 354.330594 294.197951 
L 354.559385 293.906649 
L 354.788176 293.365661 
L 355.016967 293.115974 
L 355.245758 293.282432 
L 355.474549 293.240817 
L 355.70334 292.99113 
L 355.932131 289.578742 
L 356.160923 290.494261 
L 356.389714 281.838446 
L 356.618505 291.160093 
L 356.847296 289.037753 
L 357.533669 290.369417 
L 357.76246 289.28744 
L 357.991251 290.785562 
L 358.220042 293.490504 
L 358.448833 293.781806 
L 358.677624 294.406023 
L 358.906416 294.28118 
L 359.135207 293.365661 
L 359.363998 292.949516 
L 359.592789 293.906649 
L 359.82158 292.907901 
L 360.050371 293.282432 
L 360.279162 292.699829 
L 360.507953 293.407275 
L 360.736744 289.703585 
L 360.965535 290.535875 
L 361.194326 290.286188 
L 361.423117 292.533371 
L 361.651909 293.240817 
L 361.8807 293.490504 
L 362.109491 292.824672 
L 362.338282 292.907901 
L 362.567073 289.661971 
L 362.795864 289.661971 
L 363.253446 293.074359 
L 363.711028 294.28118 
L 364.397401 294.780554 
L 364.854984 294.489252 
L 365.312566 294.28118 
L 365.998939 292.408527 
L 366.22773 289.828429 
L 366.456521 289.870043 
L 366.685312 290.078116 
L 366.914103 289.661971 
L 367.142894 289.661971 
L 367.600477 290.660719 
L 367.829268 290.202959 
L 368.058059 290.411032 
L 368.28685 290.785562 
L 368.515641 291.950768 
L 368.744432 289.828429 
L 369.430805 294.697325 
L 370.117179 294.947012 
L 370.34597 294.780554 
L 370.574761 294.947012 
L 371.032343 293.740191 
L 371.261134 293.906649 
L 371.718716 293.44889 
L 371.947507 293.615348 
L 372.176298 291.160093 
L 372.405089 279.091889 
L 372.63388 290.702333 
L 372.862672 292.075611 
L 373.091463 290.244574 
L 373.549045 292.200455 
L 373.777836 292.741443 
L 374.006627 288.579994 
L 374.235418 291.076864 
L 374.464209 291.493009 
L 375.150582 294.988626 
L 376.065747 295.071855 
L 376.294538 294.738939 
L 376.75212 292.99113 
L 376.980911 289.079368 
L 377.209702 288.91291 
L 377.438493 292.325298 
L 377.667284 293.615348 
L 377.896075 294.073107 
L 378.124866 293.989878 
L 378.353658 293.282432 
L 378.582449 293.44889 
L 378.81124 293.240817 
L 379.040031 292.658214 
L 379.268822 289.162597 
L 379.497613 290.11973 
L 379.726404 288.08062 
L 379.955195 287.331559 
L 380.183986 290.11973 
L 380.412777 278.259599 
L 380.641568 294.406023 
L 380.870359 294.822168 
L 381.327942 294.905397 
L 381.556733 294.572481 
L 382.014315 293.573733 
L 382.243106 294.031493 
L 382.471897 293.781806 
L 382.700688 291.950768 
L 382.929479 291.950768 
L 383.15827 291.160093 
L 383.387061 291.160093 
L 384.073435 289.495513 
L 384.759808 292.741443 
L 385.21739 291.326551 
L 385.446181 293.407275 
L 385.903763 294.65571 
L 386.132554 294.863783 
L 386.590136 294.822168 
L 386.818928 294.863783 
L 387.505301 293.781806 
L 387.734092 292.200455 
L 388.420465 292.491756 
L 388.649256 292.866287 
L 388.878047 292.783058 
L 389.793212 293.490504 
L 390.022003 292.658214 
L 390.250794 285.292449 
L 390.479585 271.642895 
L 390.708376 290.868791 
L 390.937167 292.658214 
L 391.165958 293.032745 
L 391.62354 294.988626 
L 392.309914 295.238313 
L 392.538705 295.11347 
L 392.767496 294.65571 
L 392.996287 294.447638 
L 393.453869 290.452646 
L 393.68266 292.242069 
L 393.911451 292.033997 
L 394.140242 270.311231 
L 394.369033 287.955776 
L 394.597824 293.948264 
L 394.826615 293.615348 
L 395.055406 293.573733 
L 395.512989 261.530572 
L 395.74178 293.615348 
L 395.970571 246.799041 
L 396.199362 275.929187 
L 396.428153 256.079073 
L 396.656944 246.299667 
L 396.885735 262.15479 
L 397.114526 251.667937 
L 397.343317 287.955776 
L 397.572108 233.27433 
L 397.800899 228.696736 
L 398.258482 257.369123 
L 398.487273 238.767444 
L 398.487273 238.767444 
" style="fill:none;stroke:#1f77b4;stroke-linecap:square;stroke-width:1.5;"/>
   </g>
   <g id="patch_3">
    <path d="M 57.6 307.584 
L 57.6 41.472 
" style="fill:none;stroke:#000000;stroke-linecap:square;stroke-linejoin:miter;stroke-width:0.8;"/>
   </g>
   <g id="patch_4">
    <path d="M 414.72 307.584 
L 414.72 41.472 
" style="fill:none;stroke:#000000;stroke-linecap:square;stroke-linejoin:miter;stroke-width:0.8;"/>
   </g>
   <g id="patch_5">
    <path d="M 57.6 307.584 
L 414.72 307.584 
" style="fill:none;stroke:#000000;stroke-linecap:square;stroke-linejoin:miter;stroke-width:0.8;"/>
   </g>
   <g id="patch_6">
    <path d="M 57.6 41.472 
L 414.72 41.472 
" style="fill:none;stroke:#000000;stroke-linecap:square;stroke-linejoin:miter;stroke-width:0.8;"/>
   </g>
   <g id="text_16">
    <!-- real_8.csv -->
    <defs>
     <path d="M 41.109375 46.296875 
Q 39.59375 47.171875 37.8125 47.578125 
Q 36.03125 48 33.890625 48 
Q 26.265625 48 22.1875 43.046875 
Q 18.109375 38.09375 18.109375 28.8125 
L 18.109375 0 
L 9.078125 0 
L 9.078125 54.6875 
L 18.109375 54.6875 
L 18.109375 46.1875 
Q 20.953125 51.171875 25.484375 53.578125 
Q 30.03125 56 36.53125 56 
Q 37.453125 56 38.578125 55.875 
Q 39.703125 55.765625 41.0625 55.515625 
z
" id="DejaVuSans-72"/>
     <path d="M 56.203125 29.59375 
L 56.203125 25.203125 
L 14.890625 25.203125 
Q 15.484375 15.921875 20.484375 11.0625 
Q 25.484375 6.203125 34.421875 6.203125 
Q 39.59375 6.203125 44.453125 7.46875 
Q 49.3125 8.734375 54.109375 11.28125 
L 54.109375 2.78125 
Q 49.265625 0.734375 44.1875 -0.34375 
Q 39.109375 -1.421875 33.890625 -1.421875 
Q 20.796875 -1.421875 13.15625 6.1875 
Q 5.515625 13.8125 5.515625 26.8125 
Q 5.515625 40.234375 12.765625 48.109375 
Q 20.015625 56 32.328125 56 
Q 43.359375 56 49.78125 48.890625 
Q 56.203125 41.796875 56.203125 29.59375 
z
M 47.21875 32.234375 
Q 47.125 39.59375 43.09375 43.984375 
Q 39.0625 48.390625 32.421875 48.390625 
Q 24.90625 48.390625 20.390625 44.140625 
Q 15.875 39.890625 15.1875 32.171875 
z
" id="DejaVuSans-65"/>
     <path d="M 34.28125 27.484375 
Q 23.390625 27.484375 19.1875 25 
Q 14.984375 22.515625 14.984375 16.5 
Q 14.984375 11.71875 18.140625 8.90625 
Q 21.296875 6.109375 26.703125 6.109375 
Q 34.1875 6.109375 38.703125 11.40625 
Q 43.21875 16.703125 43.21875 25.484375 
L 43.21875 27.484375 
z
M 52.203125 31.203125 
L 52.203125 0 
L 43.21875 0 
L 43.21875 8.296875 
Q 40.140625 3.328125 35.546875 0.953125 
Q 30.953125 -1.421875 24.3125 -1.421875 
Q 15.921875 -1.421875 10.953125 3.296875 
Q 6 8.015625 6 15.921875 
Q 6 25.140625 12.171875 29.828125 
Q 18.359375 34.515625 30.609375 34.515625 
L 43.21875 34.515625 
L 43.21875 35.40625 
Q 43.21875 41.609375 39.140625 45 
Q 35.0625 48.390625 27.6875 48.390625 
Q 23 48.390625 18.546875 47.265625 
Q 14.109375 46.140625 10.015625 43.890625 
L 10.015625 52.203125 
Q 14.9375 54.109375 19.578125 55.046875 
Q 24.21875 56 28.609375 56 
Q 40.484375 56 46.34375 49.84375 
Q 52.203125 43.703125 52.203125 31.203125 
z
" id="DejaVuSans-61"/>
     <path d="M 9.421875 75.984375 
L 18.40625 75.984375 
L 18.40625 0 
L 9.421875 0 
z
" id="DejaVuSans-6c"/>
     <path d="M 50.984375 -16.609375 
L 50.984375 -23.578125 
L -0.984375 -23.578125 
L -0.984375 -16.609375 
z
" id="DejaVuSans-5f"/>
     <path d="M 10.6875 12.40625 
L 21 12.40625 
L 21 0 
L 10.6875 0 
z
" id="DejaVuSans-2e"/>
     <path d="M 48.78125 52.59375 
L 48.78125 44.1875 
Q 44.96875 46.296875 41.140625 47.34375 
Q 37.3125 48.390625 33.40625 48.390625 
Q 24.65625 48.390625 19.8125 42.84375 
Q 14.984375 37.3125 14.984375 27.296875 
Q 14.984375 17.28125 19.8125 11.734375 
Q 24.65625 6.203125 33.40625 6.203125 
Q 37.3125 6.203125 41.140625 7.25 
Q 44.96875 8.296875 48.78125 10.40625 
L 48.78125 2.09375 
Q 45.015625 0.34375 40.984375 -0.53125 
Q 36.96875 -1.421875 32.421875 -1.421875 
Q 20.0625 -1.421875 12.78125 6.34375 
Q 5.515625 14.109375 5.515625 27.296875 
Q 5.515625 40.671875 12.859375 48.328125 
Q 20.21875 56 33.015625 56 
Q 37.15625 56 41.109375 55.140625 
Q 45.0625 54.296875 48.78125 52.59375 
z
" id="DejaVuSans-63"/>
     <path d="M 44.28125 53.078125 
L 44.28125 44.578125 
Q 40.484375 46.53125 36.375 47.5 
Q 32.28125 48.484375 27.875 48.484375 
Q 21.1875 48.484375 17.84375 46.4375 
Q 14.5 44.390625 14.5 40.28125 
Q 14.5 37.15625 16.890625 35.375 
Q 19.28125 33.59375 26.515625 31.984375 
L 29.59375 31.296875 
Q 39.15625 29.25 43.1875 25.515625 
Q 47.21875 21.78125 47.21875 15.09375 
Q 47.21875 7.46875 41.1875 3.015625 
Q 35.15625 -1.421875 24.609375 -1.421875 
Q 20.21875 -1.421875 15.453125 -0.5625 
Q 10.6875 0.296875 5.421875 2 
L 5.421875 11.28125 
Q 10.40625 8.6875 15.234375 7.390625 
Q 20.0625 6.109375 24.8125 6.109375 
Q 31.15625 6.109375 34.5625 8.28125 
Q 37.984375 10.453125 37.984375 14.40625 
Q 37.984375 18.0625 35.515625 20.015625 
Q 33.0625 21.96875 24.703125 23.78125 
L 21.578125 24.515625 
Q 13.234375 26.265625 9.515625 29.90625 
Q 5.8125 33.546875 5.8125 39.890625 
Q 5.8125 47.609375 11.28125 51.796875 
Q 16.75 56 26.8125 56 
Q 31.78125 56 36.171875 55.265625 
Q 40.578125 54.546875 44.28125 53.078125 
z
" id="DejaVuSans-73"/>
     <path d="M 2.984375 54.6875 
L 12.5 54.6875 
L 29.59375 8.796875 
L 46.6875 54.6875 
L 56.203125 54.6875 
L 35.6875 0 
L 23.484375 0 
z
" id="DejaVuSans-76"/>
    </defs>
    <g transform="translate(205.959375 35.472)scale(0.12 -0.12)">
     <use xlink:href="#DejaVuSans-72"/>
     <use x="41.082031" xlink:href="#DejaVuSans-65"/>
     <use x="102.605469" xlink:href="#DejaVuSans-61"/>
     <use x="163.884766" xlink:href="#DejaVuSans-6c"/>
     <use x="191.667969" xlink:href="#DejaVuSans-5f"/>
     <use x="241.667969" xlink:href="#DejaVuSans-38"/>
     <use x="305.291016" xlink:href="#DejaVuSans-2e"/>
     <use x="337.078125" xlink:href="#DejaVuSans-63"/>
     <use x="392.058594" xlink:href="#DejaVuSans-73"/>
     <use x="444.158203" xlink:href="#DejaVuSans-76"/>
    </g>
   </g>
   <g id="PathCollection_1">
    <defs>
     <path d="M -4.472136 4.472136 
L 4.472136 -4.472136 
M -4.472136 -4.472136 
L 4.472136 4.472136 
" id="m608243b6ff" style="stroke:#ffa500;stroke-width:1.5;"/>
    </defs>
    <g clip-path="url(#p3238041580)">
     <use style="fill:#ffa500;stroke:#ffa500;stroke-width:1.5;" x="275.626462" xlink:href="#m608243b6ff" y="107.681785"/>
     <use style="fill:#ffa500;stroke:#ffa500;stroke-width:1.5;" x="275.855253" xlink:href="#m608243b6ff" y="71.06103"/>
     <use style="fill:#ffa500;stroke:#ffa500;stroke-width:1.5;" x="287.752389" xlink:href="#m608243b6ff" y="70.270354"/>
     <use style="fill:#ffa500;stroke:#ffa500;stroke-width:1.5;" x="351.813892" xlink:href="#m608243b6ff" y="149.129822"/>
     <use style="fill:#ffa500;stroke:#ffa500;stroke-width:1.5;" x="352.042683" xlink:href="#m608243b6ff" y="83.753451"/>
     <use style="fill:#ffa500;stroke:#ffa500;stroke-width:1.5;" x="352.271474" xlink:href="#m608243b6ff" y="107.26564"/>
     <use style="fill:#ffa500;stroke:#ffa500;stroke-width:1.5;" x="352.500265" xlink:href="#m608243b6ff" y="94.614834"/>
     <use style="fill:#ffa500;stroke:#ffa500;stroke-width:1.5;" x="352.729056" xlink:href="#m608243b6ff" y="110.761258"/>
     <use style="fill:#ffa500;stroke:#ffa500;stroke-width:1.5;" x="352.957847" xlink:href="#m608243b6ff" y="56.745644"/>
     <use style="fill:#ffa500;stroke:#ffa500;stroke-width:1.5;" x="353.186638" xlink:href="#m608243b6ff" y="84.419283"/>
    </g>
   </g>
  </g>
 </g>
 <defs>
  <clipPath id="p3238041580">
   <rect height="266.112" width="357.12" x="57.6" y="41.472"/>
  </clipPath>
 </defs>
</svg>
