<?xml version="1.0" encoding="utf-8" standalone="no"?>
<!DOCTYPE svg PUBLIC "-//W3C//DTD SVG 1.1//EN"
  "http://www.w3.org/Graphics/SVG/1.1/DTD/svg11.dtd">
<!-- Created with matplotlib (http://matplotlib.org/) -->
<svg height="345.6pt" version="1.1" viewBox="0 0 460.8 345.6" width="460.8pt" xmlns="http://www.w3.org/2000/svg" xmlns:xlink="http://www.w3.org/1999/xlink">
 <defs>
  <style type="text/css">
*{stroke-linecap:butt;stroke-linejoin:round;}
  </style>
 </defs>
 <g id="figure_1">
  <g id="patch_1">
   <path d="M 0 345.6 
L 460.8 345.6 
L 460.8 0 
L 0 0 
z
" style="fill:#ffffff;"/>
  </g>
  <g id="axes_1">
   <g id="patch_2">
    <path d="M 57.6 307.584 
L 414.72 307.584 
L 414.72 41.472 
L 57.6 41.472 
z
" style="fill:#ffffff;"/>
   </g>
   <g id="matplotlib.axis_1">
    <g id="xtick_1">
     <g id="line2d_1">
      <defs>
       <path d="M 0 0 
L 0 3.5 
" id="m8ca320e697" style="stroke:#000000;stroke-width:0.8;"/>
      </defs>
      <g>
       <use style="stroke:#000000;stroke-width:0.8;" x="73.603936" xlink:href="#m8ca320e697" y="307.584"/>
      </g>
     </g>
     <g id="text_1">
      <!-- 0 -->
      <defs>
       <path d="M 31.78125 66.40625 
Q 24.171875 66.40625 20.328125 58.90625 
Q 16.5 51.421875 16.5 36.375 
Q 16.5 21.390625 20.328125 13.890625 
Q 24.171875 6.390625 31.78125 6.390625 
Q 39.453125 6.390625 43.28125 13.890625 
Q 47.125 21.390625 47.125 36.375 
Q 47.125 51.421875 43.28125 58.90625 
Q 39.453125 66.40625 31.78125 66.40625 
z
M 31.78125 74.21875 
Q 44.046875 74.21875 50.515625 64.515625 
Q 56.984375 54.828125 56.984375 36.375 
Q 56.984375 17.96875 50.515625 8.265625 
Q 44.046875 -1.421875 31.78125 -1.421875 
Q 19.53125 -1.421875 13.0625 8.265625 
Q 6.59375 17.96875 6.59375 36.375 
Q 6.59375 54.828125 13.0625 64.515625 
Q 19.53125 74.21875 31.78125 74.21875 
z
" id="DejaVuSans-30"/>
      </defs>
      <g transform="translate(70.422686 322.182437)scale(0.1 -0.1)">
       <use xlink:href="#DejaVuSans-30"/>
      </g>
     </g>
    </g>
    <g id="xtick_2">
     <g id="line2d_2">
      <g>
       <use style="stroke:#000000;stroke-width:0.8;" x="119.362153" xlink:href="#m8ca320e697" y="307.584"/>
      </g>
     </g>
     <g id="text_2">
      <!-- 200 -->
      <defs>
       <path d="M 19.1875 8.296875 
L 53.609375 8.296875 
L 53.609375 0 
L 7.328125 0 
L 7.328125 8.296875 
Q 12.9375 14.109375 22.625 23.890625 
Q 32.328125 33.6875 34.8125 36.53125 
Q 39.546875 41.84375 41.421875 45.53125 
Q 43.3125 49.21875 43.3125 52.78125 
Q 43.3125 58.59375 39.234375 62.25 
Q 35.15625 65.921875 28.609375 65.921875 
Q 23.96875 65.921875 18.8125 64.3125 
Q 13.671875 62.703125 7.8125 59.421875 
L 7.8125 69.390625 
Q 13.765625 71.78125 18.9375 73 
Q 24.125 74.21875 28.421875 74.21875 
Q 39.75 74.21875 46.484375 68.546875 
Q 53.21875 62.890625 53.21875 53.421875 
Q 53.21875 48.921875 51.53125 44.890625 
Q 49.859375 40.875 45.40625 35.40625 
Q 44.1875 33.984375 37.640625 27.21875 
Q 31.109375 20.453125 19.1875 8.296875 
z
" id="DejaVuSans-32"/>
      </defs>
      <g transform="translate(109.818403 322.182437)scale(0.1 -0.1)">
       <use xlink:href="#DejaVuSans-32"/>
       <use x="63.623047" xlink:href="#DejaVuSans-30"/>
       <use x="127.246094" xlink:href="#DejaVuSans-30"/>
      </g>
     </g>
    </g>
    <g id="xtick_3">
     <g id="line2d_3">
      <g>
       <use style="stroke:#000000;stroke-width:0.8;" x="165.120369" xlink:href="#m8ca320e697" y="307.584"/>
      </g>
     </g>
     <g id="text_3">
      <!-- 400 -->
      <defs>
       <path d="M 37.796875 64.3125 
L 12.890625 25.390625 
L 37.796875 25.390625 
z
M 35.203125 72.90625 
L 47.609375 72.90625 
L 47.609375 25.390625 
L 58.015625 25.390625 
L 58.015625 17.1875 
L 47.609375 17.1875 
L 47.609375 0 
L 37.796875 0 
L 37.796875 17.1875 
L 4.890625 17.1875 
L 4.890625 26.703125 
z
" id="DejaVuSans-34"/>
      </defs>
      <g transform="translate(155.576619 322.182437)scale(0.1 -0.1)">
       <use xlink:href="#DejaVuSans-34"/>
       <use x="63.623047" xlink:href="#DejaVuSans-30"/>
       <use x="127.246094" xlink:href="#DejaVuSans-30"/>
      </g>
     </g>
    </g>
    <g id="xtick_4">
     <g id="line2d_4">
      <g>
       <use style="stroke:#000000;stroke-width:0.8;" x="210.878585" xlink:href="#m8ca320e697" y="307.584"/>
      </g>
     </g>
     <g id="text_4">
      <!-- 600 -->
      <defs>
       <path d="M 33.015625 40.375 
Q 26.375 40.375 22.484375 35.828125 
Q 18.609375 31.296875 18.609375 23.390625 
Q 18.609375 15.53125 22.484375 10.953125 
Q 26.375 6.390625 33.015625 6.390625 
Q 39.65625 6.390625 43.53125 10.953125 
Q 47.40625 15.53125 47.40625 23.390625 
Q 47.40625 31.296875 43.53125 35.828125 
Q 39.65625 40.375 33.015625 40.375 
z
M 52.59375 71.296875 
L 52.59375 62.3125 
Q 48.875 64.0625 45.09375 64.984375 
Q 41.3125 65.921875 37.59375 65.921875 
Q 27.828125 65.921875 22.671875 59.328125 
Q 17.53125 52.734375 16.796875 39.40625 
Q 19.671875 43.65625 24.015625 45.921875 
Q 28.375 48.1875 33.59375 48.1875 
Q 44.578125 48.1875 50.953125 41.515625 
Q 57.328125 34.859375 57.328125 23.390625 
Q 57.328125 12.15625 50.6875 5.359375 
Q 44.046875 -1.421875 33.015625 -1.421875 
Q 20.359375 -1.421875 13.671875 8.265625 
Q 6.984375 17.96875 6.984375 36.375 
Q 6.984375 53.65625 15.1875 63.9375 
Q 23.390625 74.21875 37.203125 74.21875 
Q 40.921875 74.21875 44.703125 73.484375 
Q 48.484375 72.75 52.59375 71.296875 
z
" id="DejaVuSans-36"/>
      </defs>
      <g transform="translate(201.334835 322.182437)scale(0.1 -0.1)">
       <use xlink:href="#DejaVuSans-36"/>
       <use x="63.623047" xlink:href="#DejaVuSans-30"/>
       <use x="127.246094" xlink:href="#DejaVuSans-30"/>
      </g>
     </g>
    </g>
    <g id="xtick_5">
     <g id="line2d_5">
      <g>
       <use style="stroke:#000000;stroke-width:0.8;" x="256.636802" xlink:href="#m8ca320e697" y="307.584"/>
      </g>
     </g>
     <g id="text_5">
      <!-- 800 -->
      <defs>
       <path d="M 31.78125 34.625 
Q 24.75 34.625 20.71875 30.859375 
Q 16.703125 27.09375 16.703125 20.515625 
Q 16.703125 13.921875 20.71875 10.15625 
Q 24.75 6.390625 31.78125 6.390625 
Q 38.8125 6.390625 42.859375 10.171875 
Q 46.921875 13.96875 46.921875 20.515625 
Q 46.921875 27.09375 42.890625 30.859375 
Q 38.875 34.625 31.78125 34.625 
z
M 21.921875 38.8125 
Q 15.578125 40.375 12.03125 44.71875 
Q 8.5 49.078125 8.5 55.328125 
Q 8.5 64.0625 14.71875 69.140625 
Q 20.953125 74.21875 31.78125 74.21875 
Q 42.671875 74.21875 48.875 69.140625 
Q 55.078125 64.0625 55.078125 55.328125 
Q 55.078125 49.078125 51.53125 44.71875 
Q 48 40.375 41.703125 38.8125 
Q 48.828125 37.15625 52.796875 32.3125 
Q 56.78125 27.484375 56.78125 20.515625 
Q 56.78125 9.90625 50.3125 4.234375 
Q 43.84375 -1.421875 31.78125 -1.421875 
Q 19.734375 -1.421875 13.25 4.234375 
Q 6.78125 9.90625 6.78125 20.515625 
Q 6.78125 27.484375 10.78125 32.3125 
Q 14.796875 37.15625 21.921875 38.8125 
z
M 18.3125 54.390625 
Q 18.3125 48.734375 21.84375 45.5625 
Q 25.390625 42.390625 31.78125 42.390625 
Q 38.140625 42.390625 41.71875 45.5625 
Q 45.3125 48.734375 45.3125 54.390625 
Q 45.3125 60.0625 41.71875 63.234375 
Q 38.140625 66.40625 31.78125 66.40625 
Q 25.390625 66.40625 21.84375 63.234375 
Q 18.3125 60.0625 18.3125 54.390625 
z
" id="DejaVuSans-38"/>
      </defs>
      <g transform="translate(247.093052 322.182437)scale(0.1 -0.1)">
       <use xlink:href="#DejaVuSans-38"/>
       <use x="63.623047" xlink:href="#DejaVuSans-30"/>
       <use x="127.246094" xlink:href="#DejaVuSans-30"/>
      </g>
     </g>
    </g>
    <g id="xtick_6">
     <g id="line2d_6">
      <g>
       <use style="stroke:#000000;stroke-width:0.8;" x="302.395018" xlink:href="#m8ca320e697" y="307.584"/>
      </g>
     </g>
     <g id="text_6">
      <!-- 1000 -->
      <defs>
       <path d="M 12.40625 8.296875 
L 28.515625 8.296875 
L 28.515625 63.921875 
L 10.984375 60.40625 
L 10.984375 69.390625 
L 28.421875 72.90625 
L 38.28125 72.90625 
L 38.28125 8.296875 
L 54.390625 8.296875 
L 54.390625 0 
L 12.40625 0 
z
" id="DejaVuSans-31"/>
      </defs>
      <g transform="translate(289.670018 322.182437)scale(0.1 -0.1)">
       <use xlink:href="#DejaVuSans-31"/>
       <use x="63.623047" xlink:href="#DejaVuSans-30"/>
       <use x="127.246094" xlink:href="#DejaVuSans-30"/>
       <use x="190.869141" xlink:href="#DejaVuSans-30"/>
      </g>
     </g>
    </g>
    <g id="xtick_7">
     <g id="line2d_7">
      <g>
       <use style="stroke:#000000;stroke-width:0.8;" x="348.153235" xlink:href="#m8ca320e697" y="307.584"/>
      </g>
     </g>
     <g id="text_7">
      <!-- 1200 -->
      <g transform="translate(335.428235 322.182437)scale(0.1 -0.1)">
       <use xlink:href="#DejaVuSans-31"/>
       <use x="63.623047" xlink:href="#DejaVuSans-32"/>
       <use x="127.246094" xlink:href="#DejaVuSans-30"/>
       <use x="190.869141" xlink:href="#DejaVuSans-30"/>
      </g>
     </g>
    </g>
    <g id="xtick_8">
     <g id="line2d_8">
      <g>
       <use style="stroke:#000000;stroke-width:0.8;" x="393.911451" xlink:href="#m8ca320e697" y="307.584"/>
      </g>
     </g>
     <g id="text_8">
      <!-- 1400 -->
      <g transform="translate(381.186451 322.182437)scale(0.1 -0.1)">
       <use xlink:href="#DejaVuSans-31"/>
       <use x="63.623047" xlink:href="#DejaVuSans-34"/>
       <use x="127.246094" xlink:href="#DejaVuSans-30"/>
       <use x="190.869141" xlink:href="#DejaVuSans-30"/>
      </g>
     </g>
    </g>
   </g>
   <g id="matplotlib.axis_2">
    <g id="ytick_1">
     <g id="line2d_9">
      <defs>
       <path d="M 0 0 
L -3.5 0 
" id="m415f0577ff" style="stroke:#000000;stroke-width:0.8;"/>
      </defs>
      <g>
       <use style="stroke:#000000;stroke-width:0.8;" x="57.6" xlink:href="#m415f0577ff" y="295.488"/>
      </g>
     </g>
     <g id="text_9">
      <!-- 0.0 -->
      <defs>
       <path d="M 10.6875 12.40625 
L 21 12.40625 
L 21 0 
L 10.6875 0 
z
" id="DejaVuSans-2e"/>
      </defs>
      <g transform="translate(34.696875 299.287219)scale(0.1 -0.1)">
       <use xlink:href="#DejaVuSans-30"/>
       <use x="63.623047" xlink:href="#DejaVuSans-2e"/>
       <use x="95.410156" xlink:href="#DejaVuSans-30"/>
      </g>
     </g>
    </g>
    <g id="ytick_2">
     <g id="line2d_10">
      <g>
       <use style="stroke:#000000;stroke-width:0.8;" x="57.6" xlink:href="#m415f0577ff" y="265.157128"/>
      </g>
     </g>
     <g id="text_10">
      <!-- 0.1 -->
      <g transform="translate(34.696875 268.956347)scale(0.1 -0.1)">
       <use xlink:href="#DejaVuSans-30"/>
       <use x="63.623047" xlink:href="#DejaVuSans-2e"/>
       <use x="95.410156" xlink:href="#DejaVuSans-31"/>
      </g>
     </g>
    </g>
    <g id="ytick_3">
     <g id="line2d_11">
      <g>
       <use style="stroke:#000000;stroke-width:0.8;" x="57.6" xlink:href="#m415f0577ff" y="234.826256"/>
      </g>
     </g>
     <g id="text_11">
      <!-- 0.2 -->
      <g transform="translate(34.696875 238.625475)scale(0.1 -0.1)">
       <use xlink:href="#DejaVuSans-30"/>
       <use x="63.623047" xlink:href="#DejaVuSans-2e"/>
       <use x="95.410156" xlink:href="#DejaVuSans-32"/>
      </g>
     </g>
    </g>
    <g id="ytick_4">
     <g id="line2d_12">
      <g>
       <use style="stroke:#000000;stroke-width:0.8;" x="57.6" xlink:href="#m415f0577ff" y="204.495384"/>
      </g>
     </g>
     <g id="text_12">
      <!-- 0.3 -->
      <defs>
       <path d="M 40.578125 39.3125 
Q 47.65625 37.796875 51.625 33 
Q 55.609375 28.21875 55.609375 21.1875 
Q 55.609375 10.40625 48.1875 4.484375 
Q 40.765625 -1.421875 27.09375 -1.421875 
Q 22.515625 -1.421875 17.65625 -0.515625 
Q 12.796875 0.390625 7.625 2.203125 
L 7.625 11.71875 
Q 11.71875 9.328125 16.59375 8.109375 
Q 21.484375 6.890625 26.8125 6.890625 
Q 36.078125 6.890625 40.9375 10.546875 
Q 45.796875 14.203125 45.796875 21.1875 
Q 45.796875 27.640625 41.28125 31.265625 
Q 36.765625 34.90625 28.71875 34.90625 
L 20.21875 34.90625 
L 20.21875 43.015625 
L 29.109375 43.015625 
Q 36.375 43.015625 40.234375 45.921875 
Q 44.09375 48.828125 44.09375 54.296875 
Q 44.09375 59.90625 40.109375 62.90625 
Q 36.140625 65.921875 28.71875 65.921875 
Q 24.65625 65.921875 20.015625 65.03125 
Q 15.375 64.15625 9.8125 62.3125 
L 9.8125 71.09375 
Q 15.4375 72.65625 20.34375 73.4375 
Q 25.25 74.21875 29.59375 74.21875 
Q 40.828125 74.21875 47.359375 69.109375 
Q 53.90625 64.015625 53.90625 55.328125 
Q 53.90625 49.265625 50.4375 45.09375 
Q 46.96875 40.921875 40.578125 39.3125 
z
" id="DejaVuSans-33"/>
      </defs>
      <g transform="translate(34.696875 208.294603)scale(0.1 -0.1)">
       <use xlink:href="#DejaVuSans-30"/>
       <use x="63.623047" xlink:href="#DejaVuSans-2e"/>
       <use x="95.410156" xlink:href="#DejaVuSans-33"/>
      </g>
     </g>
    </g>
    <g id="ytick_5">
     <g id="line2d_13">
      <g>
       <use style="stroke:#000000;stroke-width:0.8;" x="57.6" xlink:href="#m415f0577ff" y="174.164513"/>
      </g>
     </g>
     <g id="text_13">
      <!-- 0.4 -->
      <g transform="translate(34.696875 177.963731)scale(0.1 -0.1)">
       <use xlink:href="#DejaVuSans-30"/>
       <use x="63.623047" xlink:href="#DejaVuSans-2e"/>
       <use x="95.410156" xlink:href="#DejaVuSans-34"/>
      </g>
     </g>
    </g>
    <g id="ytick_6">
     <g id="line2d_14">
      <g>
       <use style="stroke:#000000;stroke-width:0.8;" x="57.6" xlink:href="#m415f0577ff" y="143.833641"/>
      </g>
     </g>
     <g id="text_14">
      <!-- 0.5 -->
      <defs>
       <path d="M 10.796875 72.90625 
L 49.515625 72.90625 
L 49.515625 64.59375 
L 19.828125 64.59375 
L 19.828125 46.734375 
Q 21.96875 47.46875 24.109375 47.828125 
Q 26.265625 48.1875 28.421875 48.1875 
Q 40.625 48.1875 47.75 41.5 
Q 54.890625 34.8125 54.890625 23.390625 
Q 54.890625 11.625 47.5625 5.09375 
Q 40.234375 -1.421875 26.90625 -1.421875 
Q 22.3125 -1.421875 17.546875 -0.640625 
Q 12.796875 0.140625 7.71875 1.703125 
L 7.71875 11.625 
Q 12.109375 9.234375 16.796875 8.0625 
Q 21.484375 6.890625 26.703125 6.890625 
Q 35.15625 6.890625 40.078125 11.328125 
Q 45.015625 15.765625 45.015625 23.390625 
Q 45.015625 31 40.078125 35.4375 
Q 35.15625 39.890625 26.703125 39.890625 
Q 22.75 39.890625 18.8125 39.015625 
Q 14.890625 38.140625 10.796875 36.28125 
z
" id="DejaVuSans-35"/>
      </defs>
      <g transform="translate(34.696875 147.632859)scale(0.1 -0.1)">
       <use xlink:href="#DejaVuSans-30"/>
       <use x="63.623047" xlink:href="#DejaVuSans-2e"/>
       <use x="95.410156" xlink:href="#DejaVuSans-35"/>
      </g>
     </g>
    </g>
    <g id="ytick_7">
     <g id="line2d_15">
      <g>
       <use style="stroke:#000000;stroke-width:0.8;" x="57.6" xlink:href="#m415f0577ff" y="113.502769"/>
      </g>
     </g>
     <g id="text_15">
      <!-- 0.6 -->
      <g transform="translate(34.696875 117.301988)scale(0.1 -0.1)">
       <use xlink:href="#DejaVuSans-30"/>
       <use x="63.623047" xlink:href="#DejaVuSans-2e"/>
       <use x="95.410156" xlink:href="#DejaVuSans-36"/>
      </g>
     </g>
    </g>
    <g id="ytick_8">
     <g id="line2d_16">
      <g>
       <use style="stroke:#000000;stroke-width:0.8;" x="57.6" xlink:href="#m415f0577ff" y="83.171897"/>
      </g>
     </g>
     <g id="text_16">
      <!-- 0.7 -->
      <defs>
       <path d="M 8.203125 72.90625 
L 55.078125 72.90625 
L 55.078125 68.703125 
L 28.609375 0 
L 18.3125 0 
L 43.21875 64.59375 
L 8.203125 64.59375 
z
" id="DejaVuSans-37"/>
      </defs>
      <g transform="translate(34.696875 86.971116)scale(0.1 -0.1)">
       <use xlink:href="#DejaVuSans-30"/>
       <use x="63.623047" xlink:href="#DejaVuSans-2e"/>
       <use x="95.410156" xlink:href="#DejaVuSans-37"/>
      </g>
     </g>
    </g>
    <g id="ytick_9">
     <g id="line2d_17">
      <g>
       <use style="stroke:#000000;stroke-width:0.8;" x="57.6" xlink:href="#m415f0577ff" y="52.841025"/>
      </g>
     </g>
     <g id="text_17">
      <!-- 0.8 -->
      <g transform="translate(34.696875 56.640244)scale(0.1 -0.1)">
       <use xlink:href="#DejaVuSans-30"/>
       <use x="63.623047" xlink:href="#DejaVuSans-2e"/>
       <use x="95.410156" xlink:href="#DejaVuSans-38"/>
      </g>
     </g>
    </g>
   </g>
   <g id="line2d_18">
    <path clip-path="url(#pec4571685a)" d="M 73.832727 295.488 
L 74.290309 243.228893 
L 74.519101 226.873697 
L 74.747892 241.997086 
L 74.976683 268.041216 
L 75.205474 269.825067 
L 75.434265 274.733497 
L 75.663056 255.05613 
L 75.891847 269.698695 
L 76.120638 266.044892 
L 76.349429 295.488 
L 76.57822 286.066088 
L 76.807011 290.109502 
L 77.264594 268.836144 
L 77.493385 260.465501 
L 77.950967 283.236577 
L 78.179758 268.459142 
L 78.408549 265.75463 
L 78.63734 281.189832 
L 78.866131 263.697367 
L 79.094922 233.373751 
L 79.323713 281.884299 
L 79.552504 263.530722 
L 79.781295 269.898184 
L 80.010086 265.769607 
L 80.238878 264.654466 
L 80.467669 278.270828 
L 80.925251 267.812762 
L 81.154042 266.816429 
L 81.382833 290.441546 
L 81.840415 275.925251 
L 82.069206 286.259407 
L 82.297997 266.545308 
L 82.755579 284.967366 
L 82.984371 268.322318 
L 83.441953 276.701272 
L 83.670744 260.852907 
L 83.899535 263.713603 
L 84.128326 271.327046 
L 84.357117 251.582406 
L 84.585908 252.366255 
L 84.814699 272.142437 
L 85.04349 276.096644 
L 85.272281 250.072733 
L 85.501072 282.907106 
L 85.729864 268.39708 
L 85.958655 268.548044 
L 86.187446 278.844542 
L 86.416237 271.485503 
L 86.645028 245.994093 
L 86.873819 269.18529 
L 87.10261 273.225155 
L 87.331401 295.488 
L 87.788983 278.838204 
L 88.017774 274.707072 
L 88.246565 279.475077 
L 88.475357 288.253172 
L 88.704148 272.963914 
L 88.932939 288.139258 
L 89.390521 247.168933 
L 89.848103 264.694456 
L 90.076894 283.310624 
L 90.305685 269.03694 
L 90.763267 277.579277 
L 90.992058 276.536756 
L 91.22085 268.564718 
L 91.449641 279.911753 
L 91.907223 267.639 
L 92.136014 250.711158 
L 92.364805 273.950034 
L 92.822387 269.971924 
L 93.051178 276.29183 
L 93.279969 278.079929 
L 93.50876 282.803812 
L 93.737551 273.125143 
L 93.966342 248.883749 
L 94.195134 277.181542 
L 94.423925 263.202042 
L 94.652716 277.49746 
L 94.881507 266.281249 
L 95.110298 269.675996 
L 95.339089 261.671892 
L 95.56788 272.35556 
L 95.796671 265.778268 
L 96.025462 243.167179 
L 96.254253 260.943617 
L 96.483044 268.190331 
L 96.711835 280.732221 
L 96.940627 253.444059 
L 97.169418 262.463881 
L 97.398209 279.038002 
L 97.627 283.657731 
L 97.855791 272.900203 
L 98.313373 295.488 
L 98.770955 281.138474 
L 98.999746 290.452237 
L 99.228537 282.617829 
L 99.457328 279.961098 
L 99.68612 295.488 
L 99.914911 278.282864 
L 100.143702 278.572152 
L 100.372493 270.915513 
L 100.601284 270.454021 
L 100.830075 260.609913 
L 101.058866 272.228729 
L 101.287657 274.238962 
L 101.516448 274.160916 
L 101.745239 267.59984 
L 101.97403 251.324466 
L 102.202821 266.74212 
L 102.431613 264.495947 
L 102.660404 280.764658 
L 102.889195 274.632326 
L 103.117986 272.606183 
L 103.346777 259.784501 
L 103.804359 295.488 
L 104.261941 295.488 
L 105.177106 259.54115 
L 105.405897 274.743096 
L 105.634688 281.170017 
L 105.863479 271.494313 
L 106.09227 274.999313 
L 106.321061 271.021126 
L 106.549852 281.847031 
L 106.778643 275.550129 
L 107.007434 274.6326 
L 107.236225 287.214277 
L 107.465016 274.955345 
L 107.693807 273.514284 
L 107.922599 286.727555 
L 108.15139 288.946196 
L 108.380181 275.999012 
L 108.608972 273.082842 
L 108.837763 287.406629 
L 109.066554 279.931339 
L 109.295345 265.394516 
L 109.524136 290.448281 
L 109.752927 271.712434 
L 109.981718 295.488 
L 110.210509 280.509328 
L 110.4393 282.432158 
L 110.668091 282.702006 
L 110.896883 282.67729 
L 111.354465 242.77861 
L 111.583256 259.074213 
L 111.812047 251.535116 
L 112.040838 273.234418 
L 112.49842 249.756839 
L 112.727211 237.980451 
L 112.956002 277.133731 
L 113.413584 270.507167 
L 113.642376 258.048254 
L 113.871167 262.978832 
L 114.099958 264.067053 
L 114.328749 289.069249 
L 114.786331 257.007018 
L 115.015122 282.824067 
L 115.243913 295.488 
L 115.701495 270.413777 
L 115.930286 276.739389 
L 116.159077 295.488 
L 116.61666 258.764474 
L 116.845451 295.488 
L 117.074242 235.31052 
L 117.303033 234.485355 
L 117.531824 266.117564 
L 117.760615 264.130577 
L 117.989406 264.724871 
L 118.218197 265.826608 
L 118.446988 250.767701 
L 118.675779 270.19316 
L 118.90457 266.480313 
L 119.133362 250.692808 
L 119.590944 273.125143 
L 120.048526 278.496658 
L 120.277317 272.796825 
L 120.506108 287.937468 
L 120.734899 288.300847 
L 121.192481 265.1305 
L 121.421272 275.297717 
L 121.650063 274.104387 
L 122.107646 259.686489 
L 122.336437 264.924349 
L 122.565228 279.348728 
L 122.794019 265.355316 
L 123.02281 281.149005 
L 123.251601 267.807376 
L 123.480392 283.78234 
L 123.709183 274.173311 
L 123.937974 286.561052 
L 124.166765 266.111104 
L 124.395556 260.132961 
L 124.624347 258.76018 
L 124.853139 233.668968 
L 125.08193 281.441237 
L 125.310721 240.099866 
L 125.539512 288.817407 
L 125.768303 268.774916 
L 125.997094 283.993661 
L 126.225885 265.512474 
L 126.454676 272.352312 
L 126.683467 288.549516 
L 126.912258 265.089908 
L 127.141049 270.867823 
L 127.36984 265.913374 
L 127.598632 278.257872 
L 128.056214 243.45584 
L 128.285005 272.735117 
L 128.513796 260.945959 
L 128.742587 263.582871 
L 128.971378 260.591331 
L 129.200169 262.45607 
L 129.42896 265.35409 
L 129.657751 256.392131 
L 129.886542 258.880524 
L 130.115333 255.897007 
L 130.344125 271.533357 
L 130.572916 270.955128 
L 130.801707 283.328487 
L 131.030498 280.12928 
L 131.48808 286.809806 
L 131.716871 283.175678 
L 131.945662 283.717373 
L 132.174453 271.730446 
L 132.403244 275.372264 
L 132.632035 270.26012 
L 133.318409 282.103256 
L 133.5472 284.05754 
L 133.775991 267.154549 
L 134.004782 274.295568 
L 134.233573 288.817407 
L 134.462364 261.197232 
L 134.691155 286.120572 
L 134.919946 264.000377 
L 135.148737 280.639895 
L 135.377528 282.670539 
L 135.606319 280.81129 
L 135.835111 285.1155 
L 136.063902 268.687784 
L 136.292693 269.133348 
L 136.521484 286.058871 
L 136.750275 273.865891 
L 136.979066 251.8946 
L 137.207857 257.126977 
L 137.436648 282.489847 
L 137.665439 283.376765 
L 137.89423 272.380533 
L 138.123021 284.013825 
L 138.351812 286.120572 
L 138.580603 280.833169 
L 138.809395 262.164728 
L 139.038186 287.758176 
L 139.266977 257.720733 
L 139.495768 256.434907 
L 139.724559 247.805931 
L 139.95335 271.498702 
L 140.182141 250.866738 
L 140.410932 279.369842 
L 140.639723 264.743881 
L 140.868514 279.376448 
L 141.097305 261.173618 
L 141.326096 272.205966 
L 141.783679 264.867313 
L 142.01247 247.912731 
L 142.470052 278.867262 
L 142.698843 269.824089 
L 142.927634 247.594263 
L 143.156425 288.91375 
L 143.385216 252.684923 
L 143.614007 277.407127 
L 143.842798 274.912783 
L 144.071589 281.106781 
L 144.300381 280.216809 
L 144.529172 273.356425 
L 144.757963 262.992938 
L 144.986754 273.157655 
L 145.215545 260.4362 
L 145.444336 285.126826 
L 145.673127 289.551661 
L 145.901918 247.804848 
L 146.3595 269.27736 
L 146.588291 267.3997 
L 146.817082 281.396708 
L 147.045874 262.19128 
L 147.274665 261.851035 
L 147.503456 272.238539 
L 147.732247 262.512203 
L 147.961038 260.693549 
L 148.189829 261.91165 
L 148.41862 287.350918 
L 148.647411 286.562646 
L 148.876202 286.809806 
L 149.104993 279.380432 
L 149.333784 278.642792 
L 149.562575 262.094649 
L 149.791367 262.184769 
L 150.020158 284.516043 
L 150.248949 280.81959 
L 150.47774 262.251049 
L 150.706531 281.139877 
L 150.935322 281.742999 
L 151.164113 255.284264 
L 151.392904 271.315634 
L 151.621695 264.315886 
L 151.850486 249.806295 
L 152.079277 251.480423 
L 152.308068 278.974281 
L 152.53686 270.598851 
L 152.765651 282.70314 
L 152.994442 278.076653 
L 153.223233 283.085125 
L 153.452024 281.770973 
L 153.680815 295.488 
L 153.909606 295.488 
L 154.138397 264.139659 
L 154.367188 285.222146 
L 154.595979 287.551282 
L 155.053561 257.695874 
L 155.282352 278.881648 
L 155.511144 232.402496 
L 155.739935 264.204038 
L 155.968726 258.445958 
L 156.197517 237.376906 
L 156.655099 276.04934 
L 156.88389 266.509834 
L 157.112681 283.549679 
L 157.341472 269.217983 
L 157.570263 277.758066 
L 157.799054 279.870391 
L 158.256637 264.069387 
L 158.485428 276.438262 
L 158.714219 268.28018 
L 158.94301 266.820074 
L 159.171801 285.684452 
L 159.629383 276.682491 
L 159.858174 287.267509 
L 160.086965 284.962243 
L 160.315756 275.398038 
L 160.544547 285.712252 
L 160.773338 260.426531 
L 161.00213 288.829615 
L 161.230921 255.003228 
L 161.459712 263.399732 
L 161.688503 263.097555 
L 162.146085 281.233952 
L 162.374876 252.540577 
L 162.603667 271.678254 
L 162.832458 280.555416 
L 163.061249 271.594069 
L 163.29004 268.210132 
L 163.518831 270.656369 
L 163.747623 251.338186 
L 163.976414 295.488 
L 164.205205 295.488 
L 164.433996 286.178379 
L 164.662787 295.488 
L 164.891578 281.232658 
L 165.120369 286.747983 
L 165.34916 295.488 
L 165.577951 283.549679 
L 165.806742 283.485822 
L 166.035533 267.99026 
L 166.264324 263.517505 
L 166.493116 276.500386 
L 166.721907 279.88099 
L 166.950698 278.917711 
L 167.179489 268.136157 
L 167.40828 281.751899 
L 167.637071 285.374262 
L 167.865862 271.193459 
L 168.094653 287.856055 
L 168.323444 271.750819 
L 168.552235 273.577391 
L 168.781026 282.470635 
L 169.009817 281.170017 
L 169.238608 280.846376 
L 169.4674 284.269224 
L 169.696191 276.405442 
L 169.924982 285.381964 
L 170.153773 286.657083 
L 170.382564 274.797377 
L 170.611355 290.814441 
L 170.840146 289.676549 
L 171.297728 265.236325 
L 171.526519 262.27381 
L 171.75531 276.868119 
L 171.984101 279.925946 
L 172.212893 270.473653 
L 172.441684 277.252337 
L 172.670475 272.831315 
L 172.899266 278.45096 
L 173.128057 279.513047 
L 173.356848 274.598557 
L 173.585639 283.284053 
L 173.81443 279.351972 
L 174.043221 278.282761 
L 174.272012 284.802634 
L 174.500803 295.488 
L 174.729594 289.363978 
L 174.958386 267.176266 
L 175.187177 295.488 
L 175.415968 290.720846 
L 175.644759 290.273938 
L 175.87355 295.488 
L 176.102341 282.362782 
L 176.559923 290.215396 
L 176.788714 281.417089 
L 177.017505 282.701755 
L 177.703879 272.007785 
L 177.93267 274.376173 
L 178.161461 272.455352 
L 178.390252 281.125118 
L 178.619043 282.142404 
L 178.847834 266.633947 
L 179.076625 274.476292 
L 179.534207 278.383287 
L 179.762998 276.910078 
L 179.991789 281.005954 
L 180.22058 281.191107 
L 180.449372 295.488 
L 180.678163 295.488 
L 180.906954 280.374575 
L 181.135745 295.488 
L 181.364536 295.488 
L 181.593327 282.270769 
L 181.822118 284.819452 
L 182.050909 282.101438 
L 182.2797 290.345197 
L 182.508491 255.135915 
L 182.737282 290.494897 
L 182.966073 278.594807 
L 183.194865 284.443991 
L 183.652447 278.472497 
L 183.881238 266.069942 
L 184.110029 261.678061 
L 184.33882 281.900398 
L 184.567611 288.0862 
L 184.796402 269.607344 
L 185.025193 282.259139 
L 185.253984 278.29282 
L 185.482775 285.263902 
L 185.711566 283.310624 
L 185.940357 265.293154 
L 186.169149 295.488 
L 186.39794 284.521004 
L 186.626731 279.491867 
L 186.855522 288.925585 
L 187.084313 284.229113 
L 187.313104 285.033759 
L 187.541895 295.488 
L 187.770686 266.125587 
L 187.999477 277.410353 
L 188.228268 274.732123 
L 188.457059 266.33674 
L 188.68585 276.022259 
L 188.914642 260.408081 
L 189.143433 273.194284 
L 189.372224 273.423473 
L 189.601015 272.564267 
L 189.829806 284.321117 
L 190.058597 266.986312 
L 190.287388 284.918209 
L 190.74497 255.727149 
L 191.202552 289.580122 
L 191.431343 295.488 
L 191.660135 295.488 
L 191.888926 290.038997 
L 192.117717 289.663786 
L 192.346508 295.488 
L 192.80409 269.595822 
L 193.261672 284.780294 
L 193.719254 288.146576 
L 193.948045 285.066282 
L 194.176836 289.732019 
L 194.405628 285.081827 
L 194.634419 272.860902 
L 195.092001 283.564427 
L 195.320792 281.347769 
L 195.549583 280.860166 
L 195.778374 289.310249 
L 196.007165 276.358329 
L 196.235956 278.966511 
L 196.464747 295.488 
L 196.693538 277.51336 
L 196.922329 276.023466 
L 197.151121 295.488 
L 197.379912 288.841775 
L 197.608703 277.908754 
L 197.837494 284.763418 
L 198.066285 286.634041 
L 198.295076 278.811688 
L 198.523867 276.060022 
L 198.752658 295.488 
L 198.981449 278.670856 
L 199.439031 287.09539 
L 199.667822 278.933459 
L 200.125405 285.532507 
L 200.354196 290.120644 
L 200.582987 266.920231 
L 200.811778 276.738204 
L 201.040569 279.10928 
L 201.26936 276.787197 
L 201.498151 278.528238 
L 201.726942 276.443752 
L 201.955733 281.873064 
L 202.184524 266.594968 
L 202.413315 288.829615 
L 202.642106 295.488 
L 203.099689 295.488 
L 203.557271 252.460398 
L 203.786062 295.488 
L 204.243644 245.675678 
L 204.472435 280.514841 
L 204.701226 264.961853 
L 204.930017 259.366481 
L 205.387599 278.538302 
L 205.616391 239.773406 
L 205.845182 269.481497 
L 206.073973 257.393333 
L 206.531555 282.824067 
L 206.760346 266.856727 
L 206.989137 281.740848 
L 207.217928 253.605885 
L 207.446719 271.134282 
L 207.67551 275.750769 
L 207.904301 269.852947 
L 208.133092 286.234841 
L 208.361884 277.615525 
L 208.590675 295.488 
L 208.819466 285.455789 
L 209.048257 245.036523 
L 209.277048 264.463958 
L 209.505839 244.079097 
L 209.963421 288.09383 
L 210.192212 247.908343 
L 210.421003 276.097637 
L 210.649794 257.264978 
L 210.878585 284.830583 
L 211.107377 250.095642 
L 211.336168 265.01709 
L 211.564959 255.563153 
L 211.79375 282.172865 
L 212.022541 236.139301 
L 212.251332 237.449841 
L 212.708914 285.765862 
L 212.937705 266.234371 
L 213.166496 271.420465 
L 213.395287 288.032316 
L 213.624078 287.724498 
L 213.852869 287.018991 
L 214.081661 287.621552 
L 214.310452 285.45244 
L 214.539243 281.153609 
L 214.768034 283.814518 
L 214.996825 246.715443 
L 215.225616 257.164124 
L 215.454407 281.261459 
L 215.683198 277.430615 
L 215.911989 258.489335 
L 216.14078 279.676032 
L 216.598362 254.581467 
L 216.827154 276.614256 
L 217.055945 267.825627 
L 217.284736 266.328549 
L 217.513527 263.794941 
L 217.742318 266.028241 
L 217.971109 275.953408 
L 218.1999 264.586356 
L 218.428691 234.967403 
L 218.886273 295.488 
L 219.343855 295.488 
L 219.572647 282.919927 
L 220.030229 284.626322 
L 220.25902 252.723618 
L 220.487811 295.488 
L 220.945393 259.194009 
L 221.174184 256.137119 
L 221.402975 288.257535 
L 221.631766 258.003045 
L 221.860557 268.464608 
L 222.089348 289.493852 
L 222.31814 289.120036 
L 222.546931 264.003661 
L 222.775722 271.45745 
L 223.004513 283.655084 
L 223.462095 251.73184 
L 223.690886 269.081315 
L 223.919677 245.969982 
L 224.148468 295.488 
L 224.377259 295.488 
L 224.60605 272.043422 
L 224.834841 277.865537 
L 225.063633 276.928077 
L 225.292424 269.426575 
L 225.521215 285.337107 
L 225.750006 286.308122 
L 225.978797 259.241665 
L 226.207588 267.677174 
L 226.436379 239.559829 
L 226.66517 262.906808 
L 226.893961 247.375771 
L 227.122752 250.119649 
L 227.351543 222.513716 
L 227.580334 248.441435 
L 227.809126 236.092683 
L 228.037917 253.080709 
L 228.266708 253.257417 
L 228.495499 255.815914 
L 228.72429 279.208547 
L 228.953081 262.210867 
L 229.181872 253.554948 
L 229.410663 253.289329 
L 229.639454 264.502577 
L 229.868245 266.183073 
L 230.097036 295.488 
L 231.012201 295.488 
L 231.240992 274.590782 
L 231.469783 279.053005 
L 231.698574 275.750769 
L 231.927365 263.495961 
L 232.156156 278.369904 
L 232.613738 252.018129 
L 233.07132 295.488 
L 233.528903 274.821874 
L 233.757694 285.019512 
L 233.986485 286.902341 
L 234.215276 255.694133 
L 234.444067 267.09534 
L 234.672858 261.581062 
L 234.901649 275.690227 
L 235.13044 247.256193 
L 235.359231 295.488 
L 235.588022 214.997427 
L 235.816813 295.488 
L 236.045604 278.317591 
L 236.274396 287.406629 
L 236.503187 283.107044 
L 236.731978 254.548294 
L 236.960769 244.370066 
L 237.18956 269.234939 
L 237.647142 284.191448 
L 238.104724 247.895955 
L 238.333515 266.357547 
L 238.562306 275.025442 
L 239.019889 280.926572 
L 239.24868 257.22798 
L 239.706262 282.482309 
L 239.935053 286.081104 
L 240.163844 253.154683 
L 240.392635 287.265791 
L 240.621426 295.488 
L 241.079008 295.488 
L 241.307799 287.824605 
L 241.53659 295.488 
L 241.994173 270.280184 
L 242.222964 262.546522 
L 242.451755 265.666772 
L 242.680546 288.811285 
L 242.909337 275.79425 
L 243.138128 284.277547 
L 243.366919 274.700174 
L 243.59571 291.727493 
L 243.824501 284.779591 
L 244.053292 288.161962 
L 244.282083 285.857712 
L 244.739666 257.045621 
L 244.968457 274.682626 
L 245.197248 253.429573 
L 245.426039 281.289202 
L 245.65483 273.349483 
L 245.883621 243.450052 
L 246.112412 279.753345 
L 246.341203 285.794648 
L 246.569994 273.245239 
L 246.798785 295.488 
L 247.027576 288.455025 
L 247.256367 285.881448 
L 247.485159 267.855406 
L 247.71395 295.488 
L 247.942741 265.660663 
L 248.171532 271.187077 
L 248.400323 282.249655 
L 248.629114 267.751776 
L 249.086696 280.392756 
L 249.315487 275.028013 
L 249.544278 252.712749 
L 249.773069 281.772583 
L 250.00186 285.665987 
L 250.230652 272.709435 
L 250.459443 283.66204 
L 250.688234 267.159994 
L 250.917025 274.870227 
L 251.145816 270.233645 
L 251.374607 290.904208 
L 251.603398 285.918684 
L 251.832189 295.488 
L 252.06098 295.488 
L 252.289771 290.266696 
L 252.518562 290.773978 
L 252.747353 295.488 
L 253.204936 279.186733 
L 253.433727 278.273679 
L 253.662518 273.991316 
L 253.891309 237.789731 
L 254.1201 242.137389 
L 254.348891 288.549516 
L 254.577682 295.488 
L 254.806473 253.991111 
L 255.035264 277.742169 
L 255.264055 264.468388 
L 255.492846 275.087164 
L 255.721638 249.181252 
L 255.950429 274.311525 
L 256.17922 286.295995 
L 256.408011 267.54811 
L 256.636802 258.186556 
L 256.865593 269.082784 
L 257.323175 276.629189 
L 257.551966 289.153082 
L 257.780757 270.773798 
L 258.009548 287.294378 
L 258.238339 270.398483 
L 258.467131 283.799337 
L 258.695922 268.02526 
L 258.924713 287.621552 
L 259.153504 267.980074 
L 259.382295 267.721208 
L 259.611086 266.483693 
L 259.839877 295.488 
L 260.068668 295.488 
L 260.297459 287.217669 
L 260.52625 288.177408 
L 260.983832 258.033547 
L 261.212623 271.995651 
L 261.441415 278.312968 
L 261.670206 248.447762 
L 261.898997 271.346123 
L 262.127788 279.344207 
L 262.356579 278.074659 
L 262.58537 272.081258 
L 262.814161 295.488 
L 263.042952 272.701501 
L 263.271743 295.488 
L 263.500534 295.488 
L 263.729325 287.461531 
L 263.958116 288.139258 
L 264.415699 266.347038 
L 264.873281 289.806451 
L 265.330863 280.333734 
L 265.559654 273.256874 
L 265.788445 290.114723 
L 266.017236 291.042513 
L 266.246027 248.434896 
L 266.474818 275.638986 
L 266.703609 258.252465 
L 266.932401 279.095251 
L 267.161192 274.778778 
L 267.389983 264.635879 
L 267.618774 267.1425 
L 267.847565 282.389807 
L 268.076356 265.003328 
L 268.305147 289.551661 
L 268.533938 295.488 
L 268.762729 295.488 
L 268.99152 287.256215 
L 269.220311 267.391716 
L 269.449102 265.558515 
L 269.677894 295.488 
L 269.906685 261.722564 
L 270.135476 266.755507 
L 270.364267 276.964721 
L 270.593058 239.443124 
L 270.821849 278.506749 
L 271.05064 246.156414 
L 271.279431 287.536567 
L 271.508222 295.488 
L 271.737013 278.910475 
L 271.965804 274.023775 
L 272.194595 275.100433 
L 272.423387 281.517349 
L 272.652178 270.223005 
L 272.880969 270.558993 
L 273.10976 281.295411 
L 273.338551 274.997328 
L 273.567342 265.445004 
L 273.796133 295.488 
L 274.024924 262.655931 
L 274.253715 295.488 
L 274.482506 295.488 
L 274.711297 284.03804 
L 274.940088 286.283834 
L 275.168879 277.997634 
L 275.397671 244.610778 
L 275.855253 279.723797 
L 276.084044 274.123375 
L 276.312835 260.796965 
L 276.541626 286.766632 
L 276.770417 274.637752 
L 276.999208 282.884839 
L 277.227999 285.305518 
L 277.45679 291.021816 
L 277.685581 281.506808 
L 277.914372 285.824652 
L 278.143164 266.940117 
L 278.371955 260.692803 
L 278.600746 267.051199 
L 278.829537 262.430538 
L 279.058328 286.046027 
L 279.287119 295.488 
L 279.51591 289.37455 
L 279.744701 290.393857 
L 279.973492 295.488 
L 280.202283 295.488 
L 280.431074 290.185597 
L 280.659865 290.744617 
L 280.888657 283.998985 
L 281.117448 250.383478 
L 281.346239 273.279642 
L 281.57503 263.626774 
L 281.803821 262.81847 
L 282.032612 272.788027 
L 282.261403 264.012057 
L 282.490194 279.613824 
L 282.718985 283.376765 
L 282.947776 279.516058 
L 283.176567 273.77299 
L 283.405358 273.617084 
L 283.63415 251.789642 
L 283.862941 271.564908 
L 284.091732 268.02526 
L 284.320523 295.488 
L 284.549314 240.195845 
L 285.006896 295.488 
L 285.464478 295.488 
L 285.92206 263.306299 
L 286.150851 265.659031 
L 286.608434 287.590836 
L 286.837225 277.84253 
L 287.066016 260.170625 
L 287.294807 275.017774 
L 287.523598 267.839732 
L 287.98118 286.873715 
L 288.209971 277.195478 
L 288.438762 277.992175 
L 288.667553 280.443207 
L 288.896344 278.875291 
L 289.125135 291.1034 
L 289.582718 271.984926 
L 289.811509 274.935723 
L 290.0403 285.199934 
L 290.269091 286.101131 
L 290.497882 295.488 
L 291.413046 295.488 
L 291.641837 264.702063 
L 291.870628 254.085461 
L 292.09942 280.825653 
L 292.328211 278.527087 
L 292.557002 279.465179 
L 292.785793 271.426566 
L 293.014584 285.38452 
L 293.243375 280.836135 
L 293.472166 285.174721 
L 293.700957 280.989346 
L 293.929748 254.911132 
L 294.38733 295.488 
L 294.616121 273.082842 
L 295.073704 295.488 
L 295.531286 253.003665 
L 295.760077 261.521774 
L 295.988868 295.488 
L 296.217659 277.766443 
L 296.44645 273.987072 
L 296.904032 295.488 
L 297.132823 278.599655 
L 297.361614 286.109877 
L 297.590406 283.288271 
L 297.819197 269.819811 
L 298.047988 247.59362 
L 298.50557 280.006208 
L 298.734361 288.300847 
L 298.963152 254.956307 
L 299.191943 251.884382 
L 299.420734 253.35683 
L 299.649525 266.261924 
L 299.878316 265.679564 
L 300.107107 261.360206 
L 300.793481 290.527636 
L 301.022272 259.399264 
L 301.251063 295.488 
L 301.937436 295.488 
L 302.395018 282.432158 
L 302.623809 257.533226 
L 303.081392 269.432857 
L 303.310183 275.257666 
L 303.538974 285.106252 
L 303.767765 286.849807 
L 303.996556 245.653232 
L 304.225347 289.333647 
L 304.454138 243.155836 
L 304.682929 260.599382 
L 304.91172 252.66249 
L 305.140511 271.253452 
L 305.369302 260.730757 
L 305.598093 261.214567 
L 305.826884 271.773129 
L 306.055676 249.316283 
L 306.284467 277.824199 
L 306.513258 283.880085 
L 306.97084 279.985508 
L 307.199631 295.488 
L 307.428422 295.488 
L 307.657213 278.124032 
L 307.886004 295.488 
L 308.114795 269.76481 
L 308.343586 277.824199 
L 308.572377 257.147961 
L 308.801169 269.395283 
L 309.02996 253.897302 
L 309.258751 258.53284 
L 309.487542 280.226229 
L 309.716333 273.748711 
L 309.945124 279.931339 
L 310.173915 266.970609 
L 310.402706 289.250062 
L 310.631497 258.256144 
L 310.860288 263.513476 
L 311.089079 237.706724 
L 311.31787 263.724501 
L 311.546662 257.134629 
L 311.775453 268.616502 
L 312.004244 295.488 
L 312.461826 247.666004 
L 312.690617 275.98774 
L 312.919408 274.743096 
L 313.37699 295.488 
L 313.605781 289.075396 
L 314.063363 256.809202 
L 314.292155 282.189125 
L 314.520946 264.40659 
L 314.749737 272.48461 
L 314.978528 289.271185 
L 315.207319 254.846166 
L 315.43611 267.850157 
L 315.664901 259.668133 
L 315.893692 285.474551 
L 316.122483 245.843649 
L 316.580065 266.673055 
L 316.808856 264.305913 
L 317.037648 286.733949 
L 317.266439 277.87491 
L 317.49523 280.053653 
L 317.724021 280.074367 
L 317.952812 295.488 
L 318.181603 270.148714 
L 318.410394 295.488 
L 318.639185 270.791419 
L 318.867976 280.956006 
L 319.096767 258.479682 
L 319.325558 268.572561 
L 319.554349 270.38552 
L 319.78314 275.233153 
L 320.011932 261.010648 
L 320.240723 288.937374 
L 320.469514 244.304976 
L 320.698305 282.757669 
L 320.927096 282.450596 
L 321.155887 251.506011 
L 321.384678 281.315266 
L 321.613469 285.614204 
L 321.84226 283.343746 
L 322.071051 278.759384 
L 322.299842 278.044167 
L 322.528633 282.990804 
L 322.986216 260.216304 
L 323.215007 268.935434 
L 323.443798 295.488 
L 323.672589 286.039616 
L 323.90138 295.488 
L 324.587753 269.856813 
L 324.816544 280.367421 
L 325.045335 266.951369 
L 325.274126 281.870614 
L 325.502918 273.261524 
L 325.731709 255.741015 
L 325.9605 263.961738 
L 326.189291 285.291821 
L 326.418082 287.383133 
L 326.646873 270.598851 
L 326.875664 278.10179 
L 327.104455 275.164535 
L 327.333246 254.755934 
L 327.562037 290.909696 
L 328.019619 266.862084 
L 328.248411 288.999193 
L 328.477202 295.488 
L 329.621157 295.488 
L 329.849948 265.067849 
L 330.078739 295.488 
L 330.30753 264.049028 
L 330.536321 257.822435 
L 330.765112 295.488 
L 330.993904 279.968871 
L 331.222695 283.288271 
L 331.451486 243.752005 
L 331.680277 256.477681 
L 331.909068 295.488 
L 332.137859 295.488 
L 332.36665 251.297846 
L 332.595441 240.289412 
L 332.824232 283.939864 
L 333.053023 260.633968 
L 333.281814 275.820996 
L 333.510605 280.714344 
L 333.739397 260.213863 
L 333.968188 272.254806 
L 334.196979 295.488 
L 334.42577 282.214112 
L 334.654561 295.488 
L 334.883352 282.919927 
L 335.112143 295.488 
L 335.340934 270.642565 
L 335.569725 261.868079 
L 335.798516 257.543187 
L 336.027307 264.509653 
L 336.484889 285.276629 
L 336.713681 278.060178 
L 336.942472 288.509354 
L 337.171263 284.07681 
L 337.400054 287.369579 
L 337.628845 253.961879 
L 337.857636 288.032316 
L 338.086427 280.103084 
L 338.315218 283.717373 
L 338.544009 262.938305 
L 338.7728 254.088994 
L 339.001591 261.544749 
L 339.230382 241.259061 
L 339.687965 295.488 
L 339.916756 273.9534 
L 340.145547 265.576592 
L 340.374338 295.488 
L 340.603129 263.580769 
L 340.83192 262.34069 
L 341.060711 250.085416 
L 341.289502 277.252337 
L 341.518293 274.785924 
L 341.747084 278.203142 
L 342.204667 255.186282 
L 342.433458 285.62834 
L 342.662249 250.659755 
L 342.89104 262.533811 
L 343.119831 257.262094 
L 343.348622 273.48684 
L 343.577413 200.305792 
L 344.034995 241.840509 
L 344.263786 288.792848 
L 344.492577 260.303927 
L 344.721368 263.886848 
L 344.95016 283.288271 
L 345.178951 274.825207 
L 345.407742 278.706388 
L 345.865324 295.488 
L 346.094115 295.488 
L 346.322906 284.830583 
L 346.551697 284.830583 
L 347.009279 246.639325 
L 347.23807 249.353218 
L 347.466861 272.213668 
L 347.695653 243.883918 
L 347.924444 246.673125 
L 348.153235 259.06474 
L 348.382026 281.537217 
L 348.610817 223.293129 
L 349.29719 271.148502 
L 349.525981 196.438858 
L 349.754772 208.621306 
L 349.983563 270.0401 
L 350.212354 256.502703 
L 350.441145 285.656482 
L 350.669937 270.503607 
L 350.898728 295.488 
L 351.35631 295.488 
L 351.585101 156.364593 
L 351.813892 236.06701 
L 352.042683 56.745644 
L 352.271474 240.079674 
L 352.500265 214.268731 
L 352.729056 203.267965 
L 352.957847 209.873636 
L 353.186638 198.147082 
L 353.41543 220.286899 
L 353.644221 212.451424 
L 353.873012 198.219466 
L 354.101803 244.74793 
L 354.330594 243.185299 
L 354.559385 230.712783 
L 354.788176 268.693727 
L 355.016967 234.396994 
L 355.245758 258.268468 
L 355.474549 249.654008 
L 355.70334 183.614976 
L 355.932131 247.953233 
L 356.160923 265.31599 
L 356.389714 239.695297 
L 356.618505 272.35628 
L 356.847296 277.865537 
L 357.076087 240.843999 
L 357.304878 277.461803 
L 357.533669 250.383478 
L 357.76246 266.474414 
L 357.991251 246.889966 
L 358.220042 169.910421 
L 358.448833 197.071217 
L 358.906416 277.268134 
L 359.135207 252.306009 
L 359.363998 256.840854 
L 359.592789 267.087968 
L 359.82158 253.904533 
L 360.050371 276.385263 
L 360.507953 231.304391 
L 360.736744 274.913271 
L 360.965535 232.164537 
L 361.423117 295.488 
L 361.651909 272.307846 
L 361.8807 268.768134 
L 362.109491 285.09046 
L 362.338282 283.549679 
L 362.567073 295.488 
L 362.795864 283.675925 
L 363.024655 240.358572 
L 363.253446 239.312049 
L 363.482237 255.815914 
L 363.711028 255.117433 
L 363.939819 278.881648 
L 364.16861 286.210134 
L 364.397401 256.063556 
L 364.626193 267.886733 
L 364.854984 236.450344 
L 365.083775 228.218216 
L 365.312566 225.776803 
L 365.541357 205.032414 
L 365.770148 256.290269 
L 365.998939 236.010931 
L 366.22773 283.198375 
L 366.456521 273.9534 
L 366.914103 270.677043 
L 367.142894 295.488 
L 367.371686 295.488 
L 367.600477 267.765092 
L 367.829268 295.488 
L 368.28685 295.488 
L 368.515641 279.220592 
L 368.744432 214.14621 
L 368.973223 229.100477 
L 369.202014 197.303035 
L 369.430805 257.374818 
L 369.659596 267.499506 
L 369.888387 272.12811 
L 370.117179 182.824559 
L 370.574761 276.2406 
L 370.803552 226.724226 
L 371.032343 279.390715 
L 371.261134 255.037702 
L 371.489925 257.487813 
L 371.718716 266.306076 
L 371.947507 266.211287 
L 372.176298 268.418394 
L 372.405089 259.425788 
L 372.63388 285.955055 
L 372.862672 295.488 
L 373.091463 284.413467 
L 373.320254 295.488 
L 373.777836 295.488 
L 374.006627 264.833509 
L 374.235418 250.431644 
L 374.464209 269.366562 
L 374.693 245.459652 
L 374.921791 208.627319 
L 375.150582 255.431426 
L 375.608165 179.071016 
L 375.836956 269.930471 
L 376.065747 195.686888 
L 376.294538 226.840536 
L 376.523329 241.1527 
L 376.75212 204.353389 
L 376.980911 226.785798 
L 377.209702 295.488 
L 377.438493 258.390515 
L 377.667284 244.044591 
L 377.896075 295.488 
L 378.124866 286.936625 
L 378.353658 295.488 
L 378.582449 295.488 
L 378.81124 265.974475 
L 379.040031 259.37634 
L 379.268822 260.121069 
L 379.497613 277.145618 
L 379.726404 227.035948 
L 379.955195 252.788998 
L 380.183986 237.113966 
L 380.412777 238.094113 
L 380.641568 282.872193 
L 380.870359 219.597272 
L 381.09915 238.878543 
L 381.327942 273.189186 
L 381.556733 270.63212 
L 381.785524 234.375808 
L 382.014315 260.561692 
L 382.243106 271.838181 
L 382.471897 273.513699 
L 382.700688 273.313312 
L 383.15827 277.930937 
L 383.387061 265.983905 
L 383.844643 295.488 
L 384.531017 263.529043 
L 384.759808 258.059967 
L 384.988599 282.577387 
L 385.21739 225.27985 
L 385.446181 268.240549 
L 385.674972 272.846743 
L 386.132554 260.500818 
L 386.361345 229.442885 
L 386.590136 255.904198 
L 386.818928 264.990754 
L 387.047719 288.001147 
L 387.27651 265.10251 
L 387.505301 257.505802 
L 387.734092 259.752509 
L 387.962883 254.792292 
L 388.191674 272.816624 
L 388.420465 254.326086 
L 388.878047 295.488 
L 389.106838 236.754449 
L 389.335629 279.465179 
L 389.564421 295.488 
L 389.793212 278.967806 
L 390.022003 278.060178 
L 390.250794 208.285039 
L 390.479585 272.576498 
L 390.708376 270.881751 
L 390.937167 230.083105 
L 391.165958 266.453772 
L 391.394749 242.360272 
L 391.62354 195.69083 
L 391.852331 264.501783 
L 392.081122 235.609001 
L 392.309914 264.704871 
L 392.538705 242.471893 
L 392.767496 285.058721 
L 392.996287 228.79414 
L 393.225078 264.704871 
L 393.453869 264.338252 
L 393.68266 261.339199 
L 393.911451 255.990072 
L 394.140242 253.257417 
L 394.369033 279.701969 
L 394.597824 280.369207 
L 394.826615 220.919807 
L 395.055406 295.488 
L 395.284198 295.488 
L 395.512989 231.169686 
L 395.74178 282.168544 
L 395.970571 279.384536 
L 396.199362 233.31921 
L 396.428153 284.626322 
L 396.656944 285.484996 
L 396.885735 270.982737 
L 397.114526 237.862147 
L 397.572108 247.057233 
L 397.800899 253.744795 
L 398.029691 235.602281 
L 398.487273 261.624081 
L 398.487273 261.624081 
" style="fill:none;stroke:#1f77b4;stroke-linecap:square;stroke-width:1.5;"/>
   </g>
   <g id="patch_3">
    <path d="M 57.6 307.584 
L 57.6 41.472 
" style="fill:none;stroke:#000000;stroke-linecap:square;stroke-linejoin:miter;stroke-width:0.8;"/>
   </g>
   <g id="patch_4">
    <path d="M 414.72 307.584 
L 414.72 41.472 
" style="fill:none;stroke:#000000;stroke-linecap:square;stroke-linejoin:miter;stroke-width:0.8;"/>
   </g>
   <g id="patch_5">
    <path d="M 57.6 307.584 
L 414.72 307.584 
" style="fill:none;stroke:#000000;stroke-linecap:square;stroke-linejoin:miter;stroke-width:0.8;"/>
   </g>
   <g id="patch_6">
    <path d="M 57.6 41.472 
L 414.72 41.472 
" style="fill:none;stroke:#000000;stroke-linecap:square;stroke-linejoin:miter;stroke-width:0.8;"/>
   </g>
   <g id="text_18">
    <!-- real_1.csv -->
    <defs>
     <path d="M 41.109375 46.296875 
Q 39.59375 47.171875 37.8125 47.578125 
Q 36.03125 48 33.890625 48 
Q 26.265625 48 22.1875 43.046875 
Q 18.109375 38.09375 18.109375 28.8125 
L 18.109375 0 
L 9.078125 0 
L 9.078125 54.6875 
L 18.109375 54.6875 
L 18.109375 46.1875 
Q 20.953125 51.171875 25.484375 53.578125 
Q 30.03125 56 36.53125 56 
Q 37.453125 56 38.578125 55.875 
Q 39.703125 55.765625 41.0625 55.515625 
z
" id="DejaVuSans-72"/>
     <path d="M 56.203125 29.59375 
L 56.203125 25.203125 
L 14.890625 25.203125 
Q 15.484375 15.921875 20.484375 11.0625 
Q 25.484375 6.203125 34.421875 6.203125 
Q 39.59375 6.203125 44.453125 7.46875 
Q 49.3125 8.734375 54.109375 11.28125 
L 54.109375 2.78125 
Q 49.265625 0.734375 44.1875 -0.34375 
Q 39.109375 -1.421875 33.890625 -1.421875 
Q 20.796875 -1.421875 13.15625 6.1875 
Q 5.515625 13.8125 5.515625 26.8125 
Q 5.515625 40.234375 12.765625 48.109375 
Q 20.015625 56 32.328125 56 
Q 43.359375 56 49.78125 48.890625 
Q 56.203125 41.796875 56.203125 29.59375 
z
M 47.21875 32.234375 
Q 47.125 39.59375 43.09375 43.984375 
Q 39.0625 48.390625 32.421875 48.390625 
Q 24.90625 48.390625 20.390625 44.140625 
Q 15.875 39.890625 15.1875 32.171875 
z
" id="DejaVuSans-65"/>
     <path d="M 34.28125 27.484375 
Q 23.390625 27.484375 19.1875 25 
Q 14.984375 22.515625 14.984375 16.5 
Q 14.984375 11.71875 18.140625 8.90625 
Q 21.296875 6.109375 26.703125 6.109375 
Q 34.1875 6.109375 38.703125 11.40625 
Q 43.21875 16.703125 43.21875 25.484375 
L 43.21875 27.484375 
z
M 52.203125 31.203125 
L 52.203125 0 
L 43.21875 0 
L 43.21875 8.296875 
Q 40.140625 3.328125 35.546875 0.953125 
Q 30.953125 -1.421875 24.3125 -1.421875 
Q 15.921875 -1.421875 10.953125 3.296875 
Q 6 8.015625 6 15.921875 
Q 6 25.140625 12.171875 29.828125 
Q 18.359375 34.515625 30.609375 34.515625 
L 43.21875 34.515625 
L 43.21875 35.40625 
Q 43.21875 41.609375 39.140625 45 
Q 35.0625 48.390625 27.6875 48.390625 
Q 23 48.390625 18.546875 47.265625 
Q 14.109375 46.140625 10.015625 43.890625 
L 10.015625 52.203125 
Q 14.9375 54.109375 19.578125 55.046875 
Q 24.21875 56 28.609375 56 
Q 40.484375 56 46.34375 49.84375 
Q 52.203125 43.703125 52.203125 31.203125 
z
" id="DejaVuSans-61"/>
     <path d="M 9.421875 75.984375 
L 18.40625 75.984375 
L 18.40625 0 
L 9.421875 0 
z
" id="DejaVuSans-6c"/>
     <path d="M 50.984375 -16.609375 
L 50.984375 -23.578125 
L -0.984375 -23.578125 
L -0.984375 -16.609375 
z
" id="DejaVuSans-5f"/>
     <path d="M 48.78125 52.59375 
L 48.78125 44.1875 
Q 44.96875 46.296875 41.140625 47.34375 
Q 37.3125 48.390625 33.40625 48.390625 
Q 24.65625 48.390625 19.8125 42.84375 
Q 14.984375 37.3125 14.984375 27.296875 
Q 14.984375 17.28125 19.8125 11.734375 
Q 24.65625 6.203125 33.40625 6.203125 
Q 37.3125 6.203125 41.140625 7.25 
Q 44.96875 8.296875 48.78125 10.40625 
L 48.78125 2.09375 
Q 45.015625 0.34375 40.984375 -0.53125 
Q 36.96875 -1.421875 32.421875 -1.421875 
Q 20.0625 -1.421875 12.78125 6.34375 
Q 5.515625 14.109375 5.515625 27.296875 
Q 5.515625 40.671875 12.859375 48.328125 
Q 20.21875 56 33.015625 56 
Q 37.15625 56 41.109375 55.140625 
Q 45.0625 54.296875 48.78125 52.59375 
z
" id="DejaVuSans-63"/>
     <path d="M 44.28125 53.078125 
L 44.28125 44.578125 
Q 40.484375 46.53125 36.375 47.5 
Q 32.28125 48.484375 27.875 48.484375 
Q 21.1875 48.484375 17.84375 46.4375 
Q 14.5 44.390625 14.5 40.28125 
Q 14.5 37.15625 16.890625 35.375 
Q 19.28125 33.59375 26.515625 31.984375 
L 29.59375 31.296875 
Q 39.15625 29.25 43.1875 25.515625 
Q 47.21875 21.78125 47.21875 15.09375 
Q 47.21875 7.46875 41.1875 3.015625 
Q 35.15625 -1.421875 24.609375 -1.421875 
Q 20.21875 -1.421875 15.453125 -0.5625 
Q 10.6875 0.296875 5.421875 2 
L 5.421875 11.28125 
Q 10.40625 8.6875 15.234375 7.390625 
Q 20.0625 6.109375 24.8125 6.109375 
Q 31.15625 6.109375 34.5625 8.28125 
Q 37.984375 10.453125 37.984375 14.40625 
Q 37.984375 18.0625 35.515625 20.015625 
Q 33.0625 21.96875 24.703125 23.78125 
L 21.578125 24.515625 
Q 13.234375 26.265625 9.515625 29.90625 
Q 5.8125 33.546875 5.8125 39.890625 
Q 5.8125 47.609375 11.28125 51.796875 
Q 16.75 56 26.8125 56 
Q 31.78125 56 36.171875 55.265625 
Q 40.578125 54.546875 44.28125 53.078125 
z
" id="DejaVuSans-73"/>
     <path d="M 2.984375 54.6875 
L 12.5 54.6875 
L 29.59375 8.796875 
L 46.6875 54.6875 
L 56.203125 54.6875 
L 35.6875 0 
L 23.484375 0 
z
" id="DejaVuSans-76"/>
    </defs>
    <g transform="translate(205.959375 35.472)scale(0.12 -0.12)">
     <use xlink:href="#DejaVuSans-72"/>
     <use x="41.082031" xlink:href="#DejaVuSans-65"/>
     <use x="102.605469" xlink:href="#DejaVuSans-61"/>
     <use x="163.884766" xlink:href="#DejaVuSans-6c"/>
     <use x="191.667969" xlink:href="#DejaVuSans-5f"/>
     <use x="241.667969" xlink:href="#DejaVuSans-31"/>
     <use x="305.291016" xlink:href="#DejaVuSans-2e"/>
     <use x="337.078125" xlink:href="#DejaVuSans-63"/>
     <use x="392.058594" xlink:href="#DejaVuSans-73"/>
     <use x="444.158203" xlink:href="#DejaVuSans-76"/>
    </g>
   </g>
   <g id="PathCollection_1">
    <defs>
     <path d="M -4.472136 4.472136 
L 4.472136 -4.472136 
M -4.472136 -4.472136 
L 4.472136 4.472136 
" id="mbce1e71197" style="stroke:#ffa500;stroke-width:1.5;"/>
    </defs>
    <g clip-path="url(#pec4571685a)">
     <use style="fill:#ffa500;stroke:#ffa500;stroke-width:1.5;" x="351.35631" xlink:href="#mbce1e71197" y="156.364593"/>
     <use style="fill:#ffa500;stroke:#ffa500;stroke-width:1.5;" x="351.813892" xlink:href="#mbce1e71197" y="56.745644"/>
    </g>
   </g>
  </g>
 </g>
 <defs>
  <clipPath id="pec4571685a">
   <rect height="266.112" width="357.12" x="57.6" y="41.472"/>
  </clipPath>
 </defs>
</svg>
