<?xml version="1.0" encoding="utf-8" standalone="no"?>
<!DOCTYPE svg PUBLIC "-//W3C//DTD SVG 1.1//EN"
  "http://www.w3.org/Graphics/SVG/1.1/DTD/svg11.dtd">
<!-- Created with matplotlib (http://matplotlib.org/) -->
<svg height="345.6pt" version="1.1" viewBox="0 0 460.8 345.6" width="460.8pt" xmlns="http://www.w3.org/2000/svg" xmlns:xlink="http://www.w3.org/1999/xlink">
 <defs>
  <style type="text/css">
*{stroke-linecap:butt;stroke-linejoin:round;}
  </style>
 </defs>
 <g id="figure_1">
  <g id="patch_1">
   <path d="M 0 345.6 
L 460.8 345.6 
L 460.8 0 
L 0 0 
z
" style="fill:#ffffff;"/>
  </g>
  <g id="axes_1">
   <g id="patch_2">
    <path d="M 57.6 307.584 
L 414.72 307.584 
L 414.72 41.472 
L 57.6 41.472 
z
" style="fill:#ffffff;"/>
   </g>
   <g id="matplotlib.axis_1">
    <g id="xtick_1">
     <g id="line2d_1">
      <defs>
       <path d="M 0 0 
L 0 3.5 
" id="m5b2c1b4217" style="stroke:#000000;stroke-width:0.8;"/>
      </defs>
      <g>
       <use style="stroke:#000000;stroke-width:0.8;" x="73.610361" xlink:href="#m5b2c1b4217" y="307.584"/>
      </g>
     </g>
     <g id="text_1">
      <!-- 0 -->
      <defs>
       <path d="M 31.78125 66.40625 
Q 24.171875 66.40625 20.328125 58.90625 
Q 16.5 51.421875 16.5 36.375 
Q 16.5 21.390625 20.328125 13.890625 
Q 24.171875 6.390625 31.78125 6.390625 
Q 39.453125 6.390625 43.28125 13.890625 
Q 47.125 21.390625 47.125 36.375 
Q 47.125 51.421875 43.28125 58.90625 
Q 39.453125 66.40625 31.78125 66.40625 
z
M 31.78125 74.21875 
Q 44.046875 74.21875 50.515625 64.515625 
Q 56.984375 54.828125 56.984375 36.375 
Q 56.984375 17.96875 50.515625 8.265625 
Q 44.046875 -1.421875 31.78125 -1.421875 
Q 19.53125 -1.421875 13.0625 8.265625 
Q 6.59375 17.96875 6.59375 36.375 
Q 6.59375 54.828125 13.0625 64.515625 
Q 19.53125 74.21875 31.78125 74.21875 
z
" id="DejaVuSans-30"/>
      </defs>
      <g transform="translate(70.429111 322.182437)scale(0.1 -0.1)">
       <use xlink:href="#DejaVuSans-30"/>
      </g>
     </g>
    </g>
    <g id="xtick_2">
     <g id="line2d_2">
      <g>
       <use style="stroke:#000000;stroke-width:0.8;" x="118.083587" xlink:href="#m5b2c1b4217" y="307.584"/>
      </g>
     </g>
     <g id="text_2">
      <!-- 200 -->
      <defs>
       <path d="M 19.1875 8.296875 
L 53.609375 8.296875 
L 53.609375 0 
L 7.328125 0 
L 7.328125 8.296875 
Q 12.9375 14.109375 22.625 23.890625 
Q 32.328125 33.6875 34.8125 36.53125 
Q 39.546875 41.84375 41.421875 45.53125 
Q 43.3125 49.21875 43.3125 52.78125 
Q 43.3125 58.59375 39.234375 62.25 
Q 35.15625 65.921875 28.609375 65.921875 
Q 23.96875 65.921875 18.8125 64.3125 
Q 13.671875 62.703125 7.8125 59.421875 
L 7.8125 69.390625 
Q 13.765625 71.78125 18.9375 73 
Q 24.125 74.21875 28.421875 74.21875 
Q 39.75 74.21875 46.484375 68.546875 
Q 53.21875 62.890625 53.21875 53.421875 
Q 53.21875 48.921875 51.53125 44.890625 
Q 49.859375 40.875 45.40625 35.40625 
Q 44.1875 33.984375 37.640625 27.21875 
Q 31.109375 20.453125 19.1875 8.296875 
z
" id="DejaVuSans-32"/>
      </defs>
      <g transform="translate(108.539837 322.182437)scale(0.1 -0.1)">
       <use xlink:href="#DejaVuSans-32"/>
       <use x="63.623047" xlink:href="#DejaVuSans-30"/>
       <use x="127.246094" xlink:href="#DejaVuSans-30"/>
      </g>
     </g>
    </g>
    <g id="xtick_3">
     <g id="line2d_3">
      <g>
       <use style="stroke:#000000;stroke-width:0.8;" x="162.556812" xlink:href="#m5b2c1b4217" y="307.584"/>
      </g>
     </g>
     <g id="text_3">
      <!-- 400 -->
      <defs>
       <path d="M 37.796875 64.3125 
L 12.890625 25.390625 
L 37.796875 25.390625 
z
M 35.203125 72.90625 
L 47.609375 72.90625 
L 47.609375 25.390625 
L 58.015625 25.390625 
L 58.015625 17.1875 
L 47.609375 17.1875 
L 47.609375 0 
L 37.796875 0 
L 37.796875 17.1875 
L 4.890625 17.1875 
L 4.890625 26.703125 
z
" id="DejaVuSans-34"/>
      </defs>
      <g transform="translate(153.013062 322.182437)scale(0.1 -0.1)">
       <use xlink:href="#DejaVuSans-34"/>
       <use x="63.623047" xlink:href="#DejaVuSans-30"/>
       <use x="127.246094" xlink:href="#DejaVuSans-30"/>
      </g>
     </g>
    </g>
    <g id="xtick_4">
     <g id="line2d_4">
      <g>
       <use style="stroke:#000000;stroke-width:0.8;" x="207.030037" xlink:href="#m5b2c1b4217" y="307.584"/>
      </g>
     </g>
     <g id="text_4">
      <!-- 600 -->
      <defs>
       <path d="M 33.015625 40.375 
Q 26.375 40.375 22.484375 35.828125 
Q 18.609375 31.296875 18.609375 23.390625 
Q 18.609375 15.53125 22.484375 10.953125 
Q 26.375 6.390625 33.015625 6.390625 
Q 39.65625 6.390625 43.53125 10.953125 
Q 47.40625 15.53125 47.40625 23.390625 
Q 47.40625 31.296875 43.53125 35.828125 
Q 39.65625 40.375 33.015625 40.375 
z
M 52.59375 71.296875 
L 52.59375 62.3125 
Q 48.875 64.0625 45.09375 64.984375 
Q 41.3125 65.921875 37.59375 65.921875 
Q 27.828125 65.921875 22.671875 59.328125 
Q 17.53125 52.734375 16.796875 39.40625 
Q 19.671875 43.65625 24.015625 45.921875 
Q 28.375 48.1875 33.59375 48.1875 
Q 44.578125 48.1875 50.953125 41.515625 
Q 57.328125 34.859375 57.328125 23.390625 
Q 57.328125 12.15625 50.6875 5.359375 
Q 44.046875 -1.421875 33.015625 -1.421875 
Q 20.359375 -1.421875 13.671875 8.265625 
Q 6.984375 17.96875 6.984375 36.375 
Q 6.984375 53.65625 15.1875 63.9375 
Q 23.390625 74.21875 37.203125 74.21875 
Q 40.921875 74.21875 44.703125 73.484375 
Q 48.484375 72.75 52.59375 71.296875 
z
" id="DejaVuSans-36"/>
      </defs>
      <g transform="translate(197.486287 322.182437)scale(0.1 -0.1)">
       <use xlink:href="#DejaVuSans-36"/>
       <use x="63.623047" xlink:href="#DejaVuSans-30"/>
       <use x="127.246094" xlink:href="#DejaVuSans-30"/>
      </g>
     </g>
    </g>
    <g id="xtick_5">
     <g id="line2d_5">
      <g>
       <use style="stroke:#000000;stroke-width:0.8;" x="251.503263" xlink:href="#m5b2c1b4217" y="307.584"/>
      </g>
     </g>
     <g id="text_5">
      <!-- 800 -->
      <defs>
       <path d="M 31.78125 34.625 
Q 24.75 34.625 20.71875 30.859375 
Q 16.703125 27.09375 16.703125 20.515625 
Q 16.703125 13.921875 20.71875 10.15625 
Q 24.75 6.390625 31.78125 6.390625 
Q 38.8125 6.390625 42.859375 10.171875 
Q 46.921875 13.96875 46.921875 20.515625 
Q 46.921875 27.09375 42.890625 30.859375 
Q 38.875 34.625 31.78125 34.625 
z
M 21.921875 38.8125 
Q 15.578125 40.375 12.03125 44.71875 
Q 8.5 49.078125 8.5 55.328125 
Q 8.5 64.0625 14.71875 69.140625 
Q 20.953125 74.21875 31.78125 74.21875 
Q 42.671875 74.21875 48.875 69.140625 
Q 55.078125 64.0625 55.078125 55.328125 
Q 55.078125 49.078125 51.53125 44.71875 
Q 48 40.375 41.703125 38.8125 
Q 48.828125 37.15625 52.796875 32.3125 
Q 56.78125 27.484375 56.78125 20.515625 
Q 56.78125 9.90625 50.3125 4.234375 
Q 43.84375 -1.421875 31.78125 -1.421875 
Q 19.734375 -1.421875 13.25 4.234375 
Q 6.78125 9.90625 6.78125 20.515625 
Q 6.78125 27.484375 10.78125 32.3125 
Q 14.796875 37.15625 21.921875 38.8125 
z
M 18.3125 54.390625 
Q 18.3125 48.734375 21.84375 45.5625 
Q 25.390625 42.390625 31.78125 42.390625 
Q 38.140625 42.390625 41.71875 45.5625 
Q 45.3125 48.734375 45.3125 54.390625 
Q 45.3125 60.0625 41.71875 63.234375 
Q 38.140625 66.40625 31.78125 66.40625 
Q 25.390625 66.40625 21.84375 63.234375 
Q 18.3125 60.0625 18.3125 54.390625 
z
" id="DejaVuSans-38"/>
      </defs>
      <g transform="translate(241.959513 322.182437)scale(0.1 -0.1)">
       <use xlink:href="#DejaVuSans-38"/>
       <use x="63.623047" xlink:href="#DejaVuSans-30"/>
       <use x="127.246094" xlink:href="#DejaVuSans-30"/>
      </g>
     </g>
    </g>
    <g id="xtick_6">
     <g id="line2d_6">
      <g>
       <use style="stroke:#000000;stroke-width:0.8;" x="295.976488" xlink:href="#m5b2c1b4217" y="307.584"/>
      </g>
     </g>
     <g id="text_6">
      <!-- 1000 -->
      <defs>
       <path d="M 12.40625 8.296875 
L 28.515625 8.296875 
L 28.515625 63.921875 
L 10.984375 60.40625 
L 10.984375 69.390625 
L 28.421875 72.90625 
L 38.28125 72.90625 
L 38.28125 8.296875 
L 54.390625 8.296875 
L 54.390625 0 
L 12.40625 0 
z
" id="DejaVuSans-31"/>
      </defs>
      <g transform="translate(283.251488 322.182437)scale(0.1 -0.1)">
       <use xlink:href="#DejaVuSans-31"/>
       <use x="63.623047" xlink:href="#DejaVuSans-30"/>
       <use x="127.246094" xlink:href="#DejaVuSans-30"/>
       <use x="190.869141" xlink:href="#DejaVuSans-30"/>
      </g>
     </g>
    </g>
    <g id="xtick_7">
     <g id="line2d_7">
      <g>
       <use style="stroke:#000000;stroke-width:0.8;" x="340.449714" xlink:href="#m5b2c1b4217" y="307.584"/>
      </g>
     </g>
     <g id="text_7">
      <!-- 1200 -->
      <g transform="translate(327.724714 322.182437)scale(0.1 -0.1)">
       <use xlink:href="#DejaVuSans-31"/>
       <use x="63.623047" xlink:href="#DejaVuSans-32"/>
       <use x="127.246094" xlink:href="#DejaVuSans-30"/>
       <use x="190.869141" xlink:href="#DejaVuSans-30"/>
      </g>
     </g>
    </g>
    <g id="xtick_8">
     <g id="line2d_8">
      <g>
       <use style="stroke:#000000;stroke-width:0.8;" x="384.922939" xlink:href="#m5b2c1b4217" y="307.584"/>
      </g>
     </g>
     <g id="text_8">
      <!-- 1400 -->
      <g transform="translate(372.197939 322.182437)scale(0.1 -0.1)">
       <use xlink:href="#DejaVuSans-31"/>
       <use x="63.623047" xlink:href="#DejaVuSans-34"/>
       <use x="127.246094" xlink:href="#DejaVuSans-30"/>
       <use x="190.869141" xlink:href="#DejaVuSans-30"/>
      </g>
     </g>
    </g>
   </g>
   <g id="matplotlib.axis_2">
    <g id="ytick_1">
     <g id="line2d_9">
      <defs>
       <path d="M 0 0 
L -3.5 0 
" id="m81db0cd0b1" style="stroke:#000000;stroke-width:0.8;"/>
      </defs>
      <g>
       <use style="stroke:#000000;stroke-width:0.8;" x="57.6" xlink:href="#m81db0cd0b1" y="296.897355"/>
      </g>
     </g>
     <g id="text_9">
      <!-- 0.0 -->
      <defs>
       <path d="M 10.6875 12.40625 
L 21 12.40625 
L 21 0 
L 10.6875 0 
z
" id="DejaVuSans-2e"/>
      </defs>
      <g transform="translate(34.696875 300.696574)scale(0.1 -0.1)">
       <use xlink:href="#DejaVuSans-30"/>
       <use x="63.623047" xlink:href="#DejaVuSans-2e"/>
       <use x="95.410156" xlink:href="#DejaVuSans-30"/>
      </g>
     </g>
    </g>
    <g id="ytick_2">
     <g id="line2d_10">
      <g>
       <use style="stroke:#000000;stroke-width:0.8;" x="57.6" xlink:href="#m81db0cd0b1" y="257.580224"/>
      </g>
     </g>
     <g id="text_10">
      <!-- 0.1 -->
      <g transform="translate(34.696875 261.379443)scale(0.1 -0.1)">
       <use xlink:href="#DejaVuSans-30"/>
       <use x="63.623047" xlink:href="#DejaVuSans-2e"/>
       <use x="95.410156" xlink:href="#DejaVuSans-31"/>
      </g>
     </g>
    </g>
    <g id="ytick_3">
     <g id="line2d_11">
      <g>
       <use style="stroke:#000000;stroke-width:0.8;" x="57.6" xlink:href="#m81db0cd0b1" y="218.263093"/>
      </g>
     </g>
     <g id="text_11">
      <!-- 0.2 -->
      <g transform="translate(34.696875 222.062312)scale(0.1 -0.1)">
       <use xlink:href="#DejaVuSans-30"/>
       <use x="63.623047" xlink:href="#DejaVuSans-2e"/>
       <use x="95.410156" xlink:href="#DejaVuSans-32"/>
      </g>
     </g>
    </g>
    <g id="ytick_4">
     <g id="line2d_12">
      <g>
       <use style="stroke:#000000;stroke-width:0.8;" x="57.6" xlink:href="#m81db0cd0b1" y="178.945962"/>
      </g>
     </g>
     <g id="text_12">
      <!-- 0.3 -->
      <defs>
       <path d="M 40.578125 39.3125 
Q 47.65625 37.796875 51.625 33 
Q 55.609375 28.21875 55.609375 21.1875 
Q 55.609375 10.40625 48.1875 4.484375 
Q 40.765625 -1.421875 27.09375 -1.421875 
Q 22.515625 -1.421875 17.65625 -0.515625 
Q 12.796875 0.390625 7.625 2.203125 
L 7.625 11.71875 
Q 11.71875 9.328125 16.59375 8.109375 
Q 21.484375 6.890625 26.8125 6.890625 
Q 36.078125 6.890625 40.9375 10.546875 
Q 45.796875 14.203125 45.796875 21.1875 
Q 45.796875 27.640625 41.28125 31.265625 
Q 36.765625 34.90625 28.71875 34.90625 
L 20.21875 34.90625 
L 20.21875 43.015625 
L 29.109375 43.015625 
Q 36.375 43.015625 40.234375 45.921875 
Q 44.09375 48.828125 44.09375 54.296875 
Q 44.09375 59.90625 40.109375 62.90625 
Q 36.140625 65.921875 28.71875 65.921875 
Q 24.65625 65.921875 20.015625 65.03125 
Q 15.375 64.15625 9.8125 62.3125 
L 9.8125 71.09375 
Q 15.4375 72.65625 20.34375 73.4375 
Q 25.25 74.21875 29.59375 74.21875 
Q 40.828125 74.21875 47.359375 69.109375 
Q 53.90625 64.015625 53.90625 55.328125 
Q 53.90625 49.265625 50.4375 45.09375 
Q 46.96875 40.921875 40.578125 39.3125 
z
" id="DejaVuSans-33"/>
      </defs>
      <g transform="translate(34.696875 182.745181)scale(0.1 -0.1)">
       <use xlink:href="#DejaVuSans-30"/>
       <use x="63.623047" xlink:href="#DejaVuSans-2e"/>
       <use x="95.410156" xlink:href="#DejaVuSans-33"/>
      </g>
     </g>
    </g>
    <g id="ytick_5">
     <g id="line2d_13">
      <g>
       <use style="stroke:#000000;stroke-width:0.8;" x="57.6" xlink:href="#m81db0cd0b1" y="139.628831"/>
      </g>
     </g>
     <g id="text_13">
      <!-- 0.4 -->
      <g transform="translate(34.696875 143.42805)scale(0.1 -0.1)">
       <use xlink:href="#DejaVuSans-30"/>
       <use x="63.623047" xlink:href="#DejaVuSans-2e"/>
       <use x="95.410156" xlink:href="#DejaVuSans-34"/>
      </g>
     </g>
    </g>
    <g id="ytick_6">
     <g id="line2d_14">
      <g>
       <use style="stroke:#000000;stroke-width:0.8;" x="57.6" xlink:href="#m81db0cd0b1" y="100.3117"/>
      </g>
     </g>
     <g id="text_14">
      <!-- 0.5 -->
      <defs>
       <path d="M 10.796875 72.90625 
L 49.515625 72.90625 
L 49.515625 64.59375 
L 19.828125 64.59375 
L 19.828125 46.734375 
Q 21.96875 47.46875 24.109375 47.828125 
Q 26.265625 48.1875 28.421875 48.1875 
Q 40.625 48.1875 47.75 41.5 
Q 54.890625 34.8125 54.890625 23.390625 
Q 54.890625 11.625 47.5625 5.09375 
Q 40.234375 -1.421875 26.90625 -1.421875 
Q 22.3125 -1.421875 17.546875 -0.640625 
Q 12.796875 0.140625 7.71875 1.703125 
L 7.71875 11.625 
Q 12.109375 9.234375 16.796875 8.0625 
Q 21.484375 6.890625 26.703125 6.890625 
Q 35.15625 6.890625 40.078125 11.328125 
Q 45.015625 15.765625 45.015625 23.390625 
Q 45.015625 31 40.078125 35.4375 
Q 35.15625 39.890625 26.703125 39.890625 
Q 22.75 39.890625 18.8125 39.015625 
Q 14.890625 38.140625 10.796875 36.28125 
z
" id="DejaVuSans-35"/>
      </defs>
      <g transform="translate(34.696875 104.110919)scale(0.1 -0.1)">
       <use xlink:href="#DejaVuSans-30"/>
       <use x="63.623047" xlink:href="#DejaVuSans-2e"/>
       <use x="95.410156" xlink:href="#DejaVuSans-35"/>
      </g>
     </g>
    </g>
    <g id="ytick_7">
     <g id="line2d_15">
      <g>
       <use style="stroke:#000000;stroke-width:0.8;" x="57.6" xlink:href="#m81db0cd0b1" y="60.994569"/>
      </g>
     </g>
     <g id="text_15">
      <!-- 0.6 -->
      <g transform="translate(34.696875 64.793788)scale(0.1 -0.1)">
       <use xlink:href="#DejaVuSans-30"/>
       <use x="63.623047" xlink:href="#DejaVuSans-2e"/>
       <use x="95.410156" xlink:href="#DejaVuSans-36"/>
      </g>
     </g>
    </g>
   </g>
   <g id="line2d_16">
    <path clip-path="url(#p6f7e88c1bc)" d="M 73.832727 146.946186 
L 74.055093 182.659247 
L 74.499826 215.860379 
L 74.722192 211.928666 
L 74.944558 219.792093 
L 75.166924 219.246021 
L 75.38929 197.403171 
L 75.611656 191.833244 
L 75.834022 195.000457 
L 76.945853 165.621823 
L 77.168219 164.529681 
L 77.612951 156.666255 
L 78.057684 101.513057 
L 78.28005 111.34234 
L 78.502416 91.57456 
L 78.724782 91.246917 
L 79.614247 200.46117 
L 79.836613 201.334884 
L 80.058979 226.126519 
L 80.281345 206.249525 
L 80.503711 220.22895 
L 80.726077 182.877675 
L 80.948443 182.986889 
L 81.170809 189.43053 
L 81.393176 182.877675 
L 81.615542 164.857323 
L 81.837908 156.120183 
L 82.28264 161.799324 
L 82.505006 167.478466 
L 82.949738 151.42397 
L 83.172105 116.47541 
L 83.616837 95.287845 
L 83.839203 102.714414 
L 84.061569 114.509553 
L 84.283935 138.645903 
L 84.506301 143.888187 
L 84.951034 195.218886 
L 85.1734 223.396163 
L 85.395766 217.389379 
L 85.618132 218.590736 
L 86.062864 226.126519 
L 86.28523 210.290453 
L 86.507597 211.928666 
L 86.729963 186.918603 
L 86.952329 189.758173 
L 87.174695 199.150599 
L 87.397061 196.857099 
L 87.841793 183.532961 
L 88.064159 162.017753 
L 88.286526 155.901755 
L 88.508892 140.502545 
L 88.953624 93.103559 
L 89.17599 107.301412 
L 89.398356 82.400563 
L 89.620722 145.635615 
L 89.843088 123.68355 
L 90.065455 162.126967 
L 90.287821 179.273605 
L 90.732553 235.300516 
L 90.954919 219.246021 
L 91.177285 216.188022 
L 91.622017 200.570384 
L 91.844384 189.43053 
L 92.289116 203.519169 
L 92.511482 177.526177 
L 92.733848 169.007465 
L 92.956214 175.451106 
L 93.17858 159.615039 
L 93.400946 153.935898 
L 93.623313 140.830188 
L 93.845679 139.08276 
L 94.290411 71.80678 
L 94.512777 81.636063 
L 94.735143 82.400563 
L 94.957509 143.997401 
L 95.179875 146.400115 
L 95.624608 183.205318 
L 96.06934 230.276661 
L 96.291706 222.194806 
L 96.514072 222.194806 
L 96.958804 199.805884 
L 97.181171 195.000457 
L 97.403537 194.454386 
L 97.625903 181.348676 
L 97.848269 191.068744 
L 98.070635 189.43053 
L 98.293001 178.072248 
L 98.515367 155.683326 
L 98.737733 158.522897 
L 98.9601 155.137255 
L 99.404832 83.601919 
L 99.627198 103.151271 
L 99.849564 87.642847 
L 100.07193 90.263989 
L 100.294296 120.407123 
L 100.516663 177.307748 
L 100.739029 173.376035 
L 101.183761 203.30074 
L 101.628493 228.310804 
L 102.073225 201.007241 
L 102.295592 188.119959 
L 102.517958 203.30074 
L 102.740324 180.038105 
L 102.96269 180.584176 
L 103.185056 167.369251 
L 103.407422 182.659247 
L 103.629788 183.642175 
L 103.852154 146.618543 
L 104.296887 119.861051 
L 104.519253 113.963482 
L 104.741619 85.458562 
L 105.186351 73.33578 
L 106.075816 172.72075 
L 106.520548 207.887739 
L 106.742914 223.286949 
L 106.96528 223.942234 
L 107.187646 200.024313 
L 107.410012 202.754669 
L 107.632379 196.857099 
L 107.854745 196.747885 
L 108.521843 181.785533 
L 108.744209 169.007465 
L 108.966575 166.386323 
L 109.188941 156.993897 
L 109.411308 161.471682 
L 109.633674 156.447826 
L 109.85604 141.376259 
L 110.078406 79.560992 
L 110.300772 53.568 
L 110.523138 95.724702 
L 110.745504 95.724702 
L 110.96787 117.676766 
L 111.412603 184.952746 
L 111.634969 195.983385 
L 111.857335 216.843308 
L 112.079701 203.737597 
L 112.302067 218.263093 
L 112.7468 194.017529 
L 112.969166 187.683102 
L 113.191532 193.034601 
L 113.413898 195.109671 
L 113.636264 167.478466 
L 113.85863 179.92889 
L 114.080996 162.782253 
L 114.303362 176.434034 
L 114.525729 160.816396 
L 114.748095 177.744605 
L 114.970461 145.635615 
L 115.192827 129.799548 
L 115.415193 102.168342 
L 115.637559 110.250197 
L 115.859925 89.717918 
L 116.304658 121.936122 
L 116.527024 139.519617 
L 116.74939 178.836748 
L 116.971756 198.495313 
L 117.194122 196.311028 
L 117.416488 201.22567 
L 117.638854 200.679598 
L 117.86122 220.338164 
L 118.083587 207.014025 
L 118.305953 183.532961 
L 118.528319 202.863883 
L 118.750685 178.509105 
L 119.195417 182.22239 
L 119.417783 157.867611 
L 119.640149 169.444322 
L 119.862516 171.737821 
L 120.084882 152.95297 
L 120.307248 151.314756 
L 120.529614 116.038553 
L 120.75198 107.956698 
L 120.974346 92.557488 
L 121.196712 104.571056 
L 121.419078 92.448274 
L 121.641445 108.284341 
L 122.086177 167.041609 
L 122.753275 224.379091 
L 122.975641 225.689662 
L 123.198007 208.43381 
L 123.420374 209.19831 
L 123.865106 197.293957 
L 124.309838 188.775245 
L 124.532204 187.901531 
L 124.75457 170.208822 
L 125.199303 164.857323 
L 125.421669 170.42725 
L 125.644035 140.611759 
L 125.866401 136.570832 
L 126.088767 113.526625 
L 126.311133 77.376707 
L 126.533499 114.291124 
L 126.755866 102.714414 
L 126.978232 150.113399 
L 127.200598 149.3489 
L 127.422964 184.079032 
L 127.64533 184.734317 
L 127.867696 207.123239 
L 128.090062 205.485025 
L 128.312428 232.57016 
L 128.534795 213.785309 
L 128.757161 208.43381 
L 129.201893 181.894747 
L 129.424259 191.396387 
L 129.646625 185.280389 
L 129.868991 119.096552 
L 130.313724 194.235957 
L 130.758456 144.434258 
L 130.980822 141.703902 
L 131.203188 118.768909 
L 131.425554 109.704126 
L 131.64792 109.594912 
L 131.870286 87.642847 
L 132.092653 81.089992 
L 132.759751 189.212102 
L 133.649215 221.430306 
L 133.871582 219.136807 
L 134.093948 214.003737 
L 134.316314 201.22567 
L 134.53868 175.56032 
L 134.761046 205.266597 
L 134.983412 177.744605 
L 135.205778 183.096104 
L 135.428144 176.761677 
L 135.650511 178.945962 
L 135.872877 173.157607 
L 136.095243 154.263541 
L 136.317609 148.5844 
L 136.539975 149.021257 
L 136.762341 102.714414 
L 136.984707 87.642847 
L 137.207073 91.246917 
L 137.42944 85.130919 
L 137.651806 138.099832 
L 137.874172 152.18847 
L 138.318904 206.249525 
L 138.54127 207.669311 
L 138.763636 219.027593 
L 138.986002 212.583952 
L 139.208369 219.901307 
L 139.430735 199.69667 
L 139.653101 196.529457 
L 139.875467 197.730814 
L 140.097833 206.467954 
L 140.320199 192.160887 
L 140.542565 167.150823 
L 140.764932 187.901531 
L 140.987298 186.044888 
L 141.209664 170.645679 
L 141.43203 163.874395 
L 141.876762 133.075976 
L 142.099128 92.775917 
L 142.321494 88.188918 
L 142.543861 103.369699 
L 142.766227 99.110343 
L 143.210959 156.229398 
L 143.655691 203.956026 
L 143.878057 221.648735 
L 144.100423 202.099384 
L 144.32279 226.67259 
L 144.545156 213.785309 
L 144.767522 207.887739 
L 144.989888 196.638671 
L 145.212254 195.764957 
L 145.43462 173.922106 
L 145.879352 195.000457 
L 146.101719 185.389603 
L 146.324085 184.29746 
L 146.546451 171.737821 
L 146.991183 137.662975 
L 147.213549 123.901979 
L 147.435915 100.639343 
L 147.658281 94.41413 
L 147.880648 93.977273 
L 148.103014 83.601919 
L 148.770112 191.72403 
L 148.992478 199.369027 
L 149.214844 196.420242 
L 149.43721 217.607808 
L 149.659577 215.532737 
L 149.881943 230.495089 
L 150.104309 212.147095 
L 150.326675 177.963034 
L 150.549041 219.573664 
L 150.993773 176.761677 
L 151.438506 191.614815 
L 152.105604 156.120183 
L 152.32797 138.755117 
L 152.550336 136.680046 
L 152.772702 117.458338 
L 152.995068 118.113623 
L 153.217435 76.721422 
L 153.439801 111.560768 
L 153.662167 120.625551 
L 154.551631 206.140311 
L 154.773998 221.976378 
L 154.996364 219.136807 
L 155.21873 210.508881 
L 155.441096 194.017529 
L 155.663462 192.706958 
L 155.885828 179.601248 
L 156.108194 174.249749 
L 156.33056 178.618319 
L 156.552927 168.024537 
L 156.775293 168.242965 
L 156.997659 162.891467 
L 157.220025 169.553536 
L 157.442391 155.901755 
L 157.664757 132.639119 
L 157.887123 130.891691 
L 158.109489 127.724478 
L 158.331856 97.144487 
L 158.554222 95.615487 
L 158.776588 102.605199 
L 158.998954 130.236405 
L 159.22132 127.506049 
L 159.443686 182.331604 
L 160.333151 229.402947 
L 160.555517 219.682878 
L 160.777883 217.498593 
L 161.000249 218.263093 
L 161.444981 193.471458 
L 161.667347 188.447602 
L 161.889714 186.044888 
L 162.11208 196.0926 
L 162.556812 159.724254 
L 162.779178 175.123463 
L 163.001544 160.816396 
L 163.22391 136.352404 
L 163.446276 95.069416 
L 163.668643 90.482417 
L 163.891009 94.523345 
L 164.113375 111.779197 
L 164.558107 168.898251 
L 164.780473 182.877675 
L 165.002839 210.399667 
L 165.225205 214.003737 
L 165.447572 223.286949 
L 166.11467 204.720526 
L 166.337036 183.642175 
L 166.559402 202.317812 
L 166.781768 182.986889 
L 167.004134 181.348676 
L 167.226501 209.089096 
L 167.448867 265.44365 
L 167.671233 290.180678 
L 167.893599 292.310356 
L 168.115965 256.924938 
L 168.338331 169.225894 
L 168.560697 140.174902 
L 168.783064 149.3489 
L 169.00543 100.857771 
L 169.227796 87.20599 
L 169.672528 133.512833 
L 170.11726 183.314532 
L 170.784359 213.348452 
L 171.006725 231.041161 
L 171.229091 234.09916 
L 171.451457 213.894523 
L 171.673823 212.80238 
L 171.896189 192.816172 
L 172.118555 189.976602 
L 172.340922 207.123239 
L 172.563288 202.427026 
L 172.785654 186.700174 
L 173.00802 189.43053 
L 173.230386 176.980106 
L 173.452752 154.918826 
L 173.675118 169.553536 
L 174.119851 102.277557 
L 174.342217 99.437986 
L 174.564583 90.04556 
L 174.786949 73.991065 
L 175.231681 161.144039 
L 175.454047 173.594464 
L 175.676413 202.099384 
L 175.89878 194.126743 
L 176.121146 220.338164 
L 176.343512 222.959306 
L 176.565878 232.897803 
L 177.01061 195.000457 
L 177.232976 202.427026 
L 177.455342 196.311028 
L 177.677709 198.93217 
L 177.900075 215.314308 
L 178.344807 188.775245 
L 179.011905 166.713966 
L 179.234271 123.68355 
L 179.456638 103.042056 
L 179.679004 103.369699 
L 179.90137 92.229845 
L 180.123736 87.97049 
L 180.790834 192.051672 
L 181.902665 229.73059 
L 182.347397 193.034601 
L 182.569763 209.525953 
L 182.79213 193.689886 
L 183.014496 189.539745 
L 183.236862 193.253029 
L 183.459228 193.253029 
L 183.681594 162.673038 
L 183.90396 157.649183 
L 184.126326 161.471682 
L 184.348692 156.884683 
L 185.238157 83.929562 
L 185.460523 119.533409 
L 185.905255 145.089544 
L 186.127621 176.215606 
L 186.349988 185.06196 
L 186.572354 201.662527 
L 186.79472 235.191302 
L 187.017086 235.082088 
L 187.684184 196.638671 
L 187.90655 207.669311 
L 188.128917 212.583952 
L 188.351283 188.119959 
L 188.796015 181.785533 
L 189.018381 160.270325 
L 189.240747 176.32482 
L 189.463113 156.338612 
L 189.685479 166.713966 
L 189.907846 125.21255 
L 190.130212 115.820124 
L 190.352578 90.04556 
L 190.574944 114.509553 
L 190.79731 107.301412 
L 191.242042 174.140535 
L 191.464408 169.771965 
L 191.909141 222.30402 
L 192.131507 207.778525 
L 192.353873 224.379091 
L 192.576239 220.338164 
L 192.798605 211.054952 
L 193.020971 187.137031 
L 193.465704 196.529457 
L 194.132802 85.021705 
L 194.355168 164.092824 
L 194.577534 148.475186 
L 194.7999 158.741325 
L 195.022267 160.379539 
L 195.244633 160.488753 
L 195.689365 103.042056 
L 195.911731 100.202486 
L 196.356463 122.91905 
L 196.801196 180.365747 
L 197.023562 191.614815 
L 197.245928 191.068744 
L 197.69066 239.341444 
L 197.913026 220.665807 
L 198.135392 212.80238 
L 198.580125 219.136807 
L 198.802491 216.078808 
L 199.024857 197.621599 
L 199.247223 209.19831 
L 199.469589 211.928666 
L 199.691955 188.119959 
L 199.914321 180.69339 
L 200.136687 177.08932 
L 200.803786 122.372979 
L 201.248518 112.980553 
L 201.470884 121.499265 
L 201.69325 138.973546 
L 201.915616 169.444322 
L 202.137983 172.829964 
L 202.360349 206.031097 
L 202.582715 210.508881 
L 202.805081 218.69995 
L 203.027447 232.460946 
L 203.249813 228.20159 
L 203.472179 219.355236 
L 203.694545 216.078808 
L 203.916912 194.5636 
L 204.139278 207.669311 
L 204.361644 211.054952 
L 204.58401 170.208822 
L 204.806376 187.792317 
L 205.028742 175.451106 
L 205.251108 178.072248 
L 205.473474 170.864107 
L 205.695841 171.628607 
L 205.918207 133.622047 
L 206.140573 116.584624 
L 206.362939 109.376483 
L 206.585305 106.427698 
L 206.807671 86.223062 
L 207.030037 149.567328 
L 207.252403 153.280613 
L 208.364234 253.539297 
L 208.5866 241.744157 
L 208.808966 211.164167 
L 209.031333 209.635167 
L 209.253699 207.123239 
L 209.476065 194.891243 
L 209.698431 202.754669 
L 210.143163 187.683102 
L 210.365529 191.068744 
L 210.587895 172.065464 
L 210.810262 188.119959 
L 211.254994 145.854044 
L 211.47736 136.570832 
L 211.699726 133.294404 
L 211.922092 119.970266 
L 212.144458 123.355907 
L 212.366824 151.751613 
L 212.589191 156.884683 
L 212.811557 183.205318 
L 213.256289 207.014025 
L 213.478655 230.713518 
L 213.701021 237.375587 
L 214.145753 207.341668 
L 214.36812 203.082312 
L 214.590486 208.543025 
L 214.812852 195.874171 
L 215.035218 207.341668 
L 215.257584 175.451106 
L 215.47995 192.816172 
L 215.702316 171.628607 
L 215.924682 182.003961 
L 216.147049 164.311252 
L 216.369415 155.464898 
L 216.591781 154.481969 
L 217.036513 98.127415 
L 217.258879 109.594912 
L 217.481245 102.714414 
L 217.703611 142.68683 
L 217.925978 157.430754 
L 218.148344 194.454386 
L 218.37071 194.126743 
L 218.815442 227.327876 
L 219.037808 215.751165 
L 219.260174 228.092376 
L 219.48254 200.679598 
L 219.704907 205.266597 
L 219.927273 213.020809 
L 220.149639 196.857099 
L 220.372005 196.966314 
L 220.594371 215.09588 
L 220.816737 195.546528 
L 221.039103 198.276885 
L 221.706202 143.45133 
L 221.928568 146.290901 
L 222.150934 114.94641 
L 222.595666 92.33906 
L 222.818032 121.062408 
L 223.040399 133.294404 
L 223.485131 192.597744 
L 223.707497 196.638671 
L 223.929863 210.290453 
L 224.152229 216.078808 
L 224.374595 213.894523 
L 224.596961 223.286949 
L 224.819328 218.044665 
L 225.041694 204.720526 
L 225.26406 203.519169 
L 225.708792 188.447602 
L 225.931158 169.990393 
L 226.153524 188.447602 
L 226.598257 164.092824 
L 226.820623 171.628607 
L 227.042989 145.089544 
L 227.265355 148.256757 
L 227.932453 106.97377 
L 228.154819 101.294628 
L 229.044284 213.56688 
L 229.26665 213.020809 
L 229.711382 229.402947 
L 229.933748 220.775021 
L 230.378481 188.666031 
L 230.600847 201.990169 
L 230.823213 191.287173 
L 231.045579 172.393107 
L 231.267945 179.055176 
L 231.490311 169.771965 
L 231.712677 168.679822 
L 231.935044 181.785533 
L 232.15741 173.048392 
L 232.379776 147.164615 
L 232.602142 137.226118 
L 233.046874 88.079704 
L 233.26924 109.81334 
L 233.491606 106.755341 
L 233.713973 142.468402 
L 233.936339 153.062184 
L 234.158705 201.116455 
L 234.381071 200.351956 
L 234.603437 206.358739 
L 235.048169 235.191302 
L 235.715268 211.491809 
L 235.937634 211.491809 
L 236.16 214.440594 
L 236.382366 198.058456 
L 236.604732 198.604528 
L 236.827098 194.235957 
L 237.049465 181.676318 
L 237.271831 195.3281 
L 237.716563 150.659471 
L 237.938929 154.700398 
L 238.161295 109.704126 
L 238.383661 91.465346 
L 238.606027 100.093272 
L 238.828394 102.386771 
L 239.05076 113.745053 
L 239.273126 160.488753 
L 239.495492 172.72075 
L 239.717858 202.645455 
L 239.940224 216.406451 
L 240.16259 213.239237 
L 240.607323 234.972874 
L 240.829689 220.119735 
L 241.052055 213.130023 
L 241.496787 193.471458 
L 241.719153 190.413459 
L 241.941519 170.864107 
L 242.386252 196.857099 
L 242.608618 191.72403 
L 242.830984 157.758397 
L 243.05335 154.481969 
L 243.275716 162.673038 
L 243.498082 115.274053 
L 243.720448 123.246693 
L 243.942814 107.301412 
L 244.165181 109.158055 
L 244.832279 163.874395 
L 245.054645 200.570384 
L 245.277011 204.502097 
L 245.499377 215.09588 
L 245.721743 238.576944 
L 245.94411 223.06852 
L 246.166476 219.355236 
L 246.388842 191.287173 
L 246.833574 196.966314 
L 247.278306 191.72403 
L 247.500672 159.724254 
L 247.723039 178.618319 
L 247.945405 177.635391 
L 248.167771 159.615039 
L 248.390137 156.884683 
L 248.612503 140.174902 
L 248.834869 106.97377 
L 249.279601 102.277557 
L 249.501968 105.881627 
L 250.613798 214.222166 
L 250.836164 227.873947 
L 251.058531 224.59752 
L 251.280897 217.389379 
L 251.503263 204.82974 
L 251.725629 181.021033 
L 251.947995 187.246245 
L 252.170361 199.587456 
L 252.392727 199.041385 
L 252.615093 174.468178 
L 252.83746 166.167894 
L 253.059826 153.499041 
L 253.282192 167.150823 
L 253.504558 169.771965 
L 254.394022 98.782701 
L 254.616389 114.18191 
L 254.838755 114.727981 
L 255.061121 115.929338 
L 255.283487 156.993897 
L 255.505853 176.870891 
L 255.728219 181.239461 
L 255.950585 209.089096 
L 256.172951 216.843308 
L 256.395318 232.679374 
L 256.84005 206.577168 
L 257.062416 202.754669 
L 257.284782 195.109671 
L 257.507148 198.93217 
L 257.729514 167.806108 
L 257.95188 184.734317 
L 258.174247 180.147319 
L 258.396613 163.765181 
L 258.618979 170.318036 
L 259.286077 146.727758 
L 259.730809 112.543696 
L 259.953176 115.820124 
L 260.175542 125.103335 
L 261.065006 187.246245 
L 261.287372 200.024313 
L 261.509738 223.942234 
L 261.732105 224.379091 
L 261.954471 208.870667 
L 262.176837 203.737597 
L 262.399203 195.655743 
L 262.621569 208.761453 
L 262.843935 199.478242 
L 263.066301 165.184966 
L 263.288667 182.550032 
L 263.511034 188.666031 
L 263.7334 154.700398 
L 263.955766 170.645679 
L 264.178132 153.499041 
L 264.400498 150.004185 
L 264.622864 144.434258 
L 264.84523 126.959978 
L 265.067597 124.666478 
L 265.289963 96.598416 
L 265.512329 105.226342 
L 265.734695 154.263541 
L 266.179427 180.038105 
L 266.401793 205.59424 
L 266.846526 230.931946 
L 267.068892 224.051448 
L 267.291258 206.140311 
L 267.513624 219.46445 
L 267.73599 201.444098 
L 267.958356 200.46117 
L 268.180722 194.235957 
L 268.403088 177.526177 
L 268.625455 179.164391 
L 268.847821 173.812892 
L 269.070187 162.891467 
L 269.292553 161.034825 
L 269.514919 163.765181 
L 269.737285 141.92233 
L 269.959651 143.997401 
L 270.182017 119.861051 
L 270.404384 110.031769 
L 270.62675 88.298132 
L 270.849116 101.403843 
L 271.516214 190.304244 
L 271.73858 186.481745 
L 271.960946 223.614591 
L 272.183313 225.689662 
L 272.405679 219.682878 
L 272.628045 231.914875 
L 273.072777 220.338164 
L 273.295143 219.136807 
L 273.517509 205.048168 
L 273.739875 177.744605 
L 273.962242 198.822956 
L 274.406974 170.645679 
L 274.62934 155.137255 
L 274.851706 173.812892 
L 275.296438 143.560544 
L 275.518804 147.383043 
L 275.741171 128.161335 
L 275.963537 93.977273 
L 276.185903 127.178406 
L 276.408269 138.31826 
L 276.630635 157.430754 
L 276.853001 191.068744 
L 277.075367 197.293957 
L 277.297733 206.686382 
L 277.742466 230.604304 
L 277.964832 228.747661 
L 278.187198 225.471234 
L 278.409564 225.252805 
L 278.63193 215.09588 
L 278.854296 195.218886 
L 279.299029 205.59424 
L 279.521395 181.785533 
L 279.743761 177.635391 
L 279.966127 187.027817 
L 280.188493 167.041609 
L 280.633225 159.287397 
L 280.855592 116.366195 
L 281.300324 104.024985 
L 281.52269 132.748333 
L 281.745056 130.782477 
L 281.967422 170.864107 
L 282.189788 184.29746 
L 282.412154 189.321316 
L 282.634521 210.290453 
L 282.856887 219.246021 
L 283.079253 221.648735 
L 283.301619 232.788589 
L 283.746351 187.246245 
L 283.968717 210.72731 
L 284.191083 190.850316 
L 284.41345 195.218886 
L 284.635816 193.034601 
L 284.858182 175.341892 
L 285.080548 190.522673 
L 285.302914 186.809388 
L 285.52528 170.42725 
L 285.747646 180.584176 
L 285.970012 129.690334 
L 286.192379 109.158055 
L 286.414745 106.536913 
L 286.637111 90.04556 
L 286.859477 111.669982 
L 287.081843 111.779197 
L 287.304209 178.399891 
L 287.748941 202.099384 
L 287.971308 202.099384 
L 288.41604 239.887515 
L 288.860772 189.539745 
L 289.083138 208.324596 
L 289.52787 192.051672 
L 289.750237 204.06524 
L 289.972603 202.536241 
L 290.194969 180.584176 
L 290.639701 192.160887 
L 290.862067 185.82646 
L 291.084433 151.860827 
L 291.751532 123.355907 
L 291.973898 122.91905 
L 292.196264 108.065912 
L 292.41863 120.297908 
L 293.085729 195.983385 
L 293.308095 202.536241 
L 293.530461 227.327876 
L 293.752827 225.798876 
L 293.975193 213.130023 
L 294.197559 218.263093 
L 294.419925 199.150599 
L 294.642291 192.925386 
L 294.864658 201.22567 
L 295.087024 200.570384 
L 295.531756 180.474962 
L 296.42122 150.222614 
L 296.643587 163.109895 
L 297.088319 93.103559 
L 297.310685 95.94313 
L 297.533051 114.837196 
L 297.755417 113.854267 
L 297.977783 156.338612 
L 298.200149 160.707182 
L 298.422516 193.7991 
L 298.867248 203.519169 
L 299.089614 229.293733 
L 299.31198 225.580448 
L 299.534346 201.334884 
L 300.201445 179.710462 
L 300.423811 175.341892 
L 300.646177 173.266821 
L 300.868543 187.35546 
L 301.090909 185.280389 
L 301.535641 154.809612 
L 301.758007 155.355683 
L 301.980374 133.731261 
L 302.20274 135.041832 
L 302.647472 110.796268 
L 302.869838 114.509553 
L 303.092204 132.093048 
L 303.31457 139.519617 
L 303.536936 187.027817 
L 303.759303 189.43053 
L 304.204035 228.20159 
L 304.426401 227.873947 
L 304.648767 206.795596 
L 304.871133 199.587456 
L 305.093499 182.986889 
L 305.315866 190.850316 
L 305.760598 165.731037 
L 305.982964 178.290677 
L 306.20533 169.116679 
L 306.427696 165.840252 
L 306.650062 160.270325 
L 306.872428 147.383043 
L 307.094795 147.929114 
L 307.539527 100.639343 
L 307.761893 102.168342 
L 307.984259 99.001129 
L 308.206625 98.018201 
L 309.318456 211.273381 
L 309.540822 228.092376 
L 309.763188 230.276661 
L 309.985554 229.949018 
L 310.20792 209.96281 
L 310.430286 204.502097 
L 310.652653 204.502097 
L 310.875019 188.993673 
L 311.097385 202.645455 
L 311.542117 182.877675 
L 311.986849 157.32154 
L 312.209215 165.29418 
L 312.431582 142.796044 
L 312.876314 131.328548 
L 313.321046 104.134199 
L 313.543412 129.908763 
L 313.988144 151.096328 
L 314.210511 187.573888 
L 314.432877 190.95953 
L 314.877609 222.631663 
L 315.099975 225.362019 
L 315.322341 226.126519 
L 315.544707 209.853596 
L 315.767073 223.723806 
L 315.98944 190.085816 
L 316.211806 203.30074 
L 316.434172 185.280389 
L 316.656538 187.137031 
L 316.878904 202.973098 
L 317.10127 183.969818 
L 317.323636 178.618319 
L 317.546002 178.072248 
L 317.768369 157.867611 
L 317.990735 150.222614 
L 318.213101 124.666478 
L 318.435467 126.086264 
L 318.657833 111.779197 
L 319.102565 130.127191 
L 319.547298 181.45789 
L 319.99203 219.792093 
L 320.214396 218.372307 
L 320.659128 223.177734 
L 321.103861 207.123239 
L 321.326227 194.891243 
L 321.548593 191.614815 
L 321.770959 190.522673 
L 321.993325 182.768461 
L 322.215691 192.488529 
L 322.438057 188.884459 
L 322.660423 180.69339 
L 323.105156 152.625327 
L 323.327522 151.970042 
L 323.772254 114.727981 
L 323.99462 105.007913 
L 324.216986 105.117127 
L 324.439352 128.488977 
L 324.884085 197.293957 
L 325.106451 197.293957 
L 325.328817 218.153879 
L 325.773549 237.047944 
L 325.995915 216.188022 
L 326.440648 197.840028 
L 326.663014 201.990169 
L 326.88538 194.345172 
L 327.107746 202.208598 
L 327.330112 185.171174 
L 327.552478 181.021033 
L 327.774844 182.768461 
L 327.99721 182.877675 
L 329.331407 115.929338 
L 329.553773 131.437762 
L 329.776139 121.499265 
L 329.998506 163.655967 
L 330.220872 178.945962 
L 330.443238 211.273381 
L 330.665604 218.918379 
L 330.88797 217.280165 
L 331.110336 208.652239 
L 331.332702 221.648735 
L 331.555068 193.253029 
L 331.999801 206.686382 
L 332.222167 188.338388 
L 332.444533 179.92889 
L 332.666899 198.822956 
L 332.889265 180.256533 
L 333.111631 183.205318 
L 333.333998 163.437538 
L 333.556364 171.082536 
L 333.77873 148.365971 
L 334.223462 123.246693 
L 334.445828 93.212774 
L 335.335293 164.966538 
L 335.557659 200.133527 
L 335.780025 196.747885 
L 336.002391 213.894523 
L 336.224757 210.399667 
L 336.447123 221.321092 
L 336.891856 201.22567 
L 337.114222 202.645455 
L 337.336588 185.608031 
L 337.558954 193.034601 
L 337.78132 191.833244 
L 338.003686 173.048392 
L 338.226052 184.625103 
L 338.448418 160.051896 
L 338.670785 159.178182 
L 338.893151 165.621823 
L 339.337883 126.304692 
L 339.560249 122.700622 
L 339.782615 86.987561 
L 340.004981 109.376483 
L 340.227347 96.052344 
L 340.449714 131.765405 
L 340.67208 137.007689 
L 341.116812 195.437314 
L 341.561544 227.764733 
L 341.78391 215.423522 
L 342.006276 216.734093 
L 342.451009 195.546528 
L 342.673375 169.225894 
L 342.895741 186.481745 
L 343.118107 179.273605 
L 343.340473 181.785533 
L 343.562839 162.563824 
L 343.785205 157.649183 
L 344.007572 146.727758 
L 344.229938 152.406899 
L 344.452304 132.857547 
L 344.897036 111.669982 
L 345.119402 86.769133 
L 345.341768 126.959978 
L 345.564134 128.05212 
L 345.786501 154.591184 
L 346.008867 150.113399 
L 346.231233 191.068744 
L 346.453599 183.205318 
L 346.675965 197.075528 
L 346.898331 232.788589 
L 347.120697 230.713518 
L 347.343064 229.949018 
L 347.56543 214.768237 
L 347.787796 212.80238 
L 348.010162 224.925162 
L 348.67726 180.584176 
L 349.121993 195.218886 
L 349.344359 186.044888 
L 349.789091 157.539969 
L 350.011457 148.912043 
L 350.456189 83.383491 
L 350.678555 109.81334 
L 350.900922 109.594912 
L 351.123288 106.97377 
L 351.56802 182.331604 
L 351.790386 188.884459 
L 352.012752 219.136807 
L 352.235118 222.631663 
L 352.457484 218.918379 
L 352.679851 219.246021 
L 352.902217 200.679598 
L 353.124583 206.140311 
L 353.346949 188.556816 
L 353.569315 189.102888 
L 353.791681 197.730814 
L 354.014047 190.741101 
L 354.236413 162.017753 
L 354.45878 178.945962 
L 354.681146 148.912043 
L 354.903512 168.133751 
L 355.125878 157.539969 
L 355.792976 109.704126 
L 356.015342 70.933066 
L 356.460075 124.994121 
L 356.682441 117.021481 
L 356.904807 189.43053 
L 357.349539 211.054952 
L 357.571905 218.153879 
L 357.794271 214.549808 
L 358.016638 215.969594 
L 358.239004 202.427026 
L 358.46137 120.407123 
L 358.683736 125.649407 
L 358.906102 191.068744 
L 359.128468 176.215606 
L 359.350834 172.829964 
L 359.795567 150.222614 
L 360.017933 150.550256 
L 360.240299 147.273829 
L 360.462665 149.785757 
L 360.907397 96.379987 
L 361.129763 91.246917 
L 361.574496 108.175126 
L 361.796862 119.096552 
L 362.241594 179.710462 
L 362.686326 210.399667 
L 362.908692 223.723806 
L 363.131059 216.297236 
L 363.353425 220.556592 
L 363.575791 210.836524 
L 363.798157 213.457666 
L 364.020523 196.0926 
L 364.242889 188.229174 
L 364.465255 194.126743 
L 364.687621 166.932394 
L 364.909988 183.642175 
L 365.132354 176.215606 
L 365.35472 158.741325 
L 365.577086 159.615039 
L 366.244184 129.690334 
L 366.46655 102.823628 
L 366.688917 103.151271 
L 366.911283 111.233125 
L 367.133649 136.243189 
L 367.356015 143.123687 
L 367.800747 196.420242 
L 368.023113 201.22567 
L 368.245479 212.037881 
L 368.467846 216.624879 
L 368.690212 215.860379 
L 368.912578 200.570384 
L 369.134944 211.382595 
L 369.35731 200.898027 
L 369.579676 177.963034 
L 369.802042 177.416963 
L 370.024408 171.410179 
L 370.246775 173.703678 
L 370.469141 156.447826 
L 370.691507 158.959754 
L 370.913873 178.290677 
L 371.136239 160.816396 
L 371.580971 99.219558 
L 372.025704 87.424418 
L 372.24807 93.868059 
L 373.137534 205.921882 
L 373.3599 200.898027 
L 373.582267 219.355236 
L 373.804633 217.498593 
L 374.026999 201.880955 
L 374.249365 214.440594 
L 374.471731 194.017529 
L 374.694097 189.976602 
L 374.916463 180.69339 
L 375.138829 165.512609 
L 375.361196 188.884459 
L 376.028294 150.659471 
L 376.25066 131.110119 
L 376.473026 162.45461 
L 376.917758 89.717918 
L 377.140125 96.379987 
L 377.362491 96.379987 
L 377.584857 91.57456 
L 378.474321 187.792317 
L 378.696687 192.816172 
L 378.919054 213.676094 
L 379.14142 216.515665 
L 379.363786 225.034377 
L 379.586152 181.676318 
L 379.808518 166.932394 
L 380.25325 173.157607 
L 380.475616 169.335108 
L 380.697983 158.959754 
L 380.920349 133.622047 
L 381.142715 150.659471 
L 381.365081 156.666255 
L 381.587447 133.403619 
L 381.809813 137.662975 
L 382.032179 125.97705 
L 382.254545 89.717918 
L 382.699278 105.990841 
L 382.921644 107.410627 
L 383.14401 103.042056 
L 383.588742 172.72075 
L 384.255841 224.051448 
L 384.700573 238.576944 
L 384.922939 211.054952 
L 385.145305 201.334884 
L 385.367671 212.037881 
L 385.590037 193.580672 
L 385.812403 192.270101 
L 386.03477 174.031321 
L 386.257136 191.833244 
L 386.479502 166.167894 
L 386.924234 158.413683 
L 387.1466 159.287397 
L 387.368966 142.359187 
L 387.591333 106.318484 
L 387.813699 93.649631 
L 388.036065 74.209494 
L 388.258431 93.868059 
L 388.703163 159.287397 
L 388.925529 167.806108 
L 389.370262 213.894523 
L 389.592628 231.914875 
L 389.814994 221.976378 
L 390.03736 222.522449 
L 390.259726 215.09588 
L 390.704458 191.72403 
L 390.926824 187.792317 
L 391.149191 179.273605 
L 391.371557 183.423746 
L 391.593923 168.789037 
L 391.816289 168.679822 
L 392.038655 143.014473 
L 392.261021 166.604752 
L 392.483387 156.338612 
L 392.705753 131.219334 
L 392.92812 120.84398 
L 393.150486 83.383491 
L 393.372852 89.171846 
L 393.595218 98.891915 
L 393.817584 136.789261 
L 394.03995 139.84726 
L 394.262316 155.901755 
L 394.484682 202.208598 
L 394.707049 188.119959 
L 394.929415 219.027593 
L 395.151781 205.048168 
L 395.374147 212.147095 
L 395.596513 210.181238 
L 395.818879 200.570384 
L 396.041245 185.171174 
L 396.263611 190.19503 
L 396.485978 173.594464 
L 396.708344 177.744605 
L 396.93071 174.249749 
L 397.153076 147.8199 
L 397.375442 138.973546 
L 397.597808 138.536689 
L 397.820174 140.065688 
L 398.04254 135.260261 
L 398.487273 90.373203 
L 398.487273 90.373203 
" style="fill:none;stroke:#1f77b4;stroke-linecap:square;stroke-width:1.5;"/>
   </g>
   <g id="patch_3">
    <path d="M 57.6 307.584 
L 57.6 41.472 
" style="fill:none;stroke:#000000;stroke-linecap:square;stroke-linejoin:miter;stroke-width:0.8;"/>
   </g>
   <g id="patch_4">
    <path d="M 414.72 307.584 
L 414.72 41.472 
" style="fill:none;stroke:#000000;stroke-linecap:square;stroke-linejoin:miter;stroke-width:0.8;"/>
   </g>
   <g id="patch_5">
    <path d="M 57.6 307.584 
L 414.72 307.584 
" style="fill:none;stroke:#000000;stroke-linecap:square;stroke-linejoin:miter;stroke-width:0.8;"/>
   </g>
   <g id="patch_6">
    <path d="M 57.6 41.472 
L 414.72 41.472 
" style="fill:none;stroke:#000000;stroke-linecap:square;stroke-linejoin:miter;stroke-width:0.8;"/>
   </g>
   <g id="text_16">
    <!-- real_18.csv -->
    <defs>
     <path d="M 41.109375 46.296875 
Q 39.59375 47.171875 37.8125 47.578125 
Q 36.03125 48 33.890625 48 
Q 26.265625 48 22.1875 43.046875 
Q 18.109375 38.09375 18.109375 28.8125 
L 18.109375 0 
L 9.078125 0 
L 9.078125 54.6875 
L 18.109375 54.6875 
L 18.109375 46.1875 
Q 20.953125 51.171875 25.484375 53.578125 
Q 30.03125 56 36.53125 56 
Q 37.453125 56 38.578125 55.875 
Q 39.703125 55.765625 41.0625 55.515625 
z
" id="DejaVuSans-72"/>
     <path d="M 56.203125 29.59375 
L 56.203125 25.203125 
L 14.890625 25.203125 
Q 15.484375 15.921875 20.484375 11.0625 
Q 25.484375 6.203125 34.421875 6.203125 
Q 39.59375 6.203125 44.453125 7.46875 
Q 49.3125 8.734375 54.109375 11.28125 
L 54.109375 2.78125 
Q 49.265625 0.734375 44.1875 -0.34375 
Q 39.109375 -1.421875 33.890625 -1.421875 
Q 20.796875 -1.421875 13.15625 6.1875 
Q 5.515625 13.8125 5.515625 26.8125 
Q 5.515625 40.234375 12.765625 48.109375 
Q 20.015625 56 32.328125 56 
Q 43.359375 56 49.78125 48.890625 
Q 56.203125 41.796875 56.203125 29.59375 
z
M 47.21875 32.234375 
Q 47.125 39.59375 43.09375 43.984375 
Q 39.0625 48.390625 32.421875 48.390625 
Q 24.90625 48.390625 20.390625 44.140625 
Q 15.875 39.890625 15.1875 32.171875 
z
" id="DejaVuSans-65"/>
     <path d="M 34.28125 27.484375 
Q 23.390625 27.484375 19.1875 25 
Q 14.984375 22.515625 14.984375 16.5 
Q 14.984375 11.71875 18.140625 8.90625 
Q 21.296875 6.109375 26.703125 6.109375 
Q 34.1875 6.109375 38.703125 11.40625 
Q 43.21875 16.703125 43.21875 25.484375 
L 43.21875 27.484375 
z
M 52.203125 31.203125 
L 52.203125 0 
L 43.21875 0 
L 43.21875 8.296875 
Q 40.140625 3.328125 35.546875 0.953125 
Q 30.953125 -1.421875 24.3125 -1.421875 
Q 15.921875 -1.421875 10.953125 3.296875 
Q 6 8.015625 6 15.921875 
Q 6 25.140625 12.171875 29.828125 
Q 18.359375 34.515625 30.609375 34.515625 
L 43.21875 34.515625 
L 43.21875 35.40625 
Q 43.21875 41.609375 39.140625 45 
Q 35.0625 48.390625 27.6875 48.390625 
Q 23 48.390625 18.546875 47.265625 
Q 14.109375 46.140625 10.015625 43.890625 
L 10.015625 52.203125 
Q 14.9375 54.109375 19.578125 55.046875 
Q 24.21875 56 28.609375 56 
Q 40.484375 56 46.34375 49.84375 
Q 52.203125 43.703125 52.203125 31.203125 
z
" id="DejaVuSans-61"/>
     <path d="M 9.421875 75.984375 
L 18.40625 75.984375 
L 18.40625 0 
L 9.421875 0 
z
" id="DejaVuSans-6c"/>
     <path d="M 50.984375 -16.609375 
L 50.984375 -23.578125 
L -0.984375 -23.578125 
L -0.984375 -16.609375 
z
" id="DejaVuSans-5f"/>
     <path d="M 48.78125 52.59375 
L 48.78125 44.1875 
Q 44.96875 46.296875 41.140625 47.34375 
Q 37.3125 48.390625 33.40625 48.390625 
Q 24.65625 48.390625 19.8125 42.84375 
Q 14.984375 37.3125 14.984375 27.296875 
Q 14.984375 17.28125 19.8125 11.734375 
Q 24.65625 6.203125 33.40625 6.203125 
Q 37.3125 6.203125 41.140625 7.25 
Q 44.96875 8.296875 48.78125 10.40625 
L 48.78125 2.09375 
Q 45.015625 0.34375 40.984375 -0.53125 
Q 36.96875 -1.421875 32.421875 -1.421875 
Q 20.0625 -1.421875 12.78125 6.34375 
Q 5.515625 14.109375 5.515625 27.296875 
Q 5.515625 40.671875 12.859375 48.328125 
Q 20.21875 56 33.015625 56 
Q 37.15625 56 41.109375 55.140625 
Q 45.0625 54.296875 48.78125 52.59375 
z
" id="DejaVuSans-63"/>
     <path d="M 44.28125 53.078125 
L 44.28125 44.578125 
Q 40.484375 46.53125 36.375 47.5 
Q 32.28125 48.484375 27.875 48.484375 
Q 21.1875 48.484375 17.84375 46.4375 
Q 14.5 44.390625 14.5 40.28125 
Q 14.5 37.15625 16.890625 35.375 
Q 19.28125 33.59375 26.515625 31.984375 
L 29.59375 31.296875 
Q 39.15625 29.25 43.1875 25.515625 
Q 47.21875 21.78125 47.21875 15.09375 
Q 47.21875 7.46875 41.1875 3.015625 
Q 35.15625 -1.421875 24.609375 -1.421875 
Q 20.21875 -1.421875 15.453125 -0.5625 
Q 10.6875 0.296875 5.421875 2 
L 5.421875 11.28125 
Q 10.40625 8.6875 15.234375 7.390625 
Q 20.0625 6.109375 24.8125 6.109375 
Q 31.15625 6.109375 34.5625 8.28125 
Q 37.984375 10.453125 37.984375 14.40625 
Q 37.984375 18.0625 35.515625 20.015625 
Q 33.0625 21.96875 24.703125 23.78125 
L 21.578125 24.515625 
Q 13.234375 26.265625 9.515625 29.90625 
Q 5.8125 33.546875 5.8125 39.890625 
Q 5.8125 47.609375 11.28125 51.796875 
Q 16.75 56 26.8125 56 
Q 31.78125 56 36.171875 55.265625 
Q 40.578125 54.546875 44.28125 53.078125 
z
" id="DejaVuSans-73"/>
     <path d="M 2.984375 54.6875 
L 12.5 54.6875 
L 29.59375 8.796875 
L 46.6875 54.6875 
L 56.203125 54.6875 
L 35.6875 0 
L 23.484375 0 
z
" id="DejaVuSans-76"/>
    </defs>
    <g transform="translate(202.141875 35.472)scale(0.12 -0.12)">
     <use xlink:href="#DejaVuSans-72"/>
     <use x="41.082031" xlink:href="#DejaVuSans-65"/>
     <use x="102.605469" xlink:href="#DejaVuSans-61"/>
     <use x="163.884766" xlink:href="#DejaVuSans-6c"/>
     <use x="191.667969" xlink:href="#DejaVuSans-5f"/>
     <use x="241.667969" xlink:href="#DejaVuSans-31"/>
     <use x="305.291016" xlink:href="#DejaVuSans-38"/>
     <use x="368.914062" xlink:href="#DejaVuSans-2e"/>
     <use x="400.701172" xlink:href="#DejaVuSans-63"/>
     <use x="455.681641" xlink:href="#DejaVuSans-73"/>
     <use x="507.78125" xlink:href="#DejaVuSans-76"/>
    </g>
   </g>
   <g id="PathCollection_1">
    <defs>
     <path d="M -4.472136 4.472136 
L 4.472136 -4.472136 
M -4.472136 -4.472136 
L 4.472136 4.472136 
" id="m05261637e9" style="stroke:#ffa500;stroke-width:1.5;"/>
    </defs>
    <g clip-path="url(#p6f7e88c1bc)">
     <use style="fill:#ffa500;stroke:#ffa500;stroke-width:1.5;" x="167.226501" xlink:href="#m05261637e9" y="265.44365"/>
     <use style="fill:#ffa500;stroke:#ffa500;stroke-width:1.5;" x="167.448867" xlink:href="#m05261637e9" y="290.180678"/>
     <use style="fill:#ffa500;stroke:#ffa500;stroke-width:1.5;" x="167.671233" xlink:href="#m05261637e9" y="292.310356"/>
    </g>
   </g>
  </g>
 </g>
 <defs>
  <clipPath id="p6f7e88c1bc">
   <rect height="266.112" width="357.12" x="57.6" y="41.472"/>
  </clipPath>
 </defs>
</svg>
