<?xml version="1.0" encoding="utf-8" standalone="no"?>
<!DOCTYPE svg PUBLIC "-//W3C//DTD SVG 1.1//EN"
  "http://www.w3.org/Graphics/SVG/1.1/DTD/svg11.dtd">
<!-- Created with matplotlib (http://matplotlib.org/) -->
<svg height="345.6pt" version="1.1" viewBox="0 0 460.8 345.6" width="460.8pt" xmlns="http://www.w3.org/2000/svg" xmlns:xlink="http://www.w3.org/1999/xlink">
 <defs>
  <style type="text/css">
*{stroke-linecap:butt;stroke-linejoin:round;}
  </style>
 </defs>
 <g id="figure_1">
  <g id="patch_1">
   <path d="M 0 345.6 
L 460.8 345.6 
L 460.8 0 
L 0 0 
z
" style="fill:#ffffff;"/>
  </g>
  <g id="axes_1">
   <g id="patch_2">
    <path d="M 57.6 307.584 
L 414.72 307.584 
L 414.72 41.472 
L 57.6 41.472 
z
" style="fill:#ffffff;"/>
   </g>
   <g id="matplotlib.axis_1">
    <g id="xtick_1">
     <g id="line2d_1">
      <defs>
       <path d="M 0 0 
L 0 3.5 
" id="md96f524180" style="stroke:#000000;stroke-width:0.8;"/>
      </defs>
      <g>
       <use style="stroke:#000000;stroke-width:0.8;" x="73.603936" xlink:href="#md96f524180" y="307.584"/>
      </g>
     </g>
     <g id="text_1">
      <!-- 0 -->
      <defs>
       <path d="M 31.78125 66.40625 
Q 24.171875 66.40625 20.328125 58.90625 
Q 16.5 51.421875 16.5 36.375 
Q 16.5 21.390625 20.328125 13.890625 
Q 24.171875 6.390625 31.78125 6.390625 
Q 39.453125 6.390625 43.28125 13.890625 
Q 47.125 21.390625 47.125 36.375 
Q 47.125 51.421875 43.28125 58.90625 
Q 39.453125 66.40625 31.78125 66.40625 
z
M 31.78125 74.21875 
Q 44.046875 74.21875 50.515625 64.515625 
Q 56.984375 54.828125 56.984375 36.375 
Q 56.984375 17.96875 50.515625 8.265625 
Q 44.046875 -1.421875 31.78125 -1.421875 
Q 19.53125 -1.421875 13.0625 8.265625 
Q 6.59375 17.96875 6.59375 36.375 
Q 6.59375 54.828125 13.0625 64.515625 
Q 19.53125 74.21875 31.78125 74.21875 
z
" id="DejaVuSans-30"/>
      </defs>
      <g transform="translate(70.422686 322.182437)scale(0.1 -0.1)">
       <use xlink:href="#DejaVuSans-30"/>
      </g>
     </g>
    </g>
    <g id="xtick_2">
     <g id="line2d_2">
      <g>
       <use style="stroke:#000000;stroke-width:0.8;" x="119.362153" xlink:href="#md96f524180" y="307.584"/>
      </g>
     </g>
     <g id="text_2">
      <!-- 200 -->
      <defs>
       <path d="M 19.1875 8.296875 
L 53.609375 8.296875 
L 53.609375 0 
L 7.328125 0 
L 7.328125 8.296875 
Q 12.9375 14.109375 22.625 23.890625 
Q 32.328125 33.6875 34.8125 36.53125 
Q 39.546875 41.84375 41.421875 45.53125 
Q 43.3125 49.21875 43.3125 52.78125 
Q 43.3125 58.59375 39.234375 62.25 
Q 35.15625 65.921875 28.609375 65.921875 
Q 23.96875 65.921875 18.8125 64.3125 
Q 13.671875 62.703125 7.8125 59.421875 
L 7.8125 69.390625 
Q 13.765625 71.78125 18.9375 73 
Q 24.125 74.21875 28.421875 74.21875 
Q 39.75 74.21875 46.484375 68.546875 
Q 53.21875 62.890625 53.21875 53.421875 
Q 53.21875 48.921875 51.53125 44.890625 
Q 49.859375 40.875 45.40625 35.40625 
Q 44.1875 33.984375 37.640625 27.21875 
Q 31.109375 20.453125 19.1875 8.296875 
z
" id="DejaVuSans-32"/>
      </defs>
      <g transform="translate(109.818403 322.182437)scale(0.1 -0.1)">
       <use xlink:href="#DejaVuSans-32"/>
       <use x="63.623047" xlink:href="#DejaVuSans-30"/>
       <use x="127.246094" xlink:href="#DejaVuSans-30"/>
      </g>
     </g>
    </g>
    <g id="xtick_3">
     <g id="line2d_3">
      <g>
       <use style="stroke:#000000;stroke-width:0.8;" x="165.120369" xlink:href="#md96f524180" y="307.584"/>
      </g>
     </g>
     <g id="text_3">
      <!-- 400 -->
      <defs>
       <path d="M 37.796875 64.3125 
L 12.890625 25.390625 
L 37.796875 25.390625 
z
M 35.203125 72.90625 
L 47.609375 72.90625 
L 47.609375 25.390625 
L 58.015625 25.390625 
L 58.015625 17.1875 
L 47.609375 17.1875 
L 47.609375 0 
L 37.796875 0 
L 37.796875 17.1875 
L 4.890625 17.1875 
L 4.890625 26.703125 
z
" id="DejaVuSans-34"/>
      </defs>
      <g transform="translate(155.576619 322.182437)scale(0.1 -0.1)">
       <use xlink:href="#DejaVuSans-34"/>
       <use x="63.623047" xlink:href="#DejaVuSans-30"/>
       <use x="127.246094" xlink:href="#DejaVuSans-30"/>
      </g>
     </g>
    </g>
    <g id="xtick_4">
     <g id="line2d_4">
      <g>
       <use style="stroke:#000000;stroke-width:0.8;" x="210.878585" xlink:href="#md96f524180" y="307.584"/>
      </g>
     </g>
     <g id="text_4">
      <!-- 600 -->
      <defs>
       <path d="M 33.015625 40.375 
Q 26.375 40.375 22.484375 35.828125 
Q 18.609375 31.296875 18.609375 23.390625 
Q 18.609375 15.53125 22.484375 10.953125 
Q 26.375 6.390625 33.015625 6.390625 
Q 39.65625 6.390625 43.53125 10.953125 
Q 47.40625 15.53125 47.40625 23.390625 
Q 47.40625 31.296875 43.53125 35.828125 
Q 39.65625 40.375 33.015625 40.375 
z
M 52.59375 71.296875 
L 52.59375 62.3125 
Q 48.875 64.0625 45.09375 64.984375 
Q 41.3125 65.921875 37.59375 65.921875 
Q 27.828125 65.921875 22.671875 59.328125 
Q 17.53125 52.734375 16.796875 39.40625 
Q 19.671875 43.65625 24.015625 45.921875 
Q 28.375 48.1875 33.59375 48.1875 
Q 44.578125 48.1875 50.953125 41.515625 
Q 57.328125 34.859375 57.328125 23.390625 
Q 57.328125 12.15625 50.6875 5.359375 
Q 44.046875 -1.421875 33.015625 -1.421875 
Q 20.359375 -1.421875 13.671875 8.265625 
Q 6.984375 17.96875 6.984375 36.375 
Q 6.984375 53.65625 15.1875 63.9375 
Q 23.390625 74.21875 37.203125 74.21875 
Q 40.921875 74.21875 44.703125 73.484375 
Q 48.484375 72.75 52.59375 71.296875 
z
" id="DejaVuSans-36"/>
      </defs>
      <g transform="translate(201.334835 322.182437)scale(0.1 -0.1)">
       <use xlink:href="#DejaVuSans-36"/>
       <use x="63.623047" xlink:href="#DejaVuSans-30"/>
       <use x="127.246094" xlink:href="#DejaVuSans-30"/>
      </g>
     </g>
    </g>
    <g id="xtick_5">
     <g id="line2d_5">
      <g>
       <use style="stroke:#000000;stroke-width:0.8;" x="256.636802" xlink:href="#md96f524180" y="307.584"/>
      </g>
     </g>
     <g id="text_5">
      <!-- 800 -->
      <defs>
       <path d="M 31.78125 34.625 
Q 24.75 34.625 20.71875 30.859375 
Q 16.703125 27.09375 16.703125 20.515625 
Q 16.703125 13.921875 20.71875 10.15625 
Q 24.75 6.390625 31.78125 6.390625 
Q 38.8125 6.390625 42.859375 10.171875 
Q 46.921875 13.96875 46.921875 20.515625 
Q 46.921875 27.09375 42.890625 30.859375 
Q 38.875 34.625 31.78125 34.625 
z
M 21.921875 38.8125 
Q 15.578125 40.375 12.03125 44.71875 
Q 8.5 49.078125 8.5 55.328125 
Q 8.5 64.0625 14.71875 69.140625 
Q 20.953125 74.21875 31.78125 74.21875 
Q 42.671875 74.21875 48.875 69.140625 
Q 55.078125 64.0625 55.078125 55.328125 
Q 55.078125 49.078125 51.53125 44.71875 
Q 48 40.375 41.703125 38.8125 
Q 48.828125 37.15625 52.796875 32.3125 
Q 56.78125 27.484375 56.78125 20.515625 
Q 56.78125 9.90625 50.3125 4.234375 
Q 43.84375 -1.421875 31.78125 -1.421875 
Q 19.734375 -1.421875 13.25 4.234375 
Q 6.78125 9.90625 6.78125 20.515625 
Q 6.78125 27.484375 10.78125 32.3125 
Q 14.796875 37.15625 21.921875 38.8125 
z
M 18.3125 54.390625 
Q 18.3125 48.734375 21.84375 45.5625 
Q 25.390625 42.390625 31.78125 42.390625 
Q 38.140625 42.390625 41.71875 45.5625 
Q 45.3125 48.734375 45.3125 54.390625 
Q 45.3125 60.0625 41.71875 63.234375 
Q 38.140625 66.40625 31.78125 66.40625 
Q 25.390625 66.40625 21.84375 63.234375 
Q 18.3125 60.0625 18.3125 54.390625 
z
" id="DejaVuSans-38"/>
      </defs>
      <g transform="translate(247.093052 322.182437)scale(0.1 -0.1)">
       <use xlink:href="#DejaVuSans-38"/>
       <use x="63.623047" xlink:href="#DejaVuSans-30"/>
       <use x="127.246094" xlink:href="#DejaVuSans-30"/>
      </g>
     </g>
    </g>
    <g id="xtick_6">
     <g id="line2d_6">
      <g>
       <use style="stroke:#000000;stroke-width:0.8;" x="302.395018" xlink:href="#md96f524180" y="307.584"/>
      </g>
     </g>
     <g id="text_6">
      <!-- 1000 -->
      <defs>
       <path d="M 12.40625 8.296875 
L 28.515625 8.296875 
L 28.515625 63.921875 
L 10.984375 60.40625 
L 10.984375 69.390625 
L 28.421875 72.90625 
L 38.28125 72.90625 
L 38.28125 8.296875 
L 54.390625 8.296875 
L 54.390625 0 
L 12.40625 0 
z
" id="DejaVuSans-31"/>
      </defs>
      <g transform="translate(289.670018 322.182437)scale(0.1 -0.1)">
       <use xlink:href="#DejaVuSans-31"/>
       <use x="63.623047" xlink:href="#DejaVuSans-30"/>
       <use x="127.246094" xlink:href="#DejaVuSans-30"/>
       <use x="190.869141" xlink:href="#DejaVuSans-30"/>
      </g>
     </g>
    </g>
    <g id="xtick_7">
     <g id="line2d_7">
      <g>
       <use style="stroke:#000000;stroke-width:0.8;" x="348.153235" xlink:href="#md96f524180" y="307.584"/>
      </g>
     </g>
     <g id="text_7">
      <!-- 1200 -->
      <g transform="translate(335.428235 322.182437)scale(0.1 -0.1)">
       <use xlink:href="#DejaVuSans-31"/>
       <use x="63.623047" xlink:href="#DejaVuSans-32"/>
       <use x="127.246094" xlink:href="#DejaVuSans-30"/>
       <use x="190.869141" xlink:href="#DejaVuSans-30"/>
      </g>
     </g>
    </g>
    <g id="xtick_8">
     <g id="line2d_8">
      <g>
       <use style="stroke:#000000;stroke-width:0.8;" x="393.911451" xlink:href="#md96f524180" y="307.584"/>
      </g>
     </g>
     <g id="text_8">
      <!-- 1400 -->
      <g transform="translate(381.186451 322.182437)scale(0.1 -0.1)">
       <use xlink:href="#DejaVuSans-31"/>
       <use x="63.623047" xlink:href="#DejaVuSans-34"/>
       <use x="127.246094" xlink:href="#DejaVuSans-30"/>
       <use x="190.869141" xlink:href="#DejaVuSans-30"/>
      </g>
     </g>
    </g>
   </g>
   <g id="matplotlib.axis_2">
    <g id="ytick_1">
     <g id="line2d_9">
      <defs>
       <path d="M 0 0 
L -3.5 0 
" id="m0479ebbc23" style="stroke:#000000;stroke-width:0.8;"/>
      </defs>
      <g>
       <use style="stroke:#000000;stroke-width:0.8;" x="57.6" xlink:href="#m0479ebbc23" y="295.488"/>
      </g>
     </g>
     <g id="text_9">
      <!-- 0.0 -->
      <defs>
       <path d="M 10.6875 12.40625 
L 21 12.40625 
L 21 0 
L 10.6875 0 
z
" id="DejaVuSans-2e"/>
      </defs>
      <g transform="translate(34.696875 299.287219)scale(0.1 -0.1)">
       <use xlink:href="#DejaVuSans-30"/>
       <use x="63.623047" xlink:href="#DejaVuSans-2e"/>
       <use x="95.410156" xlink:href="#DejaVuSans-30"/>
      </g>
     </g>
    </g>
    <g id="ytick_2">
     <g id="line2d_10">
      <g>
       <use style="stroke:#000000;stroke-width:0.8;" x="57.6" xlink:href="#m0479ebbc23" y="245.728972"/>
      </g>
     </g>
     <g id="text_10">
      <!-- 0.2 -->
      <g transform="translate(34.696875 249.528191)scale(0.1 -0.1)">
       <use xlink:href="#DejaVuSans-30"/>
       <use x="63.623047" xlink:href="#DejaVuSans-2e"/>
       <use x="95.410156" xlink:href="#DejaVuSans-32"/>
      </g>
     </g>
    </g>
    <g id="ytick_3">
     <g id="line2d_11">
      <g>
       <use style="stroke:#000000;stroke-width:0.8;" x="57.6" xlink:href="#m0479ebbc23" y="195.969945"/>
      </g>
     </g>
     <g id="text_11">
      <!-- 0.4 -->
      <g transform="translate(34.696875 199.769163)scale(0.1 -0.1)">
       <use xlink:href="#DejaVuSans-30"/>
       <use x="63.623047" xlink:href="#DejaVuSans-2e"/>
       <use x="95.410156" xlink:href="#DejaVuSans-34"/>
      </g>
     </g>
    </g>
    <g id="ytick_4">
     <g id="line2d_12">
      <g>
       <use style="stroke:#000000;stroke-width:0.8;" x="57.6" xlink:href="#m0479ebbc23" y="146.210917"/>
      </g>
     </g>
     <g id="text_12">
      <!-- 0.6 -->
      <g transform="translate(34.696875 150.010136)scale(0.1 -0.1)">
       <use xlink:href="#DejaVuSans-30"/>
       <use x="63.623047" xlink:href="#DejaVuSans-2e"/>
       <use x="95.410156" xlink:href="#DejaVuSans-36"/>
      </g>
     </g>
    </g>
    <g id="ytick_5">
     <g id="line2d_13">
      <g>
       <use style="stroke:#000000;stroke-width:0.8;" x="57.6" xlink:href="#m0479ebbc23" y="96.451889"/>
      </g>
     </g>
     <g id="text_13">
      <!-- 0.8 -->
      <g transform="translate(34.696875 100.251108)scale(0.1 -0.1)">
       <use xlink:href="#DejaVuSans-30"/>
       <use x="63.623047" xlink:href="#DejaVuSans-2e"/>
       <use x="95.410156" xlink:href="#DejaVuSans-38"/>
      </g>
     </g>
    </g>
    <g id="ytick_6">
     <g id="line2d_14">
      <g>
       <use style="stroke:#000000;stroke-width:0.8;" x="57.6" xlink:href="#m0479ebbc23" y="46.692861"/>
      </g>
     </g>
     <g id="text_14">
      <!-- 1.0 -->
      <g transform="translate(34.696875 50.49208)scale(0.1 -0.1)">
       <use xlink:href="#DejaVuSans-31"/>
       <use x="63.623047" xlink:href="#DejaVuSans-2e"/>
       <use x="95.410156" xlink:href="#DejaVuSans-30"/>
      </g>
     </g>
    </g>
   </g>
   <g id="line2d_15">
    <path clip-path="url(#p49a0c2e8fa)" d="M 73.832727 295.488 
L 74.061518 73.554552 
L 74.290309 71.217641 
L 74.519101 70.951298 
L 74.747892 72.153973 
L 74.976683 135.693665 
L 75.205474 79.446259 
L 75.434265 92.551661 
L 75.891847 137.886775 
L 76.120638 86.00087 
L 76.349429 84.750027 
L 76.807011 116.900606 
L 77.035802 87.131464 
L 77.493385 106.013705 
L 77.722176 84.68926 
L 77.950967 102.901076 
L 78.408549 64.600547 
L 78.63734 77.712523 
L 78.866131 76.660317 
L 79.094922 109.797588 
L 79.552504 85.370243 
L 79.781295 95.623292 
L 80.010086 94.300524 
L 80.238878 101.799467 
L 80.467669 97.626905 
L 80.925251 68.525412 
L 81.382833 110.905628 
L 81.611624 96.597255 
L 81.840415 118.436878 
L 82.069206 104.481365 
L 82.297997 79.12716 
L 82.526788 84.226824 
L 82.755579 77.836517 
L 83.213162 84.748932 
L 83.441953 79.022018 
L 83.670744 96.875401 
L 83.899535 79.77097 
L 84.128326 82.724757 
L 84.357117 71.86533 
L 84.585908 70.274699 
L 84.814699 93.894479 
L 85.04349 71.188725 
L 85.501072 88.492901 
L 85.729864 86.054147 
L 85.958655 93.679052 
L 86.187446 60.634028 
L 86.416237 76.375391 
L 86.645028 62.538804 
L 86.873819 75.424185 
L 87.10261 68.734053 
L 87.331401 55.590068 
L 87.560192 71.769291 
L 87.788983 72.275885 
L 88.246565 62.619467 
L 88.475357 113.864836 
L 88.704148 58.709306 
L 88.932939 55.13951 
L 89.16173 103.740567 
L 89.390521 69.784807 
L 89.619312 61.626127 
L 89.848103 64.516287 
L 90.076894 56.404817 
L 90.305685 56.404817 
L 90.534476 56.587514 
L 90.763267 55.907968 
L 90.992058 66.301527 
L 91.22085 57.897218 
L 91.678432 70.174515 
L 91.907223 134.133007 
L 92.136014 65.918169 
L 92.364805 99.594468 
L 92.593596 80.59682 
L 92.822387 93.90784 
L 93.051178 87.801306 
L 93.279969 124.966151 
L 93.50876 141.652898 
L 93.737551 91.799204 
L 93.966342 88.088258 
L 94.195134 88.31473 
L 94.423925 96.1667 
L 94.652716 97.717422 
L 94.881507 88.975086 
L 95.110298 103.723353 
L 95.339089 82.434539 
L 95.56788 127.43716 
L 95.796671 101.141942 
L 96.025462 89.942152 
L 96.254253 100.041039 
L 96.711835 92.084747 
L 96.940627 111.472328 
L 97.169418 68.904153 
L 97.398209 126.960101 
L 97.627 62.490842 
L 97.855791 86.325775 
L 98.084582 59.522696 
L 98.313373 92.69742 
L 98.542164 105.123626 
L 98.770955 77.020064 
L 98.999746 77.073635 
L 99.228537 82.91185 
L 99.457328 76.223037 
L 99.68612 89.207774 
L 99.914911 78.686544 
L 100.143702 85.238089 
L 100.372493 85.256251 
L 100.601284 73.564693 
L 100.830075 69.415722 
L 101.058866 89.740586 
L 101.516448 74.573015 
L 101.745239 104.689387 
L 101.97403 68.096446 
L 102.202821 92.476352 
L 102.431613 80.724328 
L 102.660404 77.651911 
L 102.889195 101.967549 
L 103.575568 60.260949 
L 104.03315 54.159942 
L 104.948314 79.245549 
L 105.177106 79.956756 
L 105.405897 61.92409 
L 105.634688 58.166304 
L 106.09227 61.182118 
L 106.321061 54.606907 
L 106.549852 59.353235 
L 106.778643 100.787742 
L 107.007434 69.09394 
L 107.236225 55.620684 
L 107.465016 64.51077 
L 107.693807 56.404817 
L 107.922599 68.431553 
L 108.380181 54.883915 
L 108.837763 85.5132 
L 109.066554 113.369493 
L 109.295345 97.216035 
L 109.524136 92.394446 
L 109.752927 94.502325 
L 109.981718 100.408711 
L 110.210509 97.321868 
L 110.4393 79.672019 
L 110.668091 77.340992 
L 110.896883 88.979121 
L 111.125674 77.496614 
L 111.354465 89.305969 
L 111.583256 85.071158 
L 111.812047 92.329185 
L 112.040838 90.817838 
L 112.269629 97.728814 
L 112.49842 88.276209 
L 112.727211 157.511941 
L 113.184793 59.790938 
L 113.413584 132.720546 
L 113.642376 111.62379 
L 113.871167 107.761529 
L 114.328749 66.420844 
L 114.55754 53.884541 
L 115.015122 101.950229 
L 115.243913 82.253476 
L 115.472704 90.665686 
L 115.701495 87.277979 
L 115.930286 65.047991 
L 116.159077 57.504814 
L 116.387869 78.047012 
L 116.61666 54.244567 
L 116.845451 62.670005 
L 117.303033 96.851802 
L 117.531824 78.671635 
L 117.989406 96.960729 
L 118.218197 83.812542 
L 118.446988 86.002729 
L 118.90457 76.895519 
L 119.133362 78.721377 
L 119.362153 83.733755 
L 119.590944 71.798542 
L 119.819735 79.407412 
L 120.048526 83.194899 
L 120.277317 73.352244 
L 120.506108 83.504731 
L 120.734899 68.189578 
L 120.96369 68.549085 
L 121.192481 83.289756 
L 121.421272 74.52752 
L 121.650063 111.967991 
L 122.107646 71.579192 
L 122.336437 82.520067 
L 122.565228 58.616812 
L 122.794019 63.783668 
L 123.02281 76.275589 
L 123.251601 54.54585 
L 123.480392 54.225408 
L 123.709183 60.05628 
L 123.937974 53.948782 
L 124.166765 64.237453 
L 124.395556 58.984692 
L 124.624347 58.565267 
L 124.853139 64.116972 
L 125.08193 141.962455 
L 125.310721 84.23089 
L 125.539512 55.159271 
L 125.768303 67.461643 
L 125.997094 63.711399 
L 126.225885 117.289275 
L 126.454676 114.128962 
L 126.683467 77.20615 
L 126.912258 81.493128 
L 127.141049 77.563608 
L 127.36984 101.404971 
L 127.598632 90.83896 
L 127.827423 72.485686 
L 128.285005 97.3452 
L 128.513796 76.578402 
L 128.742587 91.864259 
L 129.200169 98.126142 
L 129.42896 105.088044 
L 129.657751 59.427909 
L 129.886542 58.431133 
L 130.115333 74.167364 
L 130.344125 97.702079 
L 130.801707 78.481646 
L 131.030498 79.812993 
L 131.259289 91.442233 
L 131.48808 123.207641 
L 131.945662 76.205724 
L 132.403244 105.748374 
L 132.632035 57.220827 
L 132.860826 56.73744 
L 133.318409 69.554534 
L 133.5472 103.724946 
L 133.775991 73.911137 
L 134.004782 73.23697 
L 134.233573 82.590678 
L 134.462364 82.325043 
L 134.691155 91.418191 
L 134.919946 110.893359 
L 135.148737 57.624875 
L 135.377528 101.386175 
L 135.606319 70.01416 
L 136.063902 89.804827 
L 136.292693 71.815713 
L 136.521484 105.002772 
L 136.750275 73.748795 
L 137.207857 87.677853 
L 137.436648 68.421371 
L 137.665439 86.174569 
L 137.89423 82.449001 
L 138.123021 75.418314 
L 138.351812 94.327491 
L 138.580603 73.953349 
L 138.809395 87.111285 
L 139.266977 73.180472 
L 139.495768 79.504713 
L 139.724559 77.315576 
L 139.95335 81.015369 
L 140.182141 89.184045 
L 140.410932 61.395023 
L 140.639723 76.812156 
L 140.868514 70.82012 
L 141.097305 73.77804 
L 141.326096 72.817256 
L 141.554888 79.295148 
L 142.01247 65.702972 
L 142.470052 86.028645 
L 142.698843 62.469412 
L 142.927634 55.738045 
L 143.156425 91.852356 
L 143.385216 53.568 
L 143.614007 134.352282 
L 143.842798 164.892918 
L 144.071589 91.021167 
L 144.300381 73.043915 
L 144.757963 75.075856 
L 144.986754 83.639577 
L 145.215545 165.395662 
L 145.444336 85.530941 
L 145.673127 207.157285 
L 145.901918 196.778166 
L 146.130709 69.300322 
L 146.3595 127.13078 
L 146.588291 266.981874 
L 146.817082 176.804586 
L 147.045874 203.914651 
L 147.274665 59.438758 
L 147.503456 67.412622 
L 147.732247 55.251842 
L 147.961038 116.048717 
L 148.189829 86.997873 
L 148.41862 76.280983 
L 148.647411 81.543033 
L 148.876202 76.569942 
L 149.104993 78.639237 
L 149.333784 96.538671 
L 149.562575 141.153055 
L 149.791367 82.551815 
L 150.248949 221.4334 
L 150.706531 246.47897 
L 150.935322 183.439453 
L 151.164113 245.302007 
L 151.392904 266.933887 
L 151.621695 219.898562 
L 151.850486 85.044355 
L 152.079277 79.638224 
L 152.308068 107.481893 
L 152.53686 76.759337 
L 152.765651 111.473023 
L 152.994442 103.275305 
L 153.223233 78.93203 
L 153.452024 84.922607 
L 153.680815 81.594887 
L 153.909606 109.431674 
L 154.367188 62.612128 
L 154.595979 71.907108 
L 154.82477 70.853374 
L 155.053561 87.931802 
L 155.282352 80.464291 
L 155.511144 66.012743 
L 155.739935 100.555933 
L 155.968726 94.770067 
L 156.197517 99.272242 
L 156.426308 78.754179 
L 156.655099 116.283665 
L 156.88389 82.770341 
L 157.112681 91.94436 
L 157.341472 67.328095 
L 157.570263 100.014866 
L 157.799054 91.060373 
L 158.027845 57.72141 
L 158.256637 78.047012 
L 158.485428 108.347219 
L 158.714219 57.757021 
L 158.94301 130.269628 
L 159.171801 98.078079 
L 159.400592 100.991856 
L 159.629383 86.185643 
L 159.858174 92.969458 
L 160.086965 81.187715 
L 160.315756 79.143893 
L 160.544547 85.138408 
L 160.773338 78.815044 
L 161.00213 84.25323 
L 161.230921 109.512225 
L 161.459712 95.831996 
L 161.688503 93.885228 
L 161.917294 131.083307 
L 162.374876 89.921826 
L 162.603667 95.814245 
L 162.832458 92.210769 
L 163.061249 81.061013 
L 163.29004 63.732629 
L 163.518831 59.722326 
L 163.747623 67.7712 
L 163.976414 61.268761 
L 164.205205 91.149385 
L 164.433996 81.680336 
L 164.891578 75.197426 
L 165.120369 85.877198 
L 165.34916 76.329531 
L 165.577951 77.788239 
L 165.806742 70.014486 
L 166.035533 74.685377 
L 166.264324 96.333886 
L 166.493116 84.815872 
L 166.721907 85.472047 
L 166.950698 84.539459 
L 167.179489 85.237574 
L 167.40828 94.008929 
L 167.637071 84.010097 
L 167.865862 94.673162 
L 168.094653 69.811369 
L 168.323444 58.165212 
L 168.552235 78.255148 
L 168.781026 70.878757 
L 169.009817 71.817154 
L 169.238608 98.841758 
L 169.4674 58.705109 
L 169.924982 72.370419 
L 170.153773 120.515822 
L 170.382564 77.757117 
L 170.611355 75.834171 
L 170.840146 86.425908 
L 171.068937 86.638898 
L 171.297728 58.483965 
L 171.526519 96.480524 
L 171.75531 71.949716 
L 172.212893 98.715516 
L 172.441684 83.648701 
L 172.670475 92.988309 
L 172.899266 96.331856 
L 173.128057 55.596273 
L 173.356848 82.846828 
L 173.585639 85.130838 
L 173.81443 59.970924 
L 174.043221 75.772071 
L 174.272012 113.418175 
L 174.500803 64.625288 
L 174.729594 75.932871 
L 174.958386 75.243823 
L 175.187177 91.543488 
L 175.415968 97.98135 
L 176.102341 78.799659 
L 176.331132 78.623067 
L 176.559923 80.94942 
L 176.788714 89.8073 
L 177.017505 81.309519 
L 177.246296 82.552604 
L 177.475087 97.504473 
L 177.703879 85.36703 
L 177.93267 101.606172 
L 178.161461 102.146289 
L 178.390252 116.742411 
L 178.847834 77.842967 
L 179.076625 81.373374 
L 179.305416 74.687728 
L 179.534207 75.217359 
L 179.762998 90.720172 
L 179.991789 79.143893 
L 180.22058 79.249061 
L 180.449372 104.07104 
L 180.906954 72.443964 
L 181.135745 105.702281 
L 181.364536 66.82743 
L 181.593327 103.769923 
L 181.822118 57.624875 
L 182.050909 54.108981 
L 182.2797 76.870518 
L 182.508491 131.613431 
L 182.737282 99.038239 
L 182.966073 98.898018 
L 183.194865 94.884278 
L 183.423656 136.860824 
L 183.652447 109.802179 
L 183.881238 122.578278 
L 184.33882 86.945774 
L 184.567611 156.21412 
L 184.796402 87.590601 
L 185.025193 74.60002 
L 185.253984 78.195988 
L 185.711566 56.784609 
L 185.940357 61.628837 
L 186.169149 81.502158 
L 186.39794 88.267866 
L 186.626731 69.260346 
L 187.084313 104.332051 
L 187.313104 90.256234 
L 187.541895 86.101607 
L 187.770686 79.27321 
L 187.999477 66.586547 
L 188.228268 77.635407 
L 188.457059 61.58001 
L 188.68585 75.009497 
L 188.914642 67.681369 
L 189.143433 85.176733 
L 189.372224 69.188752 
L 189.601015 84.598396 
L 189.829806 75.166757 
L 190.058597 76.544724 
L 190.287388 65.005149 
L 190.516179 83.621615 
L 190.74497 69.860305 
L 190.973761 70.171376 
L 191.202552 72.499549 
L 191.431343 60.976009 
L 191.660135 102.684313 
L 191.888926 106.088021 
L 192.117717 117.527438 
L 192.346508 87.449415 
L 192.575299 87.311918 
L 193.032881 102.819413 
L 193.261672 87.557078 
L 193.490463 134.414844 
L 193.719254 79.795764 
L 193.948045 98.947786 
L 194.176836 80.822963 
L 194.405628 84.721713 
L 194.634419 78.896525 
L 194.86321 107.675344 
L 195.092001 87.739958 
L 195.320792 102.093009 
L 195.549583 68.278363 
L 195.778374 61.270975 
L 196.007165 85.777719 
L 196.235956 96.861248 
L 196.464747 60.943491 
L 196.693538 62.297615 
L 196.922329 66.685555 
L 197.151121 66.403935 
L 197.379912 123.084742 
L 197.608703 72.951861 
L 197.837494 85.48545 
L 198.066285 86.66068 
L 198.295076 73.624951 
L 198.523867 107.189965 
L 198.752658 84.109071 
L 198.981449 79.416854 
L 199.21024 77.632004 
L 199.439031 81.639498 
L 199.667822 75.342803 
L 199.896613 80.613543 
L 200.125405 89.469349 
L 200.354196 87.277979 
L 200.582987 78.98421 
L 200.811778 95.942732 
L 201.040569 76.326262 
L 201.26936 69.87829 
L 201.498151 75.896548 
L 201.726942 68.349501 
L 201.955733 80.79192 
L 202.184524 74.965116 
L 202.413315 87.160593 
L 202.642106 82.608844 
L 202.870898 93.448761 
L 203.099689 89.622191 
L 203.32848 103.620566 
L 203.557271 80.814236 
L 203.786062 98.585116 
L 204.014853 67.253958 
L 204.243644 75.887412 
L 204.472435 70.216537 
L 204.701226 68.602937 
L 204.930017 80.514796 
L 205.158808 82.248128 
L 205.387599 78.358527 
L 205.616391 97.872645 
L 205.845182 68.309963 
L 206.073973 86.143131 
L 206.302764 63.591156 
L 206.531555 71.39444 
L 206.760346 61.793564 
L 206.989137 100.427207 
L 207.217928 96.858423 
L 207.446719 131.419471 
L 207.904301 75.161817 
L 208.133092 98.042944 
L 208.590675 118.432342 
L 209.048257 113.533365 
L 209.277048 104.396664 
L 209.505839 80.08033 
L 209.73463 79.065982 
L 209.963421 72.783371 
L 210.192212 79.584755 
L 210.421003 64.050677 
L 210.649794 79.084158 
L 210.878585 79.854519 
L 211.107377 71.261821 
L 211.336168 95.321633 
L 211.564959 66.746333 
L 211.79375 90.053237 
L 212.022541 64.149316 
L 212.251332 55.917269 
L 212.480123 87.230118 
L 212.708914 69.20915 
L 212.937705 70.872537 
L 213.166496 62.853632 
L 213.395287 95.814245 
L 213.624078 107.674933 
L 214.081661 67.020724 
L 214.310452 70.191444 
L 214.768034 92.830572 
L 214.996825 69.504277 
L 215.225616 63.889844 
L 215.454407 87.206326 
L 215.683198 66.329237 
L 215.911989 80.799754 
L 216.14078 72.987287 
L 216.369571 76.708108 
L 216.598362 73.524763 
L 216.827154 83.541836 
L 217.055945 83.462966 
L 217.284736 88.088258 
L 217.513527 76.499877 
L 217.742318 76.745094 
L 217.971109 62.569187 
L 218.1999 81.726137 
L 218.428691 82.651789 
L 218.657482 69.339806 
L 218.886273 72.869262 
L 219.115064 71.914046 
L 219.343855 112.783171 
L 219.572647 72.940149 
L 219.801438 97.378944 
L 220.030229 89.320213 
L 220.25902 77.155977 
L 220.487811 86.352664 
L 220.716602 70.531771 
L 221.174184 85.392583 
L 221.402975 77.236613 
L 221.631766 81.033356 
L 221.860557 82.914687 
L 222.089348 89.705285 
L 222.31814 70.149535 
L 222.546931 85.714034 
L 222.775722 82.733334 
L 223.004513 97.663459 
L 223.233304 98.214862 
L 223.690886 71.696078 
L 223.919677 84.235957 
L 224.148468 79.127614 
L 224.377259 99.397333 
L 224.60605 133.212114 
L 224.834841 115.79095 
L 225.063633 128.994372 
L 225.292424 122.367926 
L 225.521215 122.293785 
L 225.750006 124.565009 
L 225.978797 82.53337 
L 226.207588 67.125095 
L 226.436379 93.96069 
L 226.66517 77.192291 
L 226.893961 85.385064 
L 227.122752 78.736556 
L 227.351543 100.623415 
L 227.580334 83.611206 
L 227.809126 82.957911 
L 228.037917 76.927946 
L 228.266708 79.859469 
L 228.495499 85.082689 
L 228.72429 105.731864 
L 228.953081 230.019024 
L 229.410663 99.398286 
L 229.639454 108.466071 
L 229.868245 133.616852 
L 230.097036 114.338468 
L 230.325827 127.396073 
L 230.78341 204.901523 
L 231.012201 119.011796 
L 231.240992 200.626618 
L 231.469783 165.676427 
L 231.698574 86.109652 
L 231.927365 107.520706 
L 232.156156 89.720527 
L 232.384947 99.985719 
L 232.842529 84.223944 
L 233.07132 94.434128 
L 233.300111 83.08116 
L 233.528903 78.889069 
L 233.757694 85.580774 
L 233.986485 101.421934 
L 234.215276 148.797563 
L 234.444067 165.565396 
L 234.672858 124.299198 
L 234.901649 106.845024 
L 235.13044 113.030168 
L 235.359231 124.008256 
L 235.588022 108.490379 
L 235.816813 101.05185 
L 236.274396 121.370466 
L 236.503187 114.034302 
L 236.731978 115.182317 
L 236.960769 89.293209 
L 237.18956 81.528938 
L 237.418351 80.455141 
L 237.647142 75.912913 
L 237.875933 80.526413 
L 238.104724 79.120438 
L 238.333515 105.3001 
L 238.562306 73.974948 
L 238.791097 68.391845 
L 239.019889 66.645185 
L 239.24868 87.222673 
L 239.477471 70.901155 
L 239.706262 106.333609 
L 239.935053 162.890727 
L 240.163844 159.054787 
L 240.621426 83.749167 
L 240.850217 107.303221 
L 241.079008 113.434943 
L 241.307799 116.124848 
L 241.53659 102.925805 
L 241.765382 103.834151 
L 241.994173 89.43568 
L 242.222964 133.536103 
L 242.451755 84.357642 
L 242.680546 103.83 
L 242.909337 100.617382 
L 243.138128 80.768904 
L 243.366919 81.310267 
L 243.59571 75.020096 
L 243.824501 72.791911 
L 244.053292 72.833307 
L 244.282083 75.264815 
L 244.510874 109.332174 
L 244.739666 73.101419 
L 245.197248 108.258612 
L 245.65483 131.05893 
L 245.883621 93.739004 
L 246.112412 117.143712 
L 246.341203 109.657862 
L 246.569994 78.580041 
L 246.798785 98.29601 
L 247.027576 88.072489 
L 247.256367 88.305147 
L 247.485159 89.343989 
L 247.71395 91.966353 
L 247.942741 118.884711 
L 248.171532 117.100356 
L 248.400323 84.594281 
L 248.629114 98.398517 
L 248.857905 100.033101 
L 249.086696 79.982746 
L 249.315487 92.050337 
L 249.544278 78.054427 
L 249.773069 75.344615 
L 250.00186 104.409167 
L 250.230652 74.77646 
L 250.459443 74.06321 
L 250.688234 91.493838 
L 250.917025 124.228049 
L 251.145816 128.254873 
L 251.603398 87.303933 
L 251.832189 93.106627 
L 252.06098 104.584966 
L 252.289771 150.191405 
L 252.747353 100.540024 
L 252.976145 88.593193 
L 253.204936 90.612179 
L 253.433727 206.94233 
L 253.662518 143.730454 
L 253.891309 183.419385 
L 254.1201 202.146794 
L 254.348891 92.238189 
L 254.577682 66.63423 
L 254.806473 94.71552 
L 255.035264 75.282592 
L 255.264055 72.833477 
L 255.492846 81.0771 
L 255.721638 73.555357 
L 255.950429 92.989397 
L 256.17922 85.735191 
L 256.408011 93.586829 
L 256.636802 83.184994 
L 256.865593 80.395871 
L 257.094384 92.527878 
L 257.323175 92.748669 
L 257.551966 98.391494 
L 257.780757 73.221184 
L 258.009548 83.725953 
L 258.238339 79.877692 
L 258.467131 104.706357 
L 258.695922 96.708262 
L 258.924713 111.224008 
L 259.382295 98.013366 
L 259.611086 74.894022 
L 259.839877 93.396381 
L 260.068668 77.047463 
L 260.297459 119.405191 
L 260.52625 91.326673 
L 260.755041 86.655797 
L 260.983832 77.216132 
L 261.212623 97.742488 
L 261.441415 87.291787 
L 261.670206 117.111986 
L 261.898997 77.83704 
L 262.127788 93.15833 
L 262.356579 77.725736 
L 262.58537 103.859579 
L 262.814161 81.423303 
L 263.042952 73.425679 
L 263.271743 77.304852 
L 263.500534 102.469765 
L 263.729325 102.441864 
L 263.958116 108.365437 
L 264.186908 84.98508 
L 264.415699 85.074783 
L 264.64449 96.087495 
L 264.873281 91.953925 
L 265.102072 77.916907 
L 265.330863 98.185636 
L 265.559654 76.675546 
L 265.788445 100.132215 
L 266.017236 73.522262 
L 266.246027 89.665764 
L 266.474818 78.292593 
L 266.703609 98.116703 
L 267.161192 72.03109 
L 267.389983 94.332425 
L 267.618774 83.553084 
L 267.847565 83.700214 
L 268.076356 85.785665 
L 268.305147 78.112392 
L 268.533938 90.008221 
L 268.762729 66.888565 
L 268.99152 77.735618 
L 269.220311 80.989567 
L 269.449102 92.598725 
L 269.677894 97.365693 
L 269.906685 85.060194 
L 270.135476 98.534323 
L 270.364267 68.524164 
L 270.593058 82.8939 
L 270.821849 73.012192 
L 271.05064 91.968507 
L 271.279431 91.930068 
L 271.508222 98.223045 
L 271.737013 93.193282 
L 271.965804 73.750211 
L 272.194595 71.315146 
L 272.423387 121.902364 
L 272.652178 114.854516 
L 272.880969 118.604777 
L 273.10976 116.942907 
L 273.338551 104.308899 
L 273.567342 112.417059 
L 273.796133 105.606568 
L 274.024924 128.820555 
L 274.253715 114.185935 
L 274.482506 119.925842 
L 274.711297 102.824089 
L 274.940088 114.516452 
L 275.397671 94.642006 
L 275.855253 86.529233 
L 276.084044 80.752925 
L 276.312835 89.232574 
L 276.541626 90.719067 
L 276.770417 80.911824 
L 276.999208 102.949776 
L 277.227999 85.417956 
L 277.45679 77.980495 
L 277.685581 104.419613 
L 277.914372 82.102713 
L 278.143164 129.669239 
L 278.371955 89.795138 
L 278.829537 105.878986 
L 279.058328 99.216387 
L 279.287119 101.970993 
L 279.51591 86.049325 
L 279.744701 99.931903 
L 279.973492 103.825456 
L 280.202283 102.150901 
L 280.431074 89.663962 
L 280.659865 97.561044 
L 280.888657 95.33818 
L 281.117448 83.414868 
L 281.346239 78.786893 
L 281.803821 92.771189 
L 282.032612 79.49684 
L 282.261403 91.716842 
L 282.490194 72.434616 
L 282.718985 78.897713 
L 283.176567 68.245477 
L 283.405358 70.230103 
L 283.63415 87.313539 
L 283.862941 72.239747 
L 284.091732 82.889801 
L 284.320523 83.361275 
L 284.549314 77.60731 
L 284.778105 102.435432 
L 285.235687 87.73089 
L 285.464478 91.770696 
L 285.693269 99.034281 
L 285.92206 100.248476 
L 286.150851 87.083866 
L 286.379643 82.376768 
L 286.608434 73.592531 
L 286.837225 84.532956 
L 287.066016 87.687191 
L 287.294807 85.001877 
L 287.523598 77.188539 
L 287.752389 77.450164 
L 287.98118 70.569833 
L 288.209971 87.852379 
L 288.438762 78.329432 
L 289.125135 94.60644 
L 289.353927 91.268073 
L 289.811509 117.945129 
L 290.0403 97.331639 
L 290.269091 117.023991 
L 290.497882 95.510675 
L 290.726673 91.416488 
L 290.955464 91.957936 
L 291.184255 116.47465 
L 291.413046 110.543857 
L 291.641837 131.012436 
L 291.870628 129.446454 
L 292.09942 126.377059 
L 292.328211 96.997863 
L 292.557002 138.690865 
L 292.785793 106.55892 
L 293.014584 104.748821 
L 293.243375 115.596123 
L 293.472166 101.662143 
L 293.700957 106.272034 
L 293.929748 96.309191 
L 294.158539 91.652708 
L 294.38733 101.533978 
L 294.844913 164.442906 
L 295.073704 103.248971 
L 295.302495 104.563842 
L 295.531286 112.899325 
L 295.988868 120.207346 
L 296.217659 102.907273 
L 296.675241 118.490903 
L 296.904032 120.635574 
L 297.132823 115.242943 
L 297.361614 118.813556 
L 297.590406 112.658981 
L 297.819197 95.001803 
L 298.047988 93.182277 
L 298.276779 98.967534 
L 298.50557 86.432777 
L 298.734361 84.692395 
L 299.191943 70.092224 
L 299.420734 91.957819 
L 299.878316 68.21526 
L 300.107107 75.560364 
L 300.335899 93.620512 
L 300.793481 113.22641 
L 301.022272 109.634926 
L 301.251063 108.516955 
L 301.479854 115.025415 
L 301.708645 93.538296 
L 301.937436 111.886591 
L 302.166227 88.058288 
L 302.395018 91.682808 
L 302.623809 98.681979 
L 302.8526 110.228751 
L 303.081392 96.671081 
L 303.310183 101.24457 
L 303.538974 79.165861 
L 303.767765 91.502934 
L 303.996556 92.416553 
L 304.225347 82.449838 
L 304.454138 90.980896 
L 304.682929 89.728489 
L 304.91172 89.935665 
L 305.140511 106.660716 
L 305.369302 102.263805 
L 305.598093 107.240182 
L 305.826884 118.299198 
L 306.055676 110.158479 
L 306.284467 96.133727 
L 306.742049 106.194402 
L 306.97084 101.740027 
L 307.199631 117.284484 
L 307.428422 106.818121 
L 307.657213 113.613113 
L 307.886004 105.502268 
L 308.114795 123.971089 
L 308.343586 125.57307 
L 308.572377 93.38352 
L 308.801169 93.28464 
L 309.02996 97.280852 
L 309.258751 93.453267 
L 309.487542 81.604436 
L 309.716333 78.467742 
L 309.945124 88.797845 
L 310.173915 90.962986 
L 310.402706 94.585962 
L 310.631497 76.780697 
L 310.860288 105.530051 
L 311.089079 110.365988 
L 311.31787 132.59567 
L 311.546662 123.574569 
L 311.775453 124.846381 
L 312.004244 121.615981 
L 312.233035 98.60389 
L 312.461826 134.18635 
L 312.690617 115.168542 
L 312.919408 113.299878 
L 313.148199 97.297347 
L 313.37699 97.093839 
L 313.605781 108.43665 
L 313.834572 83.277972 
L 314.063363 86.301353 
L 314.292155 87.761814 
L 314.520946 103.126194 
L 314.749737 107.664779 
L 314.978528 102.488219 
L 315.207319 114.1552 
L 315.43611 92.274462 
L 315.664901 84.586957 
L 315.893692 86.159929 
L 316.122483 98.590282 
L 316.351274 99.903986 
L 316.580065 90.406728 
L 316.808856 119.937134 
L 317.037648 124.78669 
L 317.49523 85.612734 
L 317.724021 124.808443 
L 318.410394 94.20655 
L 318.867976 126.753286 
L 319.096767 77.778048 
L 319.325558 94.059595 
L 319.554349 93.382861 
L 319.78314 87.307066 
L 320.011932 78.177945 
L 320.240723 94.457133 
L 320.469514 68.121906 
L 320.698305 69.010052 
L 320.927096 68.705707 
L 321.155887 60.197773 
L 321.384678 63.366046 
L 321.613469 93.763255 
L 321.84226 77.182474 
L 322.071051 93.356677 
L 322.528633 158.222267 
L 322.757425 88.836646 
L 322.986216 90.660428 
L 323.215007 95.187945 
L 323.443798 104.193235 
L 323.672589 104.567553 
L 323.90138 96.515022 
L 324.130171 133.06485 
L 324.587753 88.224004 
L 324.816544 103.707715 
L 325.045335 80.973863 
L 325.274126 93.656369 
L 325.502918 82.813707 
L 325.731709 82.612588 
L 325.9605 69.813056 
L 326.189291 113.716168 
L 326.418082 81.876465 
L 326.646873 83.301785 
L 326.875664 68.065547 
L 327.104455 95.789173 
L 327.333246 75.989555 
L 327.562037 138.944715 
L 327.790828 125.83167 
L 328.019619 152.807741 
L 328.248411 138.364607 
L 328.477202 102.998603 
L 328.705993 130.764128 
L 328.934784 127.845768 
L 329.163575 126.839647 
L 329.392366 110.684952 
L 329.621157 107.524493 
L 329.849948 122.498313 
L 330.078739 89.248107 
L 330.30753 89.45587 
L 330.536321 87.819798 
L 330.765112 95.687204 
L 330.993904 85.22902 
L 331.222695 81.427378 
L 331.451486 93.415249 
L 331.680277 82.809501 
L 331.909068 86.463251 
L 332.137859 82.403329 
L 332.36665 74.520895 
L 332.824232 99.769871 
L 333.053023 95.096839 
L 333.281814 81.647629 
L 333.510605 100.088867 
L 333.739397 107.625175 
L 334.196979 80.989945 
L 334.42577 87.693899 
L 334.654561 89.084584 
L 334.883352 113.843641 
L 335.112143 97.863517 
L 335.340934 97.742944 
L 335.569725 121.007314 
L 335.798516 97.740799 
L 336.027307 113.441754 
L 336.713681 70.78384 
L 336.942472 118.838684 
L 337.171263 98.165726 
L 337.400054 110.157257 
L 337.628845 95.887712 
L 337.857636 109.329399 
L 338.086427 104.099965 
L 338.315218 71.779267 
L 338.544009 77.801406 
L 338.7728 77.954816 
L 339.001591 86.779852 
L 339.230382 75.091141 
L 339.459174 83.961309 
L 339.687965 79.172519 
L 339.916756 90.617564 
L 340.145547 73.619927 
L 340.374338 94.733163 
L 340.603129 71.676032 
L 340.83192 67.434918 
L 341.060711 74.752757 
L 341.289502 75.409057 
L 341.518293 69.477224 
L 341.747084 77.215035 
L 342.433458 66.556352 
L 342.89104 79.582457 
L 343.119831 61.026528 
L 343.577413 83.007385 
L 343.806204 74.30256 
L 344.034995 111.711151 
L 344.263786 72.911593 
L 344.492577 89.276064 
L 344.721368 119.392278 
L 344.95016 108.792984 
L 345.178951 88.079061 
L 345.407742 84.197774 
L 345.636533 104.051681 
L 345.865324 86.253919 
L 346.094115 86.330478 
L 346.322906 66.354855 
L 346.551697 82.274091 
L 346.780488 74.221137 
L 347.009279 75.563705 
L 347.23807 83.043677 
L 347.466861 68.319239 
L 347.695653 77.116866 
L 347.924444 79.057245 
L 348.153235 65.349802 
L 348.382026 65.054073 
L 348.610817 71.646051 
L 348.839608 69.801436 
L 349.068399 86.824416 
L 349.29719 62.503634 
L 349.754772 96.840401 
L 349.983563 73.079381 
L 350.212354 94.871491 
L 350.441145 101.953057 
L 350.898728 68.871247 
L 351.127519 82.731472 
L 351.35631 72.304481 
L 351.585101 101.848179 
L 351.813892 107.054597 
L 352.042683 127.736635 
L 352.500265 91.851083 
L 352.729056 97.689243 
L 352.957847 77.188062 
L 353.186638 93.346984 
L 353.41543 82.519284 
L 353.644221 80.101797 
L 353.873012 90.5834 
L 354.330594 79.464223 
L 354.788176 99.826016 
L 355.016967 80.116224 
L 355.245758 95.287062 
L 355.474549 99.620818 
L 355.70334 96.013399 
L 355.932131 85.726648 
L 356.160923 85.31324 
L 356.389714 90.647159 
L 356.618505 136.218583 
L 357.076087 95.270417 
L 357.304878 110.466694 
L 357.533669 104.639273 
L 357.76246 110.308426 
L 357.991251 92.837904 
L 358.220042 85.626927 
L 358.448833 101.955536 
L 358.677624 90.853529 
L 358.906416 63.552858 
L 359.135207 90.055493 
L 359.363998 63.474597 
L 359.592789 77.972222 
L 359.82158 66.570775 
L 360.050371 83.815738 
L 360.279162 83.246842 
L 360.507953 105.543238 
L 360.736744 96.230688 
L 360.965535 95.594917 
L 361.194326 120.191996 
L 361.423117 106.462222 
L 361.651909 134.01865 
L 361.8807 104.178968 
L 362.109491 110.871653 
L 362.338282 110.106118 
L 362.567073 94.824331 
L 362.795864 119.062025 
L 363.024655 81.545524 
L 363.253446 97.85324 
L 363.482237 83.412401 
L 363.939819 79.981026 
L 364.16861 94.817369 
L 364.397401 79.616049 
L 364.626193 88.954478 
L 364.854984 76.013872 
L 365.083775 85.549683 
L 365.312566 81.50774 
L 365.541357 84.57054 
L 365.770148 85.230818 
L 366.22773 112.040752 
L 366.456521 89.47493 
L 366.685312 121.588726 
L 366.914103 115.138485 
L 367.142894 78.403299 
L 367.371686 104.748778 
L 367.600477 107.317148 
L 368.28685 73.773977 
L 368.515641 74.79868 
L 368.744432 94.449241 
L 368.973223 81.747626 
L 369.202014 76.291438 
L 369.430805 76.745907 
L 369.659596 87.953225 
L 369.888387 81.737938 
L 370.34597 89.770947 
L 370.574761 112.524234 
L 370.803552 112.858473 
L 371.032343 83.569881 
L 371.261134 102.08946 
L 371.718716 75.594456 
L 371.947507 74.414821 
L 372.63388 98.693908 
L 372.862672 92.541115 
L 373.091463 76.147321 
L 373.320254 74.697861 
L 373.549045 77.972168 
L 373.777836 75.787343 
L 374.006627 78.844823 
L 374.235418 79.468857 
L 374.464209 77.157504 
L 374.693 92.257613 
L 374.921791 88.063276 
L 375.150582 76.041707 
L 375.379373 89.22917 
L 375.836956 79.090179 
L 376.065747 82.056413 
L 376.294538 64.086937 
L 376.523329 70.913574 
L 376.75212 82.974597 
L 376.980911 64.679598 
L 377.209702 75.944835 
L 377.438493 73.434851 
L 377.896075 79.495994 
L 378.124866 118.486681 
L 378.582449 92.535718 
L 378.81124 94.766734 
L 379.040031 80.043357 
L 379.268822 84.524587 
L 379.497613 96.262989 
L 379.726404 101.592145 
L 379.955195 174.880703 
L 380.412777 72.27003 
L 380.641568 73.579256 
L 381.09915 84.554988 
L 381.327942 68.740761 
L 381.556733 62.373702 
L 381.785524 62.791017 
L 382.014315 64.307357 
L 382.243106 82.105821 
L 382.471897 69.247487 
L 382.929479 88.480465 
L 383.15827 72.982632 
L 383.387061 96.934726 
L 383.615852 84.948392 
L 383.844643 96.602495 
L 384.073435 81.494255 
L 384.302226 77.989222 
L 384.531017 94.661366 
L 384.759808 88.27152 
L 384.988599 85.704928 
L 385.21739 94.890153 
L 385.446181 93.488756 
L 385.674972 79.914093 
L 385.903763 74.800936 
L 386.132554 76.539445 
L 386.361345 96.201971 
L 386.590136 78.943554 
L 387.047719 70.542812 
L 387.27651 87.815908 
L 387.505301 62.243541 
L 387.734092 67.330064 
L 387.962883 76.289491 
L 388.191674 72.131692 
L 388.420465 80.924833 
L 388.649256 62.610805 
L 388.878047 108.761154 
L 389.106838 67.233356 
L 389.335629 78.092425 
L 389.564421 78.562904 
L 389.793212 85.073769 
L 390.022003 84.825479 
L 390.250794 70.651927 
L 390.479585 92.23864 
L 390.708376 79.96652 
L 390.937167 102.415607 
L 391.165958 89.09365 
L 391.394749 118.43615 
L 391.62354 83.280225 
L 391.852331 73.004362 
L 392.081122 74.716801 
L 392.309914 64.273534 
L 392.767496 70.156779 
L 392.996287 91.059185 
L 393.225078 87.959087 
L 393.453869 113.225537 
L 393.911451 86.637636 
L 394.140242 116.485284 
L 394.369033 203.616488 
L 394.597824 241.633516 
L 394.826615 191.31992 
L 395.284198 224.821352 
L 395.74178 69.355122 
L 396.199362 105.121696 
L 396.428153 74.002559 
L 396.656944 90.560757 
L 396.885735 90.040143 
L 397.114526 77.388124 
L 397.343317 73.774964 
L 397.572108 113.512636 
L 397.800899 109.152286 
L 398.029691 101.77294 
L 398.258482 78.753492 
L 398.487273 78.599999 
L 398.487273 78.599999 
" style="fill:none;stroke:#1f77b4;stroke-linecap:square;stroke-width:1.5;"/>
   </g>
   <g id="patch_3">
    <path d="M 57.6 307.584 
L 57.6 41.472 
" style="fill:none;stroke:#000000;stroke-linecap:square;stroke-linejoin:miter;stroke-width:0.8;"/>
   </g>
   <g id="patch_4">
    <path d="M 414.72 307.584 
L 414.72 41.472 
" style="fill:none;stroke:#000000;stroke-linecap:square;stroke-linejoin:miter;stroke-width:0.8;"/>
   </g>
   <g id="patch_5">
    <path d="M 57.6 307.584 
L 414.72 307.584 
" style="fill:none;stroke:#000000;stroke-linecap:square;stroke-linejoin:miter;stroke-width:0.8;"/>
   </g>
   <g id="patch_6">
    <path d="M 57.6 41.472 
L 414.72 41.472 
" style="fill:none;stroke:#000000;stroke-linecap:square;stroke-linejoin:miter;stroke-width:0.8;"/>
   </g>
   <g id="text_15">
    <!-- real_23.csv -->
    <defs>
     <path d="M 41.109375 46.296875 
Q 39.59375 47.171875 37.8125 47.578125 
Q 36.03125 48 33.890625 48 
Q 26.265625 48 22.1875 43.046875 
Q 18.109375 38.09375 18.109375 28.8125 
L 18.109375 0 
L 9.078125 0 
L 9.078125 54.6875 
L 18.109375 54.6875 
L 18.109375 46.1875 
Q 20.953125 51.171875 25.484375 53.578125 
Q 30.03125 56 36.53125 56 
Q 37.453125 56 38.578125 55.875 
Q 39.703125 55.765625 41.0625 55.515625 
z
" id="DejaVuSans-72"/>
     <path d="M 56.203125 29.59375 
L 56.203125 25.203125 
L 14.890625 25.203125 
Q 15.484375 15.921875 20.484375 11.0625 
Q 25.484375 6.203125 34.421875 6.203125 
Q 39.59375 6.203125 44.453125 7.46875 
Q 49.3125 8.734375 54.109375 11.28125 
L 54.109375 2.78125 
Q 49.265625 0.734375 44.1875 -0.34375 
Q 39.109375 -1.421875 33.890625 -1.421875 
Q 20.796875 -1.421875 13.15625 6.1875 
Q 5.515625 13.8125 5.515625 26.8125 
Q 5.515625 40.234375 12.765625 48.109375 
Q 20.015625 56 32.328125 56 
Q 43.359375 56 49.78125 48.890625 
Q 56.203125 41.796875 56.203125 29.59375 
z
M 47.21875 32.234375 
Q 47.125 39.59375 43.09375 43.984375 
Q 39.0625 48.390625 32.421875 48.390625 
Q 24.90625 48.390625 20.390625 44.140625 
Q 15.875 39.890625 15.1875 32.171875 
z
" id="DejaVuSans-65"/>
     <path d="M 34.28125 27.484375 
Q 23.390625 27.484375 19.1875 25 
Q 14.984375 22.515625 14.984375 16.5 
Q 14.984375 11.71875 18.140625 8.90625 
Q 21.296875 6.109375 26.703125 6.109375 
Q 34.1875 6.109375 38.703125 11.40625 
Q 43.21875 16.703125 43.21875 25.484375 
L 43.21875 27.484375 
z
M 52.203125 31.203125 
L 52.203125 0 
L 43.21875 0 
L 43.21875 8.296875 
Q 40.140625 3.328125 35.546875 0.953125 
Q 30.953125 -1.421875 24.3125 -1.421875 
Q 15.921875 -1.421875 10.953125 3.296875 
Q 6 8.015625 6 15.921875 
Q 6 25.140625 12.171875 29.828125 
Q 18.359375 34.515625 30.609375 34.515625 
L 43.21875 34.515625 
L 43.21875 35.40625 
Q 43.21875 41.609375 39.140625 45 
Q 35.0625 48.390625 27.6875 48.390625 
Q 23 48.390625 18.546875 47.265625 
Q 14.109375 46.140625 10.015625 43.890625 
L 10.015625 52.203125 
Q 14.9375 54.109375 19.578125 55.046875 
Q 24.21875 56 28.609375 56 
Q 40.484375 56 46.34375 49.84375 
Q 52.203125 43.703125 52.203125 31.203125 
z
" id="DejaVuSans-61"/>
     <path d="M 9.421875 75.984375 
L 18.40625 75.984375 
L 18.40625 0 
L 9.421875 0 
z
" id="DejaVuSans-6c"/>
     <path d="M 50.984375 -16.609375 
L 50.984375 -23.578125 
L -0.984375 -23.578125 
L -0.984375 -16.609375 
z
" id="DejaVuSans-5f"/>
     <path d="M 40.578125 39.3125 
Q 47.65625 37.796875 51.625 33 
Q 55.609375 28.21875 55.609375 21.1875 
Q 55.609375 10.40625 48.1875 4.484375 
Q 40.765625 -1.421875 27.09375 -1.421875 
Q 22.515625 -1.421875 17.65625 -0.515625 
Q 12.796875 0.390625 7.625 2.203125 
L 7.625 11.71875 
Q 11.71875 9.328125 16.59375 8.109375 
Q 21.484375 6.890625 26.8125 6.890625 
Q 36.078125 6.890625 40.9375 10.546875 
Q 45.796875 14.203125 45.796875 21.1875 
Q 45.796875 27.640625 41.28125 31.265625 
Q 36.765625 34.90625 28.71875 34.90625 
L 20.21875 34.90625 
L 20.21875 43.015625 
L 29.109375 43.015625 
Q 36.375 43.015625 40.234375 45.921875 
Q 44.09375 48.828125 44.09375 54.296875 
Q 44.09375 59.90625 40.109375 62.90625 
Q 36.140625 65.921875 28.71875 65.921875 
Q 24.65625 65.921875 20.015625 65.03125 
Q 15.375 64.15625 9.8125 62.3125 
L 9.8125 71.09375 
Q 15.4375 72.65625 20.34375 73.4375 
Q 25.25 74.21875 29.59375 74.21875 
Q 40.828125 74.21875 47.359375 69.109375 
Q 53.90625 64.015625 53.90625 55.328125 
Q 53.90625 49.265625 50.4375 45.09375 
Q 46.96875 40.921875 40.578125 39.3125 
z
" id="DejaVuSans-33"/>
     <path d="M 48.78125 52.59375 
L 48.78125 44.1875 
Q 44.96875 46.296875 41.140625 47.34375 
Q 37.3125 48.390625 33.40625 48.390625 
Q 24.65625 48.390625 19.8125 42.84375 
Q 14.984375 37.3125 14.984375 27.296875 
Q 14.984375 17.28125 19.8125 11.734375 
Q 24.65625 6.203125 33.40625 6.203125 
Q 37.3125 6.203125 41.140625 7.25 
Q 44.96875 8.296875 48.78125 10.40625 
L 48.78125 2.09375 
Q 45.015625 0.34375 40.984375 -0.53125 
Q 36.96875 -1.421875 32.421875 -1.421875 
Q 20.0625 -1.421875 12.78125 6.34375 
Q 5.515625 14.109375 5.515625 27.296875 
Q 5.515625 40.671875 12.859375 48.328125 
Q 20.21875 56 33.015625 56 
Q 37.15625 56 41.109375 55.140625 
Q 45.0625 54.296875 48.78125 52.59375 
z
" id="DejaVuSans-63"/>
     <path d="M 44.28125 53.078125 
L 44.28125 44.578125 
Q 40.484375 46.53125 36.375 47.5 
Q 32.28125 48.484375 27.875 48.484375 
Q 21.1875 48.484375 17.84375 46.4375 
Q 14.5 44.390625 14.5 40.28125 
Q 14.5 37.15625 16.890625 35.375 
Q 19.28125 33.59375 26.515625 31.984375 
L 29.59375 31.296875 
Q 39.15625 29.25 43.1875 25.515625 
Q 47.21875 21.78125 47.21875 15.09375 
Q 47.21875 7.46875 41.1875 3.015625 
Q 35.15625 -1.421875 24.609375 -1.421875 
Q 20.21875 -1.421875 15.453125 -0.5625 
Q 10.6875 0.296875 5.421875 2 
L 5.421875 11.28125 
Q 10.40625 8.6875 15.234375 7.390625 
Q 20.0625 6.109375 24.8125 6.109375 
Q 31.15625 6.109375 34.5625 8.28125 
Q 37.984375 10.453125 37.984375 14.40625 
Q 37.984375 18.0625 35.515625 20.015625 
Q 33.0625 21.96875 24.703125 23.78125 
L 21.578125 24.515625 
Q 13.234375 26.265625 9.515625 29.90625 
Q 5.8125 33.546875 5.8125 39.890625 
Q 5.8125 47.609375 11.28125 51.796875 
Q 16.75 56 26.8125 56 
Q 31.78125 56 36.171875 55.265625 
Q 40.578125 54.546875 44.28125 53.078125 
z
" id="DejaVuSans-73"/>
     <path d="M 2.984375 54.6875 
L 12.5 54.6875 
L 29.59375 8.796875 
L 46.6875 54.6875 
L 56.203125 54.6875 
L 35.6875 0 
L 23.484375 0 
z
" id="DejaVuSans-76"/>
    </defs>
    <g transform="translate(202.141875 35.472)scale(0.12 -0.12)">
     <use xlink:href="#DejaVuSans-72"/>
     <use x="41.082031" xlink:href="#DejaVuSans-65"/>
     <use x="102.605469" xlink:href="#DejaVuSans-61"/>
     <use x="163.884766" xlink:href="#DejaVuSans-6c"/>
     <use x="191.667969" xlink:href="#DejaVuSans-5f"/>
     <use x="241.667969" xlink:href="#DejaVuSans-32"/>
     <use x="305.291016" xlink:href="#DejaVuSans-33"/>
     <use x="368.914062" xlink:href="#DejaVuSans-2e"/>
     <use x="400.701172" xlink:href="#DejaVuSans-63"/>
     <use x="455.681641" xlink:href="#DejaVuSans-73"/>
     <use x="507.78125" xlink:href="#DejaVuSans-76"/>
    </g>
   </g>
   <g id="PathCollection_1">
    <defs>
     <path d="M -4.472136 4.472136 
L 4.472136 -4.472136 
M -4.472136 -4.472136 
L 4.472136 4.472136 
" id="m3389c4fd34" style="stroke:#ffa500;stroke-width:1.5;"/>
    </defs>
    <g clip-path="url(#p49a0c2e8fa)">
     <use style="fill:#ffa500;stroke:#ffa500;stroke-width:1.5;" x="145.444336" xlink:href="#m3389c4fd34" y="207.157285"/>
     <use style="fill:#ffa500;stroke:#ffa500;stroke-width:1.5;" x="145.673127" xlink:href="#m3389c4fd34" y="196.778166"/>
     <use style="fill:#ffa500;stroke:#ffa500;stroke-width:1.5;" x="146.3595" xlink:href="#m3389c4fd34" y="266.981874"/>
     <use style="fill:#ffa500;stroke:#ffa500;stroke-width:1.5;" x="146.817082" xlink:href="#m3389c4fd34" y="203.914651"/>
     <use style="fill:#ffa500;stroke:#ffa500;stroke-width:1.5;" x="150.020158" xlink:href="#m3389c4fd34" y="221.4334"/>
     <use style="fill:#ffa500;stroke:#ffa500;stroke-width:1.5;" x="150.248949" xlink:href="#m3389c4fd34" y="237.235431"/>
     <use style="fill:#ffa500;stroke:#ffa500;stroke-width:1.5;" x="150.47774" xlink:href="#m3389c4fd34" y="246.47897"/>
     <use style="fill:#ffa500;stroke:#ffa500;stroke-width:1.5;" x="150.935322" xlink:href="#m3389c4fd34" y="245.302007"/>
     <use style="fill:#ffa500;stroke:#ffa500;stroke-width:1.5;" x="151.164113" xlink:href="#m3389c4fd34" y="266.933887"/>
     <use style="fill:#ffa500;stroke:#ffa500;stroke-width:1.5;" x="151.392904" xlink:href="#m3389c4fd34" y="219.898562"/>
     <use style="fill:#ffa500;stroke:#ffa500;stroke-width:1.5;" x="228.72429" xlink:href="#m3389c4fd34" y="230.019024"/>
     <use style="fill:#ffa500;stroke:#ffa500;stroke-width:1.5;" x="230.554618" xlink:href="#m3389c4fd34" y="204.901523"/>
     <use style="fill:#ffa500;stroke:#ffa500;stroke-width:1.5;" x="231.012201" xlink:href="#m3389c4fd34" y="200.626618"/>
     <use style="fill:#ffa500;stroke:#ffa500;stroke-width:1.5;" x="253.204936" xlink:href="#m3389c4fd34" y="206.94233"/>
     <use style="fill:#ffa500;stroke:#ffa500;stroke-width:1.5;" x="253.891309" xlink:href="#m3389c4fd34" y="202.146794"/>
     <use style="fill:#ffa500;stroke:#ffa500;stroke-width:1.5;" x="394.140242" xlink:href="#m3389c4fd34" y="203.616488"/>
     <use style="fill:#ffa500;stroke:#ffa500;stroke-width:1.5;" x="394.369033" xlink:href="#m3389c4fd34" y="241.633516"/>
     <use style="fill:#ffa500;stroke:#ffa500;stroke-width:1.5;" x="394.826615" xlink:href="#m3389c4fd34" y="210.500054"/>
     <use style="fill:#ffa500;stroke:#ffa500;stroke-width:1.5;" x="395.055406" xlink:href="#m3389c4fd34" y="224.821352"/>
    </g>
   </g>
  </g>
 </g>
 <defs>
  <clipPath id="p49a0c2e8fa">
   <rect height="266.112" width="357.12" x="57.6" y="41.472"/>
  </clipPath>
 </defs>
</svg>
