<?xml version="1.0" encoding="utf-8" standalone="no"?>
<!DOCTYPE svg PUBLIC "-//W3C//DTD SVG 1.1//EN"
  "http://www.w3.org/Graphics/SVG/1.1/DTD/svg11.dtd">
<!-- Created with matplotlib (http://matplotlib.org/) -->
<svg height="345.6pt" version="1.1" viewBox="0 0 460.8 345.6" width="460.8pt" xmlns="http://www.w3.org/2000/svg" xmlns:xlink="http://www.w3.org/1999/xlink">
 <defs>
  <style type="text/css">
*{stroke-linecap:butt;stroke-linejoin:round;}
  </style>
 </defs>
 <g id="figure_1">
  <g id="patch_1">
   <path d="M 0 345.6 
L 460.8 345.6 
L 460.8 0 
L 0 0 
z
" style="fill:#ffffff;"/>
  </g>
  <g id="axes_1">
   <g id="patch_2">
    <path d="M 57.6 307.584 
L 414.72 307.584 
L 414.72 41.472 
L 57.6 41.472 
z
" style="fill:#ffffff;"/>
   </g>
   <g id="matplotlib.axis_1">
    <g id="xtick_1">
     <g id="line2d_1">
      <defs>
       <path d="M 0 0 
L 0 3.5 
" id="ma31af8fa5b" style="stroke:#000000;stroke-width:0.8;"/>
      </defs>
      <g>
       <use style="stroke:#000000;stroke-width:0.8;" x="73.608714" xlink:href="#ma31af8fa5b" y="307.584"/>
      </g>
     </g>
     <g id="text_1">
      <!-- 0 -->
      <defs>
       <path d="M 31.78125 66.40625 
Q 24.171875 66.40625 20.328125 58.90625 
Q 16.5 51.421875 16.5 36.375 
Q 16.5 21.390625 20.328125 13.890625 
Q 24.171875 6.390625 31.78125 6.390625 
Q 39.453125 6.390625 43.28125 13.890625 
Q 47.125 21.390625 47.125 36.375 
Q 47.125 51.421875 43.28125 58.90625 
Q 39.453125 66.40625 31.78125 66.40625 
z
M 31.78125 74.21875 
Q 44.046875 74.21875 50.515625 64.515625 
Q 56.984375 54.828125 56.984375 36.375 
Q 56.984375 17.96875 50.515625 8.265625 
Q 44.046875 -1.421875 31.78125 -1.421875 
Q 19.53125 -1.421875 13.0625 8.265625 
Q 6.59375 17.96875 6.59375 36.375 
Q 6.59375 54.828125 13.0625 64.515625 
Q 19.53125 74.21875 31.78125 74.21875 
z
" id="DejaVuSans-30"/>
      </defs>
      <g transform="translate(70.427464 322.182437)scale(0.1 -0.1)">
       <use xlink:href="#DejaVuSans-30"/>
      </g>
     </g>
    </g>
    <g id="xtick_2">
     <g id="line2d_2">
      <g>
       <use style="stroke:#000000;stroke-width:0.8;" x="118.411449" xlink:href="#ma31af8fa5b" y="307.584"/>
      </g>
     </g>
     <g id="text_2">
      <!-- 200 -->
      <defs>
       <path d="M 19.1875 8.296875 
L 53.609375 8.296875 
L 53.609375 0 
L 7.328125 0 
L 7.328125 8.296875 
Q 12.9375 14.109375 22.625 23.890625 
Q 32.328125 33.6875 34.8125 36.53125 
Q 39.546875 41.84375 41.421875 45.53125 
Q 43.3125 49.21875 43.3125 52.78125 
Q 43.3125 58.59375 39.234375 62.25 
Q 35.15625 65.921875 28.609375 65.921875 
Q 23.96875 65.921875 18.8125 64.3125 
Q 13.671875 62.703125 7.8125 59.421875 
L 7.8125 69.390625 
Q 13.765625 71.78125 18.9375 73 
Q 24.125 74.21875 28.421875 74.21875 
Q 39.75 74.21875 46.484375 68.546875 
Q 53.21875 62.890625 53.21875 53.421875 
Q 53.21875 48.921875 51.53125 44.890625 
Q 49.859375 40.875 45.40625 35.40625 
Q 44.1875 33.984375 37.640625 27.21875 
Q 31.109375 20.453125 19.1875 8.296875 
z
" id="DejaVuSans-32"/>
      </defs>
      <g transform="translate(108.867699 322.182437)scale(0.1 -0.1)">
       <use xlink:href="#DejaVuSans-32"/>
       <use x="63.623047" xlink:href="#DejaVuSans-30"/>
       <use x="127.246094" xlink:href="#DejaVuSans-30"/>
      </g>
     </g>
    </g>
    <g id="xtick_3">
     <g id="line2d_3">
      <g>
       <use style="stroke:#000000;stroke-width:0.8;" x="163.214185" xlink:href="#ma31af8fa5b" y="307.584"/>
      </g>
     </g>
     <g id="text_3">
      <!-- 400 -->
      <defs>
       <path d="M 37.796875 64.3125 
L 12.890625 25.390625 
L 37.796875 25.390625 
z
M 35.203125 72.90625 
L 47.609375 72.90625 
L 47.609375 25.390625 
L 58.015625 25.390625 
L 58.015625 17.1875 
L 47.609375 17.1875 
L 47.609375 0 
L 37.796875 0 
L 37.796875 17.1875 
L 4.890625 17.1875 
L 4.890625 26.703125 
z
" id="DejaVuSans-34"/>
      </defs>
      <g transform="translate(153.670435 322.182437)scale(0.1 -0.1)">
       <use xlink:href="#DejaVuSans-34"/>
       <use x="63.623047" xlink:href="#DejaVuSans-30"/>
       <use x="127.246094" xlink:href="#DejaVuSans-30"/>
      </g>
     </g>
    </g>
    <g id="xtick_4">
     <g id="line2d_4">
      <g>
       <use style="stroke:#000000;stroke-width:0.8;" x="208.016921" xlink:href="#ma31af8fa5b" y="307.584"/>
      </g>
     </g>
     <g id="text_4">
      <!-- 600 -->
      <defs>
       <path d="M 33.015625 40.375 
Q 26.375 40.375 22.484375 35.828125 
Q 18.609375 31.296875 18.609375 23.390625 
Q 18.609375 15.53125 22.484375 10.953125 
Q 26.375 6.390625 33.015625 6.390625 
Q 39.65625 6.390625 43.53125 10.953125 
Q 47.40625 15.53125 47.40625 23.390625 
Q 47.40625 31.296875 43.53125 35.828125 
Q 39.65625 40.375 33.015625 40.375 
z
M 52.59375 71.296875 
L 52.59375 62.3125 
Q 48.875 64.0625 45.09375 64.984375 
Q 41.3125 65.921875 37.59375 65.921875 
Q 27.828125 65.921875 22.671875 59.328125 
Q 17.53125 52.734375 16.796875 39.40625 
Q 19.671875 43.65625 24.015625 45.921875 
Q 28.375 48.1875 33.59375 48.1875 
Q 44.578125 48.1875 50.953125 41.515625 
Q 57.328125 34.859375 57.328125 23.390625 
Q 57.328125 12.15625 50.6875 5.359375 
Q 44.046875 -1.421875 33.015625 -1.421875 
Q 20.359375 -1.421875 13.671875 8.265625 
Q 6.984375 17.96875 6.984375 36.375 
Q 6.984375 53.65625 15.1875 63.9375 
Q 23.390625 74.21875 37.203125 74.21875 
Q 40.921875 74.21875 44.703125 73.484375 
Q 48.484375 72.75 52.59375 71.296875 
z
" id="DejaVuSans-36"/>
      </defs>
      <g transform="translate(198.473171 322.182437)scale(0.1 -0.1)">
       <use xlink:href="#DejaVuSans-36"/>
       <use x="63.623047" xlink:href="#DejaVuSans-30"/>
       <use x="127.246094" xlink:href="#DejaVuSans-30"/>
      </g>
     </g>
    </g>
    <g id="xtick_5">
     <g id="line2d_5">
      <g>
       <use style="stroke:#000000;stroke-width:0.8;" x="252.819657" xlink:href="#ma31af8fa5b" y="307.584"/>
      </g>
     </g>
     <g id="text_5">
      <!-- 800 -->
      <defs>
       <path d="M 31.78125 34.625 
Q 24.75 34.625 20.71875 30.859375 
Q 16.703125 27.09375 16.703125 20.515625 
Q 16.703125 13.921875 20.71875 10.15625 
Q 24.75 6.390625 31.78125 6.390625 
Q 38.8125 6.390625 42.859375 10.171875 
Q 46.921875 13.96875 46.921875 20.515625 
Q 46.921875 27.09375 42.890625 30.859375 
Q 38.875 34.625 31.78125 34.625 
z
M 21.921875 38.8125 
Q 15.578125 40.375 12.03125 44.71875 
Q 8.5 49.078125 8.5 55.328125 
Q 8.5 64.0625 14.71875 69.140625 
Q 20.953125 74.21875 31.78125 74.21875 
Q 42.671875 74.21875 48.875 69.140625 
Q 55.078125 64.0625 55.078125 55.328125 
Q 55.078125 49.078125 51.53125 44.71875 
Q 48 40.375 41.703125 38.8125 
Q 48.828125 37.15625 52.796875 32.3125 
Q 56.78125 27.484375 56.78125 20.515625 
Q 56.78125 9.90625 50.3125 4.234375 
Q 43.84375 -1.421875 31.78125 -1.421875 
Q 19.734375 -1.421875 13.25 4.234375 
Q 6.78125 9.90625 6.78125 20.515625 
Q 6.78125 27.484375 10.78125 32.3125 
Q 14.796875 37.15625 21.921875 38.8125 
z
M 18.3125 54.390625 
Q 18.3125 48.734375 21.84375 45.5625 
Q 25.390625 42.390625 31.78125 42.390625 
Q 38.140625 42.390625 41.71875 45.5625 
Q 45.3125 48.734375 45.3125 54.390625 
Q 45.3125 60.0625 41.71875 63.234375 
Q 38.140625 66.40625 31.78125 66.40625 
Q 25.390625 66.40625 21.84375 63.234375 
Q 18.3125 60.0625 18.3125 54.390625 
z
" id="DejaVuSans-38"/>
      </defs>
      <g transform="translate(243.275907 322.182437)scale(0.1 -0.1)">
       <use xlink:href="#DejaVuSans-38"/>
       <use x="63.623047" xlink:href="#DejaVuSans-30"/>
       <use x="127.246094" xlink:href="#DejaVuSans-30"/>
      </g>
     </g>
    </g>
    <g id="xtick_6">
     <g id="line2d_6">
      <g>
       <use style="stroke:#000000;stroke-width:0.8;" x="297.622393" xlink:href="#ma31af8fa5b" y="307.584"/>
      </g>
     </g>
     <g id="text_6">
      <!-- 1000 -->
      <defs>
       <path d="M 12.40625 8.296875 
L 28.515625 8.296875 
L 28.515625 63.921875 
L 10.984375 60.40625 
L 10.984375 69.390625 
L 28.421875 72.90625 
L 38.28125 72.90625 
L 38.28125 8.296875 
L 54.390625 8.296875 
L 54.390625 0 
L 12.40625 0 
z
" id="DejaVuSans-31"/>
      </defs>
      <g transform="translate(284.897393 322.182437)scale(0.1 -0.1)">
       <use xlink:href="#DejaVuSans-31"/>
       <use x="63.623047" xlink:href="#DejaVuSans-30"/>
       <use x="127.246094" xlink:href="#DejaVuSans-30"/>
       <use x="190.869141" xlink:href="#DejaVuSans-30"/>
      </g>
     </g>
    </g>
    <g id="xtick_7">
     <g id="line2d_7">
      <g>
       <use style="stroke:#000000;stroke-width:0.8;" x="342.425129" xlink:href="#ma31af8fa5b" y="307.584"/>
      </g>
     </g>
     <g id="text_7">
      <!-- 1200 -->
      <g transform="translate(329.700129 322.182437)scale(0.1 -0.1)">
       <use xlink:href="#DejaVuSans-31"/>
       <use x="63.623047" xlink:href="#DejaVuSans-32"/>
       <use x="127.246094" xlink:href="#DejaVuSans-30"/>
       <use x="190.869141" xlink:href="#DejaVuSans-30"/>
      </g>
     </g>
    </g>
    <g id="xtick_8">
     <g id="line2d_8">
      <g>
       <use style="stroke:#000000;stroke-width:0.8;" x="387.227864" xlink:href="#ma31af8fa5b" y="307.584"/>
      </g>
     </g>
     <g id="text_8">
      <!-- 1400 -->
      <g transform="translate(374.502864 322.182437)scale(0.1 -0.1)">
       <use xlink:href="#DejaVuSans-31"/>
       <use x="63.623047" xlink:href="#DejaVuSans-34"/>
       <use x="127.246094" xlink:href="#DejaVuSans-30"/>
       <use x="190.869141" xlink:href="#DejaVuSans-30"/>
      </g>
     </g>
    </g>
   </g>
   <g id="matplotlib.axis_2">
    <g id="ytick_1">
     <g id="line2d_9">
      <defs>
       <path d="M 0 0 
L -3.5 0 
" id="md5a423db6f" style="stroke:#000000;stroke-width:0.8;"/>
      </defs>
      <g>
       <use style="stroke:#000000;stroke-width:0.8;" x="57.6" xlink:href="#md5a423db6f" y="283.403729"/>
      </g>
     </g>
     <g id="text_9">
      <!-- 5000 -->
      <defs>
       <path d="M 10.796875 72.90625 
L 49.515625 72.90625 
L 49.515625 64.59375 
L 19.828125 64.59375 
L 19.828125 46.734375 
Q 21.96875 47.46875 24.109375 47.828125 
Q 26.265625 48.1875 28.421875 48.1875 
Q 40.625 48.1875 47.75 41.5 
Q 54.890625 34.8125 54.890625 23.390625 
Q 54.890625 11.625 47.5625 5.09375 
Q 40.234375 -1.421875 26.90625 -1.421875 
Q 22.3125 -1.421875 17.546875 -0.640625 
Q 12.796875 0.140625 7.71875 1.703125 
L 7.71875 11.625 
Q 12.109375 9.234375 16.796875 8.0625 
Q 21.484375 6.890625 26.703125 6.890625 
Q 35.15625 6.890625 40.078125 11.328125 
Q 45.015625 15.765625 45.015625 23.390625 
Q 45.015625 31 40.078125 35.4375 
Q 35.15625 39.890625 26.703125 39.890625 
Q 22.75 39.890625 18.8125 39.015625 
Q 14.890625 38.140625 10.796875 36.28125 
z
" id="DejaVuSans-35"/>
      </defs>
      <g transform="translate(25.15 287.202947)scale(0.1 -0.1)">
       <use xlink:href="#DejaVuSans-35"/>
       <use x="63.623047" xlink:href="#DejaVuSans-30"/>
       <use x="127.246094" xlink:href="#DejaVuSans-30"/>
       <use x="190.869141" xlink:href="#DejaVuSans-30"/>
      </g>
     </g>
    </g>
    <g id="ytick_2">
     <g id="line2d_10">
      <g>
       <use style="stroke:#000000;stroke-width:0.8;" x="57.6" xlink:href="#md5a423db6f" y="231.406003"/>
      </g>
     </g>
     <g id="text_10">
      <!-- 10000 -->
      <g transform="translate(18.7875 235.205222)scale(0.1 -0.1)">
       <use xlink:href="#DejaVuSans-31"/>
       <use x="63.623047" xlink:href="#DejaVuSans-30"/>
       <use x="127.246094" xlink:href="#DejaVuSans-30"/>
       <use x="190.869141" xlink:href="#DejaVuSans-30"/>
       <use x="254.492188" xlink:href="#DejaVuSans-30"/>
      </g>
     </g>
    </g>
    <g id="ytick_3">
     <g id="line2d_11">
      <g>
       <use style="stroke:#000000;stroke-width:0.8;" x="57.6" xlink:href="#md5a423db6f" y="179.408278"/>
      </g>
     </g>
     <g id="text_11">
      <!-- 15000 -->
      <g transform="translate(18.7875 183.207497)scale(0.1 -0.1)">
       <use xlink:href="#DejaVuSans-31"/>
       <use x="63.623047" xlink:href="#DejaVuSans-35"/>
       <use x="127.246094" xlink:href="#DejaVuSans-30"/>
       <use x="190.869141" xlink:href="#DejaVuSans-30"/>
       <use x="254.492188" xlink:href="#DejaVuSans-30"/>
      </g>
     </g>
    </g>
    <g id="ytick_4">
     <g id="line2d_12">
      <g>
       <use style="stroke:#000000;stroke-width:0.8;" x="57.6" xlink:href="#md5a423db6f" y="127.410552"/>
      </g>
     </g>
     <g id="text_12">
      <!-- 20000 -->
      <g transform="translate(18.7875 131.209771)scale(0.1 -0.1)">
       <use xlink:href="#DejaVuSans-32"/>
       <use x="63.623047" xlink:href="#DejaVuSans-30"/>
       <use x="127.246094" xlink:href="#DejaVuSans-30"/>
       <use x="190.869141" xlink:href="#DejaVuSans-30"/>
       <use x="254.492188" xlink:href="#DejaVuSans-30"/>
      </g>
     </g>
    </g>
    <g id="ytick_5">
     <g id="line2d_13">
      <g>
       <use style="stroke:#000000;stroke-width:0.8;" x="57.6" xlink:href="#md5a423db6f" y="75.412827"/>
      </g>
     </g>
     <g id="text_13">
      <!-- 25000 -->
      <g transform="translate(18.7875 79.212046)scale(0.1 -0.1)">
       <use xlink:href="#DejaVuSans-32"/>
       <use x="63.623047" xlink:href="#DejaVuSans-35"/>
       <use x="127.246094" xlink:href="#DejaVuSans-30"/>
       <use x="190.869141" xlink:href="#DejaVuSans-30"/>
       <use x="254.492188" xlink:href="#DejaVuSans-30"/>
      </g>
     </g>
    </g>
   </g>
   <g id="line2d_14">
    <path clip-path="url(#p366c114490)" d="M 73.832727 262.854228 
L 74.280755 275.354481 
L 74.504768 265.110929 
L 74.952796 220.850465 
L 75.400823 180.718621 
L 75.624837 175.893232 
L 75.84885 176.496405 
L 76.072864 178.753107 
L 76.296878 177.661154 
L 76.744905 181.311395 
L 76.968919 179.82426 
L 77.192932 184.119272 
L 77.416946 181.207399 
L 77.64096 183.048119 
L 77.864973 186.864752 
L 78.088987 186.687959 
L 78.313001 192.178919 
L 78.761028 226.882201 
L 78.985042 247.629294 
L 79.657083 273.066581 
L 79.881097 271.964229 
L 80.10511 262.656636 
L 80.553138 208.828591 
L 81.001165 170.828653 
L 81.225179 170.423071 
L 81.449192 172.575777 
L 81.89722 185.252822 
L 82.569261 194.019639 
L 82.793274 197.441089 
L 83.017288 197.264297 
L 83.241302 195.60037 
L 83.465315 197.295495 
L 83.689329 201.195325 
L 83.913343 211.480475 
L 84.585384 265.693303 
L 84.809398 274.584914 
L 85.033411 278.723933 
L 85.257425 277.278397 
L 85.481439 271.673042 
L 85.929466 221.838422 
L 86.377493 184.992834 
L 86.601507 176.257216 
L 86.825521 178.628312 
L 87.049534 176.714796 
L 87.273548 180.687422 
L 87.497562 181.924968 
L 87.721575 177.900344 
L 88.169603 191.201362 
L 88.393616 179.377079 
L 88.61763 175.529248 
L 88.841644 174.187706 
L 89.065657 182.767331 
L 89.289671 204.783168 
L 89.513685 211.449276 
L 89.737698 242.263128 
L 90.40974 266.566865 
L 90.633753 262.552641 
L 90.857767 248.045275 
L 91.753822 154.054187 
L 91.977835 146.784905 
L 92.425863 151.069518 
L 92.87389 163.12259 
L 93.097904 161.926643 
L 93.321917 164.96331 
L 93.545931 162.155433 
L 93.993958 150.164757 
L 94.217972 150.663935 
L 94.441986 162.914599 
L 95.114027 237.822523 
L 95.33804 257.238473 
L 95.562054 266.390073 
L 95.786068 270.737083 
L 96.010082 261.450289 
L 96.906136 169.175126 
L 97.354164 157.621231 
L 97.578177 160.709896 
L 97.802191 161.718652 
L 98.026205 166.710433 
L 98.250218 166.367248 
L 98.474232 162.789805 
L 98.922259 159.732339 
L 99.370287 147.991252 
L 99.5943 148.209643 
L 99.818314 159.825934 
L 100.490355 243.053494 
L 100.714369 265.350118 
L 100.938382 275.458476 
L 101.162396 277.465588 
L 101.38641 270.612288 
L 102.282465 194.092436 
L 102.954506 183.453701 
L 103.178519 185.190425 
L 103.402533 181.623381 
L 103.626547 186.344774 
L 103.85056 185.970391 
L 104.074574 182.122559 
L 104.298588 185.450414 
L 104.970629 172.586176 
L 105.194642 186.500768 
L 105.418656 209.30697 
L 105.64267 130.43682 
L 105.866683 120.349261 
L 106.090697 162.9042 
L 106.314711 239.299258 
L 106.538724 257.820848 
L 106.762738 262.708634 
L 107.882807 181.384191 
L 108.554848 185.388016 
L 108.778861 161.136277 
L 109.226889 183.568096 
L 109.450902 182.434545 
L 109.674916 177.494762 
L 109.89893 180.749819 
L 110.122943 176.236417 
L 110.346957 174.822078 
L 110.570971 187.571921 
L 111.018998 236.304189 
L 111.467025 266.202881 
L 111.691039 276.467232 
L 111.915053 279.295908 
L 112.139066 267.59642 
L 113.035121 193.562059 
L 113.259135 187.415928 
L 113.483148 186.511167 
L 113.707162 187.103941 
L 114.15519 192.220517 
L 114.379203 190.816579 
L 114.603217 186.063987 
L 115.051244 190.691784 
L 115.275258 193.08368 
L 115.499272 193.593257 
L 115.723285 193.551659 
L 116.171313 217.741001 
L 116.61934 253.349043 
L 117.067367 273.08738 
L 117.291381 276.956011 
L 117.515395 276.498431 
L 117.739408 268.896363 
L 118.635463 183.776087 
L 118.859477 181.904169 
L 119.307504 187.644718 
L 119.531518 195.069993 
L 119.755531 198.117059 
L 120.203559 206.041513 
L 120.427573 206.207906 
L 120.651586 207.143865 
L 120.8756 208.662198 
L 121.099614 208.256616 
L 121.323627 209.036582 
L 121.771655 237.375342 
L 122.219682 266.182082 
L 122.667709 279.243911 
L 122.891723 277.559184 
L 123.115737 269.988315 
L 124.011791 193.957241 
L 124.235805 190.608588 
L 124.459819 193.187675 
L 124.683832 189.953417 
L 124.907846 192.667698 
L 125.13186 192.345312 
L 125.355873 199.728989 
L 125.803901 195.454776 
L 126.475942 183.214511 
L 126.699956 191.554947 
L 127.59601 262.708634 
L 127.820024 271.631444 
L 128.044038 274.46012 
L 128.268051 264.320563 
L 128.716079 223.876733 
L 129.164106 184.514454 
L 129.38812 176.257216 
L 129.612133 176.496405 
L 129.836147 176.340412 
L 130.508188 178.253928 
L 130.732202 182.424146 
L 130.956215 183.328906 
L 131.180229 181.311395 
L 131.628256 172.50298 
L 131.85227 171.629418 
L 132.076284 182.860927 
L 132.524311 233.132328 
L 132.748325 237.063356 
L 132.972339 258.268028 
L 133.196352 268.657174 
L 133.420366 273.565759 
L 133.64438 264.892538 
L 133.868393 247.265309 
L 134.540434 178.285127 
L 134.764448 167.885582 
L 134.988462 171.619019 
L 135.212475 169.164726 
L 135.436489 170.339875 
L 135.660503 174.3333 
L 135.884516 175.040469 
L 136.10853 174.146108 
L 136.332544 171.34863 
L 136.556557 174.187706 
L 136.780571 169.99669 
L 137.004585 157.954016 
L 137.228598 160.325113 
L 137.452612 169.445514 
L 138.124653 244.696622 
L 138.348667 262.615038 
L 138.572681 268.532379 
L 138.796694 271.153065 
L 139.020708 262.833428 
L 139.916763 180.625025 
L 140.140776 175.581245 
L 140.36479 175.633243 
L 140.588804 174.894875 
L 140.812817 175.435652 
L 141.036831 182.600938 
L 141.260845 180.989009 
L 141.708872 173.886119 
L 141.932886 175.290058 
L 142.156899 171.099041 
L 142.380913 163.153789 
L 142.604927 162.737807 
L 142.82894 172.773368 
L 143.500981 243.906256 
L 143.724995 262.355049 
L 143.949009 270.674685 
L 144.173023 273.180976 
L 144.397036 264.195769 
L 145.293091 184.680847 
L 145.517105 178.971497 
L 145.741118 178.160332 
L 145.965132 178.409922 
L 146.189146 180.760219 
L 146.413159 181.42579 
L 146.637173 182.881726 
L 146.861187 167.490399 
L 147.0852 173.927718 
L 147.309214 174.707683 
L 147.533228 171.827009 
L 147.757241 164.536928 
L 147.981255 163.080992 
L 148.205269 178.21233 
L 148.87731 248.960435 
L 149.325337 269.728327 
L 149.549351 272.432209 
L 149.773364 264.902938 
L 149.997378 246.526942 
L 150.445406 200.633749 
L 150.669419 182.164157 
L 151.117447 169.871895 
L 151.34146 174.56209 
L 151.565474 176.704396 
L 151.789488 183.204112 
L 152.013501 184.37926 
L 152.237515 179.096292 
L 152.685542 183.869683 
L 152.909556 174.125309 
L 153.13357 172.450982 
L 153.357583 179.418677 
L 153.581597 189.963816 
L 154.029624 228.05735 
L 154.477652 258.756807 
L 154.701665 269.478738 
L 154.925679 274.356124 
L 155.149693 274.241729 
L 155.373706 264.039776 
L 156.269761 176.16362 
L 156.493775 174.073311 
L 156.941802 182.829728 
L 157.165816 188.539078 
L 157.38983 182.361749 
L 157.837857 194.851602 
L 158.285884 196.546728 
L 158.509898 196.96271 
L 158.733912 195.392379 
L 158.957925 199.968178 
L 159.405953 231.915581 
L 160.077994 271.579446 
L 160.302007 279.691091 
L 160.526021 277.642381 
L 160.750035 270.092311 
L 161.646089 182.205755 
L 161.870103 178.534716 
L 162.094117 178.597113 
L 162.318131 179.82426 
L 162.542144 179.772262 
L 162.990172 182.413746 
L 163.214185 189.402241 
L 163.438199 202.713658 
L 163.662213 193.53086 
L 163.886226 189.454238 
L 164.11024 181.436189 
L 164.334254 180.157045 
L 164.558267 193.915643 
L 165.006295 245.216599 
L 165.454322 270.050713 
L 165.678336 272.931387 
L 165.902349 263.873383 
L 166.126363 246.745332 
L 166.798404 170.464669 
L 167.022418 159.586745 
L 167.246431 154.584564 
L 167.470445 154.116584 
L 167.694459 156.934861 
L 167.918473 161.947442 
L 168.142486 161.261072 
L 168.3665 159.160364 
L 168.590514 160.886688 
L 168.814527 152.972634 
L 169.038541 149.831972 
L 169.262555 154.386972 
L 169.486568 152.899837 
L 169.710582 168.239166 
L 170.606637 262.708634 
L 170.83065 263.914981 
L 171.054664 272.640199 
L 171.278678 264.050175 
L 172.174732 178.337125 
L 172.398746 175.955629 
L 172.62276 171.608619 
L 172.846773 164.089748 
L 173.070787 177.07878 
L 173.294801 179.449876 
L 173.518814 177.837947 
L 173.742828 178.555515 
L 173.966842 179.907456 
L 174.190856 180.136246 
L 174.862897 149.571983 
L 175.310924 200.352962 
L 175.758951 245.341394 
L 176.206979 269.977916 
L 176.430992 273.399366 
L 176.655006 265.974091 
L 177.551061 180.437833 
L 177.775074 174.468494 
L 177.999088 172.877364 
L 178.223102 175.737238 
L 178.447115 177.161976 
L 178.671129 180.687422 
L 178.895143 176.538003 
L 179.119156 175.144464 
L 179.34317 176.735595 
L 180.015211 161.812248 
L 180.239225 163.091392 
L 180.463239 177.442764 
L 181.359293 263.519798 
L 181.583307 274.012939 
L 181.807321 275.219287 
L 182.031334 265.381317 
L 182.255348 246.152558 
L 182.703375 192.210118 
L 183.151403 171.015845 
L 183.375416 173.886119 
L 184.047457 186.240779 
L 184.271471 180.708221 
L 184.719498 182.590539 
L 184.943512 177.089179 
L 185.615553 168.863139 
L 185.839567 183.828085 
L 186.511608 249.324419 
L 186.959635 269.686729 
L 187.183649 270.425096 
L 187.407663 262.261453 
L 188.303717 169.455913 
L 188.527731 161.583458 
L 188.751745 163.340981 
L 188.975758 153.575808 
L 189.423786 168.145571 
L 189.871813 161.250672 
L 190.095827 162.883401 
L 190.31984 167.209611 
L 190.543854 165.63928 
L 191.215895 179.293883 
L 192.11195 263.4782 
L 192.559977 275.14649 
L 192.783991 274.761707 
L 193.008005 261.42949 
L 193.680046 183.24571 
L 193.904059 171.81661 
L 194.128073 172.762969 
L 195.248141 197.378692 
L 195.472155 199.801786 
L 195.696169 203.909606 
L 195.920182 203.098442 
L 196.144196 201.704902 
L 196.36821 201.944092 
L 196.592223 207.788636 
L 197.712292 270.508293 
L 197.936306 276.852015 
L 198.160319 276.924812 
L 198.384333 269.166751 
L 199.056374 195.298783 
L 199.280388 185.252822 
L 199.504401 186.313576 
L 199.952429 184.181669 
L 200.400456 191.554947 
L 200.62447 192.563702 
L 200.848483 192.771693 
L 201.072497 194.695609 
L 201.520524 175.46685 
L 201.744538 179.845059 
L 202.192565 201.403316 
L 202.640593 249.366018 
L 203.08862 271.392254 
L 203.312634 276.06165 
L 203.536647 266.22368 
L 204.432702 178.950698 
L 204.656716 171.723014 
L 204.88073 172.658973 
L 205.104743 172.211793 
L 205.552771 175.716439 
L 205.776784 178.961097 
L 206.000798 176.964385 
L 206.224812 179.408278 
L 206.448825 176.215618 
L 206.672839 178.097935 
L 206.896853 170.620662 
L 207.120866 169.112728 
L 207.34488 183.120915 
L 208.016921 251.882707 
L 208.464948 271.423453 
L 208.688962 274.418522 
L 208.912976 266.296477 
L 209.809031 181.093004 
L 210.033044 171.286233 
L 210.257058 178.181132 
L 210.481072 179.283483 
L 210.705085 181.446589 
L 210.929099 181.342593 
L 211.153113 184.296064 
L 211.377126 176.974784 
L 211.825154 180.812216 
L 212.273181 164.120947 
L 212.497195 163.101791 
L 212.945222 203.067243 
L 213.393249 249.147627 
L 213.841277 273.253773 
L 214.06529 274.44972 
L 214.289304 266.161283 
L 215.185359 188.601476 
L 215.409372 179.751463 
L 215.633386 184.098473 
L 215.8574 181.384191 
L 216.305427 187.842309 
L 216.529441 187.779912 
L 216.753455 187.083142 
L 216.977468 181.852171 
L 217.201482 183.4849 
L 217.425496 183.869683 
L 217.873523 170.267078 
L 218.097537 177.494762 
L 218.545564 232.445958 
L 219.217605 275.541673 
L 219.441619 277.860771 
L 219.665632 269.572334 
L 220.561687 191.513348 
L 220.785701 186.719158 
L 221.457742 195.194787 
L 221.681755 194.040438 
L 221.905769 194.092436 
L 222.129783 192.646899 
L 222.353797 187.842309 
L 222.57781 192.303714 
L 222.801824 191.575746 
L 223.025838 183.25611 
L 223.249851 183.620094 
L 223.473865 193.926043 
L 224.145906 254.773781 
L 224.36992 272.141021 
L 224.817947 284.537279 
L 225.041961 276.155246 
L 225.265974 262.739833 
L 225.714002 227.017395 
L 226.386043 192.178919 
L 226.610056 210.159733 
L 226.83407 211.428477 
L 227.058084 216.087473 
L 227.282097 217.938592 
L 227.506111 214.173957 
L 228.178152 221.557634 
L 228.402166 221.141652 
L 228.62618 222.088011 
L 228.850193 226.372623 
L 229.970262 280.460657 
L 230.194275 283.996503 
L 230.418289 284.454083 
L 230.642303 275.198488 
L 231.314344 211.241285 
L 231.538357 202.807254 
L 231.762371 202.370473 
L 231.986385 207.372655 
L 232.210398 208.755794 
L 232.434412 215.234711 
L 232.658426 217.169026 
L 233.330467 225.811048 
L 233.55448 226.871802 
L 233.778494 224.126322 
L 234.226522 232.62275 
L 234.450535 241.607957 
L 235.122576 279.618294 
L 235.34659 284.818067 
L 235.570604 285.681229 
L 235.794617 288.374711 
L 236.018631 281.594208 
L 236.466658 239.996027 
L 236.690672 220.174495 
L 236.914686 213.165201 
L 237.138699 210.617313 
L 237.362713 210.107735 
L 237.586727 214.943523 
L 237.81074 215.224311 
L 238.034754 216.316263 
L 238.706795 225.07268 
L 239.154822 221.224849 
L 239.378836 217.969791 
L 239.60285 221.18325 
L 240.498905 279.243911 
L 240.722918 283.746914 
L 240.946932 284.818067 
L 241.170946 281.282221 
L 241.394959 270.78908 
L 242.067 220.0601 
L 242.291014 209.598157 
L 242.515028 208.038225 
L 242.739041 211.636468 
L 242.963055 210.794105 
L 243.187069 217.293821 
L 243.411082 217.273021 
L 243.635096 223.575146 
L 243.85911 220.27849 
L 244.083123 226.507818 
L 244.307137 223.315157 
L 244.531151 221.963216 
L 244.755164 223.887132 
L 244.979178 231.998777 
L 245.875233 281.500612 
L 246.099247 286.554791 
L 246.32326 286.845978 
L 246.547274 284.0589 
L 247.443329 226.22703 
L 247.667342 219.082542 
L 247.891356 219.467325 
L 248.339383 217.792999 
L 248.563397 222.223205 
L 248.787411 224.323913 
L 249.011424 223.502349 
L 249.235438 228.920512 
L 249.459452 222.628787 
L 249.683465 226.996596 
L 250.131493 223.731139 
L 250.355506 232.820341 
L 250.803534 262.885426 
L 251.027547 274.626513 
L 251.251561 273.628156 
L 251.475575 281.500612 
L 251.699589 284.225293 
L 251.923602 277.600782 
L 252.819657 209.774949 
L 253.043671 205.022357 
L 253.267684 188.393485 
L 253.491698 193.010883 
L 253.715712 195.049194 
L 253.939725 203.972003 
L 254.163739 205.563134 
L 254.611766 211.730064 
L 254.83578 212.05245 
L 255.283807 204.034401 
L 255.507821 206.11431 
L 255.731835 211.501274 
L 256.627889 283.923706 
L 256.851903 289.830647 
L 257.075917 291.36978 
L 257.29993 288.821892 
L 258.419999 236.636974 
L 258.868026 240.464007 
L 259.09204 239.954429 
L 259.316054 241.618357 
L 259.540067 241.961541 
L 259.764081 237.167351 
L 259.988095 244.686222 
L 260.212108 246.734933 
L 260.436122 246.266953 
L 260.660136 244.74862 
L 260.884149 245.039807 
L 261.108163 248.710846 
L 261.780204 276.425634 
L 262.228231 287.428353 
L 262.452245 287.979528 
L 262.676259 282.966948 
L 263.572313 228.150946 
L 263.796327 225.592658 
L 264.020341 224.677498 
L 264.244355 226.258228 
L 264.468368 228.878914 
L 264.692382 228.067749 
L 264.916396 233.038732 
L 265.140409 231.863583 
L 265.364423 235.274634 
L 265.588437 229.450889 
L 265.81245 235.472225 
L 266.036464 236.356187 
L 266.260478 236.657774 
L 266.484491 241.295971 
L 267.156532 274.376923 
L 267.380546 274.730508 
L 267.60456 282.779756 
L 267.828573 286.585989 
L 268.052587 284.641274 
L 268.276601 275.260885 
L 268.948642 214.371548 
L 269.172655 204.647974 
L 269.396669 201.216124 
L 269.844697 210.991696 
L 271.188779 230.553241 
L 271.636806 225.967041 
L 271.86082 231.322807 
L 272.980888 288.821892 
L 273.204902 291.754563 
L 273.428915 291.078593 
L 273.652929 284.547679 
L 273.876943 272.941786 
L 274.32497 239.372055 
L 274.548984 231.998777 
L 274.997011 229.055706 
L 275.445038 230.782031 
L 276.341093 239.954429 
L 276.565107 232.102773 
L 277.013134 230.355649 
L 277.237148 235.617819 
L 278.133203 284.589277 
L 278.58123 290.017839 
L 278.805244 284.266891 
L 279.701298 243.947855 
L 279.925312 238.248904 
L 280.149326 241.327169 
L 280.373339 241.597557 
L 280.597353 246.485344 
L 281.04538 240.422409 
L 281.269394 249.386817 
L 281.493408 248.565253 
L 281.717422 251.726714 
L 281.941435 250.062787 
L 282.165449 245.403791 
L 282.389463 244.103848 
L 282.613476 251.518723 
L 283.285517 283.81971 
L 283.509531 275.104892 
L 283.733545 281.178226 
L 283.957558 281.001434 
L 284.181572 275.947255 
L 285.077627 212.634824 
L 285.30164 206.499093 
L 285.749668 207.840634 
L 285.973681 205.760725 
L 286.197695 213.88277 
L 286.421709 206.311901 
L 286.645722 212.094048 
L 286.869736 212.51003 
L 287.09375 213.258797 
L 287.541777 204.710371 
L 287.989805 207.102266 
L 288.661846 263.124616 
L 288.885859 278.422347 
L 289.333887 286.523592 
L 289.5579 280.40866 
L 290.005928 252.943461 
L 290.453955 226.435021 
L 290.677969 225.831847 
L 290.901982 224.39671 
L 291.125996 223.93913 
L 291.574023 224.219918 
L 292.022051 101.952466 
L 292.246064 86.561139 
L 292.470078 208.786993 
L 292.694092 220.028901 
L 292.918105 218.354574 
L 293.142119 220.080899 
L 293.590146 238.040913 
L 294.262188 277.808773 
L 294.710215 285.806024 
L 294.934229 280.231867 
L 295.830283 223.179963 
L 296.054297 219.997702 
L 296.278311 219.415328 
L 296.502324 221.328844 
L 296.726338 219.789711 
L 296.950352 225.426265 
L 297.174365 225.54066 
L 297.398379 223.47115 
L 297.622393 223.793536 
L 297.846406 225.634256 
L 298.07042 222.951173 
L 298.294434 216.929836 
L 298.518447 219.997702 
L 298.966475 242.876701 
L 299.414502 271.121866 
L 299.638516 282.68616 
L 300.086543 290.506618 
L 300.310557 282.103785 
L 300.982598 231.853184 
L 301.206612 223.283959 
L 301.430625 219.966504 
L 301.654639 223.065568 
L 301.878653 221.016858 
L 302.102666 228.691722 
L 302.32668 226.903 
L 302.550694 226.268628 
L 302.774707 228.067749 
L 302.998721 226.622213 
L 303.222735 231.458001 
L 303.446748 232.144371 
L 303.670762 235.81541 
L 303.894776 235.638618 
L 304.118789 238.196906 
L 305.014844 286.825179 
L 305.238858 291.920956 
L 305.462871 294.271253 
L 305.686885 293.480888 
L 305.910899 284.568478 
L 306.58294 235.025045 
L 306.806954 231.863583 
L 307.030967 233.7771 
L 307.254981 234.432271 
L 307.927022 244.343037 
L 308.151036 245.622181 
L 308.375049 246.10056 
L 308.599063 251.445927 
L 308.823077 253.037057 
L 309.04709 253.567434 
L 309.271104 250.291577 
L 309.495118 253.359443 
L 310.391172 287.761138 
L 310.615186 292.472132 
L 310.8392 294.094461 
L 311.063213 291.983353 
L 311.287227 286.637987 
L 311.959268 240.235217 
L 312.183282 235.909006 
L 312.407296 235.794611 
L 312.631309 237.136153 
L 312.855323 239.71524 
L 313.079337 236.990559 
L 313.527364 240.235217 
L 313.751378 245.1854 
L 313.975391 245.050206 
L 314.199405 242.471119 
L 314.423419 238.020114 
L 314.647432 240.963185 
L 314.871446 248.024476 
L 315.319473 273.284971 
L 315.543487 280.970235 
L 315.767501 276.446433 
L 315.991514 281.926993 
L 316.215528 284.474882 
L 316.439542 277.819173 
L 317.335596 210.502918 
L 317.783624 202.037688 
L 318.007638 201.892094 
L 318.231651 203.514423 
L 318.455665 211.262084 
L 318.679679 210.22213 
L 318.903692 209.743751 
L 319.127706 210.461319 
L 319.35172 210.804504 
L 319.799747 206.873476 
L 320.023761 204.637574 
L 320.471788 233.579508 
L 321.143829 275.988853 
L 321.367843 281.563009 
L 321.591856 282.342975 
L 321.81587 275.884858 
L 322.711925 213.404391 
L 322.935938 213.352393 
L 323.159952 209.234173 
L 323.60798 216.326663 
L 323.831993 217.387416 
L 324.280021 204.95996 
L 324.504034 219.924905 
L 324.728048 215.921081 
L 324.952062 215.057918 
L 325.176075 209.119778 
L 325.400089 206.956673 
L 325.848116 237.926518 
L 326.296144 266.46287 
L 326.520157 271.974629 
L 326.744171 280.741445 
L 326.968185 282.623763 
L 327.192198 278.630337 
L 328.088253 219.14494 
L 328.312267 215.161914 
L 328.53628 215.827485 
L 328.760294 214.381948 
L 328.984308 217.252222 
L 329.208321 226.539016 
L 329.432335 225.519861 
L 329.656349 220.132896 
L 329.880363 221.88002 
L 330.104376 216.472257 
L 330.32839 215.650692 
L 330.552404 209.743751 
L 330.776417 207.892632 
L 331.000431 216.659448 
L 331.896486 272.588202 
L 332.120499 280.356662 
L 332.344513 280.63745 
L 332.568527 272.141021 
L 333.464581 201.382517 
L 333.688595 199.69779 
L 333.912609 199.25061 
L 334.136622 196.172345 
L 334.58465 206.457495 
L 334.808663 207.830235 
L 335.032677 205.365542 
L 335.256691 207.310257 
L 335.480704 205.64633 
L 335.704718 206.488693 
L 335.928732 202.318476 
L 336.152746 202.620062 
L 336.376759 210.263728 
L 337.0488 261.065506 
L 337.272814 278.287152 
L 337.496828 282.956548 
L 337.720841 284.443683 
L 337.944855 279.992678 
L 338.84091 219.259335 
L 339.064923 216.472257 
L 339.288937 217.439414 
L 339.512951 218.957748 
L 339.736964 225.010283 
L 339.960978 224.906288 
L 340.409005 223.346356 
L 340.633019 223.367155 
L 340.857033 226.320626 
L 341.30506 227.568571 
L 341.529074 225.946242 
L 341.753088 230.782031 
L 342.201115 254.534591 
L 342.425129 268.334788 
L 343.09717 286.086811 
L 343.321183 282.748557 
L 343.545197 273.409766 
L 344.217238 208.38141 
L 344.441252 195.35078 
L 344.665265 193.478862 
L 345.113293 214.090761 
L 345.337306 216.285065 
L 345.56132 223.304758 
L 345.785334 223.647943 
L 346.009347 227.568571 
L 346.681388 231.749188 
L 346.905402 227.932555 
L 347.129416 233.246723 
L 347.801457 266.587664 
L 348.025471 289.497862 
L 348.473498 295.488 
L 348.697512 294.593639 
L 348.921525 288.749095 
L 349.593566 253.640231 
L 349.81758 245.528585 
L 350.041594 248.492456 
L 350.489621 247.608494 
L 350.713635 249.397216 
L 350.937648 249.033232 
L 351.609689 257.290471 
L 351.833703 253.037057 
L 352.057717 246.599739 
L 352.28173 251.352331 
L 352.953771 281.043032 
L 353.177785 282.90455 
L 353.401799 286.128409 
L 353.625813 287.573946 
L 353.849826 281.947792 
L 354.521867 242.45032 
L 354.745881 229.575683 
L 355.193908 221.245648 
L 355.417922 218.91615 
L 355.641936 219.623319 
L 356.089963 223.585545 
L 356.313977 219.36333 
L 356.53799 226.799005 
L 356.762004 223.086367 
L 356.986018 222.545591 
L 357.210031 218.333775 
L 357.434045 218.021789 
L 357.658059 223.47115 
L 358.3301 271.558647 
L 358.554113 270.269103 
L 358.778127 278.921525 
L 359.002141 279.597495 
L 359.226154 274.096136 
L 359.674182 241.108779 
L 360.122209 209.192575 
L 360.570237 195.662767 
L 360.79425 198.252254 
L 361.018264 196.307539 
L 361.242278 202.557665 
L 361.466291 201.850496 
L 361.690305 204.918362 
L 361.914319 204.939161 
L 362.138332 204.398385 
L 362.362346 205.947917 
L 362.810373 194.955598 
L 363.258401 221.724027 
L 363.706428 261.897469 
L 363.930442 277.319995 
L 364.154455 284.73487 
L 364.378469 285.452439 
L 364.602483 283.715715 
L 364.826496 274.844903 
L 365.274524 244.644624 
L 365.498537 235.253835 
L 365.722551 231.291608 
L 365.946565 230.823629 
L 366.170579 231.094017 
L 366.394592 235.472225 
L 366.618606 235.399429 
L 366.84262 234.068287 
L 367.066633 215.650692 
L 367.290647 213.903569 
L 367.514661 222.212805 
L 367.738674 217.023432 
L 367.962688 217.54341 
L 368.186702 215.120316 
L 368.410715 218.531366 
L 369.082756 267.575621 
L 369.30677 272.005827 
L 369.530784 280.85584 
L 369.754797 283.310133 
L 369.978811 275.676867 
L 370.426838 244.124647 
L 370.874866 216.305864 
L 371.098879 209.431764 
L 371.322893 206.592689 
L 371.770921 214.184357 
L 371.994934 210.617313 
L 372.218948 213.737176 
L 372.442962 209.29657 
L 372.666975 209.130178 
L 372.890989 212.853215 
L 373.115003 212.104448 
L 373.339016 207.403853 
L 373.56303 206.207906 
L 373.787044 214.631537 
L 374.459085 267.773212 
L 374.907112 282.394973 
L 375.131126 286.253204 
L 375.355139 281.438215 
L 376.251194 222.306401 
L 376.699221 212.333238 
L 376.923235 214.163558 
L 377.147249 217.169026 
L 377.371262 222.576789 
L 377.595276 217.689003 
L 377.81929 218.812154 
L 378.043304 217.293821 
L 378.267317 220.912862 
L 378.491331 220.164095 
L 378.715345 223.086367 
L 378.939358 220.788068 
L 379.387386 237.104954 
L 379.835413 266.306877 
L 380.28344 281.750201 
L 380.507454 285.046857 
L 380.731468 284.880464 
L 380.955481 280.793443 
L 381.851536 210.804504 
L 382.07555 205.615131 
L 382.523577 212.905213 
L 382.747591 215.349106 
L 382.971604 219.082542 
L 383.419632 221.713627 
L 383.643646 227.516573 
L 383.867659 227.901357 
L 384.091673 228.712521 
L 384.315687 225.228673 
L 384.5397 228.473332 
L 384.763714 237.354543 
L 385.435755 276.935212 
L 385.659769 283.38293 
L 386.107796 287.303558 
L 386.33181 283.559722 
L 386.555823 268.646774 
L 387.003851 224.043125 
L 387.227864 212.135646 
L 387.451878 208.131821 
L 387.675892 207.996627 
L 387.899905 207.996627 
L 388.347933 206.083111 
L 388.571946 205.323944 
L 388.79596 205.906319 
L 389.019974 189.277446 
L 389.243987 187.665517 
L 389.468001 183.786486 
L 389.692015 184.077674 
L 389.916029 189.256647 
L 390.812083 278.56794 
L 391.036097 281.334219 
L 391.260111 282.301377 
L 391.484124 275.510474 
L 391.708138 259.547172 
L 392.380179 198.10666 
L 392.604193 187.634318 
L 392.828206 187.020745 
L 393.05222 186.875151 
L 393.500247 194.529216 
L 393.724261 191.367755 
L 394.172288 193.75965 
L 394.620316 56.745644 
L 394.844329 83.33728 
L 395.068343 94.3296 
L 395.292357 122.772355 
L 395.740384 207.93423 
L 395.964398 230.761231 
L 395.964398 230.761231 
" style="fill:none;stroke:#1f77b4;stroke-linecap:square;stroke-width:1.5;"/>
   </g>
   <g id="patch_3">
    <path d="M 57.6 307.584 
L 57.6 41.472 
" style="fill:none;stroke:#000000;stroke-linecap:square;stroke-linejoin:miter;stroke-width:0.8;"/>
   </g>
   <g id="patch_4">
    <path d="M 414.72 307.584 
L 414.72 41.472 
" style="fill:none;stroke:#000000;stroke-linecap:square;stroke-linejoin:miter;stroke-width:0.8;"/>
   </g>
   <g id="patch_5">
    <path d="M 57.6 307.584 
L 414.72 307.584 
" style="fill:none;stroke:#000000;stroke-linecap:square;stroke-linejoin:miter;stroke-width:0.8;"/>
   </g>
   <g id="patch_6">
    <path d="M 57.6 41.472 
L 414.72 41.472 
" style="fill:none;stroke:#000000;stroke-linecap:square;stroke-linejoin:miter;stroke-width:0.8;"/>
   </g>
   <g id="text_14">
    <!-- real_13.csv -->
    <defs>
     <path d="M 41.109375 46.296875 
Q 39.59375 47.171875 37.8125 47.578125 
Q 36.03125 48 33.890625 48 
Q 26.265625 48 22.1875 43.046875 
Q 18.109375 38.09375 18.109375 28.8125 
L 18.109375 0 
L 9.078125 0 
L 9.078125 54.6875 
L 18.109375 54.6875 
L 18.109375 46.1875 
Q 20.953125 51.171875 25.484375 53.578125 
Q 30.03125 56 36.53125 56 
Q 37.453125 56 38.578125 55.875 
Q 39.703125 55.765625 41.0625 55.515625 
z
" id="DejaVuSans-72"/>
     <path d="M 56.203125 29.59375 
L 56.203125 25.203125 
L 14.890625 25.203125 
Q 15.484375 15.921875 20.484375 11.0625 
Q 25.484375 6.203125 34.421875 6.203125 
Q 39.59375 6.203125 44.453125 7.46875 
Q 49.3125 8.734375 54.109375 11.28125 
L 54.109375 2.78125 
Q 49.265625 0.734375 44.1875 -0.34375 
Q 39.109375 -1.421875 33.890625 -1.421875 
Q 20.796875 -1.421875 13.15625 6.1875 
Q 5.515625 13.8125 5.515625 26.8125 
Q 5.515625 40.234375 12.765625 48.109375 
Q 20.015625 56 32.328125 56 
Q 43.359375 56 49.78125 48.890625 
Q 56.203125 41.796875 56.203125 29.59375 
z
M 47.21875 32.234375 
Q 47.125 39.59375 43.09375 43.984375 
Q 39.0625 48.390625 32.421875 48.390625 
Q 24.90625 48.390625 20.390625 44.140625 
Q 15.875 39.890625 15.1875 32.171875 
z
" id="DejaVuSans-65"/>
     <path d="M 34.28125 27.484375 
Q 23.390625 27.484375 19.1875 25 
Q 14.984375 22.515625 14.984375 16.5 
Q 14.984375 11.71875 18.140625 8.90625 
Q 21.296875 6.109375 26.703125 6.109375 
Q 34.1875 6.109375 38.703125 11.40625 
Q 43.21875 16.703125 43.21875 25.484375 
L 43.21875 27.484375 
z
M 52.203125 31.203125 
L 52.203125 0 
L 43.21875 0 
L 43.21875 8.296875 
Q 40.140625 3.328125 35.546875 0.953125 
Q 30.953125 -1.421875 24.3125 -1.421875 
Q 15.921875 -1.421875 10.953125 3.296875 
Q 6 8.015625 6 15.921875 
Q 6 25.140625 12.171875 29.828125 
Q 18.359375 34.515625 30.609375 34.515625 
L 43.21875 34.515625 
L 43.21875 35.40625 
Q 43.21875 41.609375 39.140625 45 
Q 35.0625 48.390625 27.6875 48.390625 
Q 23 48.390625 18.546875 47.265625 
Q 14.109375 46.140625 10.015625 43.890625 
L 10.015625 52.203125 
Q 14.9375 54.109375 19.578125 55.046875 
Q 24.21875 56 28.609375 56 
Q 40.484375 56 46.34375 49.84375 
Q 52.203125 43.703125 52.203125 31.203125 
z
" id="DejaVuSans-61"/>
     <path d="M 9.421875 75.984375 
L 18.40625 75.984375 
L 18.40625 0 
L 9.421875 0 
z
" id="DejaVuSans-6c"/>
     <path d="M 50.984375 -16.609375 
L 50.984375 -23.578125 
L -0.984375 -23.578125 
L -0.984375 -16.609375 
z
" id="DejaVuSans-5f"/>
     <path d="M 40.578125 39.3125 
Q 47.65625 37.796875 51.625 33 
Q 55.609375 28.21875 55.609375 21.1875 
Q 55.609375 10.40625 48.1875 4.484375 
Q 40.765625 -1.421875 27.09375 -1.421875 
Q 22.515625 -1.421875 17.65625 -0.515625 
Q 12.796875 0.390625 7.625 2.203125 
L 7.625 11.71875 
Q 11.71875 9.328125 16.59375 8.109375 
Q 21.484375 6.890625 26.8125 6.890625 
Q 36.078125 6.890625 40.9375 10.546875 
Q 45.796875 14.203125 45.796875 21.1875 
Q 45.796875 27.640625 41.28125 31.265625 
Q 36.765625 34.90625 28.71875 34.90625 
L 20.21875 34.90625 
L 20.21875 43.015625 
L 29.109375 43.015625 
Q 36.375 43.015625 40.234375 45.921875 
Q 44.09375 48.828125 44.09375 54.296875 
Q 44.09375 59.90625 40.109375 62.90625 
Q 36.140625 65.921875 28.71875 65.921875 
Q 24.65625 65.921875 20.015625 65.03125 
Q 15.375 64.15625 9.8125 62.3125 
L 9.8125 71.09375 
Q 15.4375 72.65625 20.34375 73.4375 
Q 25.25 74.21875 29.59375 74.21875 
Q 40.828125 74.21875 47.359375 69.109375 
Q 53.90625 64.015625 53.90625 55.328125 
Q 53.90625 49.265625 50.4375 45.09375 
Q 46.96875 40.921875 40.578125 39.3125 
z
" id="DejaVuSans-33"/>
     <path d="M 10.6875 12.40625 
L 21 12.40625 
L 21 0 
L 10.6875 0 
z
" id="DejaVuSans-2e"/>
     <path d="M 48.78125 52.59375 
L 48.78125 44.1875 
Q 44.96875 46.296875 41.140625 47.34375 
Q 37.3125 48.390625 33.40625 48.390625 
Q 24.65625 48.390625 19.8125 42.84375 
Q 14.984375 37.3125 14.984375 27.296875 
Q 14.984375 17.28125 19.8125 11.734375 
Q 24.65625 6.203125 33.40625 6.203125 
Q 37.3125 6.203125 41.140625 7.25 
Q 44.96875 8.296875 48.78125 10.40625 
L 48.78125 2.09375 
Q 45.015625 0.34375 40.984375 -0.53125 
Q 36.96875 -1.421875 32.421875 -1.421875 
Q 20.0625 -1.421875 12.78125 6.34375 
Q 5.515625 14.109375 5.515625 27.296875 
Q 5.515625 40.671875 12.859375 48.328125 
Q 20.21875 56 33.015625 56 
Q 37.15625 56 41.109375 55.140625 
Q 45.0625 54.296875 48.78125 52.59375 
z
" id="DejaVuSans-63"/>
     <path d="M 44.28125 53.078125 
L 44.28125 44.578125 
Q 40.484375 46.53125 36.375 47.5 
Q 32.28125 48.484375 27.875 48.484375 
Q 21.1875 48.484375 17.84375 46.4375 
Q 14.5 44.390625 14.5 40.28125 
Q 14.5 37.15625 16.890625 35.375 
Q 19.28125 33.59375 26.515625 31.984375 
L 29.59375 31.296875 
Q 39.15625 29.25 43.1875 25.515625 
Q 47.21875 21.78125 47.21875 15.09375 
Q 47.21875 7.46875 41.1875 3.015625 
Q 35.15625 -1.421875 24.609375 -1.421875 
Q 20.21875 -1.421875 15.453125 -0.5625 
Q 10.6875 0.296875 5.421875 2 
L 5.421875 11.28125 
Q 10.40625 8.6875 15.234375 7.390625 
Q 20.0625 6.109375 24.8125 6.109375 
Q 31.15625 6.109375 34.5625 8.28125 
Q 37.984375 10.453125 37.984375 14.40625 
Q 37.984375 18.0625 35.515625 20.015625 
Q 33.0625 21.96875 24.703125 23.78125 
L 21.578125 24.515625 
Q 13.234375 26.265625 9.515625 29.90625 
Q 5.8125 33.546875 5.8125 39.890625 
Q 5.8125 47.609375 11.28125 51.796875 
Q 16.75 56 26.8125 56 
Q 31.78125 56 36.171875 55.265625 
Q 40.578125 54.546875 44.28125 53.078125 
z
" id="DejaVuSans-73"/>
     <path d="M 2.984375 54.6875 
L 12.5 54.6875 
L 29.59375 8.796875 
L 46.6875 54.6875 
L 56.203125 54.6875 
L 35.6875 0 
L 23.484375 0 
z
" id="DejaVuSans-76"/>
    </defs>
    <g transform="translate(202.141875 35.472)scale(0.12 -0.12)">
     <use xlink:href="#DejaVuSans-72"/>
     <use x="41.082031" xlink:href="#DejaVuSans-65"/>
     <use x="102.605469" xlink:href="#DejaVuSans-61"/>
     <use x="163.884766" xlink:href="#DejaVuSans-6c"/>
     <use x="191.667969" xlink:href="#DejaVuSans-5f"/>
     <use x="241.667969" xlink:href="#DejaVuSans-31"/>
     <use x="305.291016" xlink:href="#DejaVuSans-33"/>
     <use x="368.914062" xlink:href="#DejaVuSans-2e"/>
     <use x="400.701172" xlink:href="#DejaVuSans-63"/>
     <use x="455.681641" xlink:href="#DejaVuSans-73"/>
     <use x="507.78125" xlink:href="#DejaVuSans-76"/>
    </g>
   </g>
   <g id="PathCollection_1">
    <defs>
     <path d="M -4.472136 4.472136 
L 4.472136 -4.472136 
M -4.472136 -4.472136 
L 4.472136 4.472136 
" id="m1d0a937be0" style="stroke:#ffa500;stroke-width:1.5;"/>
    </defs>
    <g clip-path="url(#p366c114490)">
     <use style="fill:#ffa500;stroke:#ffa500;stroke-width:1.5;" x="105.418656" xlink:href="#m1d0a937be0" y="130.43682"/>
     <use style="fill:#ffa500;stroke:#ffa500;stroke-width:1.5;" x="105.64267" xlink:href="#m1d0a937be0" y="120.349261"/>
     <use style="fill:#ffa500;stroke:#ffa500;stroke-width:1.5;" x="105.866683" xlink:href="#m1d0a937be0" y="162.9042"/>
     <use style="fill:#ffa500;stroke:#ffa500;stroke-width:1.5;" x="291.574023" xlink:href="#m1d0a937be0" y="151.527098"/>
     <use style="fill:#ffa500;stroke:#ffa500;stroke-width:1.5;" x="291.798037" xlink:href="#m1d0a937be0" y="101.952466"/>
     <use style="fill:#ffa500;stroke:#ffa500;stroke-width:1.5;" x="292.022051" xlink:href="#m1d0a937be0" y="86.561139"/>
     <use style="fill:#ffa500;stroke:#ffa500;stroke-width:1.5;" x="394.172288" xlink:href="#m1d0a937be0" y="135.938179"/>
     <use style="fill:#ffa500;stroke:#ffa500;stroke-width:1.5;" x="394.396302" xlink:href="#m1d0a937be0" y="56.745644"/>
     <use style="fill:#ffa500;stroke:#ffa500;stroke-width:1.5;" x="394.620316" xlink:href="#m1d0a937be0" y="83.33728"/>
     <use style="fill:#ffa500;stroke:#ffa500;stroke-width:1.5;" x="394.844329" xlink:href="#m1d0a937be0" y="94.3296"/>
     <use style="fill:#ffa500;stroke:#ffa500;stroke-width:1.5;" x="395.068343" xlink:href="#m1d0a937be0" y="122.772355"/>
     <use style="fill:#ffa500;stroke:#ffa500;stroke-width:1.5;" x="395.292357" xlink:href="#m1d0a937be0" y="167.001621"/>
    </g>
   </g>
  </g>
 </g>
 <defs>
  <clipPath id="p366c114490">
   <rect height="266.112" width="357.12" x="57.6" y="41.472"/>
  </clipPath>
 </defs>
</svg>
