<?xml version="1.0" encoding="utf-8" standalone="no"?>
<!DOCTYPE svg PUBLIC "-//W3C//DTD SVG 1.1//EN"
  "http://www.w3.org/Graphics/SVG/1.1/DTD/svg11.dtd">
<!-- Created with matplotlib (http://matplotlib.org/) -->
<svg height="345.6pt" version="1.1" viewBox="0 0 460.8 345.6" width="460.8pt" xmlns="http://www.w3.org/2000/svg" xmlns:xlink="http://www.w3.org/1999/xlink">
 <defs>
  <style type="text/css">
*{stroke-linecap:butt;stroke-linejoin:round;}
  </style>
 </defs>
 <g id="figure_1">
  <g id="patch_1">
   <path d="M 0 345.6 
L 460.8 345.6 
L 460.8 0 
L 0 0 
z
" style="fill:#ffffff;"/>
  </g>
  <g id="axes_1">
   <g id="patch_2">
    <path d="M 57.6 307.584 
L 414.72 307.584 
L 414.72 41.472 
L 57.6 41.472 
z
" style="fill:#ffffff;"/>
   </g>
   <g id="matplotlib.axis_1">
    <g id="xtick_1">
     <g id="line2d_1">
      <defs>
       <path d="M 0 0 
L 0 3.5 
" id="m10a26c7e1a" style="stroke:#000000;stroke-width:0.8;"/>
      </defs>
      <g>
       <use style="stroke:#000000;stroke-width:0.8;" x="73.394005" xlink:href="#m10a26c7e1a" y="307.584"/>
      </g>
     </g>
     <g id="text_1">
      <!-- 0 -->
      <defs>
       <path d="M 31.78125 66.40625 
Q 24.171875 66.40625 20.328125 58.90625 
Q 16.5 51.421875 16.5 36.375 
Q 16.5 21.390625 20.328125 13.890625 
Q 24.171875 6.390625 31.78125 6.390625 
Q 39.453125 6.390625 43.28125 13.890625 
Q 47.125 21.390625 47.125 36.375 
Q 47.125 51.421875 43.28125 58.90625 
Q 39.453125 66.40625 31.78125 66.40625 
z
M 31.78125 74.21875 
Q 44.046875 74.21875 50.515625 64.515625 
Q 56.984375 54.828125 56.984375 36.375 
Q 56.984375 17.96875 50.515625 8.265625 
Q 44.046875 -1.421875 31.78125 -1.421875 
Q 19.53125 -1.421875 13.0625 8.265625 
Q 6.59375 17.96875 6.59375 36.375 
Q 6.59375 54.828125 13.0625 64.515625 
Q 19.53125 74.21875 31.78125 74.21875 
z
" id="DejaVuSans-30"/>
      </defs>
      <g transform="translate(70.212755 322.182437)scale(0.1 -0.1)">
       <use xlink:href="#DejaVuSans-30"/>
      </g>
     </g>
    </g>
    <g id="xtick_2">
     <g id="line2d_2">
      <g>
       <use style="stroke:#000000;stroke-width:0.8;" x="117.266241" xlink:href="#m10a26c7e1a" y="307.584"/>
      </g>
     </g>
     <g id="text_2">
      <!-- 100 -->
      <defs>
       <path d="M 12.40625 8.296875 
L 28.515625 8.296875 
L 28.515625 63.921875 
L 10.984375 60.40625 
L 10.984375 69.390625 
L 28.421875 72.90625 
L 38.28125 72.90625 
L 38.28125 8.296875 
L 54.390625 8.296875 
L 54.390625 0 
L 12.40625 0 
z
" id="DejaVuSans-31"/>
      </defs>
      <g transform="translate(107.722491 322.182437)scale(0.1 -0.1)">
       <use xlink:href="#DejaVuSans-31"/>
       <use x="63.623047" xlink:href="#DejaVuSans-30"/>
       <use x="127.246094" xlink:href="#DejaVuSans-30"/>
      </g>
     </g>
    </g>
    <g id="xtick_3">
     <g id="line2d_3">
      <g>
       <use style="stroke:#000000;stroke-width:0.8;" x="161.138477" xlink:href="#m10a26c7e1a" y="307.584"/>
      </g>
     </g>
     <g id="text_3">
      <!-- 200 -->
      <defs>
       <path d="M 19.1875 8.296875 
L 53.609375 8.296875 
L 53.609375 0 
L 7.328125 0 
L 7.328125 8.296875 
Q 12.9375 14.109375 22.625 23.890625 
Q 32.328125 33.6875 34.8125 36.53125 
Q 39.546875 41.84375 41.421875 45.53125 
Q 43.3125 49.21875 43.3125 52.78125 
Q 43.3125 58.59375 39.234375 62.25 
Q 35.15625 65.921875 28.609375 65.921875 
Q 23.96875 65.921875 18.8125 64.3125 
Q 13.671875 62.703125 7.8125 59.421875 
L 7.8125 69.390625 
Q 13.765625 71.78125 18.9375 73 
Q 24.125 74.21875 28.421875 74.21875 
Q 39.75 74.21875 46.484375 68.546875 
Q 53.21875 62.890625 53.21875 53.421875 
Q 53.21875 48.921875 51.53125 44.890625 
Q 49.859375 40.875 45.40625 35.40625 
Q 44.1875 33.984375 37.640625 27.21875 
Q 31.109375 20.453125 19.1875 8.296875 
z
" id="DejaVuSans-32"/>
      </defs>
      <g transform="translate(151.594727 322.182437)scale(0.1 -0.1)">
       <use xlink:href="#DejaVuSans-32"/>
       <use x="63.623047" xlink:href="#DejaVuSans-30"/>
       <use x="127.246094" xlink:href="#DejaVuSans-30"/>
      </g>
     </g>
    </g>
    <g id="xtick_4">
     <g id="line2d_4">
      <g>
       <use style="stroke:#000000;stroke-width:0.8;" x="205.010713" xlink:href="#m10a26c7e1a" y="307.584"/>
      </g>
     </g>
     <g id="text_4">
      <!-- 300 -->
      <defs>
       <path d="M 40.578125 39.3125 
Q 47.65625 37.796875 51.625 33 
Q 55.609375 28.21875 55.609375 21.1875 
Q 55.609375 10.40625 48.1875 4.484375 
Q 40.765625 -1.421875 27.09375 -1.421875 
Q 22.515625 -1.421875 17.65625 -0.515625 
Q 12.796875 0.390625 7.625 2.203125 
L 7.625 11.71875 
Q 11.71875 9.328125 16.59375 8.109375 
Q 21.484375 6.890625 26.8125 6.890625 
Q 36.078125 6.890625 40.9375 10.546875 
Q 45.796875 14.203125 45.796875 21.1875 
Q 45.796875 27.640625 41.28125 31.265625 
Q 36.765625 34.90625 28.71875 34.90625 
L 20.21875 34.90625 
L 20.21875 43.015625 
L 29.109375 43.015625 
Q 36.375 43.015625 40.234375 45.921875 
Q 44.09375 48.828125 44.09375 54.296875 
Q 44.09375 59.90625 40.109375 62.90625 
Q 36.140625 65.921875 28.71875 65.921875 
Q 24.65625 65.921875 20.015625 65.03125 
Q 15.375 64.15625 9.8125 62.3125 
L 9.8125 71.09375 
Q 15.4375 72.65625 20.34375 73.4375 
Q 25.25 74.21875 29.59375 74.21875 
Q 40.828125 74.21875 47.359375 69.109375 
Q 53.90625 64.015625 53.90625 55.328125 
Q 53.90625 49.265625 50.4375 45.09375 
Q 46.96875 40.921875 40.578125 39.3125 
z
" id="DejaVuSans-33"/>
      </defs>
      <g transform="translate(195.466963 322.182437)scale(0.1 -0.1)">
       <use xlink:href="#DejaVuSans-33"/>
       <use x="63.623047" xlink:href="#DejaVuSans-30"/>
       <use x="127.246094" xlink:href="#DejaVuSans-30"/>
      </g>
     </g>
    </g>
    <g id="xtick_5">
     <g id="line2d_5">
      <g>
       <use style="stroke:#000000;stroke-width:0.8;" x="248.882948" xlink:href="#m10a26c7e1a" y="307.584"/>
      </g>
     </g>
     <g id="text_5">
      <!-- 400 -->
      <defs>
       <path d="M 37.796875 64.3125 
L 12.890625 25.390625 
L 37.796875 25.390625 
z
M 35.203125 72.90625 
L 47.609375 72.90625 
L 47.609375 25.390625 
L 58.015625 25.390625 
L 58.015625 17.1875 
L 47.609375 17.1875 
L 47.609375 0 
L 37.796875 0 
L 37.796875 17.1875 
L 4.890625 17.1875 
L 4.890625 26.703125 
z
" id="DejaVuSans-34"/>
      </defs>
      <g transform="translate(239.339198 322.182437)scale(0.1 -0.1)">
       <use xlink:href="#DejaVuSans-34"/>
       <use x="63.623047" xlink:href="#DejaVuSans-30"/>
       <use x="127.246094" xlink:href="#DejaVuSans-30"/>
      </g>
     </g>
    </g>
    <g id="xtick_6">
     <g id="line2d_6">
      <g>
       <use style="stroke:#000000;stroke-width:0.8;" x="292.755184" xlink:href="#m10a26c7e1a" y="307.584"/>
      </g>
     </g>
     <g id="text_6">
      <!-- 500 -->
      <defs>
       <path d="M 10.796875 72.90625 
L 49.515625 72.90625 
L 49.515625 64.59375 
L 19.828125 64.59375 
L 19.828125 46.734375 
Q 21.96875 47.46875 24.109375 47.828125 
Q 26.265625 48.1875 28.421875 48.1875 
Q 40.625 48.1875 47.75 41.5 
Q 54.890625 34.8125 54.890625 23.390625 
Q 54.890625 11.625 47.5625 5.09375 
Q 40.234375 -1.421875 26.90625 -1.421875 
Q 22.3125 -1.421875 17.546875 -0.640625 
Q 12.796875 0.140625 7.71875 1.703125 
L 7.71875 11.625 
Q 12.109375 9.234375 16.796875 8.0625 
Q 21.484375 6.890625 26.703125 6.890625 
Q 35.15625 6.890625 40.078125 11.328125 
Q 45.015625 15.765625 45.015625 23.390625 
Q 45.015625 31 40.078125 35.4375 
Q 35.15625 39.890625 26.703125 39.890625 
Q 22.75 39.890625 18.8125 39.015625 
Q 14.890625 38.140625 10.796875 36.28125 
z
" id="DejaVuSans-35"/>
      </defs>
      <g transform="translate(283.211434 322.182437)scale(0.1 -0.1)">
       <use xlink:href="#DejaVuSans-35"/>
       <use x="63.623047" xlink:href="#DejaVuSans-30"/>
       <use x="127.246094" xlink:href="#DejaVuSans-30"/>
      </g>
     </g>
    </g>
    <g id="xtick_7">
     <g id="line2d_7">
      <g>
       <use style="stroke:#000000;stroke-width:0.8;" x="336.62742" xlink:href="#m10a26c7e1a" y="307.584"/>
      </g>
     </g>
     <g id="text_7">
      <!-- 600 -->
      <defs>
       <path d="M 33.015625 40.375 
Q 26.375 40.375 22.484375 35.828125 
Q 18.609375 31.296875 18.609375 23.390625 
Q 18.609375 15.53125 22.484375 10.953125 
Q 26.375 6.390625 33.015625 6.390625 
Q 39.65625 6.390625 43.53125 10.953125 
Q 47.40625 15.53125 47.40625 23.390625 
Q 47.40625 31.296875 43.53125 35.828125 
Q 39.65625 40.375 33.015625 40.375 
z
M 52.59375 71.296875 
L 52.59375 62.3125 
Q 48.875 64.0625 45.09375 64.984375 
Q 41.3125 65.921875 37.59375 65.921875 
Q 27.828125 65.921875 22.671875 59.328125 
Q 17.53125 52.734375 16.796875 39.40625 
Q 19.671875 43.65625 24.015625 45.921875 
Q 28.375 48.1875 33.59375 48.1875 
Q 44.578125 48.1875 50.953125 41.515625 
Q 57.328125 34.859375 57.328125 23.390625 
Q 57.328125 12.15625 50.6875 5.359375 
Q 44.046875 -1.421875 33.015625 -1.421875 
Q 20.359375 -1.421875 13.671875 8.265625 
Q 6.984375 17.96875 6.984375 36.375 
Q 6.984375 53.65625 15.1875 63.9375 
Q 23.390625 74.21875 37.203125 74.21875 
Q 40.921875 74.21875 44.703125 73.484375 
Q 48.484375 72.75 52.59375 71.296875 
z
" id="DejaVuSans-36"/>
      </defs>
      <g transform="translate(327.08367 322.182437)scale(0.1 -0.1)">
       <use xlink:href="#DejaVuSans-36"/>
       <use x="63.623047" xlink:href="#DejaVuSans-30"/>
       <use x="127.246094" xlink:href="#DejaVuSans-30"/>
      </g>
     </g>
    </g>
    <g id="xtick_8">
     <g id="line2d_8">
      <g>
       <use style="stroke:#000000;stroke-width:0.8;" x="380.499656" xlink:href="#m10a26c7e1a" y="307.584"/>
      </g>
     </g>
     <g id="text_8">
      <!-- 700 -->
      <defs>
       <path d="M 8.203125 72.90625 
L 55.078125 72.90625 
L 55.078125 68.703125 
L 28.609375 0 
L 18.3125 0 
L 43.21875 64.59375 
L 8.203125 64.59375 
z
" id="DejaVuSans-37"/>
      </defs>
      <g transform="translate(370.955906 322.182437)scale(0.1 -0.1)">
       <use xlink:href="#DejaVuSans-37"/>
       <use x="63.623047" xlink:href="#DejaVuSans-30"/>
       <use x="127.246094" xlink:href="#DejaVuSans-30"/>
      </g>
     </g>
    </g>
   </g>
   <g id="matplotlib.axis_2">
    <g id="ytick_1">
     <g id="line2d_9">
      <defs>
       <path d="M 0 0 
L -3.5 0 
" id="mb076b28960" style="stroke:#000000;stroke-width:0.8;"/>
      </defs>
      <g>
       <use style="stroke:#000000;stroke-width:0.8;" x="57.6" xlink:href="#mb076b28960" y="292.351554"/>
      </g>
     </g>
     <g id="text_9">
      <!-- 0 -->
      <g transform="translate(44.2375 296.150773)scale(0.1 -0.1)">
       <use xlink:href="#DejaVuSans-30"/>
      </g>
     </g>
    </g>
    <g id="ytick_2">
     <g id="line2d_10">
      <g>
       <use style="stroke:#000000;stroke-width:0.8;" x="57.6" xlink:href="#mb076b28960" y="243.496796"/>
      </g>
     </g>
     <g id="text_10">
      <!-- 5 -->
      <g transform="translate(44.2375 247.296014)scale(0.1 -0.1)">
       <use xlink:href="#DejaVuSans-35"/>
      </g>
     </g>
    </g>
    <g id="ytick_3">
     <g id="line2d_11">
      <g>
       <use style="stroke:#000000;stroke-width:0.8;" x="57.6" xlink:href="#mb076b28960" y="194.642038"/>
      </g>
     </g>
     <g id="text_11">
      <!-- 10 -->
      <g transform="translate(37.875 198.441256)scale(0.1 -0.1)">
       <use xlink:href="#DejaVuSans-31"/>
       <use x="63.623047" xlink:href="#DejaVuSans-30"/>
      </g>
     </g>
    </g>
    <g id="ytick_4">
     <g id="line2d_12">
      <g>
       <use style="stroke:#000000;stroke-width:0.8;" x="57.6" xlink:href="#mb076b28960" y="145.787279"/>
      </g>
     </g>
     <g id="text_12">
      <!-- 15 -->
      <g transform="translate(37.875 149.586498)scale(0.1 -0.1)">
       <use xlink:href="#DejaVuSans-31"/>
       <use x="63.623047" xlink:href="#DejaVuSans-35"/>
      </g>
     </g>
    </g>
    <g id="ytick_5">
     <g id="line2d_13">
      <g>
       <use style="stroke:#000000;stroke-width:0.8;" x="57.6" xlink:href="#mb076b28960" y="96.932521"/>
      </g>
     </g>
     <g id="text_13">
      <!-- 20 -->
      <g transform="translate(37.875 100.73174)scale(0.1 -0.1)">
       <use xlink:href="#DejaVuSans-32"/>
       <use x="63.623047" xlink:href="#DejaVuSans-30"/>
      </g>
     </g>
    </g>
    <g id="ytick_6">
     <g id="line2d_14">
      <g>
       <use style="stroke:#000000;stroke-width:0.8;" x="57.6" xlink:href="#mb076b28960" y="48.077763"/>
      </g>
     </g>
     <g id="text_14">
      <!-- 25 -->
      <g transform="translate(37.875 51.876982)scale(0.1 -0.1)">
       <use xlink:href="#DejaVuSans-32"/>
       <use x="63.623047" xlink:href="#DejaVuSans-35"/>
      </g>
     </g>
    </g>
   </g>
   <g id="line2d_15">
    <path clip-path="url(#p4093e330eb)" d="M 73.832727 167.787423 
L 74.27145 168.638649 
L 74.710172 166.592046 
L 75.148894 157.372113 
L 75.587617 170.996335 
L 76.026339 173.800515 
L 76.465061 178.579679 
L 76.903784 164.565269 
L 77.342506 163.046437 
L 77.781229 153.082304 
L 78.219951 167.325587 
L 78.658673 202.500569 
L 79.536118 246.799102 
L 79.97484 254.007675 
L 80.413563 266.164668 
L 80.852285 260.888106 
L 81.291007 251.809488 
L 81.72973 240.164497 
L 82.168452 216.279885 
L 82.607174 211.451041 
L 83.045897 196.134319 
L 83.484619 174.256539 
L 83.923342 171.252201 
L 84.362064 151.710712 
L 84.800786 179.924795 
L 85.239509 167.371427 
L 85.678231 173.704299 
L 86.116953 188.286595 
L 86.555676 183.634352 
L 86.994398 162.87108 
L 87.43312 166.030412 
L 87.871843 146.637619 
L 88.310565 165.993833 
L 88.749287 178.333205 
L 89.18801 203.916899 
L 89.626732 236.070772 
L 90.065455 250.059924 
L 90.942899 266.605755 
L 91.381622 265.894066 
L 91.820344 255.081659 
L 92.697789 222.272531 
L 93.136511 212.38964 
L 93.575233 199.159004 
L 94.013956 174.697382 
L 94.452678 177.894818 
L 94.8914 186.408355 
L 95.330123 172.957379 
L 95.768845 174.62832 
L 96.207568 167.076361 
L 96.64629 173.748486 
L 97.085012 161.189876 
L 97.523735 292.351554 
L 97.962457 292.351554 
L 98.401179 162.401156 
L 98.839902 174.220749 
L 99.278624 192.068514 
L 99.717346 220.68328 
L 100.156069 214.694202 
L 101.033514 257.284694 
L 101.472236 259.390877 
L 102.349681 241.298332 
L 102.788403 226.983887 
L 103.665848 184.567101 
L 104.543292 160.074582 
L 105.859459 147.513481 
L 106.298182 147.463246 
L 106.736904 144.831897 
L 107.175627 149.755371 
L 107.614349 139.02361 
L 108.053071 139.675006 
L 108.491794 133.747296 
L 108.930516 123.036443 
L 109.369238 130.262323 
L 110.685405 216.127275 
L 111.56285 247.415097 
L 112.001572 255.461703 
L 112.440295 258.299327 
L 112.879017 249.663352 
L 113.31774 232.558758 
L 113.756462 221.088934 
L 114.195184 196.243388 
L 115.072629 168.532632 
L 115.511351 163.080116 
L 115.950074 156.014209 
L 116.388796 161.029964 
L 116.827518 151.248156 
L 117.266241 148.354868 
L 117.704963 149.397103 
L 118.143686 121.392595 
L 118.582408 109.566491 
L 119.02113 104.504733 
L 119.459853 129.838915 
L 119.898575 127.526456 
L 120.77602 171.461484 
L 121.653464 234.639364 
L 122.092187 245.906964 
L 122.530909 253.799721 
L 122.969631 255.851621 
L 123.847076 229.513754 
L 124.724521 199.220716 
L 125.163243 181.420249 
L 125.601966 168.720472 
L 126.040688 164.795553 
L 126.47941 163.619794 
L 126.918133 167.402418 
L 127.795577 156.776498 
L 128.2343 156.22677 
L 128.673022 150.713 
L 129.111744 150.216082 
L 129.550467 144.500679 
L 129.989189 140.505537 
L 130.427912 142.671432 
L 130.866634 161.42301 
L 131.305356 191.459624 
L 131.744079 206.950206 
L 132.182801 230.516841 
L 133.060246 250.935666 
L 133.498968 258.876586 
L 133.93769 251.566111 
L 134.376413 233.30584 
L 135.253857 183.602252 
L 136.131302 149.441174 
L 136.570025 141.73087 
L 137.008747 139.65773 
L 137.447469 133.378171 
L 137.886192 137.542805 
L 138.324914 128.807215 
L 138.763636 129.939339 
L 139.202359 136.436976 
L 139.641081 129.057239 
L 140.518526 135.713999 
L 140.957248 134.162468 
L 141.395971 151.125457 
L 141.834693 183.976657 
L 142.712138 227.010499 
L 143.589582 258.26073 
L 144.028305 259.202758 
L 144.467027 257.352187 
L 144.905749 243.616764 
L 145.783194 169.501679 
L 146.221916 166.134885 
L 146.660639 160.869642 
L 147.099361 151.214298 
L 148.415528 132.341364 
L 148.854251 126.67307 
L 149.292973 128.536121 
L 149.731695 127.602637 
L 150.170418 120.040224 
L 150.60914 102.489083 
L 151.047862 56.704446 
L 151.486585 58.017273 
L 152.364029 175.997829 
L 152.802752 214.28547 
L 153.241474 219.075126 
L 154.118919 258.299695 
L 155.435086 227.282444 
L 156.312531 189.27138 
L 157.189975 167.385499 
L 157.628698 165.706864 
L 158.06742 160.37148 
L 158.944865 142.470584 
L 159.383587 152.160111 
L 160.261032 145.53228 
L 160.699754 136.564533 
L 161.138477 119.944292 
L 161.577199 123.424208 
L 162.015921 139.863985 
L 162.454644 149.556916 
L 163.332088 216.351031 
L 163.770811 236.774493 
L 164.209533 250.043333 
L 164.648256 257.323856 
L 165.5257 241.701995 
L 166.403145 214.227367 
L 166.841867 192.53061 
L 167.28059 178.378831 
L 167.719312 175.981544 
L 168.158034 168.990989 
L 168.596757 168.307253 
L 169.474201 149.836796 
L 169.912924 154.41065 
L 170.351646 146.118268 
L 170.790369 148.166304 
L 171.229091 138.832193 
L 172.106536 127.155952 
L 172.545258 137.275603 
L 172.98398 164.493019 
L 173.422703 184.111031 
L 173.861425 219.603783 
L 174.300147 241.013626 
L 174.73887 254.467403 
L 175.177592 258.70139 
L 175.616314 259.336594 
L 176.055037 249.444103 
L 177.371204 195.734415 
L 177.809926 181.809521 
L 178.248649 174.95357 
L 179.126093 164.834563 
L 179.564816 162.484198 
L 180.003538 167.039099 
L 180.44226 156.875812 
L 180.880983 152.252392 
L 181.319705 153.09378 
L 181.758428 140.700956 
L 182.19715 137.422259 
L 182.635872 133.106756 
L 183.074595 143.513463 
L 183.513317 165.076099 
L 184.390762 216.562604 
L 184.829484 239.911318 
L 185.268206 253.45231 
L 185.706929 263.313885 
L 186.145651 255.853737 
L 186.584373 241.564319 
L 187.023096 236.292283 
L 187.900541 197.258481 
L 188.339263 185.283637 
L 188.777985 178.270265 
L 189.216708 169.329845 
L 189.65543 165.741734 
L 190.094152 157.539563 
L 190.532875 154.076303 
L 190.971597 153.771398 
L 191.410319 154.467141 
L 191.849042 144.837326 
L 192.287764 143.187121 
L 192.726486 132.911336 
L 193.603931 141.183155 
L 194.042654 161.791583 
L 195.358821 240.114961 
L 195.797543 255.667059 
L 196.236265 258.225791 
L 196.674988 257.262981 
L 197.11371 246.216377 
L 198.429877 190.630519 
L 198.8686 177.787146 
L 199.307322 175.675443 
L 200.184767 164.341231 
L 200.623489 163.003383 
L 201.062211 153.984022 
L 201.500934 159.339587 
L 201.939656 158.793107 
L 202.378378 154.873875 
L 202.817101 142.404325 
L 203.255823 141.536915 
L 203.694545 132.411932 
L 204.133268 128.124522 
L 204.57199 161.683339 
L 205.010713 183.500387 
L 205.888157 238.634873 
L 206.32688 255.40465 
L 206.765602 261.619006 
L 207.204324 260.06237 
L 207.643047 256.648056 
L 208.520491 211.707802 
L 208.959214 183.340304 
L 209.836658 155.950792 
L 210.275381 150.330128 
L 210.714103 130.456545 
L 211.152826 143.241456 
L 211.591548 135.397869 
L 212.03027 131.115914 
L 212.468993 131.081997 
L 212.907715 138.599558 
L 213.346437 132.90584 
L 213.78516 130.039648 
L 214.223882 124.709165 
L 215.101327 150.653058 
L 215.540049 174.74164 
L 215.978771 210.388573 
L 216.417494 225.589083 
L 216.856216 250.385619 
L 217.733661 262.820432 
L 218.172383 256.117406 
L 218.611106 238.183476 
L 219.927273 164.969702 
L 220.804717 154.95754 
L 221.682162 133.412397 
L 222.120885 136.043498 
L 222.559607 130.430208 
L 222.998329 126.910793 
L 223.437052 127.461317 
L 223.875774 98.879811 
L 224.753219 129.504292 
L 225.191941 129.119336 
L 225.630663 153.910556 
L 226.069386 191.630643 
L 226.508108 212.77798 
L 226.94683 245.834422 
L 227.385553 253.052109 
L 227.824275 255.66777 
L 228.262998 256.546037 
L 229.140442 230.941752 
L 229.579165 211.489212 
L 230.017887 200.081071 
L 230.456609 192.678243 
L 231.334054 167.091231 
L 231.772776 182.083079 
L 232.211499 181.770807 
L 232.650221 173.697515 
L 233.088943 155.968428 
L 233.527666 154.070775 
L 233.966388 151.287108 
L 234.843833 128.589021 
L 235.282555 116.568146 
L 235.721278 138.146081 
L 236.16 171.804091 
L 236.598722 192.805153 
L 237.037445 224.771808 
L 237.476167 246.087508 
L 238.353612 262.491836 
L 239.231057 241.479437 
L 239.669779 233.52896 
L 240.108501 215.391892 
L 240.547224 203.230301 
L 240.985946 186.28622 
L 241.424668 175.763544 
L 241.863391 181.016831 
L 242.302113 171.725311 
L 243.179558 167.154645 
L 243.61828 157.281043 
L 244.057002 137.289082 
L 244.495725 141.18912 
L 245.811892 127.411071 
L 246.689337 164.218375 
L 248.005504 243.084704 
L 248.444226 258.165689 
L 248.882948 263.792891 
L 249.321671 262.006524 
L 249.760393 251.249594 
L 250.637838 212.751804 
L 251.07656 192.280619 
L 251.515283 181.953969 
L 251.954005 178.400545 
L 252.392727 169.902669 
L 252.83145 173.507018 
L 253.270172 166.817691 
L 253.708894 168.999684 
L 254.147617 159.417757 
L 254.586339 154.283867 
L 255.025061 154.051508 
L 255.463784 145.701209 
L 255.902506 134.874083 
L 256.341229 130.520882 
L 256.779951 124.665739 
L 257.657396 193.860031 
L 258.096118 222.331765 
L 258.53484 241.973638 
L 258.973563 255.50743 
L 259.412285 257.804855 
L 259.851007 256.156199 
L 260.28973 248.063836 
L 260.728452 227.251702 
L 261.167174 214.582947 
L 261.605897 193.366488 
L 262.044619 177.63458 
L 262.483342 173.372292 
L 262.922064 162.248002 
L 263.360786 163.012032 
L 263.799509 164.388982 
L 264.238231 162.230264 
L 264.676953 161.317664 
L 265.115676 149.619664 
L 265.554398 150.432438 
L 266.431843 126.212216 
L 266.870565 123.604735 
L 267.309287 145.558601 
L 267.74801 161.49367 
L 268.186732 191.940521 
L 269.064177 236.016635 
L 269.502899 249.360766 
L 269.941622 258.088392 
L 270.380344 259.626012 
L 270.819066 253.147611 
L 271.696511 219.035149 
L 272.135233 191.703028 
L 272.573956 181.363531 
L 273.012678 176.08275 
L 273.4514 168.450878 
L 273.890123 171.92641 
L 274.328845 169.602165 
L 274.767568 166.039361 
L 275.20629 161.53932 
L 275.645012 167.427685 
L 276.083735 154.135507 
L 276.522457 154.30216 
L 276.961179 145.871819 
L 277.399902 143.698869 
L 277.838624 150.11228 
L 278.716069 197.44198 
L 280.032236 256.104323 
L 280.909681 269.110824 
L 281.348403 255.168898 
L 282.225848 211.6336 
L 282.66457 177.639226 
L 283.103292 162.956775 
L 283.542015 156.574563 
L 283.980737 155.987589 
L 284.419459 156.37593 
L 284.858182 145.37532 
L 285.296904 144.764559 
L 285.735627 138.678124 
L 286.174349 136.044297 
L 286.613071 141.069236 
L 287.051794 140.744791 
L 287.490516 140.61332 
L 287.929238 130.18264 
L 288.367961 143.081986 
L 289.245405 184.828388 
L 289.684128 214.815554 
L 290.12285 234.977182 
L 290.561572 249.695282 
L 291.000295 252.439115 
L 291.439017 252.986377 
L 291.87774 249.801571 
L 292.316462 235.782765 
L 293.193907 188.315392 
L 294.510074 147.866302 
L 294.948796 148.864746 
L 295.387518 143.43842 
L 295.826241 133.025812 
L 296.264963 139.634251 
L 296.703686 143.57386 
L 297.142408 141.411216 
L 297.58113 130.43207 
L 298.019853 126.937761 
L 298.458575 122.099727 
L 299.33602 180.787771 
L 300.652187 251.805011 
L 301.090909 253.595525 
L 301.529631 255.966889 
L 301.968354 252.127138 
L 302.407076 245.622584 
L 302.845799 225.242661 
L 303.284521 214.319008 
L 303.723243 191.666209 
L 304.161966 183.054495 
L 304.600688 166.633901 
L 305.478133 115.491738 
L 305.916855 149.733658 
L 306.355577 155.012032 
L 306.7943 154.12479 
L 307.233022 155.667562 
L 307.671744 145.655068 
L 308.110467 143.390272 
L 308.549189 122.082071 
L 308.987912 130.971613 
L 309.426634 150.700468 
L 310.304079 212.402907 
L 310.742801 239.383519 
L 311.181523 255.564778 
L 311.620246 260.098213 
L 312.058968 262.82341 
L 312.936413 241.365236 
L 313.375135 225.033115 
L 313.813857 214.502463 
L 314.691302 181.685813 
L 315.130025 166.302368 
L 315.568747 164.581875 
L 316.446192 158.207561 
L 316.884914 159.247427 
L 317.323636 154.371742 
L 317.762359 161.708051 
L 318.201081 145.27688 
L 318.639803 140.952314 
L 319.078526 124.120054 
L 319.517248 132.019806 
L 319.955971 152.898463 
L 320.833415 210.790002 
L 321.272138 234.270981 
L 321.71086 244.997683 
L 322.149582 261.727648 
L 322.588305 260.110645 
L 323.465749 241.16222 
L 324.343194 199.659909 
L 325.220639 181.684777 
L 325.659361 174.077497 
L 326.098084 168.756503 
L 326.536806 170.538994 
L 326.975528 161.344714 
L 327.414251 166.595288 
L 327.852973 158.551528 
L 328.291695 160.512941 
L 328.730418 138.948435 
L 329.16914 132.957079 
L 329.607862 147.928646 
L 330.046585 142.280179 
L 330.485307 160.556321 
L 331.362752 212.290867 
L 332.240197 250.797598 
L 332.678919 259.366622 
L 333.117641 257.096108 
L 333.995086 236.565059 
L 334.433808 224.137813 
L 335.311253 189.261912 
L 335.749975 178.553641 
L 336.188698 176.365751 
L 336.62742 170.842987 
L 337.504865 163.927484 
L 337.943587 162.361042 
L 338.38231 153.162663 
L 338.821032 148.770088 
L 339.259754 152.843665 
L 339.698477 144.551497 
L 340.137199 131.286174 
L 340.575921 143.224199 
L 341.453366 187.297756 
L 341.892088 216.462821 
L 342.330811 236.777917 
L 343.208256 262.761584 
L 343.646978 261.631743 
L 344.0857 256.461341 
L 344.524423 232.365173 
L 345.401867 205.35188 
L 345.84059 184.003511 
L 346.279312 173.860686 
L 346.718034 170.935151 
L 347.156757 161.817646 
L 347.595479 170.908475 
L 348.034201 166.970233 
L 348.472924 159.01413 
L 348.911646 155.447457 
L 349.350369 150.651174 
L 350.227813 136.97271 
L 350.666536 140.790799 
L 351.105258 140.869234 
L 352.421425 206.482554 
L 352.860147 225.692557 
L 353.29887 250.618734 
L 353.737592 255.492709 
L 354.176314 262.984868 
L 354.615037 264.391566 
L 355.492482 219.55628 
L 356.369926 179.196022 
L 356.808649 161.62646 
L 357.247371 157.560419 
L 357.686093 148.144544 
L 358.124816 145.116286 
L 358.563538 146.697806 
L 359.00226 147.743405 
L 359.440983 138.595148 
L 359.879705 149.191572 
L 360.318428 145.037577 
L 360.75715 142.36891 
L 361.195872 135.098944 
L 361.634595 138.991279 
L 362.073317 158.691865 
L 363.389484 236.219818 
L 363.828206 252.936727 
L 364.266929 255.741986 
L 364.705651 264.177512 
L 365.144373 265.054053 
L 365.583096 256.290073 
L 366.021818 227.230719 
L 366.460541 210.085828 
L 366.899263 178.822412 
L 367.337985 164.909118 
L 367.776708 164.466082 
L 368.21543 149.69516 
L 368.654152 149.508199 
L 369.092875 150.22216 
L 369.531597 129.595929 
L 369.970319 140.113503 
L 370.409042 139.631236 
L 370.847764 147.140606 
L 371.286486 136.771322 
L 371.725209 131.282845 
L 372.163931 140.769592 
L 372.602654 161.517014 
L 373.480098 220.74181 
L 373.918821 232.961557 
L 374.357543 249.851774 
L 374.796265 256.451625 
L 375.234988 259.535342 
L 375.67371 253.988585 
L 376.112432 232.722959 
L 376.551155 220.214818 
L 376.989877 201.578144 
L 377.4286 193.898728 
L 378.306044 172.14323 
L 378.744767 167.322753 
L 379.183489 168.075906 
L 379.622211 167.775509 
L 380.060934 162.123677 
L 380.499656 159.998586 
L 380.938378 153.099208 
L 381.377101 149.801558 
L 381.815823 132.668225 
L 382.254545 122.244714 
L 382.693268 140.987368 
L 383.13199 151.743001 
L 384.448157 237.725494 
L 385.325602 261.138071 
L 385.764324 262.726985 
L 387.080491 219.455378 
L 387.957936 189.988827 
L 388.835381 174.483268 
L 389.274103 167.669887 
L 389.712826 165.606467 
L 390.151548 173.344539 
L 390.59027 159.038972 
L 391.028993 156.719889 
L 391.467715 160.461693 
L 392.34516 138.140037 
L 392.783882 126.454754 
L 393.222604 139.580517 
L 394.100049 190.492353 
L 394.538771 222.397063 
L 394.977494 242.55936 
L 395.416216 255.772716 
L 395.854939 258.541998 
L 396.293661 257.289503 
L 396.732383 249.189412 
L 397.171106 238.795038 
L 397.609828 220.772234 
L 398.04855 196.733214 
L 398.487273 187.464438 
L 398.487273 187.464438 
" style="fill:none;stroke:#1f77b4;stroke-linecap:square;stroke-width:1.5;"/>
   </g>
   <g id="patch_3">
    <path d="M 57.6 307.584 
L 57.6 41.472 
" style="fill:none;stroke:#000000;stroke-linecap:square;stroke-linejoin:miter;stroke-width:0.8;"/>
   </g>
   <g id="patch_4">
    <path d="M 414.72 307.584 
L 414.72 41.472 
" style="fill:none;stroke:#000000;stroke-linecap:square;stroke-linejoin:miter;stroke-width:0.8;"/>
   </g>
   <g id="patch_5">
    <path d="M 57.6 307.584 
L 414.72 307.584 
" style="fill:none;stroke:#000000;stroke-linecap:square;stroke-linejoin:miter;stroke-width:0.8;"/>
   </g>
   <g id="patch_6">
    <path d="M 57.6 41.472 
L 414.72 41.472 
" style="fill:none;stroke:#000000;stroke-linecap:square;stroke-linejoin:miter;stroke-width:0.8;"/>
   </g>
   <g id="text_15">
    <!-- real_54.csv -->
    <defs>
     <path d="M 41.109375 46.296875 
Q 39.59375 47.171875 37.8125 47.578125 
Q 36.03125 48 33.890625 48 
Q 26.265625 48 22.1875 43.046875 
Q 18.109375 38.09375 18.109375 28.8125 
L 18.109375 0 
L 9.078125 0 
L 9.078125 54.6875 
L 18.109375 54.6875 
L 18.109375 46.1875 
Q 20.953125 51.171875 25.484375 53.578125 
Q 30.03125 56 36.53125 56 
Q 37.453125 56 38.578125 55.875 
Q 39.703125 55.765625 41.0625 55.515625 
z
" id="DejaVuSans-72"/>
     <path d="M 56.203125 29.59375 
L 56.203125 25.203125 
L 14.890625 25.203125 
Q 15.484375 15.921875 20.484375 11.0625 
Q 25.484375 6.203125 34.421875 6.203125 
Q 39.59375 6.203125 44.453125 7.46875 
Q 49.3125 8.734375 54.109375 11.28125 
L 54.109375 2.78125 
Q 49.265625 0.734375 44.1875 -0.34375 
Q 39.109375 -1.421875 33.890625 -1.421875 
Q 20.796875 -1.421875 13.15625 6.1875 
Q 5.515625 13.8125 5.515625 26.8125 
Q 5.515625 40.234375 12.765625 48.109375 
Q 20.015625 56 32.328125 56 
Q 43.359375 56 49.78125 48.890625 
Q 56.203125 41.796875 56.203125 29.59375 
z
M 47.21875 32.234375 
Q 47.125 39.59375 43.09375 43.984375 
Q 39.0625 48.390625 32.421875 48.390625 
Q 24.90625 48.390625 20.390625 44.140625 
Q 15.875 39.890625 15.1875 32.171875 
z
" id="DejaVuSans-65"/>
     <path d="M 34.28125 27.484375 
Q 23.390625 27.484375 19.1875 25 
Q 14.984375 22.515625 14.984375 16.5 
Q 14.984375 11.71875 18.140625 8.90625 
Q 21.296875 6.109375 26.703125 6.109375 
Q 34.1875 6.109375 38.703125 11.40625 
Q 43.21875 16.703125 43.21875 25.484375 
L 43.21875 27.484375 
z
M 52.203125 31.203125 
L 52.203125 0 
L 43.21875 0 
L 43.21875 8.296875 
Q 40.140625 3.328125 35.546875 0.953125 
Q 30.953125 -1.421875 24.3125 -1.421875 
Q 15.921875 -1.421875 10.953125 3.296875 
Q 6 8.015625 6 15.921875 
Q 6 25.140625 12.171875 29.828125 
Q 18.359375 34.515625 30.609375 34.515625 
L 43.21875 34.515625 
L 43.21875 35.40625 
Q 43.21875 41.609375 39.140625 45 
Q 35.0625 48.390625 27.6875 48.390625 
Q 23 48.390625 18.546875 47.265625 
Q 14.109375 46.140625 10.015625 43.890625 
L 10.015625 52.203125 
Q 14.9375 54.109375 19.578125 55.046875 
Q 24.21875 56 28.609375 56 
Q 40.484375 56 46.34375 49.84375 
Q 52.203125 43.703125 52.203125 31.203125 
z
" id="DejaVuSans-61"/>
     <path d="M 9.421875 75.984375 
L 18.40625 75.984375 
L 18.40625 0 
L 9.421875 0 
z
" id="DejaVuSans-6c"/>
     <path d="M 50.984375 -16.609375 
L 50.984375 -23.578125 
L -0.984375 -23.578125 
L -0.984375 -16.609375 
z
" id="DejaVuSans-5f"/>
     <path d="M 10.6875 12.40625 
L 21 12.40625 
L 21 0 
L 10.6875 0 
z
" id="DejaVuSans-2e"/>
     <path d="M 48.78125 52.59375 
L 48.78125 44.1875 
Q 44.96875 46.296875 41.140625 47.34375 
Q 37.3125 48.390625 33.40625 48.390625 
Q 24.65625 48.390625 19.8125 42.84375 
Q 14.984375 37.3125 14.984375 27.296875 
Q 14.984375 17.28125 19.8125 11.734375 
Q 24.65625 6.203125 33.40625 6.203125 
Q 37.3125 6.203125 41.140625 7.25 
Q 44.96875 8.296875 48.78125 10.40625 
L 48.78125 2.09375 
Q 45.015625 0.34375 40.984375 -0.53125 
Q 36.96875 -1.421875 32.421875 -1.421875 
Q 20.0625 -1.421875 12.78125 6.34375 
Q 5.515625 14.109375 5.515625 27.296875 
Q 5.515625 40.671875 12.859375 48.328125 
Q 20.21875 56 33.015625 56 
Q 37.15625 56 41.109375 55.140625 
Q 45.0625 54.296875 48.78125 52.59375 
z
" id="DejaVuSans-63"/>
     <path d="M 44.28125 53.078125 
L 44.28125 44.578125 
Q 40.484375 46.53125 36.375 47.5 
Q 32.28125 48.484375 27.875 48.484375 
Q 21.1875 48.484375 17.84375 46.4375 
Q 14.5 44.390625 14.5 40.28125 
Q 14.5 37.15625 16.890625 35.375 
Q 19.28125 33.59375 26.515625 31.984375 
L 29.59375 31.296875 
Q 39.15625 29.25 43.1875 25.515625 
Q 47.21875 21.78125 47.21875 15.09375 
Q 47.21875 7.46875 41.1875 3.015625 
Q 35.15625 -1.421875 24.609375 -1.421875 
Q 20.21875 -1.421875 15.453125 -0.5625 
Q 10.6875 0.296875 5.421875 2 
L 5.421875 11.28125 
Q 10.40625 8.6875 15.234375 7.390625 
Q 20.0625 6.109375 24.8125 6.109375 
Q 31.15625 6.109375 34.5625 8.28125 
Q 37.984375 10.453125 37.984375 14.40625 
Q 37.984375 18.0625 35.515625 20.015625 
Q 33.0625 21.96875 24.703125 23.78125 
L 21.578125 24.515625 
Q 13.234375 26.265625 9.515625 29.90625 
Q 5.8125 33.546875 5.8125 39.890625 
Q 5.8125 47.609375 11.28125 51.796875 
Q 16.75 56 26.8125 56 
Q 31.78125 56 36.171875 55.265625 
Q 40.578125 54.546875 44.28125 53.078125 
z
" id="DejaVuSans-73"/>
     <path d="M 2.984375 54.6875 
L 12.5 54.6875 
L 29.59375 8.796875 
L 46.6875 54.6875 
L 56.203125 54.6875 
L 35.6875 0 
L 23.484375 0 
z
" id="DejaVuSans-76"/>
    </defs>
    <g transform="translate(202.141875 35.472)scale(0.12 -0.12)">
     <use xlink:href="#DejaVuSans-72"/>
     <use x="41.082031" xlink:href="#DejaVuSans-65"/>
     <use x="102.605469" xlink:href="#DejaVuSans-61"/>
     <use x="163.884766" xlink:href="#DejaVuSans-6c"/>
     <use x="191.667969" xlink:href="#DejaVuSans-5f"/>
     <use x="241.667969" xlink:href="#DejaVuSans-35"/>
     <use x="305.291016" xlink:href="#DejaVuSans-34"/>
     <use x="368.914062" xlink:href="#DejaVuSans-2e"/>
     <use x="400.701172" xlink:href="#DejaVuSans-63"/>
     <use x="455.681641" xlink:href="#DejaVuSans-73"/>
     <use x="507.78125" xlink:href="#DejaVuSans-76"/>
    </g>
   </g>
   <g id="PathCollection_1">
    <defs>
     <path d="M -4.472136 4.472136 
L 4.472136 -4.472136 
M -4.472136 -4.472136 
L 4.472136 4.472136 
" id="m35dec2dec2" style="stroke:#ffa500;stroke-width:1.5;"/>
    </defs>
    <g clip-path="url(#p4093e330eb)">
     <use style="fill:#ffa500;stroke:#ffa500;stroke-width:1.5;" x="97.085012" xlink:href="#m35dec2dec2" y="292.351554"/>
     <use style="fill:#ffa500;stroke:#ffa500;stroke-width:1.5;" x="97.523735" xlink:href="#m35dec2dec2" y="292.351554"/>
     <use style="fill:#ffa500;stroke:#ffa500;stroke-width:1.5;" x="150.60914" xlink:href="#m35dec2dec2" y="56.704446"/>
     <use style="fill:#ffa500;stroke:#ffa500;stroke-width:1.5;" x="151.047862" xlink:href="#m35dec2dec2" y="58.017273"/>
    </g>
   </g>
  </g>
 </g>
 <defs>
  <clipPath id="p4093e330eb">
   <rect height="266.112" width="357.12" x="57.6" y="41.472"/>
  </clipPath>
 </defs>
</svg>
