<?xml version="1.0" encoding="utf-8" standalone="no"?>
<!DOCTYPE svg PUBLIC "-//W3C//DTD SVG 1.1//EN"
  "http://www.w3.org/Graphics/SVG/1.1/DTD/svg11.dtd">
<!-- Created with matplotlib (http://matplotlib.org/) -->
<svg height="345.6pt" version="1.1" viewBox="0 0 460.8 345.6" width="460.8pt" xmlns="http://www.w3.org/2000/svg" xmlns:xlink="http://www.w3.org/1999/xlink">
 <defs>
  <style type="text/css">
*{stroke-linecap:butt;stroke-linejoin:round;}
  </style>
 </defs>
 <g id="figure_1">
  <g id="patch_1">
   <path d="M 0 345.6 
L 460.8 345.6 
L 460.8 0 
L 0 0 
z
" style="fill:#ffffff;"/>
  </g>
  <g id="axes_1">
   <g id="patch_2">
    <path d="M 57.6 307.584 
L 414.72 307.584 
L 414.72 41.472 
L 57.6 41.472 
z
" style="fill:#ffffff;"/>
   </g>
   <g id="matplotlib.axis_1">
    <g id="xtick_1">
     <g id="line2d_1">
      <defs>
       <path d="M 0 0 
L 0 3.5 
" id="m02e5b07cb2" style="stroke:#000000;stroke-width:0.8;"/>
      </defs>
      <g>
       <use style="stroke:#000000;stroke-width:0.8;" x="73.605059" xlink:href="#m02e5b07cb2" y="307.584"/>
      </g>
     </g>
     <g id="text_1">
      <!-- 0 -->
      <defs>
       <path d="M 31.78125 66.40625 
Q 24.171875 66.40625 20.328125 58.90625 
Q 16.5 51.421875 16.5 36.375 
Q 16.5 21.390625 20.328125 13.890625 
Q 24.171875 6.390625 31.78125 6.390625 
Q 39.453125 6.390625 43.28125 13.890625 
Q 47.125 21.390625 47.125 36.375 
Q 47.125 51.421875 43.28125 58.90625 
Q 39.453125 66.40625 31.78125 66.40625 
z
M 31.78125 74.21875 
Q 44.046875 74.21875 50.515625 64.515625 
Q 56.984375 54.828125 56.984375 36.375 
Q 56.984375 17.96875 50.515625 8.265625 
Q 44.046875 -1.421875 31.78125 -1.421875 
Q 19.53125 -1.421875 13.0625 8.265625 
Q 6.59375 17.96875 6.59375 36.375 
Q 6.59375 54.828125 13.0625 64.515625 
Q 19.53125 74.21875 31.78125 74.21875 
z
" id="DejaVuSans-30"/>
      </defs>
      <g transform="translate(70.423809 322.182437)scale(0.1 -0.1)">
       <use xlink:href="#DejaVuSans-30"/>
      </g>
     </g>
    </g>
    <g id="xtick_2">
     <g id="line2d_2">
      <g>
       <use style="stroke:#000000;stroke-width:0.8;" x="119.138656" xlink:href="#m02e5b07cb2" y="307.584"/>
      </g>
     </g>
     <g id="text_2">
      <!-- 200 -->
      <defs>
       <path d="M 19.1875 8.296875 
L 53.609375 8.296875 
L 53.609375 0 
L 7.328125 0 
L 7.328125 8.296875 
Q 12.9375 14.109375 22.625 23.890625 
Q 32.328125 33.6875 34.8125 36.53125 
Q 39.546875 41.84375 41.421875 45.53125 
Q 43.3125 49.21875 43.3125 52.78125 
Q 43.3125 58.59375 39.234375 62.25 
Q 35.15625 65.921875 28.609375 65.921875 
Q 23.96875 65.921875 18.8125 64.3125 
Q 13.671875 62.703125 7.8125 59.421875 
L 7.8125 69.390625 
Q 13.765625 71.78125 18.9375 73 
Q 24.125 74.21875 28.421875 74.21875 
Q 39.75 74.21875 46.484375 68.546875 
Q 53.21875 62.890625 53.21875 53.421875 
Q 53.21875 48.921875 51.53125 44.890625 
Q 49.859375 40.875 45.40625 35.40625 
Q 44.1875 33.984375 37.640625 27.21875 
Q 31.109375 20.453125 19.1875 8.296875 
z
" id="DejaVuSans-32"/>
      </defs>
      <g transform="translate(109.594906 322.182437)scale(0.1 -0.1)">
       <use xlink:href="#DejaVuSans-32"/>
       <use x="63.623047" xlink:href="#DejaVuSans-30"/>
       <use x="127.246094" xlink:href="#DejaVuSans-30"/>
      </g>
     </g>
    </g>
    <g id="xtick_3">
     <g id="line2d_3">
      <g>
       <use style="stroke:#000000;stroke-width:0.8;" x="164.672253" xlink:href="#m02e5b07cb2" y="307.584"/>
      </g>
     </g>
     <g id="text_3">
      <!-- 400 -->
      <defs>
       <path d="M 37.796875 64.3125 
L 12.890625 25.390625 
L 37.796875 25.390625 
z
M 35.203125 72.90625 
L 47.609375 72.90625 
L 47.609375 25.390625 
L 58.015625 25.390625 
L 58.015625 17.1875 
L 47.609375 17.1875 
L 47.609375 0 
L 37.796875 0 
L 37.796875 17.1875 
L 4.890625 17.1875 
L 4.890625 26.703125 
z
" id="DejaVuSans-34"/>
      </defs>
      <g transform="translate(155.128503 322.182437)scale(0.1 -0.1)">
       <use xlink:href="#DejaVuSans-34"/>
       <use x="63.623047" xlink:href="#DejaVuSans-30"/>
       <use x="127.246094" xlink:href="#DejaVuSans-30"/>
      </g>
     </g>
    </g>
    <g id="xtick_4">
     <g id="line2d_4">
      <g>
       <use style="stroke:#000000;stroke-width:0.8;" x="210.20585" xlink:href="#m02e5b07cb2" y="307.584"/>
      </g>
     </g>
     <g id="text_4">
      <!-- 600 -->
      <defs>
       <path d="M 33.015625 40.375 
Q 26.375 40.375 22.484375 35.828125 
Q 18.609375 31.296875 18.609375 23.390625 
Q 18.609375 15.53125 22.484375 10.953125 
Q 26.375 6.390625 33.015625 6.390625 
Q 39.65625 6.390625 43.53125 10.953125 
Q 47.40625 15.53125 47.40625 23.390625 
Q 47.40625 31.296875 43.53125 35.828125 
Q 39.65625 40.375 33.015625 40.375 
z
M 52.59375 71.296875 
L 52.59375 62.3125 
Q 48.875 64.0625 45.09375 64.984375 
Q 41.3125 65.921875 37.59375 65.921875 
Q 27.828125 65.921875 22.671875 59.328125 
Q 17.53125 52.734375 16.796875 39.40625 
Q 19.671875 43.65625 24.015625 45.921875 
Q 28.375 48.1875 33.59375 48.1875 
Q 44.578125 48.1875 50.953125 41.515625 
Q 57.328125 34.859375 57.328125 23.390625 
Q 57.328125 12.15625 50.6875 5.359375 
Q 44.046875 -1.421875 33.015625 -1.421875 
Q 20.359375 -1.421875 13.671875 8.265625 
Q 6.984375 17.96875 6.984375 36.375 
Q 6.984375 53.65625 15.1875 63.9375 
Q 23.390625 74.21875 37.203125 74.21875 
Q 40.921875 74.21875 44.703125 73.484375 
Q 48.484375 72.75 52.59375 71.296875 
z
" id="DejaVuSans-36"/>
      </defs>
      <g transform="translate(200.6621 322.182437)scale(0.1 -0.1)">
       <use xlink:href="#DejaVuSans-36"/>
       <use x="63.623047" xlink:href="#DejaVuSans-30"/>
       <use x="127.246094" xlink:href="#DejaVuSans-30"/>
      </g>
     </g>
    </g>
    <g id="xtick_5">
     <g id="line2d_5">
      <g>
       <use style="stroke:#000000;stroke-width:0.8;" x="255.739447" xlink:href="#m02e5b07cb2" y="307.584"/>
      </g>
     </g>
     <g id="text_5">
      <!-- 800 -->
      <defs>
       <path d="M 31.78125 34.625 
Q 24.75 34.625 20.71875 30.859375 
Q 16.703125 27.09375 16.703125 20.515625 
Q 16.703125 13.921875 20.71875 10.15625 
Q 24.75 6.390625 31.78125 6.390625 
Q 38.8125 6.390625 42.859375 10.171875 
Q 46.921875 13.96875 46.921875 20.515625 
Q 46.921875 27.09375 42.890625 30.859375 
Q 38.875 34.625 31.78125 34.625 
z
M 21.921875 38.8125 
Q 15.578125 40.375 12.03125 44.71875 
Q 8.5 49.078125 8.5 55.328125 
Q 8.5 64.0625 14.71875 69.140625 
Q 20.953125 74.21875 31.78125 74.21875 
Q 42.671875 74.21875 48.875 69.140625 
Q 55.078125 64.0625 55.078125 55.328125 
Q 55.078125 49.078125 51.53125 44.71875 
Q 48 40.375 41.703125 38.8125 
Q 48.828125 37.15625 52.796875 32.3125 
Q 56.78125 27.484375 56.78125 20.515625 
Q 56.78125 9.90625 50.3125 4.234375 
Q 43.84375 -1.421875 31.78125 -1.421875 
Q 19.734375 -1.421875 13.25 4.234375 
Q 6.78125 9.90625 6.78125 20.515625 
Q 6.78125 27.484375 10.78125 32.3125 
Q 14.796875 37.15625 21.921875 38.8125 
z
M 18.3125 54.390625 
Q 18.3125 48.734375 21.84375 45.5625 
Q 25.390625 42.390625 31.78125 42.390625 
Q 38.140625 42.390625 41.71875 45.5625 
Q 45.3125 48.734375 45.3125 54.390625 
Q 45.3125 60.0625 41.71875 63.234375 
Q 38.140625 66.40625 31.78125 66.40625 
Q 25.390625 66.40625 21.84375 63.234375 
Q 18.3125 60.0625 18.3125 54.390625 
z
" id="DejaVuSans-38"/>
      </defs>
      <g transform="translate(246.195697 322.182437)scale(0.1 -0.1)">
       <use xlink:href="#DejaVuSans-38"/>
       <use x="63.623047" xlink:href="#DejaVuSans-30"/>
       <use x="127.246094" xlink:href="#DejaVuSans-30"/>
      </g>
     </g>
    </g>
    <g id="xtick_6">
     <g id="line2d_6">
      <g>
       <use style="stroke:#000000;stroke-width:0.8;" x="301.273043" xlink:href="#m02e5b07cb2" y="307.584"/>
      </g>
     </g>
     <g id="text_6">
      <!-- 1000 -->
      <defs>
       <path d="M 12.40625 8.296875 
L 28.515625 8.296875 
L 28.515625 63.921875 
L 10.984375 60.40625 
L 10.984375 69.390625 
L 28.421875 72.90625 
L 38.28125 72.90625 
L 38.28125 8.296875 
L 54.390625 8.296875 
L 54.390625 0 
L 12.40625 0 
z
" id="DejaVuSans-31"/>
      </defs>
      <g transform="translate(288.548043 322.182437)scale(0.1 -0.1)">
       <use xlink:href="#DejaVuSans-31"/>
       <use x="63.623047" xlink:href="#DejaVuSans-30"/>
       <use x="127.246094" xlink:href="#DejaVuSans-30"/>
       <use x="190.869141" xlink:href="#DejaVuSans-30"/>
      </g>
     </g>
    </g>
    <g id="xtick_7">
     <g id="line2d_7">
      <g>
       <use style="stroke:#000000;stroke-width:0.8;" x="346.80664" xlink:href="#m02e5b07cb2" y="307.584"/>
      </g>
     </g>
     <g id="text_7">
      <!-- 1200 -->
      <g transform="translate(334.08164 322.182437)scale(0.1 -0.1)">
       <use xlink:href="#DejaVuSans-31"/>
       <use x="63.623047" xlink:href="#DejaVuSans-32"/>
       <use x="127.246094" xlink:href="#DejaVuSans-30"/>
       <use x="190.869141" xlink:href="#DejaVuSans-30"/>
      </g>
     </g>
    </g>
    <g id="xtick_8">
     <g id="line2d_8">
      <g>
       <use style="stroke:#000000;stroke-width:0.8;" x="392.340237" xlink:href="#m02e5b07cb2" y="307.584"/>
      </g>
     </g>
     <g id="text_8">
      <!-- 1400 -->
      <g transform="translate(379.615237 322.182437)scale(0.1 -0.1)">
       <use xlink:href="#DejaVuSans-31"/>
       <use x="63.623047" xlink:href="#DejaVuSans-34"/>
       <use x="127.246094" xlink:href="#DejaVuSans-30"/>
       <use x="190.869141" xlink:href="#DejaVuSans-30"/>
      </g>
     </g>
    </g>
   </g>
   <g id="matplotlib.axis_2">
    <g id="ytick_1">
     <g id="line2d_9">
      <defs>
       <path d="M 0 0 
L -3.5 0 
" id="mad958705a0" style="stroke:#000000;stroke-width:0.8;"/>
      </defs>
      <g>
       <use style="stroke:#000000;stroke-width:0.8;" x="57.6" xlink:href="#mad958705a0" y="292.503877"/>
      </g>
     </g>
     <g id="text_9">
      <!-- 0 -->
      <g transform="translate(44.2375 296.303096)scale(0.1 -0.1)">
       <use xlink:href="#DejaVuSans-30"/>
      </g>
     </g>
    </g>
    <g id="ytick_2">
     <g id="line2d_10">
      <g>
       <use style="stroke:#000000;stroke-width:0.8;" x="57.6" xlink:href="#mad958705a0" y="238.792498"/>
      </g>
     </g>
     <g id="text_10">
      <!-- 200000 -->
      <g transform="translate(12.425 242.591716)scale(0.1 -0.1)">
       <use xlink:href="#DejaVuSans-32"/>
       <use x="63.623047" xlink:href="#DejaVuSans-30"/>
       <use x="127.246094" xlink:href="#DejaVuSans-30"/>
       <use x="190.869141" xlink:href="#DejaVuSans-30"/>
       <use x="254.492188" xlink:href="#DejaVuSans-30"/>
       <use x="318.115234" xlink:href="#DejaVuSans-30"/>
      </g>
     </g>
    </g>
    <g id="ytick_3">
     <g id="line2d_11">
      <g>
       <use style="stroke:#000000;stroke-width:0.8;" x="57.6" xlink:href="#mad958705a0" y="185.081118"/>
      </g>
     </g>
     <g id="text_11">
      <!-- 400000 -->
      <g transform="translate(12.425 188.880337)scale(0.1 -0.1)">
       <use xlink:href="#DejaVuSans-34"/>
       <use x="63.623047" xlink:href="#DejaVuSans-30"/>
       <use x="127.246094" xlink:href="#DejaVuSans-30"/>
       <use x="190.869141" xlink:href="#DejaVuSans-30"/>
       <use x="254.492188" xlink:href="#DejaVuSans-30"/>
       <use x="318.115234" xlink:href="#DejaVuSans-30"/>
      </g>
     </g>
    </g>
    <g id="ytick_4">
     <g id="line2d_12">
      <g>
       <use style="stroke:#000000;stroke-width:0.8;" x="57.6" xlink:href="#mad958705a0" y="131.369739"/>
      </g>
     </g>
     <g id="text_12">
      <!-- 600000 -->
      <g transform="translate(12.425 135.168958)scale(0.1 -0.1)">
       <use xlink:href="#DejaVuSans-36"/>
       <use x="63.623047" xlink:href="#DejaVuSans-30"/>
       <use x="127.246094" xlink:href="#DejaVuSans-30"/>
       <use x="190.869141" xlink:href="#DejaVuSans-30"/>
       <use x="254.492188" xlink:href="#DejaVuSans-30"/>
       <use x="318.115234" xlink:href="#DejaVuSans-30"/>
      </g>
     </g>
    </g>
    <g id="ytick_5">
     <g id="line2d_13">
      <g>
       <use style="stroke:#000000;stroke-width:0.8;" x="57.6" xlink:href="#mad958705a0" y="77.658359"/>
      </g>
     </g>
     <g id="text_13">
      <!-- 800000 -->
      <g transform="translate(12.425 81.457578)scale(0.1 -0.1)">
       <use xlink:href="#DejaVuSans-38"/>
       <use x="63.623047" xlink:href="#DejaVuSans-30"/>
       <use x="127.246094" xlink:href="#DejaVuSans-30"/>
       <use x="190.869141" xlink:href="#DejaVuSans-30"/>
       <use x="254.492188" xlink:href="#DejaVuSans-30"/>
       <use x="318.115234" xlink:href="#DejaVuSans-30"/>
      </g>
     </g>
    </g>
   </g>
   <g id="line2d_14">
    <path clip-path="url(#p2a2c9b12f0)" d="M 73.832727 292.500117 
L 74.060395 285.344687 
L 74.288063 142.672493 
L 74.515731 142.921714 
L 74.743399 147.979983 
L 74.971067 158.570256 
L 75.654071 214.833194 
L 75.881739 220.622744 
L 76.109407 223.523158 
L 76.337075 224.652171 
L 76.564743 225.087771 
L 76.792411 224.194282 
L 77.020079 219.06028 
L 77.247747 202.918399 
L 77.703083 160.465999 
L 77.930751 153.642505 
L 78.158419 158.100281 
L 78.386087 152.475357 
L 78.613755 151.167216 
L 78.841423 150.586059 
L 79.069091 148.42525 
L 79.296759 142.918491 
L 79.752095 156.948172 
L 80.207431 161.332363 
L 80.435099 168.980327 
L 81.118103 216.601373 
L 81.345771 222.816316 
L 81.801107 227.019769 
L 82.028775 227.510422 
L 82.256443 226.672525 
L 82.484111 223.105015 
L 82.711779 210.084571 
L 83.167115 172.627866 
L 83.394783 159.994144 
L 83.622451 154.143095 
L 83.850119 152.571232 
L 84.077787 151.998131 
L 84.305455 149.785759 
L 84.533123 145.381695 
L 84.760791 138.002288 
L 84.988458 135.998585 
L 85.216126 140.832341 
L 85.443794 138.382834 
L 85.671462 140.08817 
L 85.89913 156.02729 
L 86.354466 207.530326 
L 86.582134 218.018816 
L 86.809802 222.491363 
L 87.03747 224.716088 
L 87.265138 225.218826 
L 87.492806 225.247293 
L 87.720474 222.309281 
L 87.948142 209.834276 
L 88.631146 127.767317 
L 88.858814 136.272782 
L 89.086482 112.090576 
L 89.769486 106.542459 
L 89.997154 106.437991 
L 90.224822 99.551655 
L 90.680158 122.207115 
L 90.907826 117.573702 
L 91.135494 117.770286 
L 91.363162 137.134313 
L 91.818498 199.059773 
L 92.046166 213.393192 
L 92.273834 219.453447 
L 92.501502 221.672533 
L 92.956838 222.428789 
L 93.184506 219.440556 
L 93.412174 205.366563 
L 94.095178 122.971159 
L 94.322846 115.365628 
L 94.550514 112.920149 
L 94.778182 117.403706 
L 95.00585 109.682427 
L 95.233518 109.837921 
L 95.461186 108.245379 
L 95.688854 99.952342 
L 96.14419 121.01687 
L 96.371858 119.927067 
L 96.599526 123.860082 
L 96.827194 137.904265 
L 97.28253 199.481676 
L 97.510198 213.095094 
L 97.737866 218.666038 
L 97.965534 220.918693 
L 98.193202 221.56323 
L 98.42087 221.718724 
L 98.648538 218.346724 
L 98.876206 204.934993 
L 99.559209 123.307929 
L 100.014545 113.173935 
L 100.242213 124.298099 
L 100.469881 113.566296 
L 100.697549 113.868691 
L 101.152885 106.004003 
L 101.380553 114.654758 
L 101.608221 131.504017 
L 101.835889 122.467078 
L 102.063557 124.044312 
L 102.291225 139.220731 
L 102.746561 199.738417 
L 102.974229 213.484501 
L 103.201897 219.154543 
L 103.429565 221.531003 
L 103.657233 222.099538 
L 103.884901 222.063551 
L 104.112569 218.895923 
L 104.340237 205.448742 
L 105.023241 130.42791 
L 105.250909 134.549721 
L 105.478577 122.680043 
L 105.706245 119.732363 
L 106.389249 116.410583 
L 106.616917 111.576827 
L 107.072253 132.297871 
L 107.527589 132.059124 
L 107.755257 145.732162 
L 107.982925 174.719925 
L 108.210593 228.831991 
L 108.438261 218.302412 
L 108.665929 224.454514 
L 108.893597 226.317761 
L 109.121265 225.450054 
L 109.348933 226.1338 
L 109.576601 222.522247 
L 109.804269 209.310053 
L 110.487273 127.94725 
L 110.714941 121.117579 
L 110.942609 118.556084 
L 111.170277 120.950268 
L 111.397945 121.655767 
L 111.625613 122.735635 
L 111.853281 121.494096 
L 112.080949 114.901561 
L 112.536285 140.84738 
L 112.991621 148.90919 
L 113.219289 159.679933 
L 113.902292 215.389644 
L 114.357628 224.054364 
L 114.585296 225.057155 
L 114.812964 225.36707 
L 115.040632 224.215498 
L 115.2683 218.614475 
L 115.951304 161.266298 
L 116.178972 156.50935 
L 116.40664 155.13407 
L 116.861976 154.81207 
L 117.089644 154.965148 
L 117.317312 153.508764 
L 117.54498 146.567374 
L 117.772648 146.602017 
L 118.000316 163.717954 
L 118.227984 158.425503 
L 118.455652 161.429849 
L 118.68332 168.383056 
L 119.366324 213.203322 
L 119.593992 220.043198 
L 119.82166 222.765828 
L 120.049328 223.65314 
L 120.276996 223.892692 
L 120.504664 223.451185 
L 120.732332 219.445122 
L 120.96 205.681044 
L 121.415336 167.988546 
L 121.643004 161.095765 
L 121.870672 158.657268 
L 122.09834 157.755723 
L 122.326008 155.503336 
L 122.553676 155.586857 
L 123.23668 138.994069 
L 123.464348 143.174694 
L 123.919684 138.539134 
L 124.147352 154.240313 
L 124.602688 206.559225 
L 125.058024 221.095672 
L 125.285692 222.993564 
L 125.51336 223.468641 
L 125.741028 223.291125 
L 125.968696 220.916545 
L 126.196364 208.684315 
L 126.879368 126.32624 
L 127.107036 117.072575 
L 127.334704 113.167221 
L 127.562372 112.097827 
L 127.79004 111.673507 
L 128.017708 112.878522 
L 128.245375 113.260947 
L 128.473043 105.201555 
L 128.700711 114.604269 
L 128.928379 128.871354 
L 129.383715 122.268346 
L 129.611383 138.241304 
L 130.066719 201.759844 
L 130.294387 214.887443 
L 130.522055 220.524989 
L 130.749723 222.314652 
L 130.977391 222.473638 
L 131.205059 222.197293 
L 131.432727 218.912573 
L 131.660395 205.160849 
L 132.343399 124.068751 
L 132.571067 116.091268 
L 132.798735 115.10271 
L 133.026403 115.797199 
L 133.254071 115.513871 
L 133.481739 105.069425 
L 133.709407 118.243752 
L 133.937075 106.763213 
L 134.392411 125.206089 
L 134.620079 123.026482 
L 134.847747 122.287145 
L 135.075415 138.619701 
L 135.530751 200.736643 
L 135.758419 214.4599 
L 135.986087 219.4325 
L 136.213755 221.413912 
L 136.441423 221.954249 
L 136.669091 222.00232 
L 136.896759 218.445821 
L 137.124427 204.377737 
L 137.807431 123.165594 
L 138.035099 114.965478 
L 138.262767 112.063721 
L 138.490435 116.099325 
L 138.718103 117.553561 
L 138.945771 108.774704 
L 139.173439 116.618446 
L 139.401107 109.612065 
L 139.628775 115.683868 
L 139.856443 126.476095 
L 140.084111 126.706785 
L 140.311779 126.70222 
L 140.539447 140.731632 
L 140.994783 200.241692 
L 141.222451 214.3984 
L 141.450119 220.652285 
L 141.677787 222.727424 
L 141.905455 222.653302 
L 142.133123 222.910043 
L 142.360791 219.252835 
L 142.588458 204.484891 
L 143.271462 123.837792 
L 143.49913 116.890494 
L 143.726798 114.956347 
L 143.954466 116.024666 
L 144.182134 115.076929 
L 144.409802 139.261283 
L 144.63747 117.368256 
L 144.865138 111.86096 
L 145.320474 127.166018 
L 145.548142 114.348066 
L 146.231146 175.543051 
L 146.458814 202.679652 
L 146.686482 215.94126 
L 146.91415 221.304341 
L 147.141818 223.457899 
L 147.369486 227.347677 
L 147.824822 221.245259 
L 148.05249 207.102784 
L 148.735494 124.277151 
L 148.963162 117.62634 
L 149.418498 112.342483 
L 149.646166 127.390263 
L 149.873834 123.815233 
L 150.101502 112.66126 
L 150.32917 139.894003 
L 150.556838 130.694587 
L 150.784506 131.221764 
L 151.012174 148.731137 
L 151.239842 151.115116 
L 151.46751 159.705446 
L 152.150514 216.278299 
L 152.378182 222.4304 
L 152.60585 225.220438 
L 152.833518 226.197716 
L 153.061186 226.194494 
L 153.516522 223.225329 
L 154.199526 158.324526 
L 154.427194 153.376902 
L 154.654862 151.671835 
L 154.88253 151.426105 
L 155.110198 149.836248 
L 155.337866 149.308265 
L 155.565534 146.968598 
L 155.793202 142.016408 
L 156.02087 144.321701 
L 156.248538 152.089978 
L 156.703874 158.558708 
L 156.931542 167.146083 
L 157.842213 221.302998 
L 158.069881 224.859229 
L 158.297549 226.313733 
L 158.525217 226.689175 
L 158.752885 225.66302 
L 158.980553 221.353756 
L 159.435889 184.20804 
L 159.891225 154.901768 
L 160.118893 148.18704 
L 160.346561 146.830828 
L 160.574229 147.515111 
L 160.801897 146.538101 
L 161.029565 143.428481 
L 161.257233 137.278259 
L 161.484901 135.495578 
L 161.712569 140.317518 
L 161.940237 137.083824 
L 162.167905 138.449704 
L 162.395573 154.086967 
L 162.850909 204.578349 
L 163.078577 216.180007 
L 163.306245 221.558396 
L 163.533913 223.882756 
L 163.761581 224.832105 
L 163.989249 224.689232 
L 164.216917 221.737523 
L 164.444585 209.200213 
L 165.127589 127.370927 
L 165.355257 117.672263 
L 165.582925 112.877448 
L 166.038261 110.823525 
L 166.265929 110.174691 
L 166.493597 107.475426 
L 166.721265 111.006949 
L 166.948933 110.482458 
L 167.176601 119.532288 
L 167.404269 116.880826 
L 167.631937 118.177955 
L 167.859605 135.049505 
L 168.314941 200.936449 
L 168.542609 214.279967 
L 168.770277 219.386039 
L 168.997945 221.50549 
L 169.225613 222.157815 
L 169.453281 222.090944 
L 169.680949 218.639988 
L 169.908617 204.309792 
L 170.591621 123.896606 
L 171.046957 113.817934 
L 171.274625 112.920149 
L 171.502292 114.026603 
L 171.72996 113.480358 
L 171.957628 110.544763 
L 172.185296 132.11767 
L 172.412964 109.309401 
L 172.640632 116.674842 
L 172.8683 115.978206 
L 173.095968 117.348383 
L 173.323636 134.652847 
L 173.778972 197.268767 
L 174.00664 210.289211 
L 174.234308 215.331099 
L 174.461976 217.205089 
L 174.689644 217.617861 
L 174.917312 217.709976 
L 175.14498 213.622003 
L 175.372648 199.034798 
L 176.055652 118.011987 
L 176.28332 110.757728 
L 176.510988 108.608736 
L 176.738656 109.105029 
L 176.966324 108.794577 
L 177.193992 108.817942 
L 177.42166 106.9982 
L 177.649328 100.141943 
L 178.104664 122.317491 
L 178.332332 120.414229 
L 178.56 122.534754 
L 178.787668 136.690657 
L 179.243004 199.341758 
L 179.470672 212.284052 
L 179.69834 217.525208 
L 179.926008 219.242361 
L 180.153676 219.630426 
L 180.381344 219.55523 
L 180.609012 215.792748 
L 180.83668 201.302761 
L 181.519684 120.350581 
L 181.747352 114.225872 
L 181.97502 113.207773 
L 182.202688 116.579236 
L 182.430356 113.58805 
L 182.658024 115.01355 
L 183.11336 105.392767 
L 183.568696 124.919271 
L 183.796364 122.848428 
L 184.024032 123.393599 
L 184.2517 138.593651 
L 184.707036 198.428396 
L 184.934704 211.613465 
L 185.162372 216.346512 
L 185.39004 218.231245 
L 185.617708 218.709813 
L 185.845375 218.848657 
L 186.073043 215.169696 
L 186.300711 199.857656 
L 186.983715 119.088632 
L 187.211383 112.182691 
L 187.439051 110.742421 
L 187.666719 115.169044 
L 187.894387 115.661309 
L 188.122055 112.631181 
L 188.349723 112.891144 
L 188.805059 119.889737 
L 189.032727 132.415231 
L 189.260395 135.07663 
L 189.488063 139.340776 
L 189.715731 151.85311 
L 190.171067 203.303778 
L 190.398735 215.466988 
L 190.854071 223.059898 
L 191.081739 223.461927 
L 191.309407 223.371424 
L 191.537075 221.842261 
L 191.764743 214.937931 
L 192.447747 155.996675 
L 192.675415 161.040173 
L 192.903083 152.038952 
L 193.130751 152.812664 
L 193.358419 153.128219 
L 193.586087 152.600236 
L 193.813755 150.977884 
L 194.041423 143.637686 
L 194.269091 143.259827 
L 194.496759 150.678174 
L 194.952095 156.281077 
L 195.179763 165.204685 
L 195.862767 219.03423 
L 196.090435 224.205293 
L 196.318103 226.080894 
L 196.545771 226.969549 
L 196.773439 226.98056 
L 197.001107 226.221349 
L 197.228775 221.531272 
L 198.139447 160.965783 
L 198.367115 157.461921 
L 198.594783 156.865188 
L 198.822451 155.537443 
L 199.050119 153.031001 
L 199.277787 148.557917 
L 199.505455 140.707462 
L 199.733123 144.947976 
L 199.960791 136.196243 
L 200.188458 144.866871 
L 200.416126 142.178885 
L 200.643794 157.833604 
L 201.09913 206.859203 
L 201.326798 217.158628 
L 201.554466 221.516501 
L 201.782134 223.341077 
L 202.009802 223.57311 
L 202.23747 223.344568 
L 202.465138 219.778938 
L 202.692806 206.645163 
L 203.37581 119.366051 
L 203.831146 108.311444 
L 204.058814 111.393134 
L 204.286482 109.240919 
L 204.51415 108.603096 
L 204.741818 104.810267 
L 204.969486 97.923663 
L 205.424822 116.858804 
L 205.65249 113.554211 
L 205.880158 114.801121 
L 206.107826 134.550258 
L 206.563162 198.094043 
L 206.79083 211.059433 
L 207.018498 216.142678 
L 207.246166 218.298384 
L 207.473834 218.63784 
L 207.701502 217.917839 
L 207.92917 214.834537 
L 208.384506 178.563242 
L 208.839842 117.089763 
L 209.06751 110.585315 
L 209.295178 107.949966 
L 209.522846 112.54954 
L 209.750514 110.485412 
L 209.978182 127.7128 
L 210.20585 205.815322 
L 210.433518 99.215153 
L 210.888854 118.09336 
L 211.116522 116.504846 
L 211.34419 117.381416 
L 211.571858 133.992197 
L 212.027194 196.91105 
L 212.48253 217.161045 
L 212.710198 219.125002 
L 212.937866 219.076125 
L 213.165534 218.34001 
L 213.393202 214.158042 
L 213.62087 199.623743 
L 214.303874 118.610601 
L 214.531542 112.028808 
L 214.759209 111.196013 
L 214.986877 115.485941 
L 215.442213 112.05083 
L 215.897549 100.752104 
L 216.352885 120.318622 
L 216.580553 119.49657 
L 216.808221 120.920996 
L 217.035889 134.297815 
L 217.491225 196.779457 
L 217.718893 209.631247 
L 217.946561 214.897111 
L 218.174229 216.681134 
L 218.401897 216.684357 
L 218.629565 220.515858 
L 218.857233 217.246446 
L 219.084901 202.45299 
L 219.540237 149.191175 
L 219.767905 126.724242 
L 219.995573 115.543412 
L 220.223241 115.664263 
L 220.678577 97.437843 
L 220.906245 53.568 
L 221.133913 61.055366 
L 221.361581 126.212909 
L 221.589249 128.105698 
L 221.816917 136.861727 
L 222.044585 137.863176 
L 222.272253 140.220031 
L 222.499921 155.901874 
L 222.955257 209.698655 
L 223.182925 221.80708 
L 223.410593 226.409071 
L 223.638261 228.108499 
L 223.865929 227.996242 
L 224.093597 230.086957 
L 224.321265 227.16479 
L 224.548933 213.069312 
L 225.004269 156.785158 
L 225.231937 137.514321 
L 225.459605 129.456271 
L 225.687273 128.57997 
L 225.914941 129.122723 
L 226.142609 130.178152 
L 226.370277 130.250931 
L 226.597945 130.200711 
L 226.825613 125.164732 
L 227.280949 146.432289 
L 227.736285 153.827004 
L 227.963953 163.464705 
L 228.419289 206.553854 
L 228.646957 218.624143 
L 228.874625 223.663076 
L 229.102292 225.366533 
L 229.32996 225.634553 
L 229.557628 226.481044 
L 229.785296 227.966969 
L 230.012964 223.084605 
L 230.695968 159.580835 
L 230.923636 159.333226 
L 231.151304 161.698943 
L 231.378972 158.868085 
L 231.60664 157.580892 
L 231.834308 181.418002 
L 232.061976 153.981961 
L 232.289644 147.573388 
L 232.517312 147.664429 
L 232.74498 154.325177 
L 233.200316 159.957352 
L 233.427984 167.537907 
L 234.110988 210.242751 
L 234.338656 219.594171 
L 234.566324 222.770393 
L 235.02166 224.911597 
L 235.249328 223.427552 
L 235.476996 219.428203 
L 236.16 167.959542 
L 236.615336 159.563916 
L 236.843004 159.335911 
L 237.070672 158.6382 
L 237.29834 156.61731 
L 237.526008 153.145138 
L 237.753676 144.009906 
L 237.981344 140.03607 
L 238.209012 141.094184 
L 238.43668 138.810376 
L 238.664348 139.904477 
L 238.892016 156.191379 
L 239.347352 204.659453 
L 239.57502 216.177321 
L 239.802688 220.623818 
L 240.030356 222.557965 
L 240.258024 222.704328 
L 240.485692 222.64632 
L 240.71336 219.687897 
L 240.941028 205.94047 
L 241.624032 125.541786 
L 241.8517 118.248049 
L 242.079368 114.941845 
L 242.307036 113.303648 
L 242.534704 113.5005 
L 242.762372 113.198642 
L 242.99004 110.239414 
L 243.217708 103.640433 
L 243.673043 117.617746 
L 243.900711 116.959513 
L 244.128379 118.123976 
L 244.356047 138.859254 
L 244.811383 206.342499 
L 245.266719 217.80961 
L 245.494387 219.691657 
L 245.722055 219.832112 
L 245.949723 219.593365 
L 246.177391 216.063185 
L 246.405059 201.169825 
L 246.632727 174.477686 
L 246.860395 187.358212 
L 247.315731 162.209739 
L 247.543399 130.732185 
L 247.771067 162.991776 
L 248.226403 125.944621 
L 248.454071 121.051783 
L 248.681739 109.795489 
L 248.909407 117.018327 
L 249.137075 129.186908 
L 249.364743 128.464759 
L 249.592411 129.518845 
L 249.820079 144.607982 
L 250.275415 205.627869 
L 250.503083 218.276362 
L 250.730751 223.467567 
L 250.958419 225.4377 
L 251.186087 226.438343 
L 251.413755 226.509511 
L 251.641423 222.768782 
L 251.869091 207.474198 
L 252.324427 146.0265 
L 252.552095 126.459444 
L 252.779763 120.022941 
L 253.007431 117.721409 
L 253.235099 118.519023 
L 253.690435 117.516231 
L 253.918103 114.644821 
L 254.145771 107.794472 
L 254.601107 126.654685 
L 254.828775 125.748843 
L 255.056443 127.47459 
L 255.284111 141.974514 
L 255.739447 203.207635 
L 255.967115 217.43551 
L 256.194783 222.413213 
L 256.422451 224.652709 
L 256.877787 225.897738 
L 257.105455 222.528423 
L 257.333123 206.168474 
L 257.788458 145.839853 
L 258.016126 126.617893 
L 258.243794 121.577617 
L 258.69913 120.164739 
L 259.154466 119.732363 
L 259.382134 117.809495 
L 259.609802 111.800803 
L 260.065138 131.215587 
L 260.292806 131.067612 
L 260.520474 131.898796 
L 260.748142 146.541592 
L 261.203478 205.133993 
L 261.658814 237.432526 
L 261.886482 225.798372 
L 262.11415 226.312927 
L 262.341818 226.239611 
L 262.569486 222.834041 
L 262.797154 208.662831 
L 263.25249 149.718352 
L 263.480158 131.794596 
L 263.935494 126.957618 
L 264.163162 128.449183 
L 264.39083 128.179014 
L 264.618498 129.158441 
L 264.846166 129.570945 
L 265.073834 123.872167 
L 265.52917 145.889805 
L 265.756838 148.262505 
L 265.984506 152.574186 
L 266.212174 164.211293 
L 266.895178 220.259923 
L 267.122846 229.950262 
L 267.350514 228.21431 
L 267.80585 229.456654 
L 268.033518 228.461651 
L 268.261186 220.692031 
L 268.716522 176.805537 
L 269.171858 162.182346 
L 269.399526 162.191745 
L 269.627194 161.65302 
L 269.854862 160.77833 
L 270.08253 161.575944 
L 270.310198 160.914757 
L 270.537866 154.962999 
L 270.765534 154.699814 
L 271.22087 168.692971 
L 271.448538 170.219717 
L 271.676206 176.89255 
L 271.903874 189.616239 
L 272.131542 219.160451 
L 272.586877 232.571109 
L 272.814545 235.15758 
L 273.042213 235.415126 
L 273.497549 233.262643 
L 273.725217 231.745296 
L 274.408221 174.672927 
L 274.635889 169.289436 
L 274.863557 167.160854 
L 275.318893 166.058159 
L 275.546561 164.839716 
L 275.774229 162.275804 
L 276.001897 153.577514 
L 276.229565 149.433413 
L 276.457233 150.741553 
L 276.684901 145.717928 
L 276.912569 148.085794 
L 277.367905 191.082022 
L 277.823241 224.60222 
L 278.050909 228.785262 
L 278.278577 230.027875 
L 278.506245 230.335372 
L 278.733913 230.980715 
L 278.961581 227.783813 
L 279.189249 213.418973 
L 279.872253 132.665257 
L 280.327589 121.8972 
L 280.555257 120.524337 
L 280.782925 120.807933 
L 281.010593 120.650559 
L 281.238261 120.25766 
L 281.465929 117.667966 
L 281.693597 120.902197 
L 281.921265 130.63443 
L 282.148933 130.742927 
L 282.376601 133.606549 
L 282.604269 145.437286 
L 283.059605 213.22615 
L 283.287273 225.520147 
L 283.514941 230.104414 
L 283.742609 231.676814 
L 283.970277 232.324305 
L 284.197945 231.846274 
L 284.425613 227.114301 
L 284.653281 210.606109 
L 285.108617 148.436261 
L 285.336285 131.571694 
L 285.563953 126.863623 
L 285.791621 125.19857 
L 286.019289 125.2171 
L 286.246957 127.545757 
L 286.474625 127.33494 
L 286.702292 123.598239 
L 286.92996 116.581116 
L 287.612964 138.454538 
L 287.840632 143.592837 
L 288.0683 160.802769 
L 288.523636 209.935522 
L 288.751304 222.088259 
L 288.978972 226.296277 
L 289.20664 228.389409 
L 289.434308 228.689656 
L 289.661976 228.560748 
L 289.889644 225.991733 
L 290.117312 210.895344 
L 290.572648 151.336138 
L 291.027984 130.043605 
L 291.255652 131.857707 
L 291.48332 129.661448 
L 291.710988 130.53587 
L 291.938656 129.930542 
L 292.166324 125.033407 
L 292.393992 116.916544 
L 292.62166 154.113554 
L 292.849328 131.517714 
L 293.076996 136.225248 
L 293.304664 136.755379 
L 293.532332 149.626505 
L 293.987668 208.121957 
L 294.215336 220.798917 
L 294.443004 226.363953 
L 295.126008 228.564777 
L 295.353676 223.775333 
L 295.581344 209.133611 
L 296.03668 151.750522 
L 296.264348 134.628945 
L 296.492016 132.27209 
L 296.719684 128.670473 
L 296.947352 128.657583 
L 297.402688 125.179234 
L 297.630356 130.875594 
L 297.858024 121.425077 
L 298.085692 135.248506 
L 298.31336 136.667561 
L 298.541028 138.99756 
L 298.768696 138.74834 
L 298.996364 148.646541 
L 299.4517 204.615141 
L 299.907036 227.863575 
L 300.134704 224.224629 
L 300.59004 229.272156 
L 300.817708 225.826302 
L 301.045375 213.159816 
L 301.500711 154.090189 
L 301.728379 132.762206 
L 301.956047 131.566322 
L 302.183715 136.960288 
L 302.639051 131.918401 
L 302.866719 129.263447 
L 303.094387 129.70388 
L 303.322055 124.489043 
L 303.549723 133.601715 
L 303.777391 170.234219 
L 304.005059 147.961452 
L 304.232727 151.151103 
L 304.460395 163.054887 
L 305.143399 223.661734 
L 305.371067 225.05635 
L 305.826403 292.307831 
L 306.054071 229.330164 
L 306.281739 227.534324 
L 306.509407 218.877661 
L 306.964743 172.588389 
L 307.192411 160.528841 
L 307.420079 156.456444 
L 307.647747 155.293056 
L 307.875415 157.659311 
L 308.103083 155.944306 
L 308.330751 157.091581 
L 308.558419 157.27608 
L 308.786087 150.592504 
L 309.013755 151.150566 
L 309.241423 158.725213 
L 309.469091 161.387417 
L 309.924427 173.208755 
L 310.835099 230.198946 
L 311.062767 232.300403 
L 311.290435 231.710384 
L 311.518103 232.497793 
L 311.745771 232.168542 
L 311.973439 225.338066 
L 312.656443 171.842069 
L 312.884111 183.67576 
L 313.111779 164.489787 
L 313.339447 164.165101 
L 313.567115 162.194162 
L 313.794783 161.850947 
L 314.022451 158.235902 
L 314.250119 152.182898 
L 314.477787 150.019673 
L 314.705455 150.737525 
L 314.933123 145.299785 
L 315.160791 146.470156 
L 315.388458 162.833328 
L 315.843794 211.498255 
L 316.071462 222.598785 
L 316.29913 226.542812 
L 316.526798 228.003761 
L 316.754466 227.985768 
L 316.982134 228.298368 
L 317.209802 224.865406 
L 317.43747 210.52957 
L 318.120474 130.001441 
L 318.348142 124.14153 
L 318.803478 118.046631 
L 319.031146 120.254169 
L 319.258814 114.045939 
L 319.486482 114.015861 
L 319.71415 105.324285 
L 320.169486 125.307604 
L 320.397154 124.549468 
L 320.624822 128.106235 
L 320.85249 143.735173 
L 321.307826 205.081625 
L 321.763162 225.396074 
L 322.218498 227.866529 
L 322.446166 226.46493 
L 322.673834 222.402739 
L 322.901502 206.866454 
L 323.356838 146.742204 
L 323.584506 128.529481 
L 323.812174 123.675852 
L 324.495178 117.948339 
L 324.722846 117.444527 
L 324.950514 120.539108 
L 325.178182 114.015055 
L 325.633518 128.842618 
L 326.088854 135.687328 
L 326.316522 150.718726 
L 326.771858 206.788304 
L 326.999526 220.704385 
L 327.454862 225.079983 
L 327.68253 224.526487 
L 327.910198 224.33232 
L 328.137866 221.495285 
L 328.365534 205.753554 
L 328.82087 145.909946 
L 329.048538 129.616599 
L 329.276206 125.504993 
L 329.503874 123.758299 
L 329.731542 123.977979 
L 329.959209 122.627943 
L 330.186877 124.515898 
L 330.642213 116.989323 
L 330.869881 128.596083 
L 331.097549 127.773762 
L 331.552885 133.193509 
L 331.780553 148.387384 
L 332.235889 210.601275 
L 332.463557 222.035622 
L 332.691225 225.851278 
L 332.918893 227.298262 
L 333.374229 228.567462 
L 333.601897 224.395431 
L 333.829565 208.434289 
L 334.284901 147.70874 
L 334.512569 132.706615 
L 334.740237 127.170852 
L 334.967905 124.38538 
L 335.195573 123.854443 
L 335.423241 124.064723 
L 335.650909 121.893709 
L 335.878577 121.005322 
L 336.106245 114.121404 
L 336.561581 130.402128 
L 336.789249 129.688841 
L 337.016917 132.723534 
L 337.244585 147.277438 
L 337.699921 204.677446 
L 337.927589 217.5193 
L 338.155257 222.292362 
L 338.382925 224.451022 
L 338.610593 224.401339 
L 338.838261 223.279309 
L 339.065929 219.34683 
L 339.293597 204.009277 
L 339.748933 146.757512 
L 339.976601 128.72875 
L 340.204269 126.274946 
L 340.431937 125.332311 
L 340.659605 125.513856 
L 340.887273 126.621384 
L 341.342609 123.821142 
L 341.570277 119.199277 
L 341.797945 131.607143 
L 342.025613 151.020853 
L 342.253281 153.330173 
L 343.391621 222.91058 
L 343.619289 230.516648 
L 343.846957 233.01745 
L 344.074625 233.565843 
L 344.302292 233.210811 
L 344.52996 231.597321 
L 344.757628 224.103241 
L 345.212964 189.265503 
L 345.895968 164.231435 
L 346.123636 172.412752 
L 346.351304 167.237124 
L 346.578972 170.136195 
L 347.034308 162.347508 
L 347.261976 162.106613 
L 347.489644 169.222028 
L 347.717312 168.966899 
L 348.627984 212.787596 
L 348.855652 216.80467 
L 349.08332 223.731827 
L 349.310988 224.44404 
L 349.538656 226.674136 
L 349.766324 224.274312 
L 349.993992 223.208947 
L 350.22166 216.016187 
L 350.676996 174.503468 
L 350.904664 165.416039 
L 351.132332 163.297126 
L 351.36 162.62815 
L 351.587668 162.905301 
L 351.815336 164.274673 
L 352.043004 160.160381 
L 352.270672 158.129017 
L 352.726008 143.462856 
L 352.953676 144.957106 
L 353.181344 140.286633 
L 353.409012 139.644514 
L 353.63668 154.930773 
L 354.092016 205.577112 
L 354.319684 216.723835 
L 354.547352 221.193964 
L 354.77502 222.565484 
L 355.002688 222.968857 
L 355.230356 222.731452 
L 355.458024 219.369389 
L 355.685692 203.714401 
L 356.368696 123.407564 
L 356.596364 116.041317 
L 357.0517 110.361876 
L 357.279368 110.051692 
L 357.507036 109.523172 
L 357.734704 108.090421 
L 357.962372 101.779334 
L 358.417708 118.62564 
L 358.645375 117.812718 
L 359.100711 146.310365 
L 359.556047 206.054069 
L 359.783715 218.46462 
L 360.011383 223.061509 
L 360.239051 224.681176 
L 360.466719 224.971754 
L 360.694387 224.623973 
L 360.922055 220.237633 
L 361.149723 201.925007 
L 361.605059 139.921396 
L 361.832727 123.104632 
L 362.060395 118.247512 
L 362.288063 116.657655 
L 362.515731 113.554211 
L 362.743399 113.140097 
L 362.971067 111.856932 
L 363.198735 109.801666 
L 363.426403 102.561372 
L 363.881739 118.287258 
L 364.109407 116.578162 
L 364.337075 119.493079 
L 364.564743 136.936923 
L 365.020079 199.098177 
L 365.247747 212.254779 
L 365.475415 217.047983 
L 365.703083 218.916333 
L 365.930751 219.16824 
L 366.158419 218.736132 
L 366.386087 213.97972 
L 366.613755 196.13304 
L 367.069091 136.932089 
L 367.296759 141.841846 
L 367.524427 129.193891 
L 367.752095 130.022926 
L 368.207431 120.709104 
L 368.662767 115.078272 
L 368.890435 107.679261 
L 369.345771 122.248204 
L 369.573439 121.536797 
L 369.801107 123.302827 
L 370.028775 138.934449 
L 370.484111 198.768389 
L 370.711779 211.67953 
L 370.939447 216.645147 
L 371.167115 291.799452 
L 371.394783 219.308963 
L 371.622451 226.238268 
L 371.850119 241.967109 
L 372.077787 227.228438 
L 372.533123 147.831471 
L 372.760791 145.277226 
L 372.988458 140.562173 
L 373.216126 145.117166 
L 373.443794 144.286788 
L 373.671462 146.578922 
L 373.89913 145.80682 
L 374.126798 145.691878 
L 374.354466 141.527903 
L 374.809802 157.642392 
L 375.03747 156.495922 
L 375.265138 161.168275 
L 375.492806 181.60814 
L 375.720474 188.950755 
L 376.17581 223.30509 
L 376.403478 229.286389 
L 376.631146 230.59453 
L 376.858814 229.48163 
L 377.086482 230.67456 
L 377.31415 226.369056 
L 377.541818 206.872631 
L 377.997154 143.971234 
L 378.224822 130.471953 
L 378.45249 139.745491 
L 378.907826 145.724105 
L 379.135494 152.396938 
L 379.59083 144.504051 
L 379.818498 145.994005 
L 380.273834 163.796641 
L 380.72917 168.138132 
L 380.956838 173.738618 
L 381.639842 220.576283 
L 381.86751 225.646638 
L 382.095178 227.97234 
L 382.550514 228.783382 
L 382.778182 227.92776 
L 383.00585 216.401298 
L 383.461186 169.047197 
L 383.688854 155.620158 
L 383.916522 152.181287 
L 384.14419 150.823195 
L 384.371858 158.222474 
L 385.054862 150.80547 
L 385.28253 151.267925 
L 385.510198 153.332322 
L 385.965534 164.215859 
L 386.193202 166.159674 
L 386.42087 171.590968 
L 387.103874 219.379057 
L 387.559209 227.118061 
L 388.014545 228.185037 
L 388.242213 226.694547 
L 388.469881 218.725658 
L 389.152885 164.783588 
L 389.380553 157.044315 
L 389.608221 154.912511 
L 389.835889 156.325657 
L 390.291225 153.988406 
L 390.746561 146.343129 
L 390.974229 149.443887 
L 391.201897 156.603076 
L 391.429565 157.630038 
L 391.657233 162.181272 
L 391.884901 172.623301 
L 392.567905 222.899569 
L 392.795573 227.07348 
L 393.023241 228.738533 
L 393.250909 228.754109 
L 393.478577 228.652058 
L 393.706245 224.775708 
L 393.933913 207.167506 
L 394.389249 145.402374 
L 394.616917 128.335852 
L 395.072253 143.047398 
L 395.299921 146.677482 
L 395.527589 146.791619 
L 395.755257 146.169372 
L 395.982925 144.867408 
L 396.210593 142.187211 
L 396.893597 158.440005 
L 397.121265 158.370449 
L 397.348933 170.324185 
L 398.031937 221.484811 
L 398.259605 226.128966 
L 398.487273 227.977443 
L 398.487273 227.977443 
" style="fill:none;stroke:#1f77b4;stroke-linecap:square;stroke-width:1.5;"/>
   </g>
   <g id="patch_3">
    <path d="M 57.6 307.584 
L 57.6 41.472 
" style="fill:none;stroke:#000000;stroke-linecap:square;stroke-linejoin:miter;stroke-width:0.8;"/>
   </g>
   <g id="patch_4">
    <path d="M 414.72 307.584 
L 414.72 41.472 
" style="fill:none;stroke:#000000;stroke-linecap:square;stroke-linejoin:miter;stroke-width:0.8;"/>
   </g>
   <g id="patch_5">
    <path d="M 57.6 307.584 
L 414.72 307.584 
" style="fill:none;stroke:#000000;stroke-linecap:square;stroke-linejoin:miter;stroke-width:0.8;"/>
   </g>
   <g id="patch_6">
    <path d="M 57.6 41.472 
L 414.72 41.472 
" style="fill:none;stroke:#000000;stroke-linecap:square;stroke-linejoin:miter;stroke-width:0.8;"/>
   </g>
   <g id="text_14">
    <!-- real_38.csv -->
    <defs>
     <path d="M 41.109375 46.296875 
Q 39.59375 47.171875 37.8125 47.578125 
Q 36.03125 48 33.890625 48 
Q 26.265625 48 22.1875 43.046875 
Q 18.109375 38.09375 18.109375 28.8125 
L 18.109375 0 
L 9.078125 0 
L 9.078125 54.6875 
L 18.109375 54.6875 
L 18.109375 46.1875 
Q 20.953125 51.171875 25.484375 53.578125 
Q 30.03125 56 36.53125 56 
Q 37.453125 56 38.578125 55.875 
Q 39.703125 55.765625 41.0625 55.515625 
z
" id="DejaVuSans-72"/>
     <path d="M 56.203125 29.59375 
L 56.203125 25.203125 
L 14.890625 25.203125 
Q 15.484375 15.921875 20.484375 11.0625 
Q 25.484375 6.203125 34.421875 6.203125 
Q 39.59375 6.203125 44.453125 7.46875 
Q 49.3125 8.734375 54.109375 11.28125 
L 54.109375 2.78125 
Q 49.265625 0.734375 44.1875 -0.34375 
Q 39.109375 -1.421875 33.890625 -1.421875 
Q 20.796875 -1.421875 13.15625 6.1875 
Q 5.515625 13.8125 5.515625 26.8125 
Q 5.515625 40.234375 12.765625 48.109375 
Q 20.015625 56 32.328125 56 
Q 43.359375 56 49.78125 48.890625 
Q 56.203125 41.796875 56.203125 29.59375 
z
M 47.21875 32.234375 
Q 47.125 39.59375 43.09375 43.984375 
Q 39.0625 48.390625 32.421875 48.390625 
Q 24.90625 48.390625 20.390625 44.140625 
Q 15.875 39.890625 15.1875 32.171875 
z
" id="DejaVuSans-65"/>
     <path d="M 34.28125 27.484375 
Q 23.390625 27.484375 19.1875 25 
Q 14.984375 22.515625 14.984375 16.5 
Q 14.984375 11.71875 18.140625 8.90625 
Q 21.296875 6.109375 26.703125 6.109375 
Q 34.1875 6.109375 38.703125 11.40625 
Q 43.21875 16.703125 43.21875 25.484375 
L 43.21875 27.484375 
z
M 52.203125 31.203125 
L 52.203125 0 
L 43.21875 0 
L 43.21875 8.296875 
Q 40.140625 3.328125 35.546875 0.953125 
Q 30.953125 -1.421875 24.3125 -1.421875 
Q 15.921875 -1.421875 10.953125 3.296875 
Q 6 8.015625 6 15.921875 
Q 6 25.140625 12.171875 29.828125 
Q 18.359375 34.515625 30.609375 34.515625 
L 43.21875 34.515625 
L 43.21875 35.40625 
Q 43.21875 41.609375 39.140625 45 
Q 35.0625 48.390625 27.6875 48.390625 
Q 23 48.390625 18.546875 47.265625 
Q 14.109375 46.140625 10.015625 43.890625 
L 10.015625 52.203125 
Q 14.9375 54.109375 19.578125 55.046875 
Q 24.21875 56 28.609375 56 
Q 40.484375 56 46.34375 49.84375 
Q 52.203125 43.703125 52.203125 31.203125 
z
" id="DejaVuSans-61"/>
     <path d="M 9.421875 75.984375 
L 18.40625 75.984375 
L 18.40625 0 
L 9.421875 0 
z
" id="DejaVuSans-6c"/>
     <path d="M 50.984375 -16.609375 
L 50.984375 -23.578125 
L -0.984375 -23.578125 
L -0.984375 -16.609375 
z
" id="DejaVuSans-5f"/>
     <path d="M 40.578125 39.3125 
Q 47.65625 37.796875 51.625 33 
Q 55.609375 28.21875 55.609375 21.1875 
Q 55.609375 10.40625 48.1875 4.484375 
Q 40.765625 -1.421875 27.09375 -1.421875 
Q 22.515625 -1.421875 17.65625 -0.515625 
Q 12.796875 0.390625 7.625 2.203125 
L 7.625 11.71875 
Q 11.71875 9.328125 16.59375 8.109375 
Q 21.484375 6.890625 26.8125 6.890625 
Q 36.078125 6.890625 40.9375 10.546875 
Q 45.796875 14.203125 45.796875 21.1875 
Q 45.796875 27.640625 41.28125 31.265625 
Q 36.765625 34.90625 28.71875 34.90625 
L 20.21875 34.90625 
L 20.21875 43.015625 
L 29.109375 43.015625 
Q 36.375 43.015625 40.234375 45.921875 
Q 44.09375 48.828125 44.09375 54.296875 
Q 44.09375 59.90625 40.109375 62.90625 
Q 36.140625 65.921875 28.71875 65.921875 
Q 24.65625 65.921875 20.015625 65.03125 
Q 15.375 64.15625 9.8125 62.3125 
L 9.8125 71.09375 
Q 15.4375 72.65625 20.34375 73.4375 
Q 25.25 74.21875 29.59375 74.21875 
Q 40.828125 74.21875 47.359375 69.109375 
Q 53.90625 64.015625 53.90625 55.328125 
Q 53.90625 49.265625 50.4375 45.09375 
Q 46.96875 40.921875 40.578125 39.3125 
z
" id="DejaVuSans-33"/>
     <path d="M 10.6875 12.40625 
L 21 12.40625 
L 21 0 
L 10.6875 0 
z
" id="DejaVuSans-2e"/>
     <path d="M 48.78125 52.59375 
L 48.78125 44.1875 
Q 44.96875 46.296875 41.140625 47.34375 
Q 37.3125 48.390625 33.40625 48.390625 
Q 24.65625 48.390625 19.8125 42.84375 
Q 14.984375 37.3125 14.984375 27.296875 
Q 14.984375 17.28125 19.8125 11.734375 
Q 24.65625 6.203125 33.40625 6.203125 
Q 37.3125 6.203125 41.140625 7.25 
Q 44.96875 8.296875 48.78125 10.40625 
L 48.78125 2.09375 
Q 45.015625 0.34375 40.984375 -0.53125 
Q 36.96875 -1.421875 32.421875 -1.421875 
Q 20.0625 -1.421875 12.78125 6.34375 
Q 5.515625 14.109375 5.515625 27.296875 
Q 5.515625 40.671875 12.859375 48.328125 
Q 20.21875 56 33.015625 56 
Q 37.15625 56 41.109375 55.140625 
Q 45.0625 54.296875 48.78125 52.59375 
z
" id="DejaVuSans-63"/>
     <path d="M 44.28125 53.078125 
L 44.28125 44.578125 
Q 40.484375 46.53125 36.375 47.5 
Q 32.28125 48.484375 27.875 48.484375 
Q 21.1875 48.484375 17.84375 46.4375 
Q 14.5 44.390625 14.5 40.28125 
Q 14.5 37.15625 16.890625 35.375 
Q 19.28125 33.59375 26.515625 31.984375 
L 29.59375 31.296875 
Q 39.15625 29.25 43.1875 25.515625 
Q 47.21875 21.78125 47.21875 15.09375 
Q 47.21875 7.46875 41.1875 3.015625 
Q 35.15625 -1.421875 24.609375 -1.421875 
Q 20.21875 -1.421875 15.453125 -0.5625 
Q 10.6875 0.296875 5.421875 2 
L 5.421875 11.28125 
Q 10.40625 8.6875 15.234375 7.390625 
Q 20.0625 6.109375 24.8125 6.109375 
Q 31.15625 6.109375 34.5625 8.28125 
Q 37.984375 10.453125 37.984375 14.40625 
Q 37.984375 18.0625 35.515625 20.015625 
Q 33.0625 21.96875 24.703125 23.78125 
L 21.578125 24.515625 
Q 13.234375 26.265625 9.515625 29.90625 
Q 5.8125 33.546875 5.8125 39.890625 
Q 5.8125 47.609375 11.28125 51.796875 
Q 16.75 56 26.8125 56 
Q 31.78125 56 36.171875 55.265625 
Q 40.578125 54.546875 44.28125 53.078125 
z
" id="DejaVuSans-73"/>
     <path d="M 2.984375 54.6875 
L 12.5 54.6875 
L 29.59375 8.796875 
L 46.6875 54.6875 
L 56.203125 54.6875 
L 35.6875 0 
L 23.484375 0 
z
" id="DejaVuSans-76"/>
    </defs>
    <g transform="translate(202.141875 35.472)scale(0.12 -0.12)">
     <use xlink:href="#DejaVuSans-72"/>
     <use x="41.082031" xlink:href="#DejaVuSans-65"/>
     <use x="102.605469" xlink:href="#DejaVuSans-61"/>
     <use x="163.884766" xlink:href="#DejaVuSans-6c"/>
     <use x="191.667969" xlink:href="#DejaVuSans-5f"/>
     <use x="241.667969" xlink:href="#DejaVuSans-33"/>
     <use x="305.291016" xlink:href="#DejaVuSans-38"/>
     <use x="368.914062" xlink:href="#DejaVuSans-2e"/>
     <use x="400.701172" xlink:href="#DejaVuSans-63"/>
     <use x="455.681641" xlink:href="#DejaVuSans-73"/>
     <use x="507.78125" xlink:href="#DejaVuSans-76"/>
    </g>
   </g>
   <g id="PathCollection_1">
    <defs>
     <path d="M -4.472136 4.472136 
L 4.472136 -4.472136 
M -4.472136 -4.472136 
L 4.472136 4.472136 
" id="m45842be1a0" style="stroke:#ffa500;stroke-width:1.5;"/>
    </defs>
    <g clip-path="url(#p2a2c9b12f0)">
     <use style="fill:#ffa500;stroke:#ffa500;stroke-width:1.5;" x="209.978182" xlink:href="#m45842be1a0" y="205.815322"/>
     <use style="fill:#ffa500;stroke:#ffa500;stroke-width:1.5;" x="305.371067" xlink:href="#m45842be1a0" y="269.134593"/>
     <use style="fill:#ffa500;stroke:#ffa500;stroke-width:1.5;" x="305.598735" xlink:href="#m45842be1a0" y="292.307831"/>
     <use style="fill:#ffa500;stroke:#ffa500;stroke-width:1.5;" x="370.711779" xlink:href="#m45842be1a0" y="216.645147"/>
     <use style="fill:#ffa500;stroke:#ffa500;stroke-width:1.5;" x="370.939447" xlink:href="#m45842be1a0" y="291.799452"/>
     <use style="fill:#ffa500;stroke:#ffa500;stroke-width:1.5;" x="371.167115" xlink:href="#m45842be1a0" y="219.308963"/>
     <use style="fill:#ffa500;stroke:#ffa500;stroke-width:1.5;" x="371.394783" xlink:href="#m45842be1a0" y="226.238268"/>
     <use style="fill:#ffa500;stroke:#ffa500;stroke-width:1.5;" x="371.622451" xlink:href="#m45842be1a0" y="241.967109"/>
     <use style="fill:#ffa500;stroke:#ffa500;stroke-width:1.5;" x="371.850119" xlink:href="#m45842be1a0" y="227.228438"/>
    </g>
   </g>
  </g>
 </g>
 <defs>
  <clipPath id="p2a2c9b12f0">
   <rect height="266.112" width="357.12" x="57.6" y="41.472"/>
  </clipPath>
 </defs>
</svg>
