<?xml version="1.0" encoding="utf-8" standalone="no"?>
<!DOCTYPE svg PUBLIC "-//W3C//DTD SVG 1.1//EN"
  "http://www.w3.org/Graphics/SVG/1.1/DTD/svg11.dtd">
<!-- Created with matplotlib (http://matplotlib.org/) -->
<svg height="345.6pt" version="1.1" viewBox="0 0 460.8 345.6" width="460.8pt" xmlns="http://www.w3.org/2000/svg" xmlns:xlink="http://www.w3.org/1999/xlink">
 <defs>
  <style type="text/css">
*{stroke-linecap:butt;stroke-linejoin:round;}
  </style>
 </defs>
 <g id="figure_1">
  <g id="patch_1">
   <path d="M 0 345.6 
L 460.8 345.6 
L 460.8 0 
L 0 0 
z
" style="fill:#ffffff;"/>
  </g>
  <g id="axes_1">
   <g id="patch_2">
    <path d="M 57.6 307.584 
L 414.72 307.584 
L 414.72 41.472 
L 57.6 41.472 
z
" style="fill:#ffffff;"/>
   </g>
   <g id="matplotlib.axis_1">
    <g id="xtick_1">
     <g id="line2d_1">
      <defs>
       <path d="M 0 0 
L 0 3.5 
" id="mf1c857b565" style="stroke:#000000;stroke-width:0.8;"/>
      </defs>
      <g>
       <use style="stroke:#000000;stroke-width:0.8;" x="73.604918" xlink:href="#mf1c857b565" y="307.584"/>
      </g>
     </g>
     <g id="text_1">
      <!-- 0 -->
      <defs>
       <path d="M 31.78125 66.40625 
Q 24.171875 66.40625 20.328125 58.90625 
Q 16.5 51.421875 16.5 36.375 
Q 16.5 21.390625 20.328125 13.890625 
Q 24.171875 6.390625 31.78125 6.390625 
Q 39.453125 6.390625 43.28125 13.890625 
Q 47.125 21.390625 47.125 36.375 
Q 47.125 51.421875 43.28125 58.90625 
Q 39.453125 66.40625 31.78125 66.40625 
z
M 31.78125 74.21875 
Q 44.046875 74.21875 50.515625 64.515625 
Q 56.984375 54.828125 56.984375 36.375 
Q 56.984375 17.96875 50.515625 8.265625 
Q 44.046875 -1.421875 31.78125 -1.421875 
Q 19.53125 -1.421875 13.0625 8.265625 
Q 6.59375 17.96875 6.59375 36.375 
Q 6.59375 54.828125 13.0625 64.515625 
Q 19.53125 74.21875 31.78125 74.21875 
z
" id="DejaVuSans-30"/>
      </defs>
      <g transform="translate(70.423668 322.182437)scale(0.1 -0.1)">
       <use xlink:href="#DejaVuSans-30"/>
      </g>
     </g>
    </g>
    <g id="xtick_2">
     <g id="line2d_2">
      <g>
       <use style="stroke:#000000;stroke-width:0.8;" x="119.166843" xlink:href="#mf1c857b565" y="307.584"/>
      </g>
     </g>
     <g id="text_2">
      <!-- 200 -->
      <defs>
       <path d="M 19.1875 8.296875 
L 53.609375 8.296875 
L 53.609375 0 
L 7.328125 0 
L 7.328125 8.296875 
Q 12.9375 14.109375 22.625 23.890625 
Q 32.328125 33.6875 34.8125 36.53125 
Q 39.546875 41.84375 41.421875 45.53125 
Q 43.3125 49.21875 43.3125 52.78125 
Q 43.3125 58.59375 39.234375 62.25 
Q 35.15625 65.921875 28.609375 65.921875 
Q 23.96875 65.921875 18.8125 64.3125 
Q 13.671875 62.703125 7.8125 59.421875 
L 7.8125 69.390625 
Q 13.765625 71.78125 18.9375 73 
Q 24.125 74.21875 28.421875 74.21875 
Q 39.75 74.21875 46.484375 68.546875 
Q 53.21875 62.890625 53.21875 53.421875 
Q 53.21875 48.921875 51.53125 44.890625 
Q 49.859375 40.875 45.40625 35.40625 
Q 44.1875 33.984375 37.640625 27.21875 
Q 31.109375 20.453125 19.1875 8.296875 
z
" id="DejaVuSans-32"/>
      </defs>
      <g transform="translate(109.623093 322.182437)scale(0.1 -0.1)">
       <use xlink:href="#DejaVuSans-32"/>
       <use x="63.623047" xlink:href="#DejaVuSans-30"/>
       <use x="127.246094" xlink:href="#DejaVuSans-30"/>
      </g>
     </g>
    </g>
    <g id="xtick_3">
     <g id="line2d_3">
      <g>
       <use style="stroke:#000000;stroke-width:0.8;" x="164.728768" xlink:href="#mf1c857b565" y="307.584"/>
      </g>
     </g>
     <g id="text_3">
      <!-- 400 -->
      <defs>
       <path d="M 37.796875 64.3125 
L 12.890625 25.390625 
L 37.796875 25.390625 
z
M 35.203125 72.90625 
L 47.609375 72.90625 
L 47.609375 25.390625 
L 58.015625 25.390625 
L 58.015625 17.1875 
L 47.609375 17.1875 
L 47.609375 0 
L 37.796875 0 
L 37.796875 17.1875 
L 4.890625 17.1875 
L 4.890625 26.703125 
z
" id="DejaVuSans-34"/>
      </defs>
      <g transform="translate(155.185018 322.182437)scale(0.1 -0.1)">
       <use xlink:href="#DejaVuSans-34"/>
       <use x="63.623047" xlink:href="#DejaVuSans-30"/>
       <use x="127.246094" xlink:href="#DejaVuSans-30"/>
      </g>
     </g>
    </g>
    <g id="xtick_4">
     <g id="line2d_4">
      <g>
       <use style="stroke:#000000;stroke-width:0.8;" x="210.290693" xlink:href="#mf1c857b565" y="307.584"/>
      </g>
     </g>
     <g id="text_4">
      <!-- 600 -->
      <defs>
       <path d="M 33.015625 40.375 
Q 26.375 40.375 22.484375 35.828125 
Q 18.609375 31.296875 18.609375 23.390625 
Q 18.609375 15.53125 22.484375 10.953125 
Q 26.375 6.390625 33.015625 6.390625 
Q 39.65625 6.390625 43.53125 10.953125 
Q 47.40625 15.53125 47.40625 23.390625 
Q 47.40625 31.296875 43.53125 35.828125 
Q 39.65625 40.375 33.015625 40.375 
z
M 52.59375 71.296875 
L 52.59375 62.3125 
Q 48.875 64.0625 45.09375 64.984375 
Q 41.3125 65.921875 37.59375 65.921875 
Q 27.828125 65.921875 22.671875 59.328125 
Q 17.53125 52.734375 16.796875 39.40625 
Q 19.671875 43.65625 24.015625 45.921875 
Q 28.375 48.1875 33.59375 48.1875 
Q 44.578125 48.1875 50.953125 41.515625 
Q 57.328125 34.859375 57.328125 23.390625 
Q 57.328125 12.15625 50.6875 5.359375 
Q 44.046875 -1.421875 33.015625 -1.421875 
Q 20.359375 -1.421875 13.671875 8.265625 
Q 6.984375 17.96875 6.984375 36.375 
Q 6.984375 53.65625 15.1875 63.9375 
Q 23.390625 74.21875 37.203125 74.21875 
Q 40.921875 74.21875 44.703125 73.484375 
Q 48.484375 72.75 52.59375 71.296875 
z
" id="DejaVuSans-36"/>
      </defs>
      <g transform="translate(200.746943 322.182437)scale(0.1 -0.1)">
       <use xlink:href="#DejaVuSans-36"/>
       <use x="63.623047" xlink:href="#DejaVuSans-30"/>
       <use x="127.246094" xlink:href="#DejaVuSans-30"/>
      </g>
     </g>
    </g>
    <g id="xtick_5">
     <g id="line2d_5">
      <g>
       <use style="stroke:#000000;stroke-width:0.8;" x="255.852619" xlink:href="#mf1c857b565" y="307.584"/>
      </g>
     </g>
     <g id="text_5">
      <!-- 800 -->
      <defs>
       <path d="M 31.78125 34.625 
Q 24.75 34.625 20.71875 30.859375 
Q 16.703125 27.09375 16.703125 20.515625 
Q 16.703125 13.921875 20.71875 10.15625 
Q 24.75 6.390625 31.78125 6.390625 
Q 38.8125 6.390625 42.859375 10.171875 
Q 46.921875 13.96875 46.921875 20.515625 
Q 46.921875 27.09375 42.890625 30.859375 
Q 38.875 34.625 31.78125 34.625 
z
M 21.921875 38.8125 
Q 15.578125 40.375 12.03125 44.71875 
Q 8.5 49.078125 8.5 55.328125 
Q 8.5 64.0625 14.71875 69.140625 
Q 20.953125 74.21875 31.78125 74.21875 
Q 42.671875 74.21875 48.875 69.140625 
Q 55.078125 64.0625 55.078125 55.328125 
Q 55.078125 49.078125 51.53125 44.71875 
Q 48 40.375 41.703125 38.8125 
Q 48.828125 37.15625 52.796875 32.3125 
Q 56.78125 27.484375 56.78125 20.515625 
Q 56.78125 9.90625 50.3125 4.234375 
Q 43.84375 -1.421875 31.78125 -1.421875 
Q 19.734375 -1.421875 13.25 4.234375 
Q 6.78125 9.90625 6.78125 20.515625 
Q 6.78125 27.484375 10.78125 32.3125 
Q 14.796875 37.15625 21.921875 38.8125 
z
M 18.3125 54.390625 
Q 18.3125 48.734375 21.84375 45.5625 
Q 25.390625 42.390625 31.78125 42.390625 
Q 38.140625 42.390625 41.71875 45.5625 
Q 45.3125 48.734375 45.3125 54.390625 
Q 45.3125 60.0625 41.71875 63.234375 
Q 38.140625 66.40625 31.78125 66.40625 
Q 25.390625 66.40625 21.84375 63.234375 
Q 18.3125 60.0625 18.3125 54.390625 
z
" id="DejaVuSans-38"/>
      </defs>
      <g transform="translate(246.308869 322.182437)scale(0.1 -0.1)">
       <use xlink:href="#DejaVuSans-38"/>
       <use x="63.623047" xlink:href="#DejaVuSans-30"/>
       <use x="127.246094" xlink:href="#DejaVuSans-30"/>
      </g>
     </g>
    </g>
    <g id="xtick_6">
     <g id="line2d_6">
      <g>
       <use style="stroke:#000000;stroke-width:0.8;" x="301.414544" xlink:href="#mf1c857b565" y="307.584"/>
      </g>
     </g>
     <g id="text_6">
      <!-- 1000 -->
      <defs>
       <path d="M 12.40625 8.296875 
L 28.515625 8.296875 
L 28.515625 63.921875 
L 10.984375 60.40625 
L 10.984375 69.390625 
L 28.421875 72.90625 
L 38.28125 72.90625 
L 38.28125 8.296875 
L 54.390625 8.296875 
L 54.390625 0 
L 12.40625 0 
z
" id="DejaVuSans-31"/>
      </defs>
      <g transform="translate(288.689544 322.182437)scale(0.1 -0.1)">
       <use xlink:href="#DejaVuSans-31"/>
       <use x="63.623047" xlink:href="#DejaVuSans-30"/>
       <use x="127.246094" xlink:href="#DejaVuSans-30"/>
       <use x="190.869141" xlink:href="#DejaVuSans-30"/>
      </g>
     </g>
    </g>
    <g id="xtick_7">
     <g id="line2d_7">
      <g>
       <use style="stroke:#000000;stroke-width:0.8;" x="346.976469" xlink:href="#mf1c857b565" y="307.584"/>
      </g>
     </g>
     <g id="text_7">
      <!-- 1200 -->
      <g transform="translate(334.251469 322.182437)scale(0.1 -0.1)">
       <use xlink:href="#DejaVuSans-31"/>
       <use x="63.623047" xlink:href="#DejaVuSans-32"/>
       <use x="127.246094" xlink:href="#DejaVuSans-30"/>
       <use x="190.869141" xlink:href="#DejaVuSans-30"/>
      </g>
     </g>
    </g>
    <g id="xtick_8">
     <g id="line2d_8">
      <g>
       <use style="stroke:#000000;stroke-width:0.8;" x="392.538394" xlink:href="#mf1c857b565" y="307.584"/>
      </g>
     </g>
     <g id="text_8">
      <!-- 1400 -->
      <g transform="translate(379.813394 322.182437)scale(0.1 -0.1)">
       <use xlink:href="#DejaVuSans-31"/>
       <use x="63.623047" xlink:href="#DejaVuSans-34"/>
       <use x="127.246094" xlink:href="#DejaVuSans-30"/>
       <use x="190.869141" xlink:href="#DejaVuSans-30"/>
      </g>
     </g>
    </g>
   </g>
   <g id="matplotlib.axis_2">
    <g id="ytick_1">
     <g id="line2d_9">
      <defs>
       <path d="M 0 0 
L -3.5 0 
" id="mc2065f086d" style="stroke:#000000;stroke-width:0.8;"/>
      </defs>
      <g>
       <use style="stroke:#000000;stroke-width:0.8;" x="57.6" xlink:href="#mc2065f086d" y="295.508482"/>
      </g>
     </g>
     <g id="text_9">
      <!-- 0 -->
      <g transform="translate(44.2375 299.307701)scale(0.1 -0.1)">
       <use xlink:href="#DejaVuSans-30"/>
      </g>
     </g>
    </g>
    <g id="ytick_2">
     <g id="line2d_10">
      <g>
       <use style="stroke:#000000;stroke-width:0.8;" x="57.6" xlink:href="#mc2065f086d" y="244.302589"/>
      </g>
     </g>
     <g id="text_10">
      <!-- 5000 -->
      <defs>
       <path d="M 10.796875 72.90625 
L 49.515625 72.90625 
L 49.515625 64.59375 
L 19.828125 64.59375 
L 19.828125 46.734375 
Q 21.96875 47.46875 24.109375 47.828125 
Q 26.265625 48.1875 28.421875 48.1875 
Q 40.625 48.1875 47.75 41.5 
Q 54.890625 34.8125 54.890625 23.390625 
Q 54.890625 11.625 47.5625 5.09375 
Q 40.234375 -1.421875 26.90625 -1.421875 
Q 22.3125 -1.421875 17.546875 -0.640625 
Q 12.796875 0.140625 7.71875 1.703125 
L 7.71875 11.625 
Q 12.109375 9.234375 16.796875 8.0625 
Q 21.484375 6.890625 26.703125 6.890625 
Q 35.15625 6.890625 40.078125 11.328125 
Q 45.015625 15.765625 45.015625 23.390625 
Q 45.015625 31 40.078125 35.4375 
Q 35.15625 39.890625 26.703125 39.890625 
Q 22.75 39.890625 18.8125 39.015625 
Q 14.890625 38.140625 10.796875 36.28125 
z
" id="DejaVuSans-35"/>
      </defs>
      <g transform="translate(25.15 248.101808)scale(0.1 -0.1)">
       <use xlink:href="#DejaVuSans-35"/>
       <use x="63.623047" xlink:href="#DejaVuSans-30"/>
       <use x="127.246094" xlink:href="#DejaVuSans-30"/>
       <use x="190.869141" xlink:href="#DejaVuSans-30"/>
      </g>
     </g>
    </g>
    <g id="ytick_3">
     <g id="line2d_11">
      <g>
       <use style="stroke:#000000;stroke-width:0.8;" x="57.6" xlink:href="#mc2065f086d" y="193.096696"/>
      </g>
     </g>
     <g id="text_11">
      <!-- 10000 -->
      <g transform="translate(18.7875 196.895915)scale(0.1 -0.1)">
       <use xlink:href="#DejaVuSans-31"/>
       <use x="63.623047" xlink:href="#DejaVuSans-30"/>
       <use x="127.246094" xlink:href="#DejaVuSans-30"/>
       <use x="190.869141" xlink:href="#DejaVuSans-30"/>
       <use x="254.492188" xlink:href="#DejaVuSans-30"/>
      </g>
     </g>
    </g>
    <g id="ytick_4">
     <g id="line2d_12">
      <g>
       <use style="stroke:#000000;stroke-width:0.8;" x="57.6" xlink:href="#mc2065f086d" y="141.890803"/>
      </g>
     </g>
     <g id="text_12">
      <!-- 15000 -->
      <g transform="translate(18.7875 145.690022)scale(0.1 -0.1)">
       <use xlink:href="#DejaVuSans-31"/>
       <use x="63.623047" xlink:href="#DejaVuSans-35"/>
       <use x="127.246094" xlink:href="#DejaVuSans-30"/>
       <use x="190.869141" xlink:href="#DejaVuSans-30"/>
       <use x="254.492188" xlink:href="#DejaVuSans-30"/>
      </g>
     </g>
    </g>
    <g id="ytick_5">
     <g id="line2d_13">
      <g>
       <use style="stroke:#000000;stroke-width:0.8;" x="57.6" xlink:href="#mc2065f086d" y="90.68491"/>
      </g>
     </g>
     <g id="text_13">
      <!-- 20000 -->
      <g transform="translate(18.7875 94.484128)scale(0.1 -0.1)">
       <use xlink:href="#DejaVuSans-32"/>
       <use x="63.623047" xlink:href="#DejaVuSans-30"/>
       <use x="127.246094" xlink:href="#DejaVuSans-30"/>
       <use x="190.869141" xlink:href="#DejaVuSans-30"/>
       <use x="254.492188" xlink:href="#DejaVuSans-30"/>
      </g>
     </g>
    </g>
   </g>
   <g id="line2d_14">
    <path clip-path="url(#p630c02709c)" d="M 73.832727 295.488 
L 74.060537 291.063811 
L 74.516156 293.450005 
L 74.743966 293.245182 
L 75.199585 288.462551 
L 75.655204 282.829903 
L 75.883014 281.979885 
L 76.110824 279.532244 
L 76.338633 279.75755 
L 76.566443 283.638956 
L 76.794252 285.482368 
L 77.022062 279.870203 
L 77.249872 283.546786 
L 77.477681 283.096174 
L 77.705491 282.061815 
L 77.933301 282.358809 
L 78.38892 285.93298 
L 78.616729 283.229309 
L 79.755778 293.327111 
L 79.983587 293.849411 
L 80.211397 293.480729 
L 80.439206 291.913829 
L 81.122635 284.867898 
L 81.350445 282.768456 
L 81.578255 281.734097 
L 81.806064 282.71725 
L 82.033874 282.584115 
L 82.261683 282.901591 
L 82.717303 284.284151 
L 82.945112 284.939586 
L 83.172922 284.755245 
L 83.400732 282.79918 
L 83.628541 283.813056 
L 83.856351 283.505821 
L 84.31197 286.813722 
L 84.995399 292.702399 
L 85.223209 293.542176 
L 85.451018 293.9211 
L 85.678828 293.214458 
L 86.134447 288.052904 
L 86.362257 281.570238 
L 86.590066 278.467161 
L 86.817876 279.50152 
L 87.045686 278.600296 
L 87.273495 280.679256 
L 87.501305 277.955102 
L 88.412543 284.448009 
L 88.640353 279.870203 
L 88.868163 282.225674 
L 89.323782 283.679921 
L 89.551591 283.485339 
L 90.23502 291.309599 
L 90.46283 292.917464 
L 90.918449 294.084959 
L 91.146259 293.14277 
L 91.601878 288.257728 
L 91.829688 283.864262 
L 92.057497 282.563633 
L 92.285307 282.27688 
L 92.513117 280.812391 
L 92.968736 284.151015 
L 93.196546 282.164227 
L 93.424355 282.758215 
L 93.652165 285.820327 
L 93.879974 285.369716 
L 94.107784 283.229309 
L 94.335594 283.66968 
L 94.563403 284.396804 
L 94.791213 283.393168 
L 95.246832 286.045633 
L 95.702451 291.084293 
L 95.930261 292.835535 
L 96.158071 293.613864 
L 96.38588 293.972306 
L 96.61369 293.265664 
L 97.069309 287.366745 
L 97.297119 281.580479 
L 97.524928 280.576844 
L 97.752738 280.505156 
L 97.980548 283.393168 
L 98.208357 280.884079 
L 98.436167 281.570238 
L 98.663977 282.829903 
L 98.891786 283.23955 
L 99.119596 282.153985 
L 99.347405 283.106415 
L 99.575215 282.727491 
L 99.803025 282.901591 
L 100.030834 283.23955 
L 100.258644 281.682891 
L 100.486454 282.952797 
L 100.942073 288.636651 
L 101.625502 293.5729 
L 101.853311 293.941582 
L 102.081121 292.856017 
L 102.53674 287.889045 
L 102.76455 283.833539 
L 102.992359 281.795544 
L 103.220169 281.652168 
L 103.447979 282.051574 
L 103.675788 282.051574 
L 103.903598 284.36608 
L 104.131408 283.690162 
L 104.359217 284.427527 
L 104.587027 284.458251 
L 105.042646 283.505821 
L 105.498265 284.437768 
L 105.726075 284.816692 
L 105.953885 283.516062 
L 106.181694 285.021515 
L 106.865123 291.616834 
L 107.320742 293.685553 
L 107.548552 293.777723 
L 107.776362 292.538541 
L 108.6876 282.635321 
L 108.91541 281.396138 
L 109.371029 283.700403 
L 109.826648 285.66671 
L 110.054458 287.643257 
L 110.282267 286.270939 
L 110.510077 283.987156 
L 110.965696 287.428192 
L 111.193506 287.868563 
L 111.421316 287.192645 
L 111.649125 287.079992 
L 111.876935 288.585446 
L 112.104744 290.97164 
L 112.560364 293.030117 
L 112.788173 293.880135 
L 113.015983 293.470488 
L 113.243793 292.364441 
L 114.382841 281.908197 
L 114.83846 283.577509 
L 115.06627 282.563633 
L 115.294079 285.113686 
L 115.521889 285.164892 
L 116.205318 283.577509 
L 116.660937 286.936616 
L 116.888747 285.543816 
L 117.116556 286.701069 
L 117.344366 289.701734 
L 118.027795 293.378317 
L 118.255604 293.931341 
L 118.483414 293.890376 
L 118.711224 292.79457 
L 120.078081 279.890685 
L 120.533701 284.222704 
L 120.76151 281.764821 
L 120.98932 281.263003 
L 121.21713 281.84675 
L 121.444939 283.32148 
L 121.672749 282.747974 
L 121.900558 282.532909 
L 122.128368 281.129868 
L 122.356178 282.737733 
L 123.267416 292.528299 
L 123.495226 293.9211 
L 123.723035 293.685553 
L 123.950845 292.559023 
L 124.178655 290.572234 
L 124.862084 278.405714 
L 125.089893 278.149685 
L 125.773322 281.662409 
L 126.228941 283.167862 
L 126.456751 281.037697 
L 126.684561 281.918438 
L 126.91237 285.185374 
L 127.14018 283.219068 
L 127.367989 283.516062 
L 127.595799 282.686527 
L 127.823609 283.208827 
L 128.734847 292.712641 
L 128.962657 293.624105 
L 129.190466 293.695794 
L 129.418276 293.214458 
L 130.101705 285.543816 
L 130.329515 280.228644 
L 130.557324 280.781667 
L 130.785134 280.228644 
L 131.012943 281.109385 
L 131.240753 280.97625 
L 131.468563 283.403409 
L 131.696372 279.655138 
L 131.924182 278.968979 
L 132.151992 281.928679 
L 132.379801 280.064785 
L 132.607611 281.918438 
L 132.83542 282.645562 
L 133.06323 281.84675 
L 133.29104 283.096174 
L 134.202278 292.733123 
L 134.430088 293.501211 
L 134.657897 293.501211 
L 134.885707 293.163252 
L 135.341326 287.899287 
L 135.569136 283.966674 
L 135.796946 282.215432 
L 136.024755 283.915468 
L 136.252565 281.467826 
L 136.480374 281.396138 
L 136.708184 281.006973 
L 136.935994 281.49855 
L 137.163803 280.126232 
L 137.619423 282.184709 
L 137.847232 279.84972 
L 138.075042 279.941891 
L 138.302851 282.850386 
L 138.530661 280.863597 
L 138.758471 280.904562 
L 139.4419 290.654164 
L 139.669709 292.507817 
L 139.897519 293.378317 
L 140.125328 293.511453 
L 140.353138 292.661435 
L 140.580948 290.285481 
L 141.036567 281.242521 
L 141.264377 280.884079 
L 141.492186 279.173802 
L 141.719996 279.368385 
L 142.175615 281.539515 
L 142.403425 282.051574 
L 142.631234 284.151015 
L 142.859044 280.064785 
L 143.314663 281.334691 
L 143.542473 281.088903 
L 143.998092 279.716585 
L 144.225902 281.099144 
L 145.13714 292.456611 
L 145.36495 293.49097 
L 145.59276 293.511453 
L 145.820569 292.538541 
L 146.731808 281.938921 
L 146.959617 282.737733 
L 147.187427 282.051574 
L 147.415237 283.475097 
L 147.643046 283.690162 
L 147.870856 283.638956 
L 148.098665 283.813056 
L 148.326475 282.461221 
L 148.554285 282.79918 
L 148.782094 280.505156 
L 149.237714 284.570904 
L 149.465523 282.54315 
L 149.693333 282.932315 
L 150.832381 293.347594 
L 151.060191 293.695794 
L 151.288 293.521694 
L 151.743619 289.49691 
L 152.199239 285.041998 
L 152.427048 283.352203 
L 152.654858 283.649197 
L 152.882668 282.266638 
L 153.110477 284.581145 
L 153.566096 282.952797 
L 153.793906 283.557027 
L 154.021716 284.560662 
L 154.249525 283.331721 
L 154.477335 284.990792 
L 154.705145 284.857657 
L 154.932954 284.294392 
L 155.160764 285.082963 
L 155.616383 288.933646 
L 155.844193 289.865593 
L 156.072002 292.548782 
L 156.299812 292.989152 
L 156.527622 293.849411 
L 156.755431 294.01327 
L 156.983241 292.743364 
L 157.43886 287.766151 
L 157.894479 282.573874 
L 158.350099 276.091208 
L 158.577908 277.985826 
L 158.805718 281.805785 
L 159.033527 282.963039 
L 159.716956 279.40935 
L 159.944766 281.088903 
L 160.172576 280.730462 
L 160.400385 282.727491 
L 160.628195 283.597992 
L 160.856004 285.892016 
L 161.311624 291.657799 
L 161.539433 293.265664 
L 161.995053 294.0952 
L 162.450672 290.858987 
L 162.678481 288.063145 
L 162.906291 283.362444 
L 163.134101 282.10278 
L 163.36191 282.153985 
L 163.58972 281.170832 
L 163.81753 281.488309 
L 164.045339 282.399774 
L 164.273149 283.894986 
L 164.500959 283.464856 
L 164.728768 284.314874 
L 164.956578 285.595021 
L 165.184387 285.574539 
L 165.412197 285.267304 
L 165.640007 285.75888 
L 166.095626 287.438434 
L 166.323436 292.876499 
L 166.551245 295.324141 
L 166.779055 292.159617 
L 167.006864 293.654829 
L 167.462484 294.463882 
L 167.690293 294.259059 
L 167.918103 293.019876 
L 168.829341 285.205857 
L 169.057151 285.472127 
L 169.284961 286.28118 
L 169.51277 286.158286 
L 169.74058 286.199251 
L 169.96839 286.465522 
L 170.196199 285.912498 
L 170.879628 287.633016 
L 171.107438 286.762516 
L 171.335247 287.714945 
L 171.563057 286.864928 
L 172.474295 293.910858 
L 172.702105 294.18737 
L 172.929915 294.248817 
L 173.157724 293.767482 
L 173.385534 292.753605 
L 173.613344 290.807781 
L 173.841153 287.643257 
L 174.524582 285.287786 
L 174.752392 285.359474 
L 175.208011 286.035392 
L 175.435821 284.847415 
L 175.66363 285.676951 
L 175.89144 285.298027 
L 176.119249 286.270939 
L 176.347059 285.93298 
L 176.574869 286.721551 
L 176.802678 285.861292 
L 177.258298 287.704704 
L 177.941726 293.347594 
L 178.169536 294.371712 
L 178.397346 294.156647 
L 178.852965 292.292752 
L 179.080775 290.27524 
L 179.536394 284.693798 
L 179.764203 283.618474 
L 179.992013 284.335356 
L 180.219823 284.560662 
L 180.447632 285.748639 
L 180.675442 285.717916 
L 180.903252 284.775727 
L 181.131061 285.14441 
L 181.358871 285.06248 
L 181.58668 286.649863 
L 182.270109 284.437768 
L 182.497919 287.039028 
L 182.725729 288.052904 
L 183.636967 294.064476 
L 183.864777 294.054235 
L 184.092586 293.644588 
L 184.548206 290.131864 
L 185.003825 283.362444 
L 185.231634 283.106415 
L 185.459444 283.638956 
L 185.687254 282.819662 
L 185.915063 284.345598 
L 186.370683 283.649197 
L 186.598492 282.573874 
L 186.826302 282.27688 
L 187.054111 281.785303 
L 187.281921 284.806451 
L 187.509731 284.652833 
L 187.73754 283.905227 
L 188.420969 288.216763 
L 188.876589 292.569264 
L 189.332208 293.982547 
L 189.560017 293.511453 
L 190.015637 290.131864 
L 190.243446 288.45231 
L 190.471256 284.939586 
L 190.926875 283.49558 
L 191.154685 283.58775 
L 191.382494 284.837174 
L 191.610304 285.021515 
L 191.838114 286.137804 
L 192.293733 286.332386 
L 192.521543 285.390198 
L 192.749352 286.823963 
L 192.977162 286.916133 
L 193.204971 285.892016 
L 193.432781 285.595021 
L 194.571829 293.654829 
L 194.799639 294.074717 
L 195.027448 293.880135 
L 195.710877 289.75294 
L 196.166497 284.202221 
L 196.622116 281.529274 
L 196.849925 283.004003 
L 197.077735 283.423892 
L 197.305545 283.188344 
L 197.761164 285.031757 
L 197.988974 284.007639 
L 198.216783 283.516062 
L 198.444593 283.516062 
L 198.672402 283.198586 
L 198.900212 284.376321 
L 199.811451 292.958429 
L 200.03926 293.880135 
L 200.26707 293.777723 
L 200.494879 292.927705 
L 200.722689 291.186705 
L 200.950499 288.042663 
L 201.406118 280.433467 
L 201.633928 281.314209 
L 201.861737 279.091873 
L 202.089547 281.170832 
L 202.317356 282.205191 
L 202.545166 281.365415 
L 202.772976 283.14738 
L 203.000785 282.266638 
L 203.456405 279.941891 
L 203.684214 280.412985 
L 203.912024 281.918438 
L 204.139833 280.771426 
L 204.367643 282.266638 
L 204.823262 288.247487 
L 205.278882 292.763846 
L 205.506691 293.66507 
L 205.734501 293.716276 
L 205.96231 293.388558 
L 206.41793 288.513757 
L 206.873549 282.379291 
L 207.101359 281.744338 
L 207.329168 280.351538 
L 207.556978 281.201556 
L 207.784787 281.181073 
L 208.012597 281.969644 
L 208.240407 281.32445 
L 208.468216 280.136473 
L 208.696026 280.955768 
L 208.923836 278.723191 
L 209.151645 281.559997 
L 209.379455 282.522668 
L 209.607264 280.259367 
L 209.835074 281.047938 
L 210.290693 287.991457 
L 210.974122 293.624105 
L 211.201932 293.787964 
L 211.429742 293.183735 
L 211.885361 287.970975 
L 212.34098 280.535879 
L 212.56879 280.535879 
L 212.796599 279.58345 
L 213.024409 279.132838 
L 213.252219 279.870203 
L 213.480028 280.085267 
L 213.707838 280.996732 
L 213.935647 279.163561 
L 214.391267 279.102114 
L 214.846886 280.075026 
L 215.074696 278.671985 
L 215.302505 280.382262 
L 216.213744 292.456611 
L 216.441553 293.450005 
L 216.669363 293.521694 
L 216.897173 292.466852 
L 217.352792 287.786634 
L 217.808411 279.93165 
L 218.26403 277.596661 
L 218.71965 277.606902 
L 218.947459 278.569573 
L 219.175269 278.63102 
L 219.403078 279.962373 
L 219.630888 278.866567 
L 219.858698 280.382262 
L 220.086507 279.952132 
L 220.542127 277.924379 
L 220.769936 279.532244 
L 221.681175 291.965035 
L 222.136794 293.757241 
L 222.364604 292.845776 
L 222.592413 290.674646 
L 223.275842 279.143079 
L 223.503652 279.696103 
L 223.731461 279.173802 
L 223.959271 279.859961 
L 224.187081 279.091873 
L 224.6427 281.027456 
L 224.870509 279.030426 
L 225.098319 280.177438 
L 225.326129 279.962373 
L 225.553938 282.768456 
L 225.781748 281.580479 
L 226.009558 281.181073 
L 226.237367 282.174468 
L 226.465177 284.099809 
L 227.148606 291.872864 
L 227.376415 292.917464 
L 227.604225 293.286147 
L 227.832035 293.296388 
L 228.059844 291.883105 
L 228.971083 282.860627 
L 229.426702 280.761185 
L 229.654512 282.389533 
L 229.882321 281.887715 
L 230.110131 280.904562 
L 230.33794 281.785303 
L 230.79356 281.84675 
L 231.021369 282.317844 
L 231.476989 282.297362 
L 231.704798 283.229309 
L 232.388227 289.650528 
L 232.616037 291.92407 
L 233.071656 293.869894 
L 233.527275 292.733123 
L 234.894133 274.176107 
L 235.349752 278.272579 
L 235.577562 278.590055 
L 235.805372 276.070725 
L 236.260991 278.395473 
L 236.71661 276.756884 
L 236.94442 278.682226 
L 237.172229 279.644897 
L 237.855658 290.44934 
L 238.083468 292.405405 
L 238.539087 293.480729 
L 238.766897 292.579505 
L 238.994706 290.27524 
L 239.905945 274.698407 
L 240.133754 274.299001 
L 240.361564 275.896625 
L 240.589374 275.712284 
L 240.817183 275.671319 
L 241.044993 276.910502 
L 241.500612 276.71592 
L 241.728422 276.777367 
L 241.956231 277.227978 
L 242.184041 275.15926 
L 242.411851 275.292396 
L 242.86747 281.027456 
L 243.323089 290.572234 
L 243.550899 292.456611 
L 244.006518 293.931341 
L 244.234328 292.917464 
L 244.689947 287.274575 
L 245.145566 278.241855 
L 245.601185 275.917108 
L 246.056805 276.183378 
L 246.284614 277.074361 
L 246.512424 276.859296 
L 246.740234 277.463526 
L 246.968043 276.377961 
L 247.195853 276.121931 
L 247.651472 274.841784 
L 247.879282 275.845419 
L 248.107091 276.193619 
L 248.79052 289.783664 
L 249.246139 293.450005 
L 249.473949 293.286147 
L 249.701759 292.763846 
L 250.157378 286.649863 
L 250.612997 277.320149 
L 250.840807 274.944196 
L 251.068616 274.237554 
L 251.296426 275.722525 
L 251.524236 274.247796 
L 251.752045 276.244825 
L 251.979855 276.98219 
L 252.207665 275.93759 
L 252.663284 277.053878 
L 253.118903 275.200225 
L 253.346713 274.165866 
L 253.574522 278.897291 
L 253.802332 280.525638 
L 254.030142 286.393833 
L 254.485761 291.473458 
L 254.71357 293.204217 
L 254.94138 293.480729 
L 255.16919 292.27227 
L 255.396999 289.968005 
L 255.852619 280.832873 
L 256.080428 276.490614 
L 256.308238 276.101449 
L 256.536047 274.145384 
L 256.991667 274.71889 
L 257.219476 274.514066 
L 257.447286 275.343602 
L 257.675096 274.616478 
L 257.902905 275.405049 
L 258.130715 275.476737 
L 258.358525 275.200225 
L 258.586334 275.118296 
L 258.814144 272.414625 
L 259.497573 285.431163 
L 260.181002 292.712641 
L 260.408811 292.866258 
L 260.636621 292.456611 
L 260.86443 289.804146 
L 261.09224 285.676951 
L 261.32005 277.58642 
L 261.547859 273.725495 
L 262.459098 268.185018 
L 262.686907 265.532552 
L 262.914717 270.591695 
L 263.142527 269.403718 
L 263.370336 272.936925 
L 263.598146 272.107389 
L 263.825956 275.405049 
L 264.281575 277.381596 
L 264.509384 278.067755 
L 265.192813 288.636651 
L 265.648433 292.44637 
L 265.876242 293.204217 
L 266.104052 293.163252 
L 266.331861 291.063811 
L 266.787481 284.847415 
L 267.01529 279.962373 
L 267.47091 276.121931 
L 267.926529 278.436438 
L 268.154338 278.303302 
L 268.382148 278.784638 
L 268.609958 278.968979 
L 268.837767 278.661744 
L 269.065577 279.184044 
L 269.293387 280.587085 
L 269.521196 279.245491 
L 269.749006 279.306938 
L 269.976815 280.126232 
L 270.660244 289.169193 
L 271.115864 292.313235 
L 271.343673 293.624105 
L 271.571483 293.368076 
L 271.799292 292.333717 
L 272.254912 284.294392 
L 273.16615 269.014553 
L 273.39396 272.670654 
L 273.621769 273.377295 
L 273.849579 272.445348 
L 274.077389 270.20253 
L 274.305198 270.161565 
L 274.533008 270.827242 
L 274.760818 270.059153 
L 274.988627 263.566246 
L 275.444246 269.833848 
L 275.899866 284.704039 
L 276.355485 291.473458 
L 276.583295 293.040358 
L 276.811104 293.193976 
L 277.038914 291.954793 
L 277.266723 289.271605 
L 278.177962 267.027765 
L 278.633581 266.956076 
L 278.861391 265.890994 
L 279.0892 266.55667 
L 279.31701 268.348877 
L 279.54482 268.021159 
L 280.000439 270.919412 
L 280.228249 270.182048 
L 280.683868 267.1609 
L 281.139487 277.719555 
L 281.595106 288.196281 
L 282.050726 292.497576 
L 282.278535 293.019876 
L 282.506345 292.548782 
L 282.734155 290.029452 
L 282.961964 285.687192 
L 283.417583 273.807425 
L 283.645393 269.9465 
L 283.873203 270.458559 
L 284.101012 268.932624 
L 284.328822 270.02843 
L 284.556632 270.141083 
L 284.784441 269.536853 
L 285.012251 268.021159 
L 285.24006 271.021824 
L 285.46787 268.604906 
L 285.69568 269.372994 
L 285.923489 268.686836 
L 286.151299 268.492253 
L 286.606918 276.326755 
L 287.062537 287.110716 
L 287.518157 292.569264 
L 287.745966 293.183735 
L 287.973776 292.569264 
L 288.201586 290.152346 
L 288.657205 278.047273 
L 288.885014 272.691136 
L 289.340634 268.533218 
L 289.568443 268.144053 
L 289.796253 269.065759 
L 290.251872 269.516371 
L 290.479682 270.038671 
L 290.707491 270.233253 
L 290.935301 269.219377 
L 291.163111 269.485647 
L 291.61873 266.054853 
L 291.84654 269.065759 
L 292.302159 282.686527 
L 292.529968 287.735428 
L 292.757778 295.334382 
L 293.213397 292.221064 
L 293.441207 291.995758 
L 293.669017 289.681252 
L 293.896826 285.001033 
L 294.352445 270.591695 
L 294.808065 266.925353 
L 295.035874 266.689806 
L 295.263684 267.130176 
L 295.719303 269.116965 
L 295.947113 267.969953 
L 296.174922 267.908506 
L 296.402732 268.912141 
L 296.630542 266.915112 
L 296.858351 263.013223 
L 297.086161 264.764464 
L 297.313971 267.386206 
L 297.76959 280.484673 
L 298.225209 289.732458 
L 298.453019 291.944552 
L 298.680828 292.784329 
L 298.908638 291.657799 
L 299.136448 288.923404 
L 299.364257 284.253427 
L 299.819876 269.68023 
L 300.047686 267.355482 
L 300.503305 265.460864 
L 300.731115 268.840453 
L 301.186734 259.469775 
L 301.414544 264.959046 
L 301.642353 264.907841 
L 301.870163 268.942865 
L 302.097973 269.823606 
L 302.325782 269.076 
L 302.553592 269.127206 
L 303.92045 291.913829 
L 304.148259 293.163252 
L 304.376069 292.722882 
L 304.831688 287.387228 
L 305.287308 277.893655 
L 305.970736 268.010918 
L 306.654165 271.636295 
L 306.881975 271.800154 
L 307.109785 270.55073 
L 307.337594 271.902566 
L 307.565404 270.888689 
L 307.793213 270.857965 
L 308.021023 270.37663 
L 308.248833 272.455589 
L 309.160071 289.650528 
L 309.387881 292.026482 
L 309.8435 292.856017 
L 310.07131 291.043328 
L 310.299119 287.295057 
L 311.210358 262.193928 
L 311.438167 257.902874 
L 311.665977 262.142722 
L 311.893787 262.972258 
L 312.121596 262.275858 
L 312.349406 264.088546 
L 312.577216 260.99571 
L 312.805025 260.196898 
L 313.032835 257.708292 
L 313.260644 258.015527 
L 313.488454 254.584733 
L 314.399693 286.393833 
L 314.627502 290.285481 
L 314.855312 292.036723 
L 315.083121 292.640952 
L 315.310931 291.596352 
L 315.76655 282.215432 
L 316.22217 262.183687 
L 316.449979 257.923357 
L 316.677789 256.643209 
L 317.133408 257.329368 
L 317.589027 261.958381 
L 317.816837 258.937233 
L 318.044647 261.77404 
L 318.272456 260.391481 
L 318.500266 261.927658 
L 318.728075 256.530556 
L 318.955885 256.56128 
L 319.183695 265.880753 
L 319.411504 288.298693 
L 319.639314 280.167197 
L 319.867124 285.953463 
L 320.550552 292.630711 
L 320.778362 291.975276 
L 321.006172 288.298693 
L 321.233981 282.594356 
L 321.689601 264.436746 
L 321.91741 261.210775 
L 322.14522 260.780646 
L 322.373029 259.899904 
L 322.600839 260.749922 
L 323.284268 260.03304 
L 323.512078 259.060128 
L 323.739887 259.244469 
L 323.967697 257.319127 
L 324.195506 257.185992 
L 324.423316 255.967292 
L 324.651126 260.606546 
L 325.334555 285.861292 
L 326.017983 292.712641 
L 326.245793 291.862623 
L 326.473603 288.411346 
L 326.701412 282.563633 
L 327.157032 264.324093 
L 327.612651 259.398086 
L 327.84046 259.418569 
L 328.06827 258.55831 
L 328.29608 259.183022 
L 328.523889 260.893299 
L 328.751699 261.231257 
L 328.979509 261.261981 
L 329.207318 259.992075 
L 329.435128 257.728774 
L 329.662938 257.329368 
L 329.890747 254.830521 
L 330.118557 260.20714 
L 330.574176 279.306938 
L 331.029795 288.513757 
L 331.257605 291.268634 
L 331.485415 292.671676 
L 331.713224 291.432493 
L 331.941034 287.950493 
L 332.168843 282.491944 
L 332.624463 264.190958 
L 332.852272 263.054187 
L 333.307892 258.742651 
L 333.535701 260.82161 
L 333.763511 260.442687 
L 333.99132 260.391481 
L 334.21913 262.419234 
L 334.44694 259.817975 
L 334.674749 259.807734 
L 335.130369 252.065403 
L 335.358178 253.202173 
L 335.813797 268.3796 
L 336.041607 279.23525 
L 336.497226 288.698099 
L 336.725036 291.678282 
L 337.180655 291.975276 
L 337.408465 289.14871 
L 337.864084 273.295366 
L 338.091894 265.184352 
L 338.319703 262.685505 
L 338.547513 261.784281 
L 338.775323 259.992075 
L 339.003132 262.388511 
L 339.230942 260.360757 
L 339.458751 262.040311 
L 339.686561 261.446322 
L 339.914371 261.180052 
L 340.14218 259.520981 
L 340.36999 261.036675 
L 340.5978 261.692111 
L 340.825609 264.29337 
L 341.281228 272.189319 
L 341.736848 284.120292 
L 342.192467 291.371046 
L 342.420277 291.801176 
L 342.648086 291.596352 
L 342.875896 290.439099 
L 343.331515 277.535214 
L 344.014944 259.490257 
L 344.242754 259.387845 
L 344.470563 259.910145 
L 344.698373 259.285434 
L 344.926182 259.264951 
L 345.153992 260.893299 
L 345.609611 259.899904 
L 345.837421 261.579458 
L 346.065231 259.049886 
L 346.29304 263.986135 
L 346.52085 265.809064 
L 347.659898 290.889711 
L 347.887708 292.436129 
L 348.115517 292.169858 
L 348.343327 290.613199 
L 348.571136 285.625745 
L 349.026756 267.867541 
L 349.710185 241.00493 
L 349.937994 242.664001 
L 350.165804 243.237507 
L 350.849233 235.61807 
L 351.077042 230.118557 
L 351.304852 221.659343 
L 351.532662 221.556931 
L 351.760471 230.282416 
L 352.4439 274.688166 
L 352.899519 288.411346 
L 353.127329 291.299358 
L 353.355139 291.709005 
L 353.582948 290.869228 
L 353.810758 287.530604 
L 354.038568 279.23525 
L 354.494187 248.839431 
L 354.721996 243.688118 
L 354.949806 242.192906 
L 355.177616 242.623036 
L 355.633235 246.279137 
L 355.861045 249.576796 
L 356.088854 248.368337 
L 356.316664 246.146001 
L 356.544473 246.207448 
L 357.000093 231.234845 
L 357.227902 234.870464 
L 358.139141 283.444374 
L 358.36695 288.687857 
L 358.59476 290.910193 
L 358.82257 291.647558 
L 359.050379 291.463217 
L 359.278189 287.346263 
L 359.505999 279.470797 
L 359.961618 255.291374 
L 360.189427 252.382879 
L 360.417237 250.959355 
L 360.645047 251.164179 
L 361.100666 251.133455 
L 361.328476 253.34555 
L 361.556285 249.617761 
L 361.784095 251.819614 
L 362.239714 236.969905 
L 362.467524 232.709575 
L 362.695333 237.379552 
L 363.834381 289.138469 
L 364.062191 291.289117 
L 364.290001 292.067446 
L 364.51781 290.910193 
L 364.74562 287.192645 
L 364.97343 279.276214 
L 365.429049 256.56128 
L 365.656858 253.775679 
L 365.884668 253.181691 
L 366.112478 252.116608 
L 366.340287 251.983473 
L 366.568097 253.447962 
L 366.795907 253.714232 
L 367.023716 253.284103 
L 367.479335 247.077949 
L 367.934955 232.412581 
L 368.162764 237.369311 
L 368.390574 247.559284 
L 368.846193 277.484008 
L 369.301812 288.411346 
L 369.529622 290.910193 
L 369.757432 291.862623 
L 369.985241 290.828264 
L 370.213051 286.813722 
L 370.440861 279.132838 
L 370.89648 256.592004 
L 371.124289 251.52262 
L 371.352099 252.577462 
L 371.579909 252.638909 
L 371.807718 252.270226 
L 372.035528 254.64618 
L 372.263338 254.431115 
L 372.491147 255.363062 
L 372.718957 252.188297 
L 373.402386 228.101045 
L 373.858005 250.662361 
L 374.313624 278.835844 
L 374.769243 289.507152 
L 374.997053 291.821658 
L 375.224863 292.169858 
L 375.452672 291.473458 
L 375.680482 286.670345 
L 375.908292 278.989461 
L 376.363911 255.905845 
L 376.591721 250.82622 
L 377.04734 252.239503 
L 377.502959 249.863549 
L 377.730769 249.69969 
L 378.186388 250.938873 
L 378.869817 240.154912 
L 379.325436 254.574491 
L 380.008865 283.557027 
L 380.464484 291.115017 
L 380.920103 292.231305 
L 381.147913 288.27821 
L 381.375723 282.164227 
L 382.059152 246.176725 
L 382.286961 243.903183 
L 382.514771 236.611464 
L 382.74258 241.557953 
L 382.97039 240.513353 
L 383.1982 238.239811 
L 383.426009 240.216359 
L 383.653819 240.636247 
L 383.881629 234.450575 
L 384.109438 231.593287 
L 384.337248 233.160187 
L 385.248486 271.94353 
L 385.476296 282.297362 
L 385.931915 289.92704 
L 386.159725 291.534905 
L 386.387534 291.678282 
L 386.615344 288.841475 
L 386.843154 279.870203 
L 388.210011 199.743221 
L 388.437821 195.605785 
L 388.665631 195.687714 
L 389.12125 170.822132 
L 389.34906 139.658226 
L 389.576869 56.745644 
L 389.804679 95.375369 
L 390.260298 209.154864 
L 390.488108 249.576796 
L 390.943727 282.143744 
L 391.171537 287.602292 
L 391.627156 291.616834 
L 391.854965 290.193311 
L 392.082775 284.407045 
L 392.310585 270.263977 
L 392.766204 225.038932 
L 392.994014 221.157525 
L 393.221823 222.714185 
L 393.449633 223.287691 
L 393.677442 228.807686 
L 393.905252 230.84568 
L 394.133062 229.934216 
L 394.360871 228.131768 
L 394.816491 207.280728 
L 395.0443 174.560163 
L 395.27211 165.783473 
L 396.183348 271.390507 
L 396.411158 283.14738 
L 396.638968 288.657134 
L 397.094587 291.422252 
L 397.322396 290.090899 
L 397.550206 284.243186 
L 397.778016 272.179077 
L 398.005825 269.966983 
L 398.005825 269.966983 
" style="fill:none;stroke:#1f77b4;stroke-linecap:square;stroke-width:1.5;"/>
   </g>
   <g id="patch_3">
    <path d="M 57.6 307.584 
L 57.6 41.472 
" style="fill:none;stroke:#000000;stroke-linecap:square;stroke-linejoin:miter;stroke-width:0.8;"/>
   </g>
   <g id="patch_4">
    <path d="M 414.72 307.584 
L 414.72 41.472 
" style="fill:none;stroke:#000000;stroke-linecap:square;stroke-linejoin:miter;stroke-width:0.8;"/>
   </g>
   <g id="patch_5">
    <path d="M 57.6 307.584 
L 414.72 307.584 
" style="fill:none;stroke:#000000;stroke-linecap:square;stroke-linejoin:miter;stroke-width:0.8;"/>
   </g>
   <g id="patch_6">
    <path d="M 57.6 41.472 
L 414.72 41.472 
" style="fill:none;stroke:#000000;stroke-linecap:square;stroke-linejoin:miter;stroke-width:0.8;"/>
   </g>
   <g id="text_14">
    <!-- real_65.csv -->
    <defs>
     <path d="M 41.109375 46.296875 
Q 39.59375 47.171875 37.8125 47.578125 
Q 36.03125 48 33.890625 48 
Q 26.265625 48 22.1875 43.046875 
Q 18.109375 38.09375 18.109375 28.8125 
L 18.109375 0 
L 9.078125 0 
L 9.078125 54.6875 
L 18.109375 54.6875 
L 18.109375 46.1875 
Q 20.953125 51.171875 25.484375 53.578125 
Q 30.03125 56 36.53125 56 
Q 37.453125 56 38.578125 55.875 
Q 39.703125 55.765625 41.0625 55.515625 
z
" id="DejaVuSans-72"/>
     <path d="M 56.203125 29.59375 
L 56.203125 25.203125 
L 14.890625 25.203125 
Q 15.484375 15.921875 20.484375 11.0625 
Q 25.484375 6.203125 34.421875 6.203125 
Q 39.59375 6.203125 44.453125 7.46875 
Q 49.3125 8.734375 54.109375 11.28125 
L 54.109375 2.78125 
Q 49.265625 0.734375 44.1875 -0.34375 
Q 39.109375 -1.421875 33.890625 -1.421875 
Q 20.796875 -1.421875 13.15625 6.1875 
Q 5.515625 13.8125 5.515625 26.8125 
Q 5.515625 40.234375 12.765625 48.109375 
Q 20.015625 56 32.328125 56 
Q 43.359375 56 49.78125 48.890625 
Q 56.203125 41.796875 56.203125 29.59375 
z
M 47.21875 32.234375 
Q 47.125 39.59375 43.09375 43.984375 
Q 39.0625 48.390625 32.421875 48.390625 
Q 24.90625 48.390625 20.390625 44.140625 
Q 15.875 39.890625 15.1875 32.171875 
z
" id="DejaVuSans-65"/>
     <path d="M 34.28125 27.484375 
Q 23.390625 27.484375 19.1875 25 
Q 14.984375 22.515625 14.984375 16.5 
Q 14.984375 11.71875 18.140625 8.90625 
Q 21.296875 6.109375 26.703125 6.109375 
Q 34.1875 6.109375 38.703125 11.40625 
Q 43.21875 16.703125 43.21875 25.484375 
L 43.21875 27.484375 
z
M 52.203125 31.203125 
L 52.203125 0 
L 43.21875 0 
L 43.21875 8.296875 
Q 40.140625 3.328125 35.546875 0.953125 
Q 30.953125 -1.421875 24.3125 -1.421875 
Q 15.921875 -1.421875 10.953125 3.296875 
Q 6 8.015625 6 15.921875 
Q 6 25.140625 12.171875 29.828125 
Q 18.359375 34.515625 30.609375 34.515625 
L 43.21875 34.515625 
L 43.21875 35.40625 
Q 43.21875 41.609375 39.140625 45 
Q 35.0625 48.390625 27.6875 48.390625 
Q 23 48.390625 18.546875 47.265625 
Q 14.109375 46.140625 10.015625 43.890625 
L 10.015625 52.203125 
Q 14.9375 54.109375 19.578125 55.046875 
Q 24.21875 56 28.609375 56 
Q 40.484375 56 46.34375 49.84375 
Q 52.203125 43.703125 52.203125 31.203125 
z
" id="DejaVuSans-61"/>
     <path d="M 9.421875 75.984375 
L 18.40625 75.984375 
L 18.40625 0 
L 9.421875 0 
z
" id="DejaVuSans-6c"/>
     <path d="M 50.984375 -16.609375 
L 50.984375 -23.578125 
L -0.984375 -23.578125 
L -0.984375 -16.609375 
z
" id="DejaVuSans-5f"/>
     <path d="M 10.6875 12.40625 
L 21 12.40625 
L 21 0 
L 10.6875 0 
z
" id="DejaVuSans-2e"/>
     <path d="M 48.78125 52.59375 
L 48.78125 44.1875 
Q 44.96875 46.296875 41.140625 47.34375 
Q 37.3125 48.390625 33.40625 48.390625 
Q 24.65625 48.390625 19.8125 42.84375 
Q 14.984375 37.3125 14.984375 27.296875 
Q 14.984375 17.28125 19.8125 11.734375 
Q 24.65625 6.203125 33.40625 6.203125 
Q 37.3125 6.203125 41.140625 7.25 
Q 44.96875 8.296875 48.78125 10.40625 
L 48.78125 2.09375 
Q 45.015625 0.34375 40.984375 -0.53125 
Q 36.96875 -1.421875 32.421875 -1.421875 
Q 20.0625 -1.421875 12.78125 6.34375 
Q 5.515625 14.109375 5.515625 27.296875 
Q 5.515625 40.671875 12.859375 48.328125 
Q 20.21875 56 33.015625 56 
Q 37.15625 56 41.109375 55.140625 
Q 45.0625 54.296875 48.78125 52.59375 
z
" id="DejaVuSans-63"/>
     <path d="M 44.28125 53.078125 
L 44.28125 44.578125 
Q 40.484375 46.53125 36.375 47.5 
Q 32.28125 48.484375 27.875 48.484375 
Q 21.1875 48.484375 17.84375 46.4375 
Q 14.5 44.390625 14.5 40.28125 
Q 14.5 37.15625 16.890625 35.375 
Q 19.28125 33.59375 26.515625 31.984375 
L 29.59375 31.296875 
Q 39.15625 29.25 43.1875 25.515625 
Q 47.21875 21.78125 47.21875 15.09375 
Q 47.21875 7.46875 41.1875 3.015625 
Q 35.15625 -1.421875 24.609375 -1.421875 
Q 20.21875 -1.421875 15.453125 -0.5625 
Q 10.6875 0.296875 5.421875 2 
L 5.421875 11.28125 
Q 10.40625 8.6875 15.234375 7.390625 
Q 20.0625 6.109375 24.8125 6.109375 
Q 31.15625 6.109375 34.5625 8.28125 
Q 37.984375 10.453125 37.984375 14.40625 
Q 37.984375 18.0625 35.515625 20.015625 
Q 33.0625 21.96875 24.703125 23.78125 
L 21.578125 24.515625 
Q 13.234375 26.265625 9.515625 29.90625 
Q 5.8125 33.546875 5.8125 39.890625 
Q 5.8125 47.609375 11.28125 51.796875 
Q 16.75 56 26.8125 56 
Q 31.78125 56 36.171875 55.265625 
Q 40.578125 54.546875 44.28125 53.078125 
z
" id="DejaVuSans-73"/>
     <path d="M 2.984375 54.6875 
L 12.5 54.6875 
L 29.59375 8.796875 
L 46.6875 54.6875 
L 56.203125 54.6875 
L 35.6875 0 
L 23.484375 0 
z
" id="DejaVuSans-76"/>
    </defs>
    <g transform="translate(202.141875 35.472)scale(0.12 -0.12)">
     <use xlink:href="#DejaVuSans-72"/>
     <use x="41.082031" xlink:href="#DejaVuSans-65"/>
     <use x="102.605469" xlink:href="#DejaVuSans-61"/>
     <use x="163.884766" xlink:href="#DejaVuSans-6c"/>
     <use x="191.667969" xlink:href="#DejaVuSans-5f"/>
     <use x="241.667969" xlink:href="#DejaVuSans-36"/>
     <use x="305.291016" xlink:href="#DejaVuSans-35"/>
     <use x="368.914062" xlink:href="#DejaVuSans-2e"/>
     <use x="400.701172" xlink:href="#DejaVuSans-63"/>
     <use x="455.681641" xlink:href="#DejaVuSans-73"/>
     <use x="507.78125" xlink:href="#DejaVuSans-76"/>
    </g>
   </g>
   <g id="PathCollection_1">
    <defs>
     <path d="M -4.472136 4.472136 
L 4.472136 -4.472136 
M -4.472136 -4.472136 
L 4.472136 4.472136 
" id="m12cf28d665" style="stroke:#ffa500;stroke-width:1.5;"/>
    </defs>
    <g clip-path="url(#p630c02709c)">
     <use style="fill:#ffa500;stroke:#ffa500;stroke-width:1.5;" x="349.254565" xlink:href="#m12cf28d665" y="251.123214"/>
     <use style="fill:#ffa500;stroke:#ffa500;stroke-width:1.5;" x="349.482375" xlink:href="#m12cf28d665" y="241.00493"/>
     <use style="fill:#ffa500;stroke:#ffa500;stroke-width:1.5;" x="349.710185" xlink:href="#m12cf28d665" y="242.664001"/>
     <use style="fill:#ffa500;stroke:#ffa500;stroke-width:1.5;" x="349.937994" xlink:href="#m12cf28d665" y="243.237507"/>
     <use style="fill:#ffa500;stroke:#ffa500;stroke-width:1.5;" x="350.165804" xlink:href="#m12cf28d665" y="240.707935"/>
     <use style="fill:#ffa500;stroke:#ffa500;stroke-width:1.5;" x="350.393613" xlink:href="#m12cf28d665" y="237.922335"/>
     <use style="fill:#ffa500;stroke:#ffa500;stroke-width:1.5;" x="350.621423" xlink:href="#m12cf28d665" y="235.61807"/>
     <use style="fill:#ffa500;stroke:#ffa500;stroke-width:1.5;" x="350.849233" xlink:href="#m12cf28d665" y="230.118557"/>
     <use style="fill:#ffa500;stroke:#ffa500;stroke-width:1.5;" x="351.077042" xlink:href="#m12cf28d665" y="221.659343"/>
     <use style="fill:#ffa500;stroke:#ffa500;stroke-width:1.5;" x="351.304852" xlink:href="#m12cf28d665" y="221.556931"/>
     <use style="fill:#ffa500;stroke:#ffa500;stroke-width:1.5;" x="351.532662" xlink:href="#m12cf28d665" y="230.282416"/>
     <use style="fill:#ffa500;stroke:#ffa500;stroke-width:1.5;" x="351.760471" xlink:href="#m12cf28d665" y="246.56589"/>
     <use style="fill:#ffa500;stroke:#ffa500;stroke-width:1.5;" x="389.34906" xlink:href="#m12cf28d665" y="56.745644"/>
     <use style="fill:#ffa500;stroke:#ffa500;stroke-width:1.5;" x="389.576869" xlink:href="#m12cf28d665" y="95.375369"/>
     <use style="fill:#ffa500;stroke:#ffa500;stroke-width:1.5;" x="394.816491" xlink:href="#m12cf28d665" y="174.560163"/>
     <use style="fill:#ffa500;stroke:#ffa500;stroke-width:1.5;" x="395.0443" xlink:href="#m12cf28d665" y="165.783473"/>
     <use style="fill:#ffa500;stroke:#ffa500;stroke-width:1.5;" x="395.27211" xlink:href="#m12cf28d665" y="194.602149"/>
    </g>
   </g>
  </g>
 </g>
 <defs>
  <clipPath id="p630c02709c">
   <rect height="266.112" width="357.12" x="57.6" y="41.472"/>
  </clipPath>
 </defs>
</svg>
